<svg xmlns="http://www.w3.org/2000/svg" xmlns:xlink="http://www.w3.org/1999/xlink" width="50" height="50" viewBox="0 0 50 50">
  <defs>
    <clipPath id="clip-path">
      <rect id="Rectangle_403" data-name="Rectangle 403" width="50" height="50" transform="translate(305 20)" fill="#259cb8"/>
    </clipPath>
  </defs>
  <g id="Croix" transform="translate(-305 -20)" clip-path="url(#clip-path)">
    <path id="cross" d="M49.72,9.511A2.76,2.76,0,0,0,49.7,7.054a2.561,2.561,0,0,0-.933-2.391L46.507,2.8a3.376,3.376,0,0,0-4.69,0q-8.783,9.773-18.325,18.754C18.774,17.146,14,12.8,9.255,8.444a3.264,3.264,0,0,0-5.12.772A8.66,8.66,0,0,0,.351,12.644a2.623,2.623,0,0,0,0,2.621C3.412,20.754,9.33,25.58,14.195,30.021c-.651.583-1.3,1.171-1.961,1.741-6.555,5.629-10.976,9.2-2.773,14.972.111.078.224.061.336.106a1.824,1.824,0,0,0,.482.152,1.344,1.344,0,0,0,.158.007,1.808,1.808,0,0,0,.505.023c4.41-.865,8.511-4.321,12.233-8.126C26.8,42.47,30.659,45.883,34.9,47.909a2.817,2.817,0,0,0,2.993-.473,3.283,3.283,0,0,0,3.091-1.877c.088-.055.145-.086.241-.146a3.346,3.346,0,0,0,.666-5.171c-3.169-3.672-6.537-7.163-9.971-10.592C38.106,23.609,45.827,17.093,49.72,9.511Z" transform="translate(305 20)" fill="#259cb8"/>
  </g>
</svg>
