<svg xmlns="http://www.w3.org/2000/svg" width="50" height="50" viewBox="0 0 50 50">
  <g id="Menu" transform="translate(-16.76 -16.8)">
    <path id="Tracé_252" data-name="Tracé 252" d="M27.764,27.432h0a84.111,84.111,0,0,0,1-8.662,1.593,1.593,0,0,0-1.5-1.668h-.194q-4.182-.262-8.378-.262h0a1.952,1.952,0,0,0-1.937,1.945c0,2.79.09,5.588.269,8.378v.194a1.578,1.578,0,0,0,1.653,1.5,86.522,86.522,0,0,0,8.73-1.077c.172,0,0-.314-.314-.658a2.513,2.513,0,0,0-.928-.651h-.045c-2.072-.3-3.912-.628-5.663-.838.09-1.661.142-3.314.172-4.967q2.469,0,4.952-.165c.209,1.758.546,3.6.838,5.685h0a2.9,2.9,0,0,0,.673.943C27.412,27.47,27.734,27.612,27.764,27.432Z" transform="translate(0 -0.01)"/>
    <path id="Tracé_253" data-name="Tracé 253" d="M52.974,27.422h0a84.112,84.112,0,0,0,.995-8.692,1.593,1.593,0,0,0-1.5-1.668h-.194Q48.089,16.8,43.9,16.8h0A1.952,1.952,0,0,0,42,18.73c0,2.79.09,5.588.269,8.378V27.3a1.578,1.578,0,0,0,1.653,1.5,86.518,86.518,0,0,0,8.692-1.01c.172,0,0-.314-.314-.658a2.513,2.513,0,0,0-.928-.651h-.045c-2.072-.3-3.912-.628-5.663-.838.09-1.661.142-3.314.172-4.967q2.469,0,4.952-.165c.209,1.758.546,3.6.838,5.685h0a2.9,2.9,0,0,0,.673.943C52.645,27.46,52.944,27.6,52.974,27.422Z" transform="translate(-6.214)"/>
    <path id="Tracé_254" data-name="Tracé 254" d="M78.164,27.432h0a84.1,84.1,0,0,0,1-8.662,1.593,1.593,0,0,0-1.5-1.668h-.195q-4.182-.262-8.378-.262h0a1.952,1.952,0,0,0-1.937,1.945c0,2.79.09,5.588.269,8.378v.194a1.578,1.578,0,0,0,1.653,1.5,86.52,86.52,0,0,0,8.692-1.01c.172,0,0-.314-.314-.658a2.514,2.514,0,0,0-.928-.651h-.045c-2.072-.3-3.912-.628-5.663-.838.09-1.661.142-3.314.172-4.967q2.469,0,4.952-.165c.209,1.758.546,3.6.838,5.685h0a2.9,2.9,0,0,0,.673.943C77.835,27.47,78.134,27.612,78.164,27.432Z" transform="translate(-12.408 -0.01)"/>
    <path id="Tracé_255" data-name="Tracé 255" d="M27.769,52.645v-.052a84.109,84.109,0,0,0,1-8.662,1.593,1.593,0,0,0-1.5-1.668h-.194Q22.929,42,18.717,42h0a1.952,1.952,0,0,0-1.937,1.945c0,2.79.09,5.588.269,8.378v.194a1.578,1.578,0,0,0,1.653,1.5,86.521,86.521,0,0,0,8.715-1.047c.172,0,0-.314-.314-.658a2.513,2.513,0,0,0-.928-.651h-.045c-2.072-.3-3.912-.628-5.663-.838.09-1.661.142-3.314.172-4.967q2.469,0,4.952-.165c.209,1.758.546,3.6.838,5.685h0a2.9,2.9,0,0,0,.673.943C27.417,52.66,27.739,52.8,27.769,52.645Z" transform="translate(-0.005 -6.208)"/>
    <path id="Tracé_256" data-name="Tracé 256" d="M42.254,52.308V52.5A1.578,1.578,0,0,0,43.908,54a86.521,86.521,0,0,0,8.692-1.01c.172,0,0-.314-.314-.658a2.513,2.513,0,0,0-.928-.651h-.045c-2.072-.3-3.912-.628-5.663-.838.09-1.661.142-3.314.172-4.967q2.469,0,4.952-.165c.209,1.758.546,3.6.838,5.685h0a2.9,2.9,0,0,0,.673.943c.344.352.643.494.673.337v-.052a84.112,84.112,0,0,0,1.01-8.692,1.593,1.593,0,0,0-1.5-1.668h-.194Q48.119,42,43.923,42h0A1.952,1.952,0,0,0,42,43.93C42,46.72,42.075,49.518,42.254,52.308Z" transform="translate(-6.214 -6.208)"/>
    <path id="Tracé_257" data-name="Tracé 257" d="M67.449,52.308V52.5A1.578,1.578,0,0,0,69.1,54a86.521,86.521,0,0,0,8.692-1.01c.172,0,0-.314-.314-.658a2.514,2.514,0,0,0-.928-.651h-.045c-2.072-.3-3.912-.628-5.663-.838.09-1.661.142-3.314.172-4.967q2.469,0,4.952-.165c.209,1.758.546,3.6.838,5.685h0a2.9,2.9,0,0,0,.673.943c.344.352.643.494.673.337v-.052a84.108,84.108,0,0,0,1-8.662,1.593,1.593,0,0,0-1.5-1.668h-.194Q73.314,42,69.117,42h0a1.952,1.952,0,0,0-1.937,1.945C67.18,46.72,67.27,49.518,67.449,52.308Z" transform="translate(-12.413 -6.208)"/>
    <path id="Tracé_258" data-name="Tracé 258" d="M17.059,77.708a1.578,1.578,0,0,0,1.653,1.5,86.517,86.517,0,0,0,8.7-1.032c.172,0,0-.314-.314-.658a2.513,2.513,0,0,0-.928-.651h-.045c-2.08-.307-3.95-.636-5.67-.83.09-1.661.142-3.314.172-4.967q2.469,0,4.952-.165c.209,1.758.546,3.6.838,5.685h0a2.9,2.9,0,0,0,.673.943c.344.352.643.494.673.337v-.052a84.109,84.109,0,0,0,1-8.662,1.593,1.593,0,0,0-1.5-1.668h-.194q-4.182-.254-8.378-.262h0a1.952,1.952,0,0,0-1.937,1.945c0,2.79.09,5.588.269,8.378Z" transform="translate(0 -12.421)"/>
    <path id="Tracé_259" data-name="Tracé 259" d="M42.254,77.523v.194a1.578,1.578,0,0,0,1.653,1.5A86.523,86.523,0,0,0,52.6,78.2c.172,0,0-.314-.314-.658a2.514,2.514,0,0,0-.928-.651h-.045c-2.072-.3-3.912-.628-5.663-.838.09-1.661.142-3.314.172-4.967q2.469,0,4.952-.165c.209,1.758.546,3.6.838,5.685h0a2.9,2.9,0,0,0,.673.943c.344.352.643.494.673.337v-.052a84.113,84.113,0,0,0,1.01-8.707,1.593,1.593,0,0,0-1.5-1.668h-.194q-4.189-.254-8.378-.262h0A1.952,1.952,0,0,0,42,69.13C42,71.92,42.075,74.718,42.254,77.523Z" transform="translate(-6.214 -12.416)"/>
    <path id="Tracé_260" data-name="Tracé 260" d="M78.164,77.845v-.052a84.108,84.108,0,0,0,1-8.662,1.593,1.593,0,0,0-1.5-1.668h-.195q-4.182-.254-8.378-.262h0a1.952,1.952,0,0,0-1.937,1.945c0,2.79.09,5.588.269,8.378v.194a1.578,1.578,0,0,0,1.653,1.5,86.521,86.521,0,0,0,8.692-1.01c.172,0,0-.314-.314-.658a2.514,2.514,0,0,0-.928-.651h-.045c-2.072-.3-3.912-.628-5.663-.838.09-1.661.142-3.314.172-4.967q2.469,0,4.952-.165c.209,1.758.546,3.6.838,5.685h0a2.9,2.9,0,0,0,.726.913C77.835,77.86,78.134,78,78.164,77.845Z" transform="translate(-12.408 -12.416)"/>
  </g>
</svg>
