<svg xmlns="http://www.w3.org/2000/svg" width="25" height="25" viewBox="0 0 25 25">
  <g id="noun_Mail_1988539" transform="translate(-1.67 -1.67)">
    <g id="Groupe_245" data-name="Groupe 245" transform="translate(1.67 1.67)">
      <path id="Tracé_1003" data-name="Tracé 1003" d="M21.014,13.166v4.718a1.862,1.862,0,0,1-1.844,1.844h-10a1.85,1.85,0,0,1-1.844-1.844V10.456A1.847,1.847,0,0,1,9.171,8.612h10a1.853,1.853,0,0,1,1.844,1.844Zm-.861-1.329-4.441,2.708a2.969,2.969,0,0,1-3.109,0L8.188,11.935v5.949a.989.989,0,0,0,.983.983h10a1,1,0,0,0,.983-.983V11.837Zm-11.965-.9,4.852,2.871a2.115,2.115,0,0,0,2.222,0l4.891-2.982v-.372a.992.992,0,0,0-.983-.983h-10a.987.987,0,0,0-.983.983v.481ZM7.732,4.479a.43.43,0,0,1-.478-.714A12.285,12.285,0,0,1,14.17,1.67,12.5,12.5,0,1,1,3.8,7.182a.43.43,0,0,1,.714.481A11.641,11.641,0,1,0,14.17,2.531,11.455,11.455,0,0,0,7.732,4.479Z" transform="translate(-1.67 -1.67)" fill="#fff"/>
    </g>
  </g>
</svg>
