<svg id="Photoshop" xmlns="http://www.w3.org/2000/svg" width="59.947" height="60" viewBox="0 0 59.947 60">
  <g id="Groupe_221" data-name="Groupe 221" transform="translate(0 0)">
    <path id="Tracé_347" data-name="Tracé 347" d="M45.1,73.443a28.321,28.321,0,1,1,28.3-28.321A28.361,28.361,0,0,1,45.1,73.443Z" transform="translate(-15.121 -15.121)" fill="#001d26"/>
    <path id="Tracé_348" data-name="Tracé 348" d="M43.974,17.42A26.58,26.58,0,1,1,17.417,44,26.619,26.619,0,0,1,43.974,17.42m0-3.42A30,30,0,1,0,73.947,44,30,30,0,0,0,43.974,14Z" transform="translate(-14 -14)" fill="#31c5f0"/>
  </g>
  <path id="Tracé_349" data-name="Tracé 349" d="M65.68,53.172c-1.679,0-2.278.839-2.278,1.559,0,.779.36,1.319,2.638,2.458,3.357,1.619,4.436,3.177,4.436,5.455,0,3.417-2.638,5.275-6.175,5.275a9.182,9.182,0,0,1-4.376-.9.362.362,0,0,1-.18-.36V63.543c0-.24.12-.3.24-.18A7.678,7.678,0,0,0,64.3,64.622c1.679,0,2.4-.719,2.4-1.679,0-.779-.48-1.439-2.638-2.578-3.057-1.439-4.316-2.937-4.316-5.4,0-2.758,2.158-5.036,5.935-5.036a10.283,10.283,0,0,1,3.837.6.519.519,0,0,1,.24.42v2.937c0,.18-.12.3-.3.24a7.345,7.345,0,0,0-3.777-.959Zm-18.4,2.578a13.632,13.632,0,0,0,1.738.06c2.518,0,4.856-.9,4.856-4.256,0-2.7-1.679-4.076-4.556-4.076-.839,0-1.679.06-2.038.06V55.75ZM43.5,44.36c0-.12.3-.24.48-.24,1.379-.06,3.417-.12,5.515-.12,5.935,0,8.213,3.237,8.213,7.433,0,5.455-3.957,7.793-8.752,7.793-.839,0-1.079-.06-1.679-.06v8.213c0,.18-.06.24-.24.24h-3.3c-.18,0-.24-.06-.24-.24V44.36Z" transform="translate(-25.816 -25.989)" fill="#31c5f0"/>
</svg>
