<svg id="Composant_22_1" data-name="Composant 22 – 1" xmlns="http://www.w3.org/2000/svg" width="59.947" height="60" viewBox="0 0 59.947 60">
  <g id="Indesign">
    <g id="Groupe_205" data-name="Groupe 205">
      <path id="Tracé_335" data-name="Tracé 335" d="M45.1,73.443a28.321,28.321,0,1,1,28.3-28.321A28.361,28.361,0,0,1,45.1,73.443Z" transform="translate(-15.121 -15.121)" fill="#26000f"/>
      <path id="Tracé_336" data-name="Tracé 336" d="M43.974,17.42A26.58,26.58,0,1,1,17.417,44,26.619,26.619,0,0,1,43.974,17.42m0-3.42A30,30,0,1,0,73.947,44,30,30,0,0,0,43.974,14Z" transform="translate(-14 -14)" fill="#ff408c"/>
    </g>
  </g>
  <g id="Groupe_235" data-name="Groupe 235" transform="translate(11.773 8.828)">
    <text id="Xd" transform="translate(0 33)" fill="#ff408c" font-size="35" font-family="Calibri"><tspan x="0" y="0">Xd</tspan></text>
  </g>
</svg>
