<svg id="CSS" xmlns="http://www.w3.org/2000/svg" width="59" height="60" viewBox="0 0 59 60">
  <g id="Groupe_209" data-name="Groupe 209" transform="translate(0 0)">
    <g id="Groupe_208" data-name="Groupe 208">
      <ellipse id="Ellipse_10" data-name="Ellipse 10" cx="29.5" cy="30" rx="29.5" ry="30" fill="#2196f3"/>
    </g>
    <g id="CSS-2" data-name="CSS" transform="translate(15.177 10.572)">
      <path id="Tracé_303" data-name="Tracé 303" d="M32,0l2.6,29.171,11.653,3.241L57.9,29.173,60.5,0Z" transform="translate(-32 6.542)" fill="#fff"/>
      <path id="Tracé_304" data-name="Tracé 304" d="M131.648,97.887l-.323,3.771-.975,11.3-7.279,2.091-.006,0-7.275-2.093-.508-5.912h3.564l.265,3.066,3.956,1.109,0,0,3.962-1.109.54-5.109-12.459.035-.353-3.494,13.111-.161.265-3.74-13.727.04-.231-3.479h17.789Z" transform="translate(-108.823 -82.155)" fill="#2196f3"/>
      <g id="Groupe_179" data-name="Groupe 179" transform="translate(4.696)">
        <path id="Tracé_294" data-name="Tracé 294" d="M98.73,4.6v0Z" transform="translate(-98.73 -1.355)" fill="#fff"/>
      </g>
    </g>
  </g>
</svg>
