<svg xmlns="http://www.w3.org/2000/svg" width="50" height="57.984" viewBox="0 0 50 57.984">
  <g id="Logo_certificat" data-name="Logo certificat" transform="translate(-4.5 -1)">
    <path id="Tracé_997" data-name="Tracé 997" d="M9.372,54.944h26.8c-.116.928-.812,2.088.116,3.248a2.115,2.115,0,0,0,2.552.58l3.48-1.624,3.6,1.624a2.15,2.15,0,0,0,3.016-2.32L47.423,49.26a12.069,12.069,0,0,0-2.784-22.854V5.988A4.951,4.951,0,0,0,39.651,1H9.488A4.951,4.951,0,0,0,4.5,5.988V50.072A4.9,4.9,0,0,0,9.372,54.944ZM45.1,50.072l1.392,6.5-3.712-1.624a1.271,1.271,0,0,0-.928,0l-3.6,1.624,1.508-6.5a11.31,11.31,0,0,0,2.9.232A9.1,9.1,0,0,0,45.1,50.072Zm6.961-11.717a9.687,9.687,0,1,1-19.374,0,9.8,9.8,0,0,1,9.745-9.745A9.7,9.7,0,0,1,52.064,38.355ZM6.82,5.988A2.6,2.6,0,0,1,9.372,3.32H39.535A2.625,2.625,0,0,1,42.2,5.988v20.3c-12.761.116-16.473,17.865-4.64,23.086l-.812,3.364H9.372A2.625,2.625,0,0,1,6.7,50.072V5.988Z" transform="translate(0)" fill="#fff"/>
    <path id="Tracé_998" data-name="Tracé 998" d="M31.2,34.222A7.022,7.022,0,1,0,38.222,27.2,7.042,7.042,0,0,0,31.2,34.222Zm11.586,0A4.681,4.681,0,1,1,38.1,29.541,4.695,4.695,0,0,1,42.786,34.222Z" transform="translate(4.107 4.11)" fill="#fff"/>
    <path id="Tracé_999" data-name="Tracé 999" d="M11.07,10.341H34.476a1.106,1.106,0,0,0,1.17-1.17A1.106,1.106,0,0,0,34.476,8H11.07A1.106,1.106,0,0,0,9.9,9.17,1.173,1.173,0,0,0,11.07,10.341Z" transform="translate(0.92 1.192)" fill="#fff"/>
    <path id="Tracé_1000" data-name="Tracé 1000" d="M11.07,16.541H34.476a1.17,1.17,0,1,0,0-2.341H11.07A1.106,1.106,0,0,0,9.9,15.37,1.173,1.173,0,0,0,11.07,16.541Z" transform="translate(0.92 2.108)" fill="#fff"/>
    <path id="Tracé_1001" data-name="Tracé 1001" d="M11.07,22.841H34.476a1.17,1.17,0,0,0,0-2.341H11.07A1.106,1.106,0,0,0,9.9,21.67,1.173,1.173,0,0,0,11.07,22.841Z" transform="translate(0.92 3.114)" fill="#fff"/>
  </g>
</svg>
