<svg xmlns="http://www.w3.org/2000/svg" width="60" height="60" viewBox="0 0 60 60">
  <g id="Github" transform="translate(-0.45)">
    <g id="Groupe_196" data-name="Groupe 196" transform="translate(10.986 15.168)">
      <path id="Tracé_329" data-name="Tracé 329" d="M66.584,43.247A14.41,14.41,0,0,0,56.33,39a14.624,14.624,0,0,0-9.344,3.4l-.971.789a12.773,12.773,0,0,0-1.517-.121h-.182a12.525,12.525,0,0,0-8.676,3.64,12.451,12.451,0,0,0,0,17.6,12.433,12.433,0,0,0,8.858,3.64H56.573a11.968,11.968,0,0,0,2.912-.364,10.992,10.992,0,0,0,1.881-.546,14.259,14.259,0,0,0,5.218-3.337A14.464,14.464,0,0,0,66.584,43.247ZM44.5,64.543a8.709,8.709,0,0,1-6.371-2.67,9.008,9.008,0,0,1,0-12.741,9.21,9.21,0,0,1,6.371-2.67h.061a9.921,9.921,0,0,1,1.335.121,11.477,11.477,0,0,1,1.4.3,8.563,8.563,0,0,1,2.366,1.153,6.126,6.126,0,0,1,.971.789c.121.061.182.182.3.243l.607.607,2.973,2.973a1.244,1.244,0,0,1-.91,2.124,1.338,1.338,0,0,1-.91-.364l-3.034-3.034-.607-.607-.3-.3a6.431,6.431,0,0,0-3.034-1.456A8.223,8.223,0,0,0,44.5,48.89h-.182a6.809,6.809,0,0,0-4.429,1.881A6.462,6.462,0,0,0,44.5,61.813h1.153l1.031,1.031a20.2,20.2,0,0,0,1.7,1.517l-3.883.182Zm19.6-3.216a10.75,10.75,0,0,1-4,2.548,12.23,12.23,0,0,1-1.4.425,9.1,9.1,0,0,1-2.245.243h-.182a11.31,11.31,0,0,1-7.038-2.488c-.243-.243-.546-.485-.789-.728l-.485-.485-1.274-1.274-3.4-3.4a1.244,1.244,0,0,1,.91-2.124,1.338,1.338,0,0,1,.91.364l5.157,5.157h0a10.366,10.366,0,0,0,1.577,1.274,8.236,8.236,0,0,0,4.49,1.274,8.145,8.145,0,0,0,2.124-.243,7.137,7.137,0,0,0,1.213-.425,9.759,9.759,0,0,0,2.73-1.82,8.532,8.532,0,0,0,0-12.074,8.632,8.632,0,0,0-10.86-1.031,12.971,12.971,0,0,0-2.306-1.4,11.146,11.146,0,0,1,14.926.667A10.9,10.9,0,0,1,64.1,61.328Z" transform="translate(-32 -39)" fill="#fff"/>
    </g>
    <g id="Groupe_201" data-name="Groupe 201" transform="translate(0 0)">
      <g id="Groupe_198" data-name="Groupe 198">
        <g id="Groupe_197" data-name="Groupe 197">
          <circle id="Ellipse_7" data-name="Ellipse 7" cx="30" cy="30" r="30" transform="translate(0.45)" fill="#9cdaf0"/>
        </g>
      </g>
      <g id="Groupe_200" data-name="Groupe 200" transform="translate(10.986 10.921)">
        <g id="Groupe_199" data-name="Groupe 199">
          <path id="Tracé_330" data-name="Tracé 330" d="M54.449,58.878c3.762-.425,7.827-1.82,7.827-8.373a6.655,6.655,0,0,0-1.7-4.55,6.153,6.153,0,0,0-.182-4.49s-1.4-.425-4.611,1.7a17.566,17.566,0,0,0-4.308-.607,16.784,16.784,0,0,0-4.308.607c-3.276-2.184-4.672-1.7-4.672-1.7a6.18,6.18,0,0,0-.182,4.49,6.382,6.382,0,0,0-1.7,4.55c0,6.553,4,7.887,7.827,8.373a3.909,3.909,0,0,0-1.092,2.306,3.642,3.642,0,0,1-4.975-1.4,3.441,3.441,0,0,0-2.609-1.7s-1.7-.061-.121,1.031a4.412,4.412,0,0,1,1.881,2.488s1.031,3.276,5.764,2.245v2.912c0,.425-.364.971-1.213.849a17.16,17.16,0,0,1-11.649-16.2A16.988,16.988,0,1,1,56.815,67.554.891.891,0,0,1,55.6,66.7V61.972a3.887,3.887,0,0,0-1.153-3.094Zm16.382-7.463A19.415,19.415,0,1,0,51.415,70.831,19.394,19.394,0,0,0,70.831,51.415Z" transform="translate(-32 -32)" fill="#201f1f"/>
        </g>
      </g>
    </g>
  </g>
</svg>
