<svg id="Groupe_170" data-name="Groupe 170" xmlns="http://www.w3.org/2000/svg" width="50" height="50" viewBox="0 0 50 50">
  <path id="Tracé_293" data-name="Tracé 293" d="M49.167,23.333H45.833V22.5H47.5a.833.833,0,0,0,.833-.833v-2.5a.833.833,0,0,0-.833-.833H45.833V17.5A.833.833,0,0,0,45,16.667H40a.833.833,0,0,0-.833.833v5.833H36.231l1.21-3.024a.834.834,0,0,0,.046-.459l-.173-.955a10.789,10.789,0,0,0-6.984-8.24,6.667,6.667,0,1,0-10.657,0,10.787,10.787,0,0,0-6.983,8.239l-.174.955a.834.834,0,0,0,.046.459l1.21,3.024h-2.1V18.18a2.494,2.494,0,0,0-.833-4.846H2.5a.833.833,0,0,0-.833.833V16.82A2.477,2.477,0,0,0,.65,20.833a2.444,2.444,0,0,0-.4,2.739A.829.829,0,0,0,0,24.167V27.5a.833.833,0,0,0,.833.833H2.5V49.167A.833.833,0,0,0,3.333,50H6.667a.833.833,0,0,0,.833-.833V28.333h7.521a4.126,4.126,0,0,0-.855,2.5v2.5H12.5a.833.833,0,0,0-.833.833V50h1.667V35H16.1l1.134,11.481a3.313,3.313,0,0,0-.564,1.852v.833A.833.833,0,0,0,17.5,50h5a.833.833,0,0,0,.833-.833v-.833a3.313,3.313,0,0,0-.564-1.852L23.9,35h2.2l1.258,11.317a3.3,3.3,0,0,0-.7,2.016v.833A.833.833,0,0,0,27.5,50h5a.833.833,0,0,0,.833-.833v-.833a3.3,3.3,0,0,0-.7-2.016L33.892,35h2.774V50h1.667V34.167a.833.833,0,0,0-.833-.833H35.833v-2.5a4.126,4.126,0,0,0-.855-2.5H42.5V49.167a.833.833,0,0,0,.833.833h3.333a.833.833,0,0,0,.833-.833V28.333h1.667A.833.833,0,0,0,50,27.5V24.167A.833.833,0,0,0,49.167,23.333ZM45.833,20h.833v.833h-.833Zm-5-1.667h3.333v5H40.833ZM25,1.667a5,5,0,1,1-5,5A5.005,5.005,0,0,1,25,1.667ZM14.328,19.194A9.127,9.127,0,0,1,21,11.987a6.616,6.616,0,0,0,8,0,9.129,9.129,0,0,1,6.673,7.207l.131.719-1.368,3.42H32.5v-7.5A.833.833,0,0,0,31.667,15H18.333a.833.833,0,0,0-.833.833v7.5H15.564L14.2,19.913Zm16.506-2.527v6.667H19.167V16.667ZM3.333,15h7.5a.833.833,0,0,1,0,1.667h-7.5ZM2.5,18.333H10V20H2.5a.833.833,0,1,1,0-1.667Zm0,3.333H10v1.667H2.5a.833.833,0,1,1,0-1.667ZM5.833,48.333H4.167v-20H5.833Zm12.5,0a1.667,1.667,0,1,1,3.333,0ZM22.319,34.08l-1.1,11.158a3.235,3.235,0,0,0-2.434,0l-1.1-11.122a2.3,2.3,0,0,1,.632-1.723,2.374,2.374,0,0,1,3.371,0A2.285,2.285,0,0,1,22.319,34.08Zm6.014,14.254a1.667,1.667,0,1,1,3.333,0ZM32.32,34.07,31.084,45.2a3.092,3.092,0,0,0-2.168,0L27.683,34.115a2.3,2.3,0,0,1,.632-1.723,2.374,2.374,0,0,1,3.371,0A2.281,2.281,0,0,1,32.32,34.07Zm1.847-.736h-.238a3.978,3.978,0,0,0-7.852,0H23.929a3.978,3.978,0,0,0-7.853,0h-.242v-2.5a2.5,2.5,0,0,1,2.5-2.5H31.667a2.5,2.5,0,0,1,2.5,2.5Zm11.667,15H44.167v-20h1.667Zm2.5-21.667H1.667V25H48.333Z" transform="translate(0)" fill="#fff"/>
</svg>
