<svg id="Illustrator" xmlns="http://www.w3.org/2000/svg" width="59.947" height="60" viewBox="0 0 59.947 60">
  <g id="Groupe_202" data-name="Groupe 202" transform="translate(0 0)">
    <path id="Tracé_331" data-name="Tracé 331" d="M45.1,73.443a28.321,28.321,0,1,1,28.3-28.321A28.361,28.361,0,0,1,45.1,73.443Z" transform="translate(-15.121 -15.121)" fill="#261300"/>
    <path id="Tracé_332" data-name="Tracé 332" d="M43.974,17.42A26.58,26.58,0,1,1,17.417,44,26.619,26.619,0,0,1,43.974,17.42m0-3.42A30,30,0,1,0,73.947,44,30,30,0,0,0,43.974,14Z" transform="translate(-14 -14)" fill="#ff7f18"/>
  </g>
  <path id="Tracé_333" data-name="Tracé 333" d="M63.1,49.894c0-.18.06-.24.24-.24h3.417c.18,0,.24.06.24.24V67.218c0,.18-.06.24-.24.24H63.341c-.24,0-.3-.12-.3-.3l.06-17.265Zm-.24-4.976a2.218,2.218,0,1,1,2.158,2.218A2.031,2.031,0,0,1,62.861,44.918ZM52.97,57.087c-.6-2.458-2.038-7.733-2.638-10.311h-.06c-.48,2.578-1.619,6.894-2.518,10.311Zm-6.055,3.6-1.738,6.594c-.06.18-.12.24-.3.24H41.64c-.24,0-.24-.06-.24-.3l6.234-21.761a6.984,6.984,0,0,0,.24-1.8c0-.18.06-.24.18-.24H52.67c.18,0,.24.06.24.24l6.954,23.679c.06.18,0,.3-.18.3H56.027c-.18,0-.3-.06-.3-.18l-1.8-6.594H46.915Z" transform="translate(-24.974 -25.469)" fill="#ff7f18"/>
</svg>
