<svg id="Indesign" xmlns="http://www.w3.org/2000/svg" width="59.947" height="60" viewBox="0 0 59.947 60">
  <g id="Groupe_205" data-name="Groupe 205" transform="translate(0 0)">
    <path id="Tracé_335" data-name="Tracé 335" d="M45.1,73.443a28.321,28.321,0,1,1,28.3-28.321A28.361,28.361,0,0,1,45.1,73.443Z" transform="translate(-15.121 -15.121)" fill="#26000f"/>
    <path id="Tracé_336" data-name="Tracé 336" d="M43.974,17.42A26.58,26.58,0,1,1,17.417,44,26.619,26.619,0,0,1,43.974,17.42m0-3.42A30,30,0,1,0,73.947,44,30,30,0,0,0,43.974,14Z" transform="translate(-14 -14)" fill="#ff408c"/>
  </g>
  <path id="Tracé_337" data-name="Tracé 337" d="M63.584,53.412a2.625,2.625,0,0,0-1.259-.24c-2.758,0-4.736,2.158-4.736,5.695,0,4.016,1.978,5.695,4.436,5.695a3.936,3.936,0,0,0,1.5-.24V53.412Zm-1.139-3.537a6.884,6.884,0,0,1,1.139.06V44.24a.22.22,0,0,1,.24-.24H67.3c.18,0,.24.06.24.18V64.262a14.152,14.152,0,0,0,.12,2.158c0,.18-.06.18-.18.24a12.82,12.82,0,0,1-5.635,1.259c-4.736,0-8.153-2.937-8.153-8.932-.12-5.1,3.3-9.112,8.752-9.112ZM49.8,67.379c0,.24-.06.3-.3.3H46.2c-.24,0-.3-.12-.3-.3V44.3c0-.24.12-.3.3-.3h3.357c.18,0,.24.06.24.24Z" transform="translate(-26.777 -25.989)" fill="#ff408c"/>
</svg>
