<svg id="JavaScript" xmlns="http://www.w3.org/2000/svg" width="59" height="60" viewBox="0 0 59 60">
  <g id="Groupe_188" data-name="Groupe 188" transform="translate(0 0)">
    <g id="Groupe_187" data-name="Groupe 187">
      <ellipse id="Ellipse_4" data-name="Ellipse 4" cx="29.5" cy="30" rx="29.5" ry="30" fill="#f0db4f"/>
    </g>
  </g>
  <g id="Layer_1_1_" transform="translate(13.633 18.273)">
    <g id="Groupe_190" data-name="Groupe 190">
      <g id="Groupe_189" data-name="Groupe 189">
        <path id="Tracé_326" data-name="Tracé 326" d="M43.752,44.6h5.153V59.112c0,6.515-3.139,8.825-8.115,8.825A12.746,12.746,0,0,1,37,67.4l.592-4.205a8.683,8.683,0,0,0,2.665.415c2.192,0,3.554-1.007,3.554-4.5L43.752,44.6Z" transform="translate(-37 -44.245)" fill="#323330"/>
        <path id="Tracé_327" data-name="Tracé 327" d="M64.066,62.006a13.217,13.217,0,0,0,5.745,1.422c2.369,0,3.613-1.007,3.613-2.547,0-1.422-1.066-2.251-3.85-3.2-3.791-1.362-6.338-3.495-6.338-6.871,0-3.85,3.317-6.812,8.707-6.812a13.4,13.4,0,0,1,5.864,1.185l-1.185,4.146a11.147,11.147,0,0,0-4.739-1.066c-2.251,0-3.317,1.066-3.317,2.192,0,1.481,1.244,2.132,4.265,3.258,4.028,1.481,5.923,3.613,5.923,6.871,0,3.85-2.9,7.108-9.24,7.108A15.193,15.193,0,0,1,63,66.271Z" transform="translate(-47.6 -44)" fill="#323330"/>
      </g>
    </g>
  </g>
</svg>
