<svg id="Lightroom" xmlns="http://www.w3.org/2000/svg" width="59.947" height="60" viewBox="0 0 59.947 60">
  <g id="Groupe_214" data-name="Groupe 214" transform="translate(0 0)">
    <path id="Tracé_343" data-name="Tracé 343" d="M45.1,73.443a28.321,28.321,0,1,1,28.3-28.321A28.361,28.361,0,0,1,45.1,73.443Z" transform="translate(-15.121 -15.121)" fill="#0d2531"/>
    <path id="Tracé_344" data-name="Tracé 344" d="M43.974,17.42A26.58,26.58,0,1,1,17.417,44,26.619,26.619,0,0,1,43.974,17.42m0-3.42A30,30,0,1,0,73.947,44,30,30,0,0,0,43.974,14Z" transform="translate(-14 -14)" fill="#aad1eb"/>
  </g>
  <g id="Groupe_215" data-name="Groupe 215" transform="translate(18.823 18.011)">
    <path id="Tracé_345" data-name="Tracé 345" d="M61.766,53.891a19.988,19.988,0,0,0-.12-2.1.277.277,0,0,1,.18-.3,22.979,22.979,0,0,1,7.973-1.5c.18,0,.24.06.24.24v3.117c0,.18-.06.24-.24.24a13.488,13.488,0,0,0-4.136.42V67.739c0,.18-.06.24-.24.24H62.005c-.18,0-.24-.06-.24-.24V53.891ZM45.7,67.979c-.24,0-.3-.12-.3-.3V44.3c0-.18.06-.3.24-.3h3.417c.18,0,.24.06.24.24V64.382h8.932c.18,0,.24.06.18.24l-.54,3.057c0,.24-.12.3-.3.3Z" transform="translate(-45.4 -44)" fill="#aad1eb"/>
  </g>
</svg>
