<svg xmlns="http://www.w3.org/2000/svg" width="60" height="60" viewBox="0 0 60 60">
  <g id="Linux" transform="translate(0.463)">
    <g id="Groupe_207" data-name="Groupe 207" transform="translate(0 0)">
      <g id="Groupe_206" data-name="Groupe 206" transform="translate(0)">
        <circle id="Ellipse_9" data-name="Ellipse 9" cx="30" cy="30" r="30" transform="translate(-0.463)" fill="#f3bf00"/>
      </g>
    </g>
    <path id="Tracé_338" data-name="Tracé 338" d="M50.11,40.566c-.42.06-.24.42-.48.42C49.45,40.986,49.45,40.506,50.11,40.566Zm1.261.06c.36-.12.42.3.6.24S51.972,40.386,51.371,40.626Zm13.39,25.7A16.294,16.294,0,0,0,61.4,68.847a3.918,3.918,0,0,1-3.242.12c-1.2-.6-.54-1.561-2.4-1.621h-2.7c-.781,0-1.561.06-2.4.06-2.762,0-3.062,1.8-4.8,1.741-1.2-.06-2.7-1.021-5.344-1.561-1.861-.36-3.6-.48-3.963-1.261s.48-1.741.54-2.522c.06-1.081-.781-2.462-.18-3.062.54-.48,1.681-.12,2.4-.54a1.728,1.728,0,0,0,1.141-1.8,1.859,1.859,0,0,1-.66,2.222,3.024,3.024,0,0,1-1.681.3c-.48-.06-.781.06-.9.24-.18.24-.12.66.12,1.2a3.406,3.406,0,0,1,.48,1.561c-.06.66-.781,1.441-.66,2.041.06.24.24.42.781.54.841.24,2.342.48,3.843.841,1.621.42,3.362,1.141,4.383,1.021,3.182-.42,1.381-3.843.841-4.623-2.642-4.2-4.443-6.965-5.824-5.884-.36.3-.36-.721-.36-1.081.06-1.381.781-1.861,1.2-2.942.781-2.041,1.381-4.323,2.582-5.524a18.641,18.641,0,0,0,2.582-4.023,59.968,59.968,0,0,1-.3-6.485c-.06-2.1.3-4.023,2.7-5.284a4.793,4.793,0,0,1,2.162-.42,6.761,6.761,0,0,1,4.023,1.141,7.164,7.164,0,0,1,2.522,5.584,12.985,12.985,0,0,0,.6,4.443,11,11,0,0,0,2.762,4.563,16.446,16.446,0,0,1,3.3,7.385c.36,2.041-.12,3.3-.54,3.362-.66.12-1.081,2.222-3.182,2.1-1.321-.06-1.441-.841-1.8-1.5-.6-1.081-1.2-.721-1.441.36a4.807,4.807,0,0,0,.12,2.041,9.087,9.087,0,0,1,0,4.023c-.42,2.882,1.981,3.422,3.663,2.041a9.908,9.908,0,0,1,4.023-2.282c3.122-1.081,2.041-1.981.42-2.582-1.5-.48-1.561-3-1.021-3.483.12,2.7,1.5,3.122,2.1,3.483C69.8,64.283,66.262,65.6,64.761,66.325ZM57.916,58.4c.3-.36.6-.36,1.081-.36.06-1.621,2.642-1.5,3.483-.841,0-.36-.781-.721-1.141-.9.54-1.861.3-2.582-.06-4.383a7.169,7.169,0,0,0-2.462-3.723,7.962,7.962,0,0,1,1.2,1.741c.841,1.561,1.681,3.843,1.141,5.764a1.05,1.05,0,0,1-1.021.841c-1.5.18-.6-1.741-1.2-4.323-.66-2.882-1.381-3.122-1.561-3.362-.841-3.783-1.8-3.422-2.041-4.8-.24-1.261,1.081-2.282-.721-2.642-.54-.12-1.321-.66-1.681-.721-.3-.06-.48-2.1.66-2.162s1.381,1.321,1.141,1.861c-.3.54,0,.721.6.54.48-.12.18-1.381.3-1.561-.3-1.741-1.021-1.981-1.8-2.1-2.882.24-1.561,3.362-1.861,3.062-.42-.42-1.621,0-1.621-.3,0-1.621-.54-2.582-1.261-2.582-.841,0-1.2,1.141-1.2,1.8-.06.6.36,1.921.66,1.861.18-.06.54-.48.18-.48-.18,0-.48-.42-.48-.961s.18-1.081.9-1.081c.841.06.841,1.621.721,1.741a7.961,7.961,0,0,0-.66.6c-.24.42-.781.54-.961.721-.36.36-.42.781-.18.961.961.54.66,1.141,1.981,1.2a5.551,5.551,0,0,0,2.1-.3c.48-.12,1.921-.48,2.282-1.021a.3.3,0,0,1,.42-.18c.18.12.24.48-.3.66a17.022,17.022,0,0,0-2.1.841,8.1,8.1,0,0,1-1.441.48c-1.381.24-2.4-.48-1.441.42a1.649,1.649,0,0,0,1.381.48c1.741-.06,3.663-2.162,3.843-1.2.06.18-.54.48-1.021.66-1.621.781-2.762,2.4-3.783,1.8-.961-.48-1.861-2.822-1.861-1.741,0,1.621-2.1,3-1.141,4.8-.66.18-2.1,3.242-2.282,4.8-.12.9.06,2.041-.12,2.642-.3.9-1.741-.841-1.261-3.062.06-.36,0-.48-.12-.3a4.021,4.021,0,0,0,.18,3.422c.18.42.66.6,1.021,1.021.721.841,3.6,2.942,4.083,3.483a1.281,1.281,0,0,1-.9,2.162c.66,1.261,1.321,1.381,1.321,3.543.781-.42.48-1.321.12-1.921-.24-.42-.54-.6-.48-.66s.42-.42.66-.12c.721.781,2.041.9,3.483.781a4.92,4.92,0,0,0,3.663-1.8c.36-.54.54-.721.721-.6s.24.48.18,1.081a6.446,6.446,0,0,1-.48,1.921c-.18.66-.24,1.081.36,1.081.18-1.141.48-2.342.6-3.483C57.8,62.122,56.835,59.66,57.916,58.4ZM49.15,39.665c-.06.24,0,.42.18.42a.059.059,0,0,0,.06-.06c.06-.54-.18-.9-.3-.9-.24-.06-.24.3-.12.3C49.09,39.365,49.21,39.485,49.15,39.665Zm4.683-.721c-.24,0-.18.18-.06.18.18.06.3.36.36.66,0,0,.24-.06.24-.12A.681.681,0,0,0,53.833,38.945Z" transform="translate(-23.381 -21.232)" fill="#222"/>
  </g>
</svg>
