<svg id="PHP" xmlns="http://www.w3.org/2000/svg" width="59" height="60" viewBox="0 0 59 60">
  <g id="Groupe_211" data-name="Groupe 211" transform="translate(0 0)">
    <g id="Groupe_210" data-name="Groupe 210">
      <ellipse id="Ellipse_11" data-name="Ellipse 11" cx="29.5" cy="30" rx="29.5" ry="30" fill="#36447f"/>
    </g>
  </g>
  <g id="Layer_2_1_" transform="translate(7.555 18.842)">
    <g id="Groupe_213" data-name="Groupe 213">
      <g id="Groupe_212" data-name="Groupe 212">
        <path id="Tracé_340" data-name="Tracé 340" d="M35.707,54.906a3.567,3.567,0,0,1,2.725.77c.474.474.533,1.362.3,2.547a4.3,4.3,0,0,1-1.422,2.725,5.292,5.292,0,0,1-3.2.829H31.916l1.3-6.871ZM27,68.707h3.554l.829-4.383h3.08a10.529,10.529,0,0,0,3.317-.415,6.5,6.5,0,0,0,2.369-1.422,8.76,8.76,0,0,0,1.481-1.836,6.892,6.892,0,0,0,.77-2.192c.355-1.955.118-3.435-.829-4.561a5.7,5.7,0,0,0-4.5-1.6H30.2Z" transform="translate(-27 -47.976)" fill="#c9d5f7"/>
        <path id="Tracé_341" data-name="Tracé 341" d="M56.858,45h3.554l-.829,4.383h3.139c1.955,0,3.376.355,4.087,1.066.77.711,1.007,1.836.652,3.376l-1.481,7.641H62.366l1.422-7.226c.178-.829.118-1.362-.178-1.658a2.553,2.553,0,0,0-1.777-.474H58.99l-1.836,9.359H53.6Z" transform="translate(-37.844 -45)" fill="#c9d5f7"/>
        <path id="Tracé_342" data-name="Tracé 342" d="M84.407,54.906a3.567,3.567,0,0,1,2.725.77c.474.474.533,1.362.3,2.547a4.3,4.3,0,0,1-1.422,2.725,5.292,5.292,0,0,1-3.2.829H80.616l1.3-6.871ZM75.7,68.707h3.554l.829-4.383h3.08a10.529,10.529,0,0,0,3.317-.415,6.5,6.5,0,0,0,2.369-1.422,8.76,8.76,0,0,0,1.481-1.836,6.893,6.893,0,0,0,.77-2.192c.355-1.955.118-3.435-.829-4.561a5.7,5.7,0,0,0-4.5-1.6H78.9Z" transform="translate(-46.854 -47.976)" fill="#c9d5f7"/>
      </g>
    </g>
  </g>
</svg>
