<svg xmlns="http://www.w3.org/2000/svg" xmlns:xlink="http://www.w3.org/1999/xlink" width="367" height="145" viewBox="0 0 367 145">
  <defs>
    <clipPath id="clip-path">
      <rect width="367" height="145" fill="none"/>
    </clipPath>
  </defs>
  <g id="Texture" clip-path="url(#clip-path)">
    <g id="noun_texture_2188731" transform="translate(-11.9 -13.84)">
      <path id="Tracé_261" data-name="Tracé 261" d="M17.9,25.84a6,6,0,1,1,6-6A6,6,0,0,1,17.9,25.84Zm0-11.43a5.47,5.47,0,1,0,5.46,5.47A5.47,5.47,0,0,0,17.9,14.41Z"/>
      <path id="Tracé_262" data-name="Tracé 262" d="M44.86,25.84H32.93V13.91H44.86Zm-11.43-.5H44.36V14.41H33.43Z"/>
      <path id="Tracé_263" data-name="Tracé 263" d="M59.9,25.84a6,6,0,1,1,6-6A6,6,0,0,1,59.9,25.84Zm0-11.43a5.47,5.47,0,1,0,5.46,5.47A5.47,5.47,0,0,0,59.9,14.41Z"/>
      <path id="Tracé_264" data-name="Tracé 264" d="M86.86,25.84H74.93V13.91H86.86Zm-11.43-.5H86.36V14.41H75.43Z"/>
      <path id="Tracé_265" data-name="Tracé 265" d="M23.86,46.84H11.93V34.91H23.86Zm-11.43-.5H23.36V35.41H12.43Z"/>
      <path id="Tracé_266" data-name="Tracé 266" d="M38.9,46.84a6,6,0,1,1,6-6A6,6,0,0,1,38.9,46.84Zm0-11.43a5.47,5.47,0,1,0,5.46,5.47,5.47,5.47,0,0,0-5.46-5.47Z"/>
      <path id="Tracé_267" data-name="Tracé 267" d="M65.86,46.84H53.93V34.91H65.86Zm-11.43-.5H65.36V35.41H54.43Z"/>
      <path id="Tracé_268" data-name="Tracé 268" d="M80.9,46.84a6,6,0,1,1,6-6A6,6,0,0,1,80.9,46.84Zm0-11.43a5.47,5.47,0,1,0,5.46,5.47,5.47,5.47,0,0,0-5.46-5.47Z"/>
      <path id="Tracé_269" data-name="Tracé 269" d="M17.9,67.84a6,6,0,1,1,6-6A6,6,0,0,1,17.9,67.84Zm0-11.43a5.47,5.47,0,1,0,5.46,5.47,5.47,5.47,0,0,0-5.46-5.47Z"/>
      <path id="Tracé_270" data-name="Tracé 270" d="M44.86,67.84H32.93V55.91H44.86Zm-11.43-.5H44.36V56.41H33.43Z"/>
      <path id="Tracé_271" data-name="Tracé 271" d="M59.9,67.84a6,6,0,1,1,6-6A6,6,0,0,1,59.9,67.84Zm0-11.43a5.47,5.47,0,1,0,5.46,5.47,5.47,5.47,0,0,0-5.46-5.47Z"/>
      <path id="Tracé_272" data-name="Tracé 272" d="M86.86,67.84H74.93V55.91H86.86Zm-11.43-.5H86.36V56.41H75.43Z"/>
      <path id="Tracé_273" data-name="Tracé 273" d="M23.86,88.84H11.93V76.91H23.86Zm-11.43-.5H23.36V77.41H12.43Z"/>
      <path id="Tracé_274" data-name="Tracé 274" d="M38.9,88.84a6,6,0,1,1,6-6A6,6,0,0,1,38.9,88.84Zm0-11.43a5.47,5.47,0,1,0,5.46,5.47,5.47,5.47,0,0,0-5.46-5.47Z"/>
      <path id="Tracé_275" data-name="Tracé 275" d="M65.86,88.84H53.93V76.91H65.86Zm-11.43-.5H65.36V77.41H54.43Z"/>
      <path id="Tracé_276" data-name="Tracé 276" d="M80.9,88.84a6,6,0,1,1,6-6A6,6,0,0,1,80.9,88.84Zm0-11.43a5.47,5.47,0,1,0,5.46,5.47,5.47,5.47,0,0,0-5.46-5.47Z"/>
    </g>
    <g id="noun_texture_2188731-2" data-name="noun_texture_2188731" transform="translate(70.1 -13.84)">
      <path id="Tracé_261-2" data-name="Tracé 261" d="M17.9,25.84a6,6,0,1,1,6-6A6,6,0,0,1,17.9,25.84Zm0-11.43a5.47,5.47,0,1,0,5.46,5.47A5.47,5.47,0,0,0,17.9,14.41Z"/>
      <path id="Tracé_262-2" data-name="Tracé 262" d="M44.86,25.84H32.93V13.91H44.86Zm-11.43-.5H44.36V14.41H33.43Z"/>
      <path id="Tracé_263-2" data-name="Tracé 263" d="M59.9,25.84a6,6,0,1,1,6-6A6,6,0,0,1,59.9,25.84Zm0-11.43a5.47,5.47,0,1,0,5.46,5.47A5.47,5.47,0,0,0,59.9,14.41Z"/>
      <path id="Tracé_264-2" data-name="Tracé 264" d="M86.86,25.84H74.93V13.91H86.86Zm-11.43-.5H86.36V14.41H75.43Z"/>
      <path id="Tracé_265-2" data-name="Tracé 265" d="M23.86,46.84H11.93V34.91H23.86Zm-11.43-.5H23.36V35.41H12.43Z"/>
      <path id="Tracé_266-2" data-name="Tracé 266" d="M38.9,46.84a6,6,0,1,1,6-6A6,6,0,0,1,38.9,46.84Zm0-11.43a5.47,5.47,0,1,0,5.46,5.47,5.47,5.47,0,0,0-5.46-5.47Z"/>
      <path id="Tracé_267-2" data-name="Tracé 267" d="M65.86,46.84H53.93V34.91H65.86Zm-11.43-.5H65.36V35.41H54.43Z"/>
      <path id="Tracé_268-2" data-name="Tracé 268" d="M80.9,46.84a6,6,0,1,1,6-6A6,6,0,0,1,80.9,46.84Zm0-11.43a5.47,5.47,0,1,0,5.46,5.47,5.47,5.47,0,0,0-5.46-5.47Z"/>
      <path id="Tracé_269-2" data-name="Tracé 269" d="M17.9,67.84a6,6,0,1,1,6-6A6,6,0,0,1,17.9,67.84Zm0-11.43a5.47,5.47,0,1,0,5.46,5.47,5.47,5.47,0,0,0-5.46-5.47Z"/>
      <path id="Tracé_270-2" data-name="Tracé 270" d="M44.86,67.84H32.93V55.91H44.86Zm-11.43-.5H44.36V56.41H33.43Z"/>
      <path id="Tracé_271-2" data-name="Tracé 271" d="M59.9,67.84a6,6,0,1,1,6-6A6,6,0,0,1,59.9,67.84Zm0-11.43a5.47,5.47,0,1,0,5.46,5.47,5.47,5.47,0,0,0-5.46-5.47Z"/>
      <path id="Tracé_272-2" data-name="Tracé 272" d="M86.86,67.84H74.93V55.91H86.86Zm-11.43-.5H86.36V56.41H75.43Z"/>
      <path id="Tracé_273-2" data-name="Tracé 273" d="M23.86,88.84H11.93V76.91H23.86Zm-11.43-.5H23.36V77.41H12.43Z"/>
      <path id="Tracé_274-2" data-name="Tracé 274" d="M38.9,88.84a6,6,0,1,1,6-6A6,6,0,0,1,38.9,88.84Zm0-11.43a5.47,5.47,0,1,0,5.46,5.47,5.47,5.47,0,0,0-5.46-5.47Z"/>
      <path id="Tracé_275-2" data-name="Tracé 275" d="M65.86,88.84H53.93V76.91H65.86Zm-11.43-.5H65.36V77.41H54.43Z"/>
      <path id="Tracé_276-2" data-name="Tracé 276" d="M80.9,88.84a6,6,0,1,1,6-6A6,6,0,0,1,80.9,88.84Zm0-11.43a5.47,5.47,0,1,0,5.46,5.47,5.47,5.47,0,0,0-5.46-5.47Z"/>
    </g>
    <g id="noun_texture_2188731-3" data-name="noun_texture_2188731" transform="translate(152.1 -13.84)">
      <path id="Tracé_261-3" data-name="Tracé 261" d="M17.9,25.84a6,6,0,1,1,6-6A6,6,0,0,1,17.9,25.84Zm0-11.43a5.47,5.47,0,1,0,5.46,5.47A5.47,5.47,0,0,0,17.9,14.41Z"/>
      <path id="Tracé_262-3" data-name="Tracé 262" d="M44.86,25.84H32.93V13.91H44.86Zm-11.43-.5H44.36V14.41H33.43Z"/>
      <path id="Tracé_263-3" data-name="Tracé 263" d="M59.9,25.84a6,6,0,1,1,6-6A6,6,0,0,1,59.9,25.84Zm0-11.43a5.47,5.47,0,1,0,5.46,5.47A5.47,5.47,0,0,0,59.9,14.41Z"/>
      <path id="Tracé_264-3" data-name="Tracé 264" d="M86.86,25.84H74.93V13.91H86.86Zm-11.43-.5H86.36V14.41H75.43Z"/>
      <path id="Tracé_265-3" data-name="Tracé 265" d="M23.86,46.84H11.93V34.91H23.86Zm-11.43-.5H23.36V35.41H12.43Z"/>
      <path id="Tracé_266-3" data-name="Tracé 266" d="M38.9,46.84a6,6,0,1,1,6-6A6,6,0,0,1,38.9,46.84Zm0-11.43a5.47,5.47,0,1,0,5.46,5.47,5.47,5.47,0,0,0-5.46-5.47Z"/>
      <path id="Tracé_267-3" data-name="Tracé 267" d="M65.86,46.84H53.93V34.91H65.86Zm-11.43-.5H65.36V35.41H54.43Z"/>
      <path id="Tracé_268-3" data-name="Tracé 268" d="M80.9,46.84a6,6,0,1,1,6-6A6,6,0,0,1,80.9,46.84Zm0-11.43a5.47,5.47,0,1,0,5.46,5.47,5.47,5.47,0,0,0-5.46-5.47Z"/>
      <path id="Tracé_269-3" data-name="Tracé 269" d="M17.9,67.84a6,6,0,1,1,6-6A6,6,0,0,1,17.9,67.84Zm0-11.43a5.47,5.47,0,1,0,5.46,5.47,5.47,5.47,0,0,0-5.46-5.47Z"/>
      <path id="Tracé_270-3" data-name="Tracé 270" d="M44.86,67.84H32.93V55.91H44.86Zm-11.43-.5H44.36V56.41H33.43Z"/>
      <path id="Tracé_271-3" data-name="Tracé 271" d="M59.9,67.84a6,6,0,1,1,6-6A6,6,0,0,1,59.9,67.84Zm0-11.43a5.47,5.47,0,1,0,5.46,5.47,5.47,5.47,0,0,0-5.46-5.47Z"/>
      <path id="Tracé_272-3" data-name="Tracé 272" d="M86.86,67.84H74.93V55.91H86.86Zm-11.43-.5H86.36V56.41H75.43Z"/>
      <path id="Tracé_273-3" data-name="Tracé 273" d="M23.86,88.84H11.93V76.91H23.86Zm-11.43-.5H23.36V77.41H12.43Z"/>
      <path id="Tracé_274-3" data-name="Tracé 274" d="M38.9,88.84a6,6,0,1,1,6-6A6,6,0,0,1,38.9,88.84Zm0-11.43a5.47,5.47,0,1,0,5.46,5.47,5.47,5.47,0,0,0-5.46-5.47Z"/>
      <path id="Tracé_275-3" data-name="Tracé 275" d="M65.86,88.84H53.93V76.91H65.86Zm-11.43-.5H65.36V77.41H54.43Z"/>
      <path id="Tracé_276-3" data-name="Tracé 276" d="M80.9,88.84a6,6,0,1,1,6-6A6,6,0,0,1,80.9,88.84Zm0-11.43a5.47,5.47,0,1,0,5.46,5.47,5.47,5.47,0,0,0-5.46-5.47Z"/>
    </g>
    <g id="noun_texture_2188731-4" data-name="noun_texture_2188731" transform="translate(234.1 -13.84)">
      <path id="Tracé_261-4" data-name="Tracé 261" d="M17.9,25.84a6,6,0,1,1,6-6A6,6,0,0,1,17.9,25.84Zm0-11.43a5.47,5.47,0,1,0,5.46,5.47A5.47,5.47,0,0,0,17.9,14.41Z"/>
      <path id="Tracé_262-4" data-name="Tracé 262" d="M44.86,25.84H32.93V13.91H44.86Zm-11.43-.5H44.36V14.41H33.43Z"/>
      <path id="Tracé_263-4" data-name="Tracé 263" d="M59.9,25.84a6,6,0,1,1,6-6A6,6,0,0,1,59.9,25.84Zm0-11.43a5.47,5.47,0,1,0,5.46,5.47A5.47,5.47,0,0,0,59.9,14.41Z"/>
      <path id="Tracé_264-4" data-name="Tracé 264" d="M86.86,25.84H74.93V13.91H86.86Zm-11.43-.5H86.36V14.41H75.43Z"/>
      <path id="Tracé_265-4" data-name="Tracé 265" d="M23.86,46.84H11.93V34.91H23.86Zm-11.43-.5H23.36V35.41H12.43Z"/>
      <path id="Tracé_266-4" data-name="Tracé 266" d="M38.9,46.84a6,6,0,1,1,6-6A6,6,0,0,1,38.9,46.84Zm0-11.43a5.47,5.47,0,1,0,5.46,5.47,5.47,5.47,0,0,0-5.46-5.47Z"/>
      <path id="Tracé_267-4" data-name="Tracé 267" d="M65.86,46.84H53.93V34.91H65.86Zm-11.43-.5H65.36V35.41H54.43Z"/>
      <path id="Tracé_268-4" data-name="Tracé 268" d="M80.9,46.84a6,6,0,1,1,6-6A6,6,0,0,1,80.9,46.84Zm0-11.43a5.47,5.47,0,1,0,5.46,5.47,5.47,5.47,0,0,0-5.46-5.47Z"/>
      <path id="Tracé_269-4" data-name="Tracé 269" d="M17.9,67.84a6,6,0,1,1,6-6A6,6,0,0,1,17.9,67.84Zm0-11.43a5.47,5.47,0,1,0,5.46,5.47,5.47,5.47,0,0,0-5.46-5.47Z"/>
      <path id="Tracé_270-4" data-name="Tracé 270" d="M44.86,67.84H32.93V55.91H44.86Zm-11.43-.5H44.36V56.41H33.43Z"/>
      <path id="Tracé_271-4" data-name="Tracé 271" d="M59.9,67.84a6,6,0,1,1,6-6A6,6,0,0,1,59.9,67.84Zm0-11.43a5.47,5.47,0,1,0,5.46,5.47,5.47,5.47,0,0,0-5.46-5.47Z"/>
      <path id="Tracé_272-4" data-name="Tracé 272" d="M86.86,67.84H74.93V55.91H86.86Zm-11.43-.5H86.36V56.41H75.43Z"/>
      <path id="Tracé_273-4" data-name="Tracé 273" d="M23.86,88.84H11.93V76.91H23.86Zm-11.43-.5H23.36V77.41H12.43Z"/>
      <path id="Tracé_274-4" data-name="Tracé 274" d="M38.9,88.84a6,6,0,1,1,6-6A6,6,0,0,1,38.9,88.84Zm0-11.43a5.47,5.47,0,1,0,5.46,5.47,5.47,5.47,0,0,0-5.46-5.47Z"/>
      <path id="Tracé_275-4" data-name="Tracé 275" d="M65.86,88.84H53.93V76.91H65.86Zm-11.43-.5H65.36V77.41H54.43Z"/>
      <path id="Tracé_276-4" data-name="Tracé 276" d="M80.9,88.84a6,6,0,1,1,6-6A6,6,0,0,1,80.9,88.84Zm0-11.43a5.47,5.47,0,1,0,5.46,5.47,5.47,5.47,0,0,0-5.46-5.47Z"/>
    </g>
    <g id="noun_texture_2188731-5" data-name="noun_texture_2188731" transform="translate(316.1 -13.84)">
      <path id="Tracé_261-5" data-name="Tracé 261" d="M17.9,25.84a6,6,0,1,1,6-6A6,6,0,0,1,17.9,25.84Zm0-11.43a5.47,5.47,0,1,0,5.46,5.47A5.47,5.47,0,0,0,17.9,14.41Z"/>
      <path id="Tracé_262-5" data-name="Tracé 262" d="M44.86,25.84H32.93V13.91H44.86Zm-11.43-.5H44.36V14.41H33.43Z"/>
      <path id="Tracé_263-5" data-name="Tracé 263" d="M59.9,25.84a6,6,0,1,1,6-6A6,6,0,0,1,59.9,25.84Zm0-11.43a5.47,5.47,0,1,0,5.46,5.47A5.47,5.47,0,0,0,59.9,14.41Z"/>
      <path id="Tracé_264-5" data-name="Tracé 264" d="M86.86,25.84H74.93V13.91H86.86Zm-11.43-.5H86.36V14.41H75.43Z"/>
      <path id="Tracé_265-5" data-name="Tracé 265" d="M23.86,46.84H11.93V34.91H23.86Zm-11.43-.5H23.36V35.41H12.43Z"/>
      <path id="Tracé_266-5" data-name="Tracé 266" d="M38.9,46.84a6,6,0,1,1,6-6A6,6,0,0,1,38.9,46.84Zm0-11.43a5.47,5.47,0,1,0,5.46,5.47,5.47,5.47,0,0,0-5.46-5.47Z"/>
      <path id="Tracé_267-5" data-name="Tracé 267" d="M65.86,46.84H53.93V34.91H65.86Zm-11.43-.5H65.36V35.41H54.43Z"/>
      <path id="Tracé_268-5" data-name="Tracé 268" d="M80.9,46.84a6,6,0,1,1,6-6A6,6,0,0,1,80.9,46.84Zm0-11.43a5.47,5.47,0,1,0,5.46,5.47,5.47,5.47,0,0,0-5.46-5.47Z"/>
      <path id="Tracé_269-5" data-name="Tracé 269" d="M17.9,67.84a6,6,0,1,1,6-6A6,6,0,0,1,17.9,67.84Zm0-11.43a5.47,5.47,0,1,0,5.46,5.47,5.47,5.47,0,0,0-5.46-5.47Z"/>
      <path id="Tracé_270-5" data-name="Tracé 270" d="M44.86,67.84H32.93V55.91H44.86Zm-11.43-.5H44.36V56.41H33.43Z"/>
      <path id="Tracé_271-5" data-name="Tracé 271" d="M59.9,67.84a6,6,0,1,1,6-6A6,6,0,0,1,59.9,67.84Zm0-11.43a5.47,5.47,0,1,0,5.46,5.47,5.47,5.47,0,0,0-5.46-5.47Z"/>
      <path id="Tracé_272-5" data-name="Tracé 272" d="M86.86,67.84H74.93V55.91H86.86Zm-11.43-.5H86.36V56.41H75.43Z"/>
      <path id="Tracé_273-5" data-name="Tracé 273" d="M23.86,88.84H11.93V76.91H23.86Zm-11.43-.5H23.36V77.41H12.43Z"/>
      <path id="Tracé_274-5" data-name="Tracé 274" d="M38.9,88.84a6,6,0,1,1,6-6A6,6,0,0,1,38.9,88.84Zm0-11.43a5.47,5.47,0,1,0,5.46,5.47,5.47,5.47,0,0,0-5.46-5.47Z"/>
      <path id="Tracé_275-5" data-name="Tracé 275" d="M65.86,88.84H53.93V76.91H65.86Zm-11.43-.5H65.36V77.41H54.43Z"/>
      <path id="Tracé_276-5" data-name="Tracé 276" d="M80.9,88.84a6,6,0,1,1,6-6A6,6,0,0,1,80.9,88.84Zm0-11.43a5.47,5.47,0,1,0,5.46,5.47,5.47,5.47,0,0,0-5.46-5.47Z"/>
    </g>
    <g id="noun_texture_2188731-6" data-name="noun_texture_2188731" transform="translate(-11.9 68.16)">
      <path id="Tracé_261-6" data-name="Tracé 261" d="M17.9,25.84a6,6,0,1,1,6-6A6,6,0,0,1,17.9,25.84Zm0-11.43a5.47,5.47,0,1,0,5.46,5.47A5.47,5.47,0,0,0,17.9,14.41Z"/>
      <path id="Tracé_262-6" data-name="Tracé 262" d="M44.86,25.84H32.93V13.91H44.86Zm-11.43-.5H44.36V14.41H33.43Z"/>
      <path id="Tracé_263-6" data-name="Tracé 263" d="M59.9,25.84a6,6,0,1,1,6-6A6,6,0,0,1,59.9,25.84Zm0-11.43a5.47,5.47,0,1,0,5.46,5.47A5.47,5.47,0,0,0,59.9,14.41Z"/>
      <path id="Tracé_264-6" data-name="Tracé 264" d="M86.86,25.84H74.93V13.91H86.86Zm-11.43-.5H86.36V14.41H75.43Z"/>
      <path id="Tracé_265-6" data-name="Tracé 265" d="M23.86,46.84H11.93V34.91H23.86Zm-11.43-.5H23.36V35.41H12.43Z"/>
      <path id="Tracé_266-6" data-name="Tracé 266" d="M38.9,46.84a6,6,0,1,1,6-6A6,6,0,0,1,38.9,46.84Zm0-11.43a5.47,5.47,0,1,0,5.46,5.47,5.47,5.47,0,0,0-5.46-5.47Z"/>
      <path id="Tracé_267-6" data-name="Tracé 267" d="M65.86,46.84H53.93V34.91H65.86Zm-11.43-.5H65.36V35.41H54.43Z"/>
      <path id="Tracé_268-6" data-name="Tracé 268" d="M80.9,46.84a6,6,0,1,1,6-6A6,6,0,0,1,80.9,46.84Zm0-11.43a5.47,5.47,0,1,0,5.46,5.47,5.47,5.47,0,0,0-5.46-5.47Z"/>
      <path id="Tracé_269-6" data-name="Tracé 269" d="M17.9,67.84a6,6,0,1,1,6-6A6,6,0,0,1,17.9,67.84Zm0-11.43a5.47,5.47,0,1,0,5.46,5.47,5.47,5.47,0,0,0-5.46-5.47Z"/>
      <path id="Tracé_270-6" data-name="Tracé 270" d="M44.86,67.84H32.93V55.91H44.86Zm-11.43-.5H44.36V56.41H33.43Z"/>
      <path id="Tracé_271-6" data-name="Tracé 271" d="M59.9,67.84a6,6,0,1,1,6-6A6,6,0,0,1,59.9,67.84Zm0-11.43a5.47,5.47,0,1,0,5.46,5.47,5.47,5.47,0,0,0-5.46-5.47Z"/>
      <path id="Tracé_272-6" data-name="Tracé 272" d="M86.86,67.84H74.93V55.91H86.86Zm-11.43-.5H86.36V56.41H75.43Z"/>
      <path id="Tracé_273-6" data-name="Tracé 273" d="M23.86,88.84H11.93V76.91H23.86Zm-11.43-.5H23.36V77.41H12.43Z"/>
      <path id="Tracé_274-6" data-name="Tracé 274" d="M38.9,88.84a6,6,0,1,1,6-6A6,6,0,0,1,38.9,88.84Zm0-11.43a5.47,5.47,0,1,0,5.46,5.47,5.47,5.47,0,0,0-5.46-5.47Z"/>
      <path id="Tracé_275-6" data-name="Tracé 275" d="M65.86,88.84H53.93V76.91H65.86Zm-11.43-.5H65.36V77.41H54.43Z"/>
      <path id="Tracé_276-6" data-name="Tracé 276" d="M80.9,88.84a6,6,0,1,1,6-6A6,6,0,0,1,80.9,88.84Zm0-11.43a5.47,5.47,0,1,0,5.46,5.47,5.47,5.47,0,0,0-5.46-5.47Z"/>
    </g>
    <g id="noun_texture_2188731-7" data-name="noun_texture_2188731" transform="translate(70.1 68.16)">
      <path id="Tracé_261-7" data-name="Tracé 261" d="M17.9,25.84a6,6,0,1,1,6-6A6,6,0,0,1,17.9,25.84Zm0-11.43a5.47,5.47,0,1,0,5.46,5.47A5.47,5.47,0,0,0,17.9,14.41Z"/>
      <path id="Tracé_262-7" data-name="Tracé 262" d="M44.86,25.84H32.93V13.91H44.86Zm-11.43-.5H44.36V14.41H33.43Z"/>
      <path id="Tracé_263-7" data-name="Tracé 263" d="M59.9,25.84a6,6,0,1,1,6-6A6,6,0,0,1,59.9,25.84Zm0-11.43a5.47,5.47,0,1,0,5.46,5.47A5.47,5.47,0,0,0,59.9,14.41Z"/>
      <path id="Tracé_264-7" data-name="Tracé 264" d="M86.86,25.84H74.93V13.91H86.86Zm-11.43-.5H86.36V14.41H75.43Z"/>
      <path id="Tracé_265-7" data-name="Tracé 265" d="M23.86,46.84H11.93V34.91H23.86Zm-11.43-.5H23.36V35.41H12.43Z"/>
      <path id="Tracé_266-7" data-name="Tracé 266" d="M38.9,46.84a6,6,0,1,1,6-6A6,6,0,0,1,38.9,46.84Zm0-11.43a5.47,5.47,0,1,0,5.46,5.47,5.47,5.47,0,0,0-5.46-5.47Z"/>
      <path id="Tracé_267-7" data-name="Tracé 267" d="M65.86,46.84H53.93V34.91H65.86Zm-11.43-.5H65.36V35.41H54.43Z"/>
      <path id="Tracé_268-7" data-name="Tracé 268" d="M80.9,46.84a6,6,0,1,1,6-6A6,6,0,0,1,80.9,46.84Zm0-11.43a5.47,5.47,0,1,0,5.46,5.47,5.47,5.47,0,0,0-5.46-5.47Z"/>
      <path id="Tracé_269-7" data-name="Tracé 269" d="M17.9,67.84a6,6,0,1,1,6-6A6,6,0,0,1,17.9,67.84Zm0-11.43a5.47,5.47,0,1,0,5.46,5.47,5.47,5.47,0,0,0-5.46-5.47Z"/>
      <path id="Tracé_270-7" data-name="Tracé 270" d="M44.86,67.84H32.93V55.91H44.86Zm-11.43-.5H44.36V56.41H33.43Z"/>
      <path id="Tracé_271-7" data-name="Tracé 271" d="M59.9,67.84a6,6,0,1,1,6-6A6,6,0,0,1,59.9,67.84Zm0-11.43a5.47,5.47,0,1,0,5.46,5.47,5.47,5.47,0,0,0-5.46-5.47Z"/>
      <path id="Tracé_272-7" data-name="Tracé 272" d="M86.86,67.84H74.93V55.91H86.86Zm-11.43-.5H86.36V56.41H75.43Z"/>
      <path id="Tracé_273-7" data-name="Tracé 273" d="M23.86,88.84H11.93V76.91H23.86Zm-11.43-.5H23.36V77.41H12.43Z"/>
      <path id="Tracé_274-7" data-name="Tracé 274" d="M38.9,88.84a6,6,0,1,1,6-6A6,6,0,0,1,38.9,88.84Zm0-11.43a5.47,5.47,0,1,0,5.46,5.47,5.47,5.47,0,0,0-5.46-5.47Z"/>
      <path id="Tracé_275-7" data-name="Tracé 275" d="M65.86,88.84H53.93V76.91H65.86Zm-11.43-.5H65.36V77.41H54.43Z"/>
      <path id="Tracé_276-7" data-name="Tracé 276" d="M80.9,88.84a6,6,0,1,1,6-6A6,6,0,0,1,80.9,88.84Zm0-11.43a5.47,5.47,0,1,0,5.46,5.47,5.47,5.47,0,0,0-5.46-5.47Z"/>
    </g>
    <g id="noun_texture_2188731-8" data-name="noun_texture_2188731" transform="translate(152.1 68.16)">
      <path id="Tracé_261-8" data-name="Tracé 261" d="M17.9,25.84a6,6,0,1,1,6-6A6,6,0,0,1,17.9,25.84Zm0-11.43a5.47,5.47,0,1,0,5.46,5.47A5.47,5.47,0,0,0,17.9,14.41Z"/>
      <path id="Tracé_262-8" data-name="Tracé 262" d="M44.86,25.84H32.93V13.91H44.86Zm-11.43-.5H44.36V14.41H33.43Z"/>
      <path id="Tracé_263-8" data-name="Tracé 263" d="M59.9,25.84a6,6,0,1,1,6-6A6,6,0,0,1,59.9,25.84Zm0-11.43a5.47,5.47,0,1,0,5.46,5.47A5.47,5.47,0,0,0,59.9,14.41Z"/>
      <path id="Tracé_264-8" data-name="Tracé 264" d="M86.86,25.84H74.93V13.91H86.86Zm-11.43-.5H86.36V14.41H75.43Z"/>
      <path id="Tracé_265-8" data-name="Tracé 265" d="M23.86,46.84H11.93V34.91H23.86Zm-11.43-.5H23.36V35.41H12.43Z"/>
      <path id="Tracé_266-8" data-name="Tracé 266" d="M38.9,46.84a6,6,0,1,1,6-6A6,6,0,0,1,38.9,46.84Zm0-11.43a5.47,5.47,0,1,0,5.46,5.47,5.47,5.47,0,0,0-5.46-5.47Z"/>
      <path id="Tracé_267-8" data-name="Tracé 267" d="M65.86,46.84H53.93V34.91H65.86Zm-11.43-.5H65.36V35.41H54.43Z"/>
      <path id="Tracé_268-8" data-name="Tracé 268" d="M80.9,46.84a6,6,0,1,1,6-6A6,6,0,0,1,80.9,46.84Zm0-11.43a5.47,5.47,0,1,0,5.46,5.47,5.47,5.47,0,0,0-5.46-5.47Z"/>
      <path id="Tracé_269-8" data-name="Tracé 269" d="M17.9,67.84a6,6,0,1,1,6-6A6,6,0,0,1,17.9,67.84Zm0-11.43a5.47,5.47,0,1,0,5.46,5.47,5.47,5.47,0,0,0-5.46-5.47Z"/>
      <path id="Tracé_270-8" data-name="Tracé 270" d="M44.86,67.84H32.93V55.91H44.86Zm-11.43-.5H44.36V56.41H33.43Z"/>
      <path id="Tracé_271-8" data-name="Tracé 271" d="M59.9,67.84a6,6,0,1,1,6-6A6,6,0,0,1,59.9,67.84Zm0-11.43a5.47,5.47,0,1,0,5.46,5.47,5.47,5.47,0,0,0-5.46-5.47Z"/>
      <path id="Tracé_272-8" data-name="Tracé 272" d="M86.86,67.84H74.93V55.91H86.86Zm-11.43-.5H86.36V56.41H75.43Z"/>
      <path id="Tracé_273-8" data-name="Tracé 273" d="M23.86,88.84H11.93V76.91H23.86Zm-11.43-.5H23.36V77.41H12.43Z"/>
      <path id="Tracé_274-8" data-name="Tracé 274" d="M38.9,88.84a6,6,0,1,1,6-6A6,6,0,0,1,38.9,88.84Zm0-11.43a5.47,5.47,0,1,0,5.46,5.47,5.47,5.47,0,0,0-5.46-5.47Z"/>
      <path id="Tracé_275-8" data-name="Tracé 275" d="M65.86,88.84H53.93V76.91H65.86Zm-11.43-.5H65.36V77.41H54.43Z"/>
      <path id="Tracé_276-8" data-name="Tracé 276" d="M80.9,88.84a6,6,0,1,1,6-6A6,6,0,0,1,80.9,88.84Zm0-11.43a5.47,5.47,0,1,0,5.46,5.47,5.47,5.47,0,0,0-5.46-5.47Z"/>
    </g>
    <g id="noun_texture_2188731-9" data-name="noun_texture_2188731" transform="translate(234.1 68.16)">
      <path id="Tracé_261-9" data-name="Tracé 261" d="M17.9,25.84a6,6,0,1,1,6-6A6,6,0,0,1,17.9,25.84Zm0-11.43a5.47,5.47,0,1,0,5.46,5.47A5.47,5.47,0,0,0,17.9,14.41Z"/>
      <path id="Tracé_262-9" data-name="Tracé 262" d="M44.86,25.84H32.93V13.91H44.86Zm-11.43-.5H44.36V14.41H33.43Z"/>
      <path id="Tracé_263-9" data-name="Tracé 263" d="M59.9,25.84a6,6,0,1,1,6-6A6,6,0,0,1,59.9,25.84Zm0-11.43a5.47,5.47,0,1,0,5.46,5.47A5.47,5.47,0,0,0,59.9,14.41Z"/>
      <path id="Tracé_264-9" data-name="Tracé 264" d="M86.86,25.84H74.93V13.91H86.86Zm-11.43-.5H86.36V14.41H75.43Z"/>
      <path id="Tracé_265-9" data-name="Tracé 265" d="M23.86,46.84H11.93V34.91H23.86Zm-11.43-.5H23.36V35.41H12.43Z"/>
      <path id="Tracé_266-9" data-name="Tracé 266" d="M38.9,46.84a6,6,0,1,1,6-6A6,6,0,0,1,38.9,46.84Zm0-11.43a5.47,5.47,0,1,0,5.46,5.47,5.47,5.47,0,0,0-5.46-5.47Z"/>
      <path id="Tracé_267-9" data-name="Tracé 267" d="M65.86,46.84H53.93V34.91H65.86Zm-11.43-.5H65.36V35.41H54.43Z"/>
      <path id="Tracé_268-9" data-name="Tracé 268" d="M80.9,46.84a6,6,0,1,1,6-6A6,6,0,0,1,80.9,46.84Zm0-11.43a5.47,5.47,0,1,0,5.46,5.47,5.47,5.47,0,0,0-5.46-5.47Z"/>
      <path id="Tracé_269-9" data-name="Tracé 269" d="M17.9,67.84a6,6,0,1,1,6-6A6,6,0,0,1,17.9,67.84Zm0-11.43a5.47,5.47,0,1,0,5.46,5.47,5.47,5.47,0,0,0-5.46-5.47Z"/>
      <path id="Tracé_270-9" data-name="Tracé 270" d="M44.86,67.84H32.93V55.91H44.86Zm-11.43-.5H44.36V56.41H33.43Z"/>
      <path id="Tracé_271-9" data-name="Tracé 271" d="M59.9,67.84a6,6,0,1,1,6-6A6,6,0,0,1,59.9,67.84Zm0-11.43a5.47,5.47,0,1,0,5.46,5.47,5.47,5.47,0,0,0-5.46-5.47Z"/>
      <path id="Tracé_272-9" data-name="Tracé 272" d="M86.86,67.84H74.93V55.91H86.86Zm-11.43-.5H86.36V56.41H75.43Z"/>
      <path id="Tracé_273-9" data-name="Tracé 273" d="M23.86,88.84H11.93V76.91H23.86Zm-11.43-.5H23.36V77.41H12.43Z"/>
      <path id="Tracé_274-9" data-name="Tracé 274" d="M38.9,88.84a6,6,0,1,1,6-6A6,6,0,0,1,38.9,88.84Zm0-11.43a5.47,5.47,0,1,0,5.46,5.47,5.47,5.47,0,0,0-5.46-5.47Z"/>
      <path id="Tracé_275-9" data-name="Tracé 275" d="M65.86,88.84H53.93V76.91H65.86Zm-11.43-.5H65.36V77.41H54.43Z"/>
      <path id="Tracé_276-9" data-name="Tracé 276" d="M80.9,88.84a6,6,0,1,1,6-6A6,6,0,0,1,80.9,88.84Zm0-11.43a5.47,5.47,0,1,0,5.46,5.47,5.47,5.47,0,0,0-5.46-5.47Z"/>
    </g>
    <g id="noun_texture_2188731-10" data-name="noun_texture_2188731" transform="translate(316.1 68.16)">
      <path id="Tracé_261-10" data-name="Tracé 261" d="M17.9,25.84a6,6,0,1,1,6-6A6,6,0,0,1,17.9,25.84Zm0-11.43a5.47,5.47,0,1,0,5.46,5.47A5.47,5.47,0,0,0,17.9,14.41Z"/>
      <path id="Tracé_262-10" data-name="Tracé 262" d="M44.86,25.84H32.93V13.91H44.86Zm-11.43-.5H44.36V14.41H33.43Z"/>
      <path id="Tracé_263-10" data-name="Tracé 263" d="M59.9,25.84a6,6,0,1,1,6-6A6,6,0,0,1,59.9,25.84Zm0-11.43a5.47,5.47,0,1,0,5.46,5.47A5.47,5.47,0,0,0,59.9,14.41Z"/>
      <path id="Tracé_264-10" data-name="Tracé 264" d="M86.86,25.84H74.93V13.91H86.86Zm-11.43-.5H86.36V14.41H75.43Z"/>
      <path id="Tracé_265-10" data-name="Tracé 265" d="M23.86,46.84H11.93V34.91H23.86Zm-11.43-.5H23.36V35.41H12.43Z"/>
      <path id="Tracé_266-10" data-name="Tracé 266" d="M38.9,46.84a6,6,0,1,1,6-6A6,6,0,0,1,38.9,46.84Zm0-11.43a5.47,5.47,0,1,0,5.46,5.47,5.47,5.47,0,0,0-5.46-5.47Z"/>
      <path id="Tracé_267-10" data-name="Tracé 267" d="M65.86,46.84H53.93V34.91H65.86Zm-11.43-.5H65.36V35.41H54.43Z"/>
      <path id="Tracé_268-10" data-name="Tracé 268" d="M80.9,46.84a6,6,0,1,1,6-6A6,6,0,0,1,80.9,46.84Zm0-11.43a5.47,5.47,0,1,0,5.46,5.47,5.47,5.47,0,0,0-5.46-5.47Z"/>
      <path id="Tracé_269-10" data-name="Tracé 269" d="M17.9,67.84a6,6,0,1,1,6-6A6,6,0,0,1,17.9,67.84Zm0-11.43a5.47,5.47,0,1,0,5.46,5.47,5.47,5.47,0,0,0-5.46-5.47Z"/>
      <path id="Tracé_270-10" data-name="Tracé 270" d="M44.86,67.84H32.93V55.91H44.86Zm-11.43-.5H44.36V56.41H33.43Z"/>
      <path id="Tracé_271-10" data-name="Tracé 271" d="M59.9,67.84a6,6,0,1,1,6-6A6,6,0,0,1,59.9,67.84Zm0-11.43a5.47,5.47,0,1,0,5.46,5.47,5.47,5.47,0,0,0-5.46-5.47Z"/>
      <path id="Tracé_272-10" data-name="Tracé 272" d="M86.86,67.84H74.93V55.91H86.86Zm-11.43-.5H86.36V56.41H75.43Z"/>
      <path id="Tracé_273-10" data-name="Tracé 273" d="M23.86,88.84H11.93V76.91H23.86Zm-11.43-.5H23.36V77.41H12.43Z"/>
      <path id="Tracé_274-10" data-name="Tracé 274" d="M38.9,88.84a6,6,0,1,1,6-6A6,6,0,0,1,38.9,88.84Zm0-11.43a5.47,5.47,0,1,0,5.46,5.47,5.47,5.47,0,0,0-5.46-5.47Z"/>
      <path id="Tracé_275-10" data-name="Tracé 275" d="M65.86,88.84H53.93V76.91H65.86Zm-11.43-.5H65.36V77.41H54.43Z"/>
      <path id="Tracé_276-10" data-name="Tracé 276" d="M80.9,88.84a6,6,0,1,1,6-6A6,6,0,0,1,80.9,88.84Zm0-11.43a5.47,5.47,0,1,0,5.46,5.47,5.47,5.47,0,0,0-5.46-5.47Z"/>
    </g>
  </g>
</svg>
