<svg id="Trello" xmlns="http://www.w3.org/2000/svg" width="60" height="60" viewBox="0 0 60 60">
  <g id="Groupe_220" data-name="Groupe 220" transform="translate(0 0)">
    <g id="Groupe_219" data-name="Groupe 219">
      <g id="Groupe_218" data-name="Groupe 218">
        <g id="Groupe_217" data-name="Groupe 217">
          <circle id="Ellipse_13" data-name="Ellipse 13" cx="30" cy="30" r="30" fill="#0079bf"/>
        </g>
      </g>
    </g>
  </g>
  <path id="Tracé_346" data-name="Tracé 346" d="M65.529,39.5H43.2a3.677,3.677,0,0,0-3.7,3.7V65.468a3.677,3.677,0,0,0,3.7,3.7H65.468a3.677,3.677,0,0,0,3.7-3.7V43.2A3.589,3.589,0,0,0,65.529,39.5ZM52.423,62.8a1.761,1.761,0,0,1-1.76,1.76H45.143a1.761,1.761,0,0,1-1.76-1.76V45.931a1.761,1.761,0,0,1,1.76-1.76h5.521a1.761,1.761,0,0,1,1.76,1.76Zm12.923-7.4a1.761,1.761,0,0,1-1.76,1.76H58.066a1.761,1.761,0,0,1-1.76-1.76V45.931a1.761,1.761,0,0,1,1.76-1.76h5.521a1.761,1.761,0,0,1,1.76,1.76Z" transform="translate(-24.028 -24.028)" fill="#fff"/>
</svg>
