<svg id="Data_points-rafiki" data-name="Data points-rafiki" xmlns="http://www.w3.org/2000/svg" width="213.042" height="158.642" viewBox="0 0 213.042 158.642">
  <g id="freepik--background-complete--inject-7" transform="translate(0 0)">
    <rect id="Rectangle_82" data-name="Rectangle 82" width="213.042" height="0.107" transform="translate(0 139.4)" fill="#ebebeb"/>
    <rect id="Rectangle_83" data-name="Rectangle 83" width="14.112" height="0.107" transform="translate(177.584 146.256)" fill="#ebebeb"/>
    <rect id="Rectangle_84" data-name="Rectangle 84" width="3.703" height="0.107" transform="translate(137.425 147.414)" fill="#ebebeb"/>
    <rect id="Rectangle_85" data-name="Rectangle 85" width="8.177" height="0.107" transform="translate(168.981 142.301)" fill="#ebebeb"/>
    <rect id="Rectangle_86" data-name="Rectangle 86" width="18.403" height="0.107" transform="translate(22.352 143.017)" fill="#ebebeb"/>
    <rect id="Rectangle_87" data-name="Rectangle 87" width="2.697" height="0.107" transform="translate(44.551 143.017)" fill="#ebebeb"/>
    <rect id="Rectangle_88" data-name="Rectangle 88" width="39.916" height="0.107" transform="translate(56.017 144.815)" fill="#ebebeb"/>
    <path id="Tracé_897" data-name="Tracé 897" d="M122.911,175.5H40.639a2.433,2.433,0,0,1-2.429-2.433V57.412A2.433,2.433,0,0,1,40.639,55h82.273a2.433,2.433,0,0,1,2.433,2.433V173.064A2.433,2.433,0,0,1,122.911,175.5ZM40.639,55.085a2.326,2.326,0,0,0-2.322,2.326V173.064a2.326,2.326,0,0,0,2.322,2.326h82.273a2.331,2.331,0,0,0,2.326-2.326V57.412a2.331,2.331,0,0,0-2.326-2.326Z" transform="translate(-21.929 -55)" fill="#ebebeb"/>
    <path id="Tracé_898" data-name="Tracé 898" d="M339.21,175.5H256.933a2.437,2.437,0,0,1-2.433-2.433V57.412A2.437,2.437,0,0,1,256.933,55H339.21a2.433,2.433,0,0,1,2.424,2.412V173.064A2.433,2.433,0,0,1,339.21,175.5ZM256.933,55.085a2.331,2.331,0,0,0-2.326,2.326V173.064a2.331,2.331,0,0,0,2.326,2.326H339.21a2.331,2.331,0,0,0,2.326-2.326V57.412a2.331,2.331,0,0,0-2.326-2.326Z" transform="translate(-146.061 -55)" fill="#ebebeb"/>
    <path id="Tracé_899" data-name="Tracé 899" d="M149.276,100.153a4.828,4.828,0,0,0-6.217-4.627,9.953,9.953,0,0,0,.111-1.483A10.226,10.226,0,0,0,131.061,84a8.948,8.948,0,0,0-16.575,4.516h-.149a8.24,8.24,0,0,0,0,16.468h30.252A4.823,4.823,0,0,0,149.276,100.153Z" transform="translate(-61.077 -69.19)" fill="#f0f0f0"/>
    <path id="Tracé_900" data-name="Tracé 900" d="M256.31,164.691a2.4,2.4,0,0,0-2.4-2.4,2.481,2.481,0,0,0-.69.1,4.679,4.679,0,0,0,.055-.737,5.079,5.079,0,0,0-5.062-5.079,4.887,4.887,0,0,0-.937.089,4.44,4.44,0,0,0-8.232,2.241h-.072a4.095,4.095,0,0,0,0,8.185H254A2.4,2.4,0,0,0,256.31,164.691Z" transform="translate(-134.876 -112.157)" fill="#f0f0f0"/>
    <path id="Tracé_901" data-name="Tracé 901" d="M391.934,115.168a1.47,1.47,0,0,0-1.47-1.47,1.556,1.556,0,0,0-.426.064,3.173,3.173,0,0,0,.034-.452,3.11,3.11,0,0,0-3.11-3.11,3.209,3.209,0,0,0-.575.051,2.718,2.718,0,0,0-5.041,1.376H381.3a2.51,2.51,0,0,0,0,5.015h9.2a1.474,1.474,0,0,0,1.432-1.474Z" transform="translate(-217.452 -85.977)" fill="#f0f0f0"/>
    <text id="_101010000111110101010101" data-name="101010000111110101010101" transform="translate(57.521 22.296)" fill="#ebebeb" font-size="1" font-family="SegoeUI, Segoe UI"><tspan x="0" y="0">101010000111110101010101</tspan></text>
    <text id="_001101100110001101011111" data-name="001101100110001101011111" transform="translate(60.717 22.296)" fill="#ebebeb" font-size="1" font-family="SegoeUI, Segoe UI"><tspan x="0" y="0">001101100110001101011111</tspan></text>
    <text id="_111110101010101011110000" data-name="111110101010101011110000" transform="translate(63.913 22.296)" fill="#ebebeb" font-size="1" font-family="SegoeUI, Segoe UI"><tspan x="0" y="0">111110101010101011110000</tspan></text>
    <text id="_101010000111110101010101-2" data-name="101010000111110101010101" transform="translate(67.108 22.296)" fill="#ebebeb" font-size="1" font-family="SegoeUI, Segoe UI"><tspan x="0" y="0">101010000111110101010101</tspan></text>
    <text id="_000101011111000000110101" data-name="000101011111000000110101" transform="translate(70.304 22.296)" fill="#ebebeb" font-size="1" font-family="SegoeUI, Segoe UI"><tspan x="0" y="0">000101011111000000110101</tspan></text>
    <text id="_110011001101010101001100" data-name="110011001101010101001100" transform="translate(73.5 22.296)" fill="#ebebeb" font-size="1" font-family="SegoeUI, Segoe UI"><tspan x="0" y="0">110011001101010101001100</tspan></text>
    <rect id="Rectangle_89" data-name="Rectangle 89" width="96.512" height="61.39" transform="translate(19.387 78.15)" fill="#f5f5f5"/>
    <rect id="Rectangle_90" data-name="Rectangle 90" width="96.512" height="4.159" transform="translate(19.387 78.196)" fill="#e0e0e0"/>
    <path id="Tracé_902" data-name="Tracé 902" d="M265.265,241.843a1.253,1.253,0,1,1-1.253-1.253A1.253,1.253,0,0,1,265.265,241.843Z" transform="translate(-150.802 -161.568)" fill="#fafafa"/>
    <path id="Tracé_903" data-name="Tracé 903" d="M255.5,241.843a1.253,1.253,0,1,1-1.253-1.253A1.253,1.253,0,0,1,255.5,241.843Z" transform="translate(-145.195 -161.568)" fill="#fafafa"/>
    <path id="Tracé_904" data-name="Tracé 904" d="M245.715,241.843a1.253,1.253,0,1,1-1.253-1.253A1.253,1.253,0,0,1,245.715,241.843Z" transform="translate(-139.582 -161.568)" fill="#fafafa"/>
    <path id="Tracé_905" data-name="Tracé 905" d="M71.025,263.572l-.592-.827a1.155,1.155,0,0,0-.925-.486H65.32a1.006,1.006,0,0,0-.852.486l-.5.827a1.006,1.006,0,0,1-.852.486H60.6a1.014,1.014,0,0,0-1.035,1.074l.81,13.98a1.163,1.163,0,0,0,1.142,1.091h19.8a1.014,1.014,0,0,0,1.014-1.091l-.81-13.98a1.159,1.159,0,0,0-1.138-1.087H71.95A1.155,1.155,0,0,1,71.025,263.572Z" transform="translate(-34.186 -174.018)" fill="#e0e0e0"/>
    <path id="Tracé_906" data-name="Tracé 906" d="M85.151,269.6H67.012a1.521,1.521,0,0,0-1.491,1.359L64.43,283.068a1.227,1.227,0,0,0,1.244,1.359H83.817a1.525,1.525,0,0,0,1.491-1.359L86.4,270.959a1.227,1.227,0,0,0-1.248-1.359Z" transform="translate(-36.973 -178.231)" fill="#e6e6e6"/>
    <path id="Tracé_907" data-name="Tracé 907" d="M141.983,263.572l-.575-.827a1.155,1.155,0,0,0-.925-.486h-4.188a1.01,1.01,0,0,0-.852.486l-.5.827a1.006,1.006,0,0,1-.852.486h-2.5a1.014,1.014,0,0,0-1.018,1.087l.81,13.98a1.163,1.163,0,0,0,1.074,1.091h19.8a1.01,1.01,0,0,0,1.014-1.091l-.788-13.993a1.167,1.167,0,0,0-1.142-1.087h-8.432A1.155,1.155,0,0,1,141.983,263.572Z" transform="translate(-74.938 -174.018)" fill="#e0e0e0"/>
    <path id="Tracé_908" data-name="Tracé 908" d="M156.058,269.6H137.9a1.521,1.521,0,0,0-1.491,1.359l-1.091,12.109a1.227,1.227,0,0,0,1.248,1.359h18.138a1.525,1.525,0,0,0,1.491-1.359l1.091-12.109a1.227,1.227,0,0,0-1.231-1.359Z" transform="translate(-77.658 -178.231)" fill="#e6e6e6"/>
    <path id="Tracé_909" data-name="Tracé 909" d="M212.859,263.572l-.6-.827a1.146,1.146,0,0,0-.925-.486h-4.188a1.01,1.01,0,0,0-.852.486l-.5.827a1,1,0,0,1-.852.486h-2.5a1.006,1.006,0,0,0-1.014,1.087l.805,13.98a1.172,1.172,0,0,0,1.142,1.091h19.766a1.014,1.014,0,0,0,1.018-1.091l-.81-13.993a1.159,1.159,0,0,0-1.142-1.087h-8.432A1.146,1.146,0,0,1,212.859,263.572Z" transform="translate(-115.605 -174.018)" fill="#e0e0e0"/>
    <path id="Tracé_910" data-name="Tracé 910" d="M226.931,269.6H208.792a1.525,1.525,0,0,0-1.491,1.359l-1.091,12.109a1.227,1.227,0,0,0,1.248,1.359H225.6a1.525,1.525,0,0,0,1.491-1.359l1.091-12.109a1.227,1.227,0,0,0-1.248-1.359Z" transform="translate(-118.343 -178.231)" fill="#e6e6e6"/>
    <path id="Tracé_911" data-name="Tracé 911" d="M71.047,323.612l-.592-.827a1.155,1.155,0,0,0-.925-.486H65.342a1.006,1.006,0,0,0-.852.486l-.5.827a1.006,1.006,0,0,1-.852.486H60.625a1.014,1.014,0,0,0-1.018,1.086l.81,13.98a1.159,1.159,0,0,0,1.142,1.087h19.8a1.01,1.01,0,0,0,1.014-1.086l-.81-13.98a1.159,1.159,0,0,0-1.138-1.087H71.971A1.155,1.155,0,0,1,71.047,323.612Z" transform="translate(-34.208 -208.508)" fill="#e0e0e0"/>
    <path id="Tracé_912" data-name="Tracé 912" d="M85.151,329.64H67.012A1.521,1.521,0,0,0,65.521,331L64.43,343.108a1.223,1.223,0,0,0,1.244,1.355H83.817a1.521,1.521,0,0,0,1.491-1.355L86.4,331a1.227,1.227,0,0,0-1.248-1.359Z" transform="translate(-36.973 -212.72)" fill="#e6e6e6"/>
    <path id="Tracé_913" data-name="Tracé 913" d="M141.983,323.612l-.575-.827a1.155,1.155,0,0,0-.925-.486h-4.188a1.01,1.01,0,0,0-.852.486l-.5.827a1.006,1.006,0,0,1-.852.486h-2.5a1.014,1.014,0,0,0-1.018,1.086l.81,13.98a1.159,1.159,0,0,0,1.142,1.087h19.8a1.006,1.006,0,0,0,1.014-1.087l-.856-13.98a1.167,1.167,0,0,0-1.142-1.086h-8.432A1.155,1.155,0,0,1,141.983,323.612Z" transform="translate(-74.938 -208.508)" fill="#e0e0e0"/>
    <path id="Tracé_914" data-name="Tracé 914" d="M156.058,329.64H137.9A1.521,1.521,0,0,0,136.411,331l-1.091,12.109a1.223,1.223,0,0,0,1.248,1.355h18.138a1.521,1.521,0,0,0,1.491-1.355L157.289,331a1.227,1.227,0,0,0-1.231-1.359Z" transform="translate(-77.658 -212.72)" fill="#e6e6e6"/>
    <path id="Tracé_915" data-name="Tracé 915" d="M212.859,323.612l-.6-.827a1.146,1.146,0,0,0-.925-.486h-4.188a1.01,1.01,0,0,0-.852.486l-.5.827a1.006,1.006,0,0,1-.852.486h-2.5a1.006,1.006,0,0,0-1.014,1.086l.805,13.98a1.167,1.167,0,0,0,1.142,1.087h19.766a1.014,1.014,0,0,0,1.018-1.087l-.81-13.98a1.159,1.159,0,0,0-1.142-1.087h-8.432A1.146,1.146,0,0,1,212.859,323.612Z" transform="translate(-115.605 -208.508)" fill="#e0e0e0"/>
    <path id="Tracé_916" data-name="Tracé 916" d="M226.931,329.64H208.792A1.525,1.525,0,0,0,207.3,331l-1.091,12.109a1.223,1.223,0,0,0,1.248,1.355H225.6a1.521,1.521,0,0,0,1.491-1.355L228.179,331a1.227,1.227,0,0,0-1.248-1.359Z" transform="translate(-118.343 -212.72)" fill="#e6e6e6"/>
    <rect id="Rectangle_91" data-name="Rectangle 91" width="33.375" height="9.8" rx="2.67" transform="translate(159.509 129.498)" fill="#e6e6e6"/>
    <path id="Tracé_917" data-name="Tracé 917" d="M439.456,367.888a2.058,2.058,0,1,1-2.058-2.058A2.058,2.058,0,0,1,439.456,367.888Z" transform="translate(-249.848 -233.49)" fill="#f5f5f5"/>
    <path id="Tracé_918" data-name="Tracé 918" d="M439.766,369.248a1.048,1.048,0,1,1-1.048-1.048A1.048,1.048,0,0,1,439.766,369.248Z" transform="translate(-251.186 -234.851)" fill="#e6e6e6"/>
    <rect id="Rectangle_92" data-name="Rectangle 92" width="2.343" height="2.343" transform="translate(180.775 133.226)" fill="#f5f5f5"/>
    <rect id="Rectangle_93" data-name="Rectangle 93" width="33.375" height="9.8" rx="2.67" transform="translate(159.509 119.272)" fill="#e6e6e6"/>
    <path id="Tracé_919" data-name="Tracé 919" d="M439.456,343.888a2.058,2.058,0,1,1-2.058-2.058A2.058,2.058,0,0,1,439.456,343.888Z" transform="translate(-249.848 -219.716)" fill="#f5f5f5"/>
    <path id="Tracé_920" data-name="Tracé 920" d="M439.766,345.248a1.048,1.048,0,1,1-1.048-1.048A1.048,1.048,0,0,1,439.766,345.248Z" transform="translate(-251.186 -221.077)" fill="#e6e6e6"/>
    <rect id="Rectangle_94" data-name="Rectangle 94" width="2.343" height="2.343" transform="translate(180.775 123)" fill="#f5f5f5"/>
    <rect id="Rectangle_95" data-name="Rectangle 95" width="33.375" height="9.8" rx="2.67" transform="translate(159.509 109.066)" fill="#e6e6e6"/>
    <path id="Tracé_921" data-name="Tracé 921" d="M439.456,319.888a2.058,2.058,0,1,1-2.058-2.058A2.058,2.058,0,0,1,439.456,319.888Z" transform="translate(-249.848 -205.92)" fill="#f5f5f5"/>
    <path id="Tracé_922" data-name="Tracé 922" d="M439.766,321.248a1.048,1.048,0,1,1-1.048-1.048A1.048,1.048,0,0,1,439.766,321.248Z" transform="translate(-251.186 -207.28)" fill="#e6e6e6"/>
    <rect id="Rectangle_96" data-name="Rectangle 96" width="2.343" height="2.343" transform="translate(180.775 112.796)" fill="#f5f5f5"/>
    <rect id="Rectangle_97" data-name="Rectangle 97" width="33.375" height="9.8" rx="2.67" transform="translate(159.509 98.848)" fill="#e6e6e6"/>
    <path id="Tracé_923" data-name="Tracé 923" d="M439.456,295.888a2.058,2.058,0,1,1-2.058-2.058A2.058,2.058,0,0,1,439.456,295.888Z" transform="translate(-249.848 -192.139)" fill="#f5f5f5"/>
    <path id="Tracé_924" data-name="Tracé 924" d="M439.766,297.248a1.048,1.048,0,1,1-1.048-1.048A1.048,1.048,0,0,1,439.766,297.248Z" transform="translate(-251.186 -193.499)" fill="#e6e6e6"/>
    <rect id="Rectangle_98" data-name="Rectangle 98" width="2.343" height="2.343" transform="translate(180.775 102.577)" fill="#f5f5f5"/>
    <rect id="Rectangle_99" data-name="Rectangle 99" width="33.375" height="9.8" rx="2.67" transform="translate(159.509 88.629)" fill="#e6e6e6"/>
    <path id="Tracé_925" data-name="Tracé 925" d="M439.456,271.888a2.058,2.058,0,1,1-2.058-2.058A2.058,2.058,0,0,1,439.456,271.888Z" transform="translate(-249.848 -178.358)" fill="#f5f5f5"/>
    <path id="Tracé_926" data-name="Tracé 926" d="M439.766,273.248a1.048,1.048,0,1,1-1.048-1.048A1.048,1.048,0,0,1,439.766,273.248Z" transform="translate(-251.186 -179.718)" fill="#e6e6e6"/>
    <rect id="Rectangle_100" data-name="Rectangle 100" width="2.343" height="2.343" transform="translate(180.775 92.358)" fill="#f5f5f5"/>
    <rect id="Rectangle_101" data-name="Rectangle 101" width="33.375" height="9.8" rx="2.67" transform="translate(159.509 78.411)" fill="#e6e6e6"/>
    <path id="Tracé_927" data-name="Tracé 927" d="M439.456,247.888a2.058,2.058,0,1,1-2.058-2.058A2.058,2.058,0,0,1,439.456,247.888Z" transform="translate(-249.848 -164.577)" fill="#f5f5f5"/>
    <path id="Tracé_928" data-name="Tracé 928" d="M439.766,249.248a1.048,1.048,0,1,1-1.048-1.048A1.048,1.048,0,0,1,439.766,249.248Z" transform="translate(-251.186 -165.937)" fill="#e6e6e6"/>
    <rect id="Rectangle_102" data-name="Rectangle 102" width="2.343" height="2.343" transform="translate(180.775 82.139)" fill="#f5f5f5"/>
  </g>
  <g id="freepik--Shadow--inject-7" transform="translate(23.908 148.995)">
    <ellipse id="freepik--path--inject-7" cx="82.614" cy="4.823" rx="82.614" ry="4.823" fill="#f5f5f5"/>
  </g>
  <g id="freepik--Plant--inject-7" transform="translate(27.517 113.659)">
    <path id="Tracé_929" data-name="Tracé 929" d="M82.127,336.983c-.665-1.1-1.755-.145-1.755-.145a4.479,4.479,0,0,0-1.768-3.519,2.579,2.579,0,0,0,2.557-2.13c.32-2.13-.78-1.138-1.8-1.155s-2.092,2.983-.746,4.657.989,4.555-2.13,7.316a6.08,6.08,0,0,0-1.628,2.556c.234-2.535.366-6.11-.379-8.5-1.278-4.052,1.15-5.143,1.849-7.171s-1.849-3.741-1.849-3.741,2.395-1.091,1.227-2.339-3.6-1.095-3.6.533a2.593,2.593,0,0,0,1.64,2.254s1.871,1.947,1.871,2.961-1.871,3.2-1.871,3.2.852-1.866-.852-1.947-2.258,2.182-1.559,3.2,1.87.153,1.87.153a19.716,19.716,0,0,0,.537,3.507,28.21,28.21,0,0,1-.055,5.249,5.893,5.893,0,0,0-1.517-2.254c-3.119-2.761-3.477-5.633-2.13-7.312s.281-4.687-.741-4.661-2.13-.976-1.8,1.159a2.579,2.579,0,0,0,2.556,2.131,4.5,4.5,0,0,0-1.768,3.519s-1.091-.946-1.751.145c-1.185,1.947,1.559,3.157,2.02,2.2,0,0,5.812,4.112,4.41,10.039l.324.482c-.038.477-.068.763-.068.763l.456-.2.52.767a17.132,17.132,0,0,0,.132,2.557l1.389-2.054c-1.41-5.9,4.4-10.021,4.4-10.021C80.567,340.136,83.311,338.93,82.127,336.983Z" transform="translate(-65.527 -321.988)" fill="#193b6a"/>
    <path id="Tracé_930" data-name="Tracé 930" d="M82.127,336.983c-.665-1.1-1.755-.145-1.755-.145a4.479,4.479,0,0,0-1.768-3.519,2.579,2.579,0,0,0,2.557-2.13c.32-2.13-.78-1.138-1.8-1.155s-2.092,2.983-.746,4.657.989,4.555-2.13,7.316a6.08,6.08,0,0,0-1.628,2.556c.234-2.535.366-6.11-.379-8.5-1.278-4.052,1.15-5.143,1.849-7.171s-1.849-3.741-1.849-3.741,2.395-1.091,1.227-2.339-3.6-1.095-3.6.533a2.593,2.593,0,0,0,1.64,2.254s1.871,1.947,1.871,2.961-1.871,3.2-1.871,3.2.852-1.866-.852-1.947-2.258,2.182-1.559,3.2,1.87.153,1.87.153a19.716,19.716,0,0,0,.537,3.507,28.21,28.21,0,0,1-.055,5.249,5.893,5.893,0,0,0-1.517-2.254c-3.119-2.761-3.477-5.633-2.13-7.312s.281-4.687-.741-4.661-2.13-.976-1.8,1.159a2.579,2.579,0,0,0,2.556,2.131,4.5,4.5,0,0,0-1.768,3.519s-1.091-.946-1.751.145c-1.185,1.947,1.559,3.157,2.02,2.2,0,0,5.812,4.112,4.41,10.039l.324.482c-.038.477-.068.763-.068.763l.456-.2.52.767a17.132,17.132,0,0,0,.132,2.557l1.389-2.054c-1.41-5.9,4.4-10.021,4.4-10.021C80.567,340.136,83.311,338.93,82.127,336.983Z" transform="translate(-65.527 -321.988)" fill="#193b6a" opacity="0.2"/>
    <g id="Groupe_62" data-name="Groupe 62" transform="translate(0.703)" opacity="0.3">
      <path id="Tracé_931" data-name="Tracé 931" d="M82.127,336.983c-.665-1.1-1.755-.145-1.755-.145a4.479,4.479,0,0,0-1.768-3.519,2.579,2.579,0,0,0,2.557-2.13c.32-2.13-.78-1.138-1.8-1.155s-2.092,2.983-.746,4.657.989,4.555-2.13,7.316a6.08,6.08,0,0,0-1.628,2.556c.234-2.535.366-6.11-.379-8.5-1.278-4.052,1.15-5.143,1.849-7.171s-1.849-3.741-1.849-3.741,2.395-1.091,1.227-2.339-3.6-1.095-3.6.533a2.593,2.593,0,0,0,1.64,2.254s1.871,1.947,1.871,2.961-1.871,3.2-1.871,3.2.852-1.866-.852-1.947-2.258,2.182-1.559,3.2,1.87.153,1.87.153a19.716,19.716,0,0,0,.537,3.507,28.21,28.21,0,0,1-.055,5.249,5.893,5.893,0,0,0-1.517-2.254c-3.119-2.761-3.477-5.633-2.13-7.312s.281-4.687-.741-4.661-2.13-.976-1.8,1.159a2.579,2.579,0,0,0,2.556,2.131,4.5,4.5,0,0,0-1.768,3.519s-1.091-.946-1.751.145c-1.185,1.947,1.559,3.157,2.02,2.2,0,0,5.812,4.112,4.41,10.039l.324.482c-.038.477-.068.763-.068.763l.456-.2.52.767a17.132,17.132,0,0,0,.132,2.557l1.389-2.054c-1.41-5.9,4.4-10.021,4.4-10.021C80.567,340.136,83.311,338.93,82.127,336.983Z" transform="translate(-66.229 -321.988)" fill="#fff"/>
      <path id="Tracé_932" data-name="Tracé 932" d="M82.127,336.983c-.665-1.1-1.755-.145-1.755-.145a4.479,4.479,0,0,0-1.768-3.519,2.579,2.579,0,0,0,2.557-2.13c.32-2.13-.78-1.138-1.8-1.155s-2.092,2.983-.746,4.657.989,4.555-2.13,7.316a6.08,6.08,0,0,0-1.628,2.556c.234-2.535.366-6.11-.379-8.5-1.278-4.052,1.15-5.143,1.849-7.171s-1.849-3.741-1.849-3.741,2.395-1.091,1.227-2.339-3.6-1.095-3.6.533a2.593,2.593,0,0,0,1.64,2.254s1.871,1.947,1.871,2.961-1.871,3.2-1.871,3.2.852-1.866-.852-1.947-2.258,2.182-1.559,3.2,1.87.153,1.87.153a19.716,19.716,0,0,0,.537,3.507,28.21,28.21,0,0,1-.055,5.249,5.893,5.893,0,0,0-1.517-2.254c-3.119-2.761-3.477-5.633-2.13-7.312s.281-4.687-.741-4.661-2.13-.976-1.8,1.159a2.579,2.579,0,0,0,2.556,2.131,4.5,4.5,0,0,0-1.768,3.519s-1.091-.946-1.751.145c-1.185,1.947,1.559,3.157,2.02,2.2,0,0,5.812,4.112,4.41,10.039l.324.482c-.038.477-.068.763-.068.763l.456-.2.52.767a17.132,17.132,0,0,0,.132,2.557l1.389-2.054c-1.41-5.9,4.4-10.021,4.4-10.021C80.567,340.136,83.311,338.93,82.127,336.983Z" transform="translate(-66.229 -321.988)" fill="#fff" opacity="0.2"/>
    </g>
    <path id="Tracé_933" data-name="Tracé 933" d="M81,396.841H67.686L66.25,382.26H82.437Z" transform="translate(-65.538 -356.579)" fill="#193b6a"/>
    <path id="Tracé_934" data-name="Tracé 934" d="M81,396.841H67.686L66.25,382.26H82.437Z" transform="translate(-65.538 -356.579)" fill="#fff" opacity="0.5"/>
    <rect id="Rectangle_103" data-name="Rectangle 103" width="17.61" height="3.217" transform="translate(0 24.07)" fill="#193b6a"/>
    <rect id="Rectangle_104" data-name="Rectangle 104" width="17.61" height="3.217" transform="translate(0 24.07)" fill="#fff" opacity="0.6"/>
  </g>
  <g id="freepik--Folder--inject-7" transform="translate(153.822 135.97)">
    <path id="Tracé_935" data-name="Tracé 935" d="M372.456,375.658l-.6-.827a1.142,1.142,0,0,0-.925-.482h-4.184a1.01,1.01,0,0,0-.873.482l-.5.827a1,1,0,0,1-.852.486h-2.5a1.01,1.01,0,0,0-1.014,1.087l.81,13.98a1.163,1.163,0,0,0,1.138,1.091h19.775a1.014,1.014,0,0,0,1.018-1.091l-.81-13.98a1.159,1.159,0,0,0-1.142-1.087h-8.441A1.147,1.147,0,0,1,372.456,375.658Z" transform="translate(-361.013 -374.35)" fill="#193b6a"/>
    <path id="Tracé_936" data-name="Tracé 936" d="M372.456,375.658l-.6-.827a1.142,1.142,0,0,0-.925-.482h-4.184a1.01,1.01,0,0,0-.873.482l-.5.827a1,1,0,0,1-.852.486h-2.5a1.01,1.01,0,0,0-1.014,1.087l.81,13.98a1.163,1.163,0,0,0,1.138,1.091h19.775a1.014,1.014,0,0,0,1.018-1.091l-.81-13.98a1.159,1.159,0,0,0-1.142-1.087h-8.441A1.147,1.147,0,0,1,372.456,375.658Z" transform="translate(-361.013 -374.35)" fill="#fff" opacity="0.5"/>
    <path id="Tracé_937" data-name="Tracé 937" d="M386.551,381.689H368.412a1.521,1.521,0,0,0-1.491,1.355l-1.091,12.109a1.227,1.227,0,0,0,1.248,1.359h18.138a1.521,1.521,0,0,0,1.491-1.359l1.091-12.109a1.223,1.223,0,0,0-1.249-1.355Z" transform="translate(-363.774 -378.562)" fill="#193b6a"/>
    <path id="Tracé_938" data-name="Tracé 938" d="M386.551,381.689H368.412a1.521,1.521,0,0,0-1.491,1.355l-1.091,12.109a1.227,1.227,0,0,0,1.248,1.359h18.138a1.521,1.521,0,0,0,1.491-1.359l1.091-12.109a1.223,1.223,0,0,0-1.249-1.355Z" transform="translate(-363.774 -378.562)" fill="#fff" opacity="0.7"/>
  </g>
  <g id="freepik--data-storage--inject-7" transform="translate(97.275 128.897)">
    <rect id="Rectangle_105" data-name="Rectangle 105" width="25.889" height="18.079" transform="translate(0.775 3.801)" fill="#263238"/>
    <rect id="Rectangle_106" data-name="Rectangle 106" width="20.622" height="6.055" rx="1.65" transform="translate(7.026 18.965)" fill="#193b6a"/>
    <rect id="Rectangle_107" data-name="Rectangle 107" width="20.622" height="6.055" rx="1.65" transform="translate(7.026 18.965)" opacity="0.2"/>
    <rect id="Rectangle_108" data-name="Rectangle 108" width="20.622" height="6.055" rx="1.65" transform="translate(0 18.965)" fill="#193b6a"/>
    <path id="Tracé_939" data-name="Tracé 939" d="M268.487,407.648a1.278,1.278,0,1,1-1.278-1.278A1.278,1.278,0,0,1,268.487,407.648Z" transform="translate(-249.896 -385.654)" fill="#f5f5f5" opacity="0.3"/>
    <circle id="Ellipse_16" data-name="Ellipse 16" cx="0.648" cy="0.648" r="0.648" transform="translate(16.673 21.347)" fill="#193b6a"/>
    <rect id="Rectangle_109" data-name="Rectangle 109" width="1.449" height="1.449" transform="translate(13.145 21.27)" fill="#f5f5f5" opacity="0.3"/>
    <rect id="Rectangle_110" data-name="Rectangle 110" width="20.622" height="6.055" rx="1.65" transform="translate(7.026 12.646)" fill="#193b6a"/>
    <rect id="Rectangle_111" data-name="Rectangle 111" width="20.622" height="6.055" rx="1.65" transform="translate(7.026 12.646)" opacity="0.2"/>
    <rect id="Rectangle_112" data-name="Rectangle 112" width="20.622" height="6.055" rx="1.65" transform="translate(0 12.646)" fill="#193b6a"/>
    <path id="Tracé_940" data-name="Tracé 940" d="M268.487,392.808a1.278,1.278,0,1,1-1.278-1.278A1.278,1.278,0,0,1,268.487,392.808Z" transform="translate(-249.896 -377.137)" fill="#f5f5f5" opacity="0.3"/>
    <path id="Tracé_941" data-name="Tracé 941" d="M268.715,393.651a.648.648,0,1,1-.622-.652A.648.648,0,0,1,268.715,393.651Z" transform="translate(-250.752 -377.98)" fill="#193b6a"/>
    <rect id="Rectangle_113" data-name="Rectangle 113" width="1.449" height="1.449" transform="translate(13.145 14.947)" fill="#f5f5f5" opacity="0.3"/>
    <rect id="Rectangle_114" data-name="Rectangle 114" width="20.622" height="6.055" rx="1.65" transform="translate(7.026 6.323)" fill="#193b6a"/>
    <rect id="Rectangle_115" data-name="Rectangle 115" width="20.622" height="6.055" rx="1.65" transform="translate(7.026 6.323)" opacity="0.2"/>
    <rect id="Rectangle_116" data-name="Rectangle 116" width="20.622" height="6.055" rx="1.65" transform="translate(0 6.323)" fill="#193b6a"/>
    <path id="Tracé_942" data-name="Tracé 942" d="M268.487,377.968a1.278,1.278,0,1,1-1.278-1.278A1.278,1.278,0,0,1,268.487,377.968Z" transform="translate(-249.896 -368.62)" fill="#f5f5f5" opacity="0.3"/>
    <path id="Tracé_943" data-name="Tracé 943" d="M268.715,378.818a.648.648,0,1,1-.643-.648A.648.648,0,0,1,268.715,378.818Z" transform="translate(-250.752 -369.469)" fill="#193b6a"/>
    <rect id="Rectangle_117" data-name="Rectangle 117" width="1.449" height="1.449" transform="translate(13.145 8.624)" fill="#f5f5f5" opacity="0.3"/>
    <rect id="Rectangle_118" data-name="Rectangle 118" width="20.622" height="6.055" rx="1.65" transform="translate(7.026)" fill="#193b6a"/>
    <rect id="Rectangle_119" data-name="Rectangle 119" width="20.622" height="6.055" rx="1.65" transform="translate(7.026)" opacity="0.2"/>
    <rect id="Rectangle_120" data-name="Rectangle 120" width="20.622" height="6.055" rx="1.65" fill="#193b6a"/>
    <path id="Tracé_944" data-name="Tracé 944" d="M268.487,363.128a1.278,1.278,0,1,1-1.278-1.278A1.278,1.278,0,0,1,268.487,363.128Z" transform="translate(-249.896 -360.103)" fill="#f5f5f5" opacity="0.3"/>
    <path id="Tracé_945" data-name="Tracé 945" d="M268.715,363.978a.648.648,0,1,1-.643-.648A.648.648,0,0,1,268.715,363.978Z" transform="translate(-250.752 -360.952)" fill="#193b6a"/>
    <rect id="Rectangle_121" data-name="Rectangle 121" width="1.449" height="1.449" transform="translate(13.145 2.301)" fill="#f5f5f5" opacity="0.3"/>
    <rect id="Rectangle_122" data-name="Rectangle 122" width="25.889" height="8.424" transform="translate(23.963 13.451)" fill="#263238"/>
    <rect id="Rectangle_123" data-name="Rectangle 123" width="20.622" height="6.055" rx="1.65" transform="translate(30.209 18.965)" fill="#193b6a"/>
    <rect id="Rectangle_124" data-name="Rectangle 124" width="20.622" height="6.055" rx="1.65" transform="translate(30.209 18.965)" opacity="0.2"/>
    <rect id="Rectangle_125" data-name="Rectangle 125" width="20.622" height="6.055" rx="1.65" transform="translate(23.188 18.965)" fill="#193b6a"/>
    <path id="Tracé_946" data-name="Tracé 946" d="M322.9,407.648a1.278,1.278,0,1,1-1.278-1.278A1.278,1.278,0,0,1,322.9,407.648Z" transform="translate(-281.123 -385.654)" fill="#f5f5f5" opacity="0.3"/>
    <path id="Tracé_947" data-name="Tracé 947" d="M323.135,408.5a.648.648,0,1,1-.648-.648.648.648,0,0,1,.648.648Z" transform="translate(-281.984 -386.503)" fill="#193b6a"/>
    <rect id="Rectangle_126" data-name="Rectangle 126" width="1.449" height="1.449" transform="translate(36.328 21.27)" fill="#f5f5f5" opacity="0.3"/>
    <rect id="Rectangle_127" data-name="Rectangle 127" width="20.622" height="6.055" rx="1.65" transform="translate(30.209 12.646)" fill="#193b6a"/>
    <rect id="Rectangle_128" data-name="Rectangle 128" width="20.622" height="6.055" rx="1.65" transform="translate(30.209 12.646)" opacity="0.2"/>
    <rect id="Rectangle_129" data-name="Rectangle 129" width="20.622" height="6.055" rx="1.65" transform="translate(23.188 12.646)" fill="#193b6a"/>
    <path id="Tracé_948" data-name="Tracé 948" d="M322.9,392.808a1.278,1.278,0,1,1-1.278-1.278A1.278,1.278,0,0,1,322.9,392.808Z" transform="translate(-281.123 -377.137)" fill="#f5f5f5" opacity="0.3"/>
    <path id="Tracé_949" data-name="Tracé 949" d="M323.135,393.658a.648.648,0,1,1-.648-.648A.648.648,0,0,1,323.135,393.658Z" transform="translate(-281.984 -377.986)" fill="#193b6a"/>
    <rect id="Rectangle_130" data-name="Rectangle 130" width="1.449" height="1.449" transform="translate(36.328 14.947)" fill="#f5f5f5" opacity="0.3"/>
  </g>
  <g id="freepik--Character--inject-7" transform="translate(36.311 37.171)">
    <path id="Tracé_950" data-name="Tracé 950" d="M162.883,388.806l-2.684.477-1.1-3.664-1.006-3.366,3.1-1.082.9,4.044Z" transform="translate(-127.041 -279.466)" fill="#e4897b"/>
    <path id="Tracé_951" data-name="Tracé 951" d="M162.109,385.323l-3,.4-1.014-3.4,3.1-1.1Z" transform="translate(-127.047 -279.494)" opacity="0.2"/>
    <path id="Tracé_952" data-name="Tracé 952" d="M122.409,391.371h-2.727l-.447-3.843-.4-3.511,3.238-.537.183,4.176Z" transform="translate(-104.509 -280.791)" fill="#e4897b"/>
    <path id="Tracé_953" data-name="Tracé 953" d="M122.251,387.7l-3.017-.132-.4-3.524,3.238-.545Z" transform="translate(-104.509 -280.803)" opacity="0.2"/>
    <path id="Tracé_954" data-name="Tracé 954" d="M124.845,404.332a4.5,4.5,0,0,0-1.457-.793h0s-1.585-1.572-2.348-6.306l-2.075-.541a1.764,1.764,0,0,0-1.888.737.9.9,0,0,0-.132.273,10.958,10.958,0,0,0-.222,1.538,42.76,42.76,0,0,0-.03,5.2h.375l.149-3.264c.055-1.108.9.192,1.146,1.385s.758,2.463,3.187,2.522C124.385,405.137,125.561,405.026,124.845,404.332Z" transform="translate(-103.242 -288.345)" fill="#263238"/>
    <path id="Tracé_955" data-name="Tracé 955" d="M167.345,403.576a4.5,4.5,0,0,0-1.457-.793h0s-1.585-1.572-2.348-6.306l-2.075-.545a1.764,1.764,0,0,0-1.888.737.9.9,0,0,0-.132.273,10.961,10.961,0,0,0-.222,1.538,42.753,42.753,0,0,0-.03,5.2h.375l.149-3.264c.055-1.108.9.192,1.146,1.385s.758,2.463,3.187,2.522C166.885,404.381,168.061,404.271,167.345,403.576Z" transform="translate(-127.634 -287.909)" fill="#263238"/>
    <path id="Tracé_956" data-name="Tracé 956" d="M131.358,298.179l-4.419.78c-4.457-11.108-7.627-20.38-9.868-28.075-1.206-4.154-2.211-7.844-2.936-11.121l.136,12.092v27.24h-4.355c-10.912-51.982-3.179-63.827-3.179-63.827l13.072-2.177a59.131,59.131,0,0,1,1.1,7.337l.588,4.333,5.113,26.362Z" transform="translate(-96.044 -194.48)" fill="#193b6a"/>
    <g id="Groupe_63" data-name="Groupe 63" transform="translate(8.036 38.61)" opacity="0.2">
      <path id="Tracé_957" data-name="Tracé 957" d="M131.358,298.179l-4.419.78c-4.457-11.108-7.627-20.38-9.868-28.075-1.206-4.154-2.211-7.844-2.936-11.121l.136,12.092v27.24h-4.355c-10.912-51.982-3.179-63.827-3.179-63.827l13.072-2.177a59.131,59.131,0,0,1,1.1,7.337l.588,4.333,5.113,26.362Z" transform="translate(-104.08 -233.09)"/>
    </g>
    <path id="Tracé_958" data-name="Tracé 958" d="M177.25,193.494l4.406-4.355s.153-1.167.579-1.491,3.451-1.423,3.835-1.176.886,2.684.371,3.132a10.9,10.9,0,0,1-3.549.972l-4.768,5.663Z" transform="translate(-138.038 -167.705)" fill="#eec1bb"/>
    <path id="Tracé_959" data-name="Tracé 959" d="M139.511,184.35c1.9,1.006,8.65,10.439,9.642,10.908s8.594-5.692,8.594-5.692l1.278,2.182s-6.234,8.807-9.757,8.381S139,192.245,139,192.245Z" transform="translate(-116.085 -166.507)" fill="#263238"/>
    <path id="Tracé_960" data-name="Tracé 960" d="M139.511,184.35c1.9,1.006,8.65,10.439,9.642,10.908s8.594-5.692,8.594-5.692l1.278,2.182s-6.234,8.807-9.757,8.381S139,192.245,139,192.245Z" transform="translate(-116.085 -166.507)" fill="#fff" opacity="0.1"/>
    <path id="Tracé_961" data-name="Tracé 961" d="M182.01,196.459l.528-.5,1.385,2.343-.5.959Z" transform="translate(-140.769 -173.171)" fill="#193b6a"/>
    <path id="Tracé_962" data-name="Tracé 962" d="M141.71,200.657c-1.577-1.5-2.71-2.752-2.71-2.752l.119-1.875.592-1.819a7.478,7.478,0,0,1,2,6.447Z" transform="translate(-116.085 -172.166)" opacity="0.2"/>
    <path id="Tracé_963" data-name="Tracé 963" d="M130.708,291.189c-1.206-4.154-2.13-7.844-2.868-11.121a102.416,102.416,0,0,1,.852-11.6S130.6,283.43,130.708,291.189Z" transform="translate(-109.68 -214.785)" opacity="0.2"/>
    <path id="Tracé_964" data-name="Tracé 964" d="M117.848,203.944a118,118,0,0,0,.051-17.116c-.264-2.748-.69-2.846-.69-2.846s-2.983-.29-5.565-.273a42.642,42.642,0,0,0-5.965.631,39.833,39.833,0,0,0-5.539,1.334c.3.852.575,1.7.852,2.454.341,1.018.643,1.96.916,2.842.511,1.645.912,3.068,1.231,4.346a47.232,47.232,0,0,1,1.415,9.8s-3.277,8.564-3.916,14.849l10.865,1.172,1.491-6.285,1.491,6.5,6.046-2.152Z" transform="translate(-93.783 -166.139)" fill="#263238"/>
    <path id="Tracé_965" data-name="Tracé 965" d="M117.848,203.944a118,118,0,0,0,.051-17.116c-.264-2.748-.69-2.846-.69-2.846s-2.983-.29-5.565-.273a42.642,42.642,0,0,0-5.965.631,39.833,39.833,0,0,0-5.539,1.334c.3.852.575,1.7.852,2.454.341,1.018.643,1.96.916,2.842.511,1.645.912,3.068,1.231,4.346a47.232,47.232,0,0,1,1.415,9.8s-3.277,8.564-3.916,14.849l10.865,1.172,1.491-6.285,1.491,6.5,6.046-2.152Z" transform="translate(-93.783 -166.139)" fill="#fff" opacity="0.1"/>
    <path id="Tracé_966" data-name="Tracé 966" d="M107.07,210.026c-.145-.716-.315-1.479-.524-2.3-.132-.52-.277-1.065-.426-1.645.426-1.453.852-.315.852-.315A13.119,13.119,0,0,1,107.07,210.026Z" transform="translate(-97.215 -178.557)" opacity="0.2"/>
    <path id="Tracé_967" data-name="Tracé 967" d="M116.83,190.377l5.4,9.659,1.278-10.367-2.45,3.072Z" transform="translate(-103.362 -169.561)" fill="#193b6a"/>
    <path id="Tracé_968" data-name="Tracé 968" d="M112.557,182.91a3.584,3.584,0,0,0-2.876,4.261l1.76-.584a20.961,20.961,0,0,1,5.646,3.089,11.013,11.013,0,0,1,2.608-3.251l1.811.213A8.1,8.1,0,0,0,112.557,182.91Z" transform="translate(-99.229 -165.536)" fill="#193b6a"/>
    <path id="Tracé_969" data-name="Tracé 969" d="M112.557,182.91a3.584,3.584,0,0,0-2.876,4.261l1.76-.584a20.961,20.961,0,0,1,5.646,3.089,11.013,11.013,0,0,1,2.608-3.251l1.811.213A8.1,8.1,0,0,0,112.557,182.91Z" transform="translate(-99.229 -165.536)" fill="#fff" opacity="0.1"/>
    <path id="Tracé_970" data-name="Tracé 970" d="M119.72,178.559a2.551,2.551,0,0,0-.426-.17c-.307-.243-.682-.827-.66-2.25a10.909,10.909,0,0,1,.153-1.662l-3.95-.737s1.346,2.659.222,4.632c-.388.17-.618.426-.575.737.294,2.284,5.2,4.491,5.2,4.491S122.106,179.871,119.72,178.559Z" transform="translate(-102.012 -160.418)" fill="#eec1bb"/>
    <path id="Tracé_971" data-name="Tracé 971" d="M119.32,174.477a10.9,10.9,0,0,0-.153,1.662,4.391,4.391,0,0,1-3.8-2.4Z" transform="translate(-102.524 -160.418)" opacity="0.2"/>
    <path id="Tracé_972" data-name="Tracé 972" d="M120.5,144.835s4.636-.588,5.488,3.14a5.748,5.748,0,0,1-2.024,5.808Z" transform="translate(-105.468 -143.81)" fill="#263238"/>
    <path id="Tracé_973" data-name="Tracé 973" d="M113.973,149.522c3.434-.187,4.64,1.589,5.087,5.113.558,4.406-.251,7.6-4.6,6.89C108.562,160.566,108.272,149.833,113.973,149.522Z" transform="translate(-99.363 -146.511)" fill="#eec1bb"/>
    <path id="Tracé_974" data-name="Tracé 974" d="M126.21,161.38a7.39,7.39,0,0,0,1.078,1.372.942.942,0,0,1-.882.426Z" transform="translate(-108.745 -153.325)" fill="#d4827d"/>
    <path id="Tracé_975" data-name="Tracé 975" d="M120.324,160.351c.026.281-.111.524-.3.537s-.358-.2-.379-.481.111-.524.3-.537S120.3,160.065,120.324,160.351Z" transform="translate(-104.977 -152.457)" fill="#263238"/>
    <path id="Tracé_976" data-name="Tracé 976" d="M120.17,159.516l.6-.285S120.5,159.767,120.17,159.516Z" transform="translate(-105.278 -152.091)" fill="#263238"/>
    <path id="Tracé_977" data-name="Tracé 977" d="M128.534,159.561c.026.281-.111.524-.3.537s-.358-.2-.379-.481.111-.524.3-.537S128.513,159.28,128.534,159.561Z" transform="translate(-109.689 -152.004)" fill="#263238"/>
    <path id="Tracé_978" data-name="Tracé 978" d="M128.38,158.735l.592-.285S128.708,158.987,128.38,158.735Z" transform="translate(-109.99 -151.643)" fill="#263238"/>
    <path id="Tracé_979" data-name="Tracé 979" d="M118.891,155.425a1.794,1.794,0,0,0-1.461.6" transform="translate(-103.706 -149.905)" fill="none" stroke="#263238" stroke-linecap="round" stroke-linejoin="round" stroke-width="0.686"/>
    <path id="Tracé_980" data-name="Tracé 980" d="M126.7,154.671a1.593,1.593,0,0,1,1.385.209" transform="translate(-109.026 -149.432)" fill="none" stroke="#263238" stroke-linecap="round" stroke-linejoin="round" stroke-width="0.686"/>
    <path id="Tracé_981" data-name="Tracé 981" d="M109.183,153.739s1.449-2.91,1.087-5.075c0,0,6.655-3.153,7.367,3.737,0,0,.332-6.17-5.582-5.987s-5.411,8.824-2.22,11.232C109.843,157.646,108.283,155.558,109.183,153.739Z" transform="translate(-98.006 -144.733)" fill="#263238"/>
    <path id="Tracé_982" data-name="Tracé 982" d="M111.115,143.311s2.821-.69,3.622.055-4.9,6.016-7.883,6.549c0,0-1.014,3.3-.213,4.849,0,0-3.358-1.172-3.515-6.285S108.345,141.449,111.115,143.311Z" transform="translate(-95.494 -142.555)" fill="#263238"/>
    <path id="Tracé_983" data-name="Tracé 983" d="M109.484,163.5a1.508,1.508,0,0,0-1.7-1.278c-1.057.17-1.444,2.386,1.231,2.765C109.4,165.032,109.594,164.648,109.484,163.5Z" transform="translate(-97.707 -153.798)" fill="#eec1bb"/>
    <path id="Tracé_984" data-name="Tracé 984" d="M99.658,145.255a4.483,4.483,0,0,0-4.316-2.77c-3.144.213-3.622,5.113-1.968,8.735s.533,4.793.533,4.793,1.755-.213,1.755-3.46a11.692,11.692,0,0,1,.107,2.075s1.172-1.649.055-4.793,2.45-1.7,2.45-1.7Z" transform="translate(-89.364 -142.474)" fill="#263238"/>
    <path id="Tracé_985" data-name="Tracé 985" d="M122.364,145s-1.491,4.793-5.484,6.234" transform="translate(-103.39 -143.924)" fill="none" stroke="#263238" stroke-linecap="round" stroke-linejoin="round" stroke-width="0.686"/>
    <path id="Tracé_986" data-name="Tracé 986" d="M120.38,168.5a2.765,2.765,0,0,0,1.969.8" transform="translate(-105.399 -157.411)" fill="none" stroke="#263238" stroke-linecap="round" stroke-linejoin="round" stroke-width="0.686"/>
    <path id="Tracé_987" data-name="Tracé 987" d="M123.329,161.017a.763.763,0,1,1-.763-.827.793.793,0,0,1,.763.827Z" transform="translate(-106.218 -152.642)" fill="none" stroke="#263238" stroke-linecap="round" stroke-linejoin="round" stroke-width="0.5"/>
    <path id="Tracé_988" data-name="Tracé 988" d="M129.639,160.7a.763.763,0,1,1-.758-.822A.8.8,0,0,1,129.639,160.7Z" transform="translate(-109.839 -152.464)" fill="none" stroke="#263238" stroke-linecap="round" stroke-linejoin="round" stroke-width="0.5"/>
    <path id="Tracé_989" data-name="Tracé 989" d="M125.38,161.561s.4-.852,1.172-.136" transform="translate(-108.269 -153.186)" fill="none" stroke="#263238" stroke-linecap="round" stroke-linejoin="round" stroke-width="0.5"/>
    <path id="Tracé_990" data-name="Tracé 990" d="M115.394,161.981s-4.261-.136-4.764-.107" transform="translate(-99.803 -153.606)" fill="none" stroke="#263238" stroke-linecap="round" stroke-linejoin="round" stroke-width="0.5"/>
    <path id="Tracé_991" data-name="Tracé 991" d="M111.466,207.57l-.2,10.878a.426.426,0,0,0,.477.426l7.163-.571a.426.426,0,0,0,.426-.426l.345-10.788a.426.426,0,0,0-.469-.452l-7.312.473a.426.426,0,0,0-.435.46Z" transform="translate(-100.171 -179.297)" fill="#193b6a"/>
    <path id="Tracé_992" data-name="Tracé 992" d="M111.466,207.57l-.2,10.878a.426.426,0,0,0,.477.426l7.163-.571a.426.426,0,0,0,.426-.426l.345-10.788a.426.426,0,0,0-.469-.452l-7.312.473a.426.426,0,0,0-.435.46Z" transform="translate(-100.171 -179.297)" fill="#fff" opacity="0.6"/>
    <path id="Tracé_993" data-name="Tracé 993" d="M111.965,208.185l-.2,10.878a.426.426,0,0,0,.477.447l7.162-.567a.426.426,0,0,0,.426-.426l.345-10.784a.426.426,0,0,0-.469-.456l-7.333.477A.426.426,0,0,0,111.965,208.185Z" transform="translate(-100.457 -179.664)" fill="#193b6a"/>
    <path id="Tracé_994" data-name="Tracé 994" d="M111.965,208.185l-.2,10.878a.426.426,0,0,0,.477.447l7.162-.567a.426.426,0,0,0,.426-.426l.345-10.784a.426.426,0,0,0-.469-.456l-7.333.477A.426.426,0,0,0,111.965,208.185Z" transform="translate(-100.457 -179.664)" fill="#fff" opacity="0.7"/>
    <path id="Tracé_995" data-name="Tracé 995" d="M120.96,220.145a1.065,1.065,0,1,1-1.065-1.065h.043a1.061,1.061,0,0,0,1.01.89A1.151,1.151,0,0,1,120.96,220.145Z" transform="translate(-104.509 -186.44)" opacity="0.2"/>
    <path id="Tracé_996" data-name="Tracé 996" d="M97.13,222.751l5.241-3.3s.4-1.108.886-1.334,3.677-.643,3.984-.328.285,2.816-.315,3.14a10.844,10.844,0,0,1-3.677.183l-5.871,4.5Z" transform="translate(-92.055 -185.632)" fill="#eec1bb"/>
    <path id="Tracé_997" data-name="Tracé 997" d="M91.573,188.32S95,193.3,94.5,197.558l-4.546,7.529,3.055-1.564,1.385,2.612s-3.515,5.411-7.989,4.133S91.573,188.32,91.573,188.32Z" transform="translate(-85.22 -168.786)" fill="#263238"/>
    <path id="Tracé_998" data-name="Tracé 998" d="M91.573,188.32S95,193.3,94.5,197.558l-4.546,7.529,3.055-1.564,1.385,2.612s-3.515,5.411-7.989,4.133S91.573,188.32,91.573,188.32Z" transform="translate(-85.22 -168.786)" fill="#fff" opacity="0.1"/>
    <path id="Tracé_999" data-name="Tracé 999" d="M102.75,223.24l1.738,3.23.392-.925L103.5,222.92Z" transform="translate(-95.281 -188.643)" fill="#193b6a"/>
  </g>
  <g id="freepik--Button--inject-7" transform="translate(73.879 45.984)">
    <path id="Tracé_1000" data-name="Tracé 1000" d="M193.343,187.337a1.969,1.969,0,1,1,1.964-1.968A1.969,1.969,0,0,1,193.343,187.337Z" transform="translate(-183.709 -174.708)" fill="#193b6a"/>
    <path id="Tracé_1001" data-name="Tracé 1001" d="M183.923,184.3h-.047a10.588,10.588,0,0,1-5.245-1.478l1.069-1.883a8.377,8.377,0,0,0,4.176,1.176Zm5.241-1.577L188.09,180.9a8.4,8.4,0,0,0,3.051-3.072l1.845,1.061A10.52,10.52,0,0,1,189.164,182.728ZM174.8,178.893a10.46,10.46,0,0,1-1.41-5.241h2.13a8.283,8.283,0,0,0,1.125,4.176Zm17.469-5.279a8.33,8.33,0,0,0-1.133-4.171l1.841-1.074a10.5,10.5,0,0,1,1.423,5.241Zm-15.637-4.12-1.841-1.065a10.55,10.55,0,0,1,3.835-3.835l1.069,1.841A8.479,8.479,0,0,0,176.633,169.494Zm11.411-3.085a8.446,8.446,0,0,0-4.159-1.193L183.876,163h0a10.575,10.575,0,0,1,5.224,1.479Z" transform="translate(-173.39 -163)" fill="#193b6a"/>
    <g id="Groupe_64" data-name="Groupe 64" opacity="0.6">
      <path id="Tracé_1002" data-name="Tracé 1002" d="M183.923,184.3h-.047a10.588,10.588,0,0,1-5.245-1.478l1.069-1.883a8.377,8.377,0,0,0,4.176,1.176Zm5.241-1.577L188.09,180.9a8.4,8.4,0,0,0,3.051-3.072l1.845,1.061A10.52,10.52,0,0,1,189.164,182.728ZM174.8,178.893a10.46,10.46,0,0,1-1.41-5.241h2.13a8.283,8.283,0,0,0,1.125,4.176Zm17.469-5.279a8.33,8.33,0,0,0-1.133-4.171l1.841-1.074a10.5,10.5,0,0,1,1.423,5.241Zm-15.637-4.12-1.841-1.065a10.55,10.55,0,0,1,3.835-3.835l1.069,1.841A8.479,8.479,0,0,0,176.633,169.494Zm11.411-3.085a8.446,8.446,0,0,0-4.159-1.193L183.876,163h0a10.575,10.575,0,0,1,5.224,1.479Z" transform="translate(-173.39 -163)" fill="#fff"/>
    </g>
  </g>
  <g id="freepik--data-points--inject-7" transform="translate(82.158 5.433)">
    <path id="Tracé_1003" data-name="Tracé 1003" d="M199.459,187.109a2.625,2.625,0,1,1,2.62-2.625A2.625,2.625,0,0,1,199.459,187.109Z" transform="translate(-195.122 -133.24)" fill="#193b6a"/>
    <path id="Tracé_1004" data-name="Tracé 1004" d="M199.459,187.109a2.625,2.625,0,1,1,2.62-2.625A2.625,2.625,0,0,1,199.459,187.109Z" transform="translate(-195.122 -133.24)" fill="#fff" opacity="0.5"/>
    <circle id="Ellipse_17" data-name="Ellipse 17" cx="4.316" cy="4.316" r="4.316" transform="translate(0 54.451) rotate(-76.72)" fill="none" stroke="#193b6a" stroke-miterlimit="10" stroke-width="3"/>
    <rect id="Rectangle_131" data-name="Rectangle 131" width="71" height="1" transform="translate(8.844 49.838)" fill="#193b6a"/>
    <path id="Tracé_1005" data-name="Tracé 1005" d="M204.852,136.53H204v-5.113a.426.426,0,0,1,.124-.3l26.064-25.991a.426.426,0,0,1,.3-.124h23.788v.852H230.664l-25.812,25.74Z" transform="translate(-199.237 -89.128)" fill="#193b6a"/>
    <path id="Tracé_1006" data-name="Tracé 1006" d="M266.634,232.939H234.678a.426.426,0,0,1-.3-.124l-30.252-30.252a.426.426,0,0,1-.124-.3V198h.852v4.086l30,30h31.782Z" transform="translate(-199.237 -142.502)" fill="#193b6a"/>
    <path id="Tracé_1007" data-name="Tracé 1007" d="M262.048,199.62H244.933a.426.426,0,0,1-.3-.124l-11.5-11.432.6-.605,11.381,11.308h16.937Z" transform="translate(-215.955 -136.453)" fill="#193b6a"/>
    <path id="Tracé_1008" data-name="Tracé 1008" d="M272.4,172.267l-.605-.6,11.466-11.543a.447.447,0,0,1,.3-.124h17.295v.852H283.737Z" transform="translate(-238.143 -120.694)" fill="#193b6a"/>
    <path id="Tracé_1009" data-name="Tracé 1009" d="M325.324,127.779h-67.65a.426.426,0,0,1-.3-.128l-6.792-6.86.605-.6,6.668,6.736h67.471Z" transform="translate(-225.97 -97.846)" fill="#193b6a"/>
    <path id="Tracé_1010" data-name="Tracé 1010" d="M283.584,90.807,283,90.2l11.078-11.078a.426.426,0,0,1,.3-.124h35.489v.852H294.538Z" transform="translate(-244.576 -74.207)" fill="#193b6a"/>
    <path id="Tracé_1011" data-name="Tracé 1011" d="M277.312,291.7l-17.188-17.184a.426.426,0,0,1-.123-.285V264h.852v10.051L277.9,291.095Z" transform="translate(-231.376 -180.381)" fill="#193b6a"/>
    <path id="Tracé_1012" data-name="Tracé 1012" d="M290.725,263.108l-.605-.592,11.3-11.372a.447.447,0,0,1,.3-.124h42.885v.852H301.9Z" transform="translate(-248.663 -172.931)" fill="#193b6a"/>
    <path id="Tracé_1013" data-name="Tracé 1013" d="M342.7,290.857H323.6a.426.426,0,0,1-.3-.124l-12-12,.605-.6L323.77,290H342.7Z" transform="translate(-260.812 -188.49)" fill="#193b6a"/>
    <circle id="Ellipse_18" data-name="Ellipse 18" cx="1.951" cy="1.951" r="1.951" transform="translate(83.342 3.268)" fill="#193b6a"/>
    <path id="Tracé_1014" data-name="Tracé 1014" d="M324.928,104.436a4.508,4.508,0,1,1,4.508-4.508A4.508,4.508,0,0,1,324.928,104.436Zm0-8.164a3.656,3.656,0,1,0,3.656,3.656A3.656,3.656,0,0,0,324.928,96.272Z" transform="translate(-266.052 -83.63)" fill="#193b6a"/>
    <circle id="Ellipse_19" data-name="Ellipse 19" cx="1.951" cy="1.951" r="1.951" transform="translate(56.924 14.346)" fill="#193b6a"/>
    <path id="Tracé_1015" data-name="Tracé 1015" d="M425.323,134.536a1.951,1.951,0,1,1-.57-1.383,1.952,1.952,0,0,1,.57,1.383Z" transform="translate(-324.018 -104.957)" fill="#193b6a"/>
    <circle id="Ellipse_20" data-name="Ellipse 20" cx="1.951" cy="1.951" r="1.951" transform="translate(60.759 37.781)" fill="#193b6a"/>
    <path id="Tracé_1016" data-name="Tracé 1016" d="M384.928,186.436a4.508,4.508,0,1,1,4.508-4.508A4.508,4.508,0,0,1,384.928,186.436Zm0-8.164a3.656,3.656,0,1,0,3.656,3.656A3.656,3.656,0,0,0,384.928,178.272Z" transform="translate(-300.487 -130.691)" fill="#193b6a"/>
    <circle id="Ellipse_21" data-name="Ellipse 21" cx="1.951" cy="1.951" r="1.951" transform="translate(82.489 49.285)" fill="#193b6a"/>
    <circle id="Ellipse_22" data-name="Ellipse 22" cx="1.951" cy="1.951" r="1.951" transform="translate(44.142 60.789)" fill="#193b6a"/>
    <circle id="Ellipse_23" data-name="Ellipse 23" cx="1.951" cy="1.951" r="1.951" transform="translate(93.994 76.555)" fill="#193b6a"/>
    <path id="Tracé_1017" data-name="Tracé 1017" d="M353.916,277.264a4.512,4.512,0,1,1,4.508-4.512A4.512,4.512,0,0,1,353.916,277.264Zm0-8.168a3.66,3.66,0,1,0,3.656,3.656A3.66,3.66,0,0,0,353.916,269.1Z" transform="translate(-282.684 -182.814)" fill="#193b6a"/>
    <path id="Tracé_1018" data-name="Tracé 1018" d="M359.323,276.2a1.951,1.951,0,1,1-1.951-1.952,1.951,1.951,0,0,1,1.951,1.952Z" transform="translate(-286.139 -186.264)" fill="#193b6a"/>
    <circle id="Ellipse_24" data-name="Ellipse 24" cx="1.951" cy="1.951" r="1.951" transform="translate(79.933 99.989)" fill="#193b6a"/>
    <path id="Tracé_1019" data-name="Tracé 1019" d="M300.651,325.7a1.956,1.956,0,1,1-1.956-1.951A1.956,1.956,0,0,1,300.651,325.7Z" transform="translate(-252.462 -214.672)" fill="#193b6a"/>
    <rect id="Rectangle_132" data-name="Rectangle 132" width="8.402" height="10.972" rx="1.51" transform="translate(89.792 0)" fill="#193b6a"/>
    <rect id="Rectangle_133" data-name="Rectangle 133" width="8.402" height="10.972" rx="1.51" transform="translate(89.792 0)" fill="#fff" opacity="0.6"/>
    <rect id="Rectangle_134" data-name="Rectangle 134" width="5.893" height="0.592" transform="translate(91.045 1.559)" fill="#193b6a"/>
    <rect id="Rectangle_135" data-name="Rectangle 135" width="5.893" height="0.592" transform="translate(91.045 2.595)" fill="#193b6a"/>
    <rect id="Rectangle_136" data-name="Rectangle 136" width="5.893" height="0.592" transform="translate(91.045 3.635)" fill="#193b6a"/>
    <rect id="Rectangle_137" data-name="Rectangle 137" width="5.893" height="0.592" transform="translate(91.045 4.67)" fill="#193b6a"/>
    <rect id="Rectangle_138" data-name="Rectangle 138" width="5.893" height="0.592" transform="translate(91.045 5.71)" fill="#193b6a"/>
    <rect id="Rectangle_139" data-name="Rectangle 139" width="5.893" height="0.592" transform="translate(91.045 6.749)" fill="#193b6a"/>
    <rect id="Rectangle_140" data-name="Rectangle 140" width="5.893" height="0.592" transform="translate(91.045 7.785)" fill="#193b6a"/>
    <rect id="Rectangle_141" data-name="Rectangle 141" width="3.818" height="0.592" transform="translate(91.045 8.824)" fill="#193b6a"/>
    <rect id="Rectangle_142" data-name="Rectangle 142" width="8.402" height="10.972" rx="1.51" transform="translate(50.201 58.178)" fill="#193b6a"/>
    <rect id="Rectangle_143" data-name="Rectangle 143" width="8.402" height="10.972" rx="1.51" transform="translate(50.201 58.178)" fill="#fff" opacity="0.6"/>
    <rect id="Rectangle_144" data-name="Rectangle 144" width="5.893" height="0.592" transform="translate(51.453 59.733)" fill="#193b6a"/>
    <rect id="Rectangle_145" data-name="Rectangle 145" width="5.893" height="0.592" transform="translate(51.453 60.772)" fill="#193b6a"/>
    <rect id="Rectangle_146" data-name="Rectangle 146" width="5.893" height="0.592" transform="translate(51.453 61.808)" fill="#193b6a"/>
    <rect id="Rectangle_147" data-name="Rectangle 147" width="5.893" height="0.592" transform="translate(51.453 62.847)" fill="#193b6a"/>
    <rect id="Rectangle_148" data-name="Rectangle 148" width="5.893" height="0.592" transform="translate(51.453 63.883)" fill="#193b6a"/>
    <rect id="Rectangle_149" data-name="Rectangle 149" width="5.893" height="0.592" transform="translate(51.453 64.923)" fill="#193b6a"/>
    <rect id="Rectangle_150" data-name="Rectangle 150" width="5.893" height="0.592" transform="translate(51.453 65.962)" fill="#193b6a"/>
    <rect id="Rectangle_151" data-name="Rectangle 151" width="3.818" height="0.592" transform="translate(51.453 66.998)" fill="#193b6a"/>
    <rect id="Rectangle_152" data-name="Rectangle 152" width="8.402" height="10.972" rx="1.51" transform="translate(99.354 69.984)" fill="#193b6a"/>
    <rect id="Rectangle_153" data-name="Rectangle 153" width="8.402" height="10.972" rx="1.51" transform="translate(99.354 69.984)" fill="#fff" opacity="0.6"/>
    <rect id="Rectangle_154" data-name="Rectangle 154" width="5.893" height="0.592" transform="translate(100.606 71.544)" fill="#193b6a"/>
    <rect id="Rectangle_155" data-name="Rectangle 155" width="5.893" height="0.592" transform="translate(100.606 72.579)" fill="#193b6a"/>
    <rect id="Rectangle_156" data-name="Rectangle 156" width="5.893" height="0.592" transform="translate(100.606 73.619)" fill="#193b6a"/>
    <rect id="Rectangle_157" data-name="Rectangle 157" width="5.893" height="0.592" transform="translate(100.606 74.659)" fill="#193b6a"/>
    <rect id="Rectangle_158" data-name="Rectangle 158" width="5.893" height="0.592" transform="translate(100.606 75.694)" fill="#193b6a"/>
    <rect id="Rectangle_159" data-name="Rectangle 159" width="5.893" height="0.592" transform="translate(100.606 76.734)" fill="#193b6a"/>
    <rect id="Rectangle_160" data-name="Rectangle 160" width="5.893" height="0.592" transform="translate(100.606 77.769)" fill="#193b6a"/>
    <rect id="Rectangle_161" data-name="Rectangle 161" width="3.818" height="0.592" transform="translate(100.606 78.809)" fill="#193b6a"/>
    <rect id="Rectangle_162" data-name="Rectangle 162" width="8.402" height="10.972" rx="1.51" transform="translate(102.686 21.036)" fill="#193b6a"/>
    <rect id="Rectangle_163" data-name="Rectangle 163" width="8.402" height="10.972" rx="1.51" transform="translate(102.686 21.036)" fill="#fff" opacity="0.6"/>
    <rect id="Rectangle_164" data-name="Rectangle 164" width="5.893" height="0.592" transform="translate(103.938 22.595)" fill="#193b6a"/>
    <rect id="Rectangle_165" data-name="Rectangle 165" width="5.893" height="0.592" transform="translate(103.938 23.631)" fill="#193b6a"/>
    <rect id="Rectangle_166" data-name="Rectangle 166" width="5.893" height="0.592" transform="translate(103.938 24.67)" fill="#193b6a"/>
    <rect id="Rectangle_167" data-name="Rectangle 167" width="5.893" height="0.592" transform="translate(103.938 25.71)" fill="#193b6a"/>
    <rect id="Rectangle_168" data-name="Rectangle 168" width="5.893" height="0.592" transform="translate(103.938 26.745)" fill="#193b6a"/>
    <rect id="Rectangle_169" data-name="Rectangle 169" width="5.893" height="0.592" transform="translate(103.938 27.785)" fill="#193b6a"/>
    <rect id="Rectangle_170" data-name="Rectangle 170" width="5.893" height="0.592" transform="translate(103.938 28.82)" fill="#193b6a"/>
    <rect id="Rectangle_171" data-name="Rectangle 171" width="3.818" height="0.592" transform="translate(103.938 29.86)" fill="#193b6a"/>
    <rect id="Rectangle_172" data-name="Rectangle 172" width="8.402" height="10.972" rx="1.51" transform="translate(50.358 108.848)" fill="#193b6a"/>
    <rect id="Rectangle_173" data-name="Rectangle 173" width="8.402" height="10.972" rx="1.51" transform="translate(50.358 108.848)" fill="#fff" opacity="0.6"/>
    <rect id="Rectangle_174" data-name="Rectangle 174" width="5.893" height="0.592" transform="translate(51.611 110.407)" fill="#193b6a"/>
    <rect id="Rectangle_175" data-name="Rectangle 175" width="5.893" height="0.592" transform="translate(51.611 111.442)" fill="#193b6a"/>
    <rect id="Rectangle_176" data-name="Rectangle 176" width="5.893" height="0.592" transform="translate(51.611 112.482)" fill="#193b6a"/>
    <rect id="Rectangle_177" data-name="Rectangle 177" width="5.893" height="0.592" transform="translate(51.611 113.517)" fill="#193b6a"/>
    <rect id="Rectangle_178" data-name="Rectangle 178" width="5.893" height="0.592" transform="translate(51.611 114.557)" fill="#193b6a"/>
    <rect id="Rectangle_179" data-name="Rectangle 179" width="5.893" height="0.592" transform="translate(51.611 115.597)" fill="#193b6a"/>
    <rect id="Rectangle_180" data-name="Rectangle 180" width="5.893" height="0.592" transform="translate(51.611 116.632)" fill="#193b6a"/>
    <rect id="Rectangle_181" data-name="Rectangle 181" width="3.818" height="0.592" transform="translate(51.611 117.672)" fill="#193b6a"/>
    <rect id="Rectangle_182" data-name="Rectangle 182" width="19.6" height="19.6" rx="1.54" transform="translate(90.807 41.202)" fill="#193b6a"/>
    <circle id="Ellipse_25" data-name="Ellipse 25" cx="6.604" cy="6.604" r="6.604" transform="translate(94.002 44.398)" fill="#fff" opacity="0.5"/>
    <path id="Tracé_1020" data-name="Tracé 1020" d="M420.067,178.544h6.6a6.6,6.6,0,1,1-3.3-5.731Z" transform="translate(-319.461 -127.541)" fill="#fff" opacity="0.7"/>
    <circle id="Ellipse_26" data-name="Ellipse 26" cx="5.113" cy="5.113" r="5.113" transform="translate(95.493 45.889)" fill="#193b6a"/>
    <circle id="Ellipse_27" data-name="Ellipse 27" cx="5.113" cy="5.113" r="5.113" transform="translate(95.493 45.889)" fill="#fff" opacity="0.3"/>
    <text id="_80_" data-name="80%" transform="translate(98.378 50.443)" fill="#fff" font-size="1" font-family="SegoeUI, Segoe UI"><tspan x="0" y="0" letter-spacing="0.019em">8</tspan><tspan y="0">0%</tspan></text>
    <rect id="Rectangle_183" data-name="Rectangle 183" width="14.913" height="14.913" rx="1.17" transform="translate(77.134 82.554)" fill="#193b6a"/>
    <rect id="Rectangle_184" data-name="Rectangle 184" width="1.917" height="0.976" transform="translate(87.423 94.966)" fill="#fff" opacity="0.5"/>
    <rect id="Rectangle_185" data-name="Rectangle 185" width="1.917" height="0.976" transform="translate(87.423 85.23)" fill="#fff"/>
    <rect id="Rectangle_186" data-name="Rectangle 186" width="1.917" height="0.976" transform="translate(87.423 86.853)" fill="#fff"/>
    <rect id="Rectangle_187" data-name="Rectangle 187" width="1.917" height="0.976" transform="translate(87.423 88.476)" fill="#fff" opacity="0.75"/>
    <rect id="Rectangle_188" data-name="Rectangle 188" width="1.917" height="0.976" transform="translate(87.423 90.096)" fill="#fff" opacity="0.5"/>
    <rect id="Rectangle_189" data-name="Rectangle 189" width="1.917" height="0.976" transform="translate(87.423 91.719)" fill="#fff" opacity="0.5"/>
    <rect id="Rectangle_190" data-name="Rectangle 190" width="1.917" height="0.976" transform="translate(87.423 93.342)" fill="#fff" opacity="0.5"/>
    <rect id="Rectangle_191" data-name="Rectangle 191" width="1.917" height="0.976" transform="translate(84.816 94.966)" fill="#fff" opacity="0.5"/>
    <rect id="Rectangle_192" data-name="Rectangle 192" width="1.917" height="0.976" transform="translate(84.816 90.096)" fill="#fff"/>
    <rect id="Rectangle_193" data-name="Rectangle 193" width="1.917" height="0.976" transform="translate(84.816 91.719)" fill="#fff" opacity="0.75"/>
    <rect id="Rectangle_194" data-name="Rectangle 194" width="1.917" height="0.976" transform="translate(84.816 93.342)" fill="#fff" opacity="0.5"/>
    <rect id="Rectangle_195" data-name="Rectangle 195" width="1.917" height="0.976" transform="translate(82.204 94.966)" fill="#fff" opacity="0.5"/>
    <rect id="Rectangle_196" data-name="Rectangle 196" width="1.917" height="0.976" transform="translate(82.204 88.476)" fill="#fff"/>
    <rect id="Rectangle_197" data-name="Rectangle 197" width="1.917" height="0.976" transform="translate(82.204 90.096)" fill="#fff" opacity="0.75"/>
    <rect id="Rectangle_198" data-name="Rectangle 198" width="1.917" height="0.976" transform="translate(82.204 91.719)" fill="#fff" opacity="0.5"/>
    <rect id="Rectangle_199" data-name="Rectangle 199" width="1.917" height="0.976" transform="translate(82.204 93.342)" fill="#fff" opacity="0.5"/>
    <rect id="Rectangle_200" data-name="Rectangle 200" width="1.917" height="0.976" transform="translate(79.596 94.966)" fill="#fff" opacity="0.5"/>
    <rect id="Rectangle_201" data-name="Rectangle 201" width="1.917" height="0.976" transform="translate(79.596 91.719)" fill="#fff"/>
    <rect id="Rectangle_202" data-name="Rectangle 202" width="1.917" height="0.976" transform="translate(79.596 93.342)" fill="#fff" opacity="0.75"/>
    <rect id="Rectangle_203" data-name="Rectangle 203" width="14.913" height="14.913" rx="1.17" transform="translate(65.727 10.793)" fill="#193b6a"/>
    <path id="Tracé_1021" data-name="Tracé 1021" d="M359.23,102.177v-.933l-.482-.043a2.412,2.412,0,0,0-.358-.852l.307-.375-.656-.686-.375.311a2.442,2.442,0,0,0-.852-.358l-.047-.481h-.933l-.043.481a2.463,2.463,0,0,0-.852.358l-.371-.311-.66.66.307.375a2.558,2.558,0,0,0-.358.852l-.477.043v.933l.477.047a2.611,2.611,0,0,0,.358.852l-.307.375.66.66.371-.311a2.462,2.462,0,0,0,.852.358l.043.481h.933l.047-.481a2.441,2.441,0,0,0,.852-.358l.375.311.656-.66-.307-.375a2.443,2.443,0,0,0,.358-.852Zm-2.936.8a1.278,1.278,0,1,1,1.278-1.278A1.278,1.278,0,0,1,356.294,102.974Z" transform="translate(-284.968 -85.547)" fill="#fff" opacity="0.9"/>
    <path id="Tracé_1022" data-name="Tracé 1022" d="M369.8,109.407v-.733l-.375-.034a1.985,1.985,0,0,0-.281-.677l.243-.29-.516-.52-.294.243a1.965,1.965,0,0,0-.673-.281l-.038-.375h-.729l-.038.375a1.964,1.964,0,0,0-.673.281l-.294-.243-.516.52.243.29a1.9,1.9,0,0,0-.281.677l-.379.034v.733l.379.034a1.883,1.883,0,0,0,.281.673l-.243.294.516.516.294-.239a1.955,1.955,0,0,0,.673.277l.038.379h.729l.038-.379a1.956,1.956,0,0,0,.673-.277l.294.239.516-.516-.243-.294a1.962,1.962,0,0,0,.281-.673Zm-2.3.622a.712.712,0,1,0-.009-.013Z" transform="translate(-291.752 -90.127)" fill="#fff" opacity="0.6"/>
    <path id="Tracé_1023" data-name="Tracé 1023" d="M361.928,114.833v-.614l-.315-.03a1.656,1.656,0,0,0-.239-.571l.2-.243-.426-.426-.247.2a1.529,1.529,0,0,0-.567-.239l-.03-.315h-.614l-.03.315a1.59,1.59,0,0,0-.567.239l-.243-.2-.426.426.2.243a1.649,1.649,0,0,0-.234.571l-.315.03v.614l.315.03a1.661,1.661,0,0,0,.234.567l-.2.243.426.426.243-.2a1.66,1.66,0,0,0,.567.234l.03.315h.614l.03-.315a1.593,1.593,0,0,0,.567-.234l.247.2.426-.426-.2-.243a1.671,1.671,0,0,0,.239-.567Zm-1.934.524a.831.831,0,1,1,.831-.831.852.852,0,0,1-.831.831Z" transform="translate(-287.666 -93.49)" fill="#fff" opacity="0.4"/>
    <rect id="Rectangle_204" data-name="Rectangle 204" width="13.102" height="8.522" transform="translate(66.094 35.365)" fill="#193b6a"/>
    <rect id="Rectangle_205" data-name="Rectangle 205" width="13.102" height="8.522" transform="translate(66.094 35.365)" fill="#fff" opacity="0.6"/>
    <rect id="Rectangle_206" data-name="Rectangle 206" width="12.143" height="6.498" transform="translate(66.571 36.963)" fill="#193b6a"/>
    <rect id="Rectangle_207" data-name="Rectangle 207" width="8.982" height="0.281" transform="translate(67.559 37.934)" fill="#fff"/>
    <rect id="Rectangle_208" data-name="Rectangle 208" width="4.312" height="0.281" transform="translate(67.559 38.791)" fill="#fff"/>
    <rect id="Rectangle_209" data-name="Rectangle 209" width="5.428" height="0.281" transform="translate(67.559 39.647)" fill="#fff"/>
    <rect id="Rectangle_210" data-name="Rectangle 210" width="1.913" height="0.281" transform="translate(67.559 40.504)" fill="#fff"/>
    <rect id="Rectangle_211" data-name="Rectangle 211" width="1.24" height="0.281" transform="translate(67.559 41.36)" fill="#fff"/>
    <rect id="Rectangle_212" data-name="Rectangle 212" width="13.102" height="8.522" transform="translate(86.972 100.343)" fill="#193b6a"/>
    <rect id="Rectangle_213" data-name="Rectangle 213" width="13.102" height="8.522" transform="translate(86.972 100.343)" fill="#fff" opacity="0.6"/>
    <rect id="Rectangle_214" data-name="Rectangle 214" width="12.143" height="6.498" transform="translate(87.449 101.941)" fill="#193b6a"/>
    <rect id="Rectangle_215" data-name="Rectangle 215" width="8.982" height="0.281" transform="translate(88.438 102.912)" fill="#fff"/>
    <rect id="Rectangle_216" data-name="Rectangle 216" width="4.312" height="0.281" transform="translate(88.438 103.769)" fill="#fff"/>
    <rect id="Rectangle_217" data-name="Rectangle 217" width="5.428" height="0.281" transform="translate(88.438 104.625)" fill="#fff"/>
    <rect id="Rectangle_218" data-name="Rectangle 218" width="1.913" height="0.281" transform="translate(88.438 105.481)" fill="#fff"/>
    <rect id="Rectangle_219" data-name="Rectangle 219" width="1.24" height="0.281" transform="translate(88.438 106.338)" fill="#fff"/>
    <g id="Groupe_65" data-name="Groupe 65" transform="translate(0.242 3.268)" opacity="0.4">
      <rect id="Rectangle_220" data-name="Rectangle 220" width="71" height="1" transform="translate(8.601 46.57)" fill="#fff"/>
      <path id="Tracé_1024" data-name="Tracé 1024" d="M204.852,136.53H204v-5.113a.426.426,0,0,1,.124-.3l26.064-25.991a.426.426,0,0,1,.3-.124h23.788v.852H230.664l-25.812,25.74Z" transform="translate(-199.479 -92.396)" fill="#fff"/>
      <path id="Tracé_1025" data-name="Tracé 1025" d="M266.634,232.939H234.678a.426.426,0,0,1-.3-.124l-30.252-30.252a.426.426,0,0,1-.124-.3V198h.852v4.086l30,30h31.782Z" transform="translate(-199.479 -145.771)" fill="#fff"/>
      <path id="Tracé_1026" data-name="Tracé 1026" d="M262.048,199.62H244.933a.426.426,0,0,1-.3-.124l-11.5-11.432.6-.605,11.381,11.308h16.937Z" transform="translate(-216.197 -139.721)" fill="#fff"/>
      <path id="Tracé_1027" data-name="Tracé 1027" d="M272.4,172.267l-.605-.6,11.466-11.543a.447.447,0,0,1,.3-.124h17.295v.852H283.737Z" transform="translate(-238.385 -123.962)" fill="#fff"/>
      <path id="Tracé_1028" data-name="Tracé 1028" d="M325.324,127.779h-67.65a.426.426,0,0,1-.3-.128l-6.792-6.86.605-.6,6.668,6.736h67.471Z" transform="translate(-226.212 -101.114)" fill="#fff"/>
      <path id="Tracé_1029" data-name="Tracé 1029" d="M283.584,90.807,283,90.2l11.078-11.078a.426.426,0,0,1,.3-.124h35.489v.852H294.538Z" transform="translate(-244.819 -77.475)" fill="#fff"/>
      <path id="Tracé_1030" data-name="Tracé 1030" d="M277.312,291.7l-17.188-17.184a.426.426,0,0,1-.123-.285V264h.852v10.051L277.9,291.095Z" transform="translate(-231.618 -183.649)" fill="#fff"/>
      <path id="Tracé_1031" data-name="Tracé 1031" d="M290.725,263.108l-.605-.592,11.3-11.372a.447.447,0,0,1,.3-.124h42.885v.852H301.9Z" transform="translate(-248.905 -176.2)" fill="#fff"/>
      <path id="Tracé_1032" data-name="Tracé 1032" d="M342.7,290.857H323.6a.426.426,0,0,1-.3-.124l-12-12,.605-.6L323.77,290H342.7Z" transform="translate(-261.055 -191.758)" fill="#fff"/>
      <circle id="Ellipse_28" data-name="Ellipse 28" cx="1.951" cy="1.951" r="1.951" transform="translate(83.099)" fill="#fff"/>
      <path id="Tracé_1033" data-name="Tracé 1033" d="M324.928,104.436a4.508,4.508,0,1,1,4.508-4.508A4.508,4.508,0,0,1,324.928,104.436Zm0-8.164a3.656,3.656,0,1,0,3.656,3.656A3.656,3.656,0,0,0,324.928,96.272Z" transform="translate(-266.294 -86.898)" fill="#fff"/>
      <path id="Tracé_1034" data-name="Tracé 1034" d="M425.323,134.536a1.951,1.951,0,1,1-.57-1.383,1.952,1.952,0,0,1,.57,1.383Z" transform="translate(-324.26 -108.225)" fill="#fff"/>
      <circle id="Ellipse_29" data-name="Ellipse 29" cx="1.951" cy="1.951" r="1.951" transform="translate(60.517 34.513)" fill="#fff"/>
      <path id="Tracé_1035" data-name="Tracé 1035" d="M384.928,186.436a4.508,4.508,0,1,1,4.508-4.508A4.508,4.508,0,0,1,384.928,186.436Zm0-8.164a3.656,3.656,0,1,0,3.656,3.656A3.656,3.656,0,0,0,384.928,178.272Z" transform="translate(-300.729 -133.959)" fill="#fff"/>
      <circle id="Ellipse_30" data-name="Ellipse 30" cx="1.951" cy="1.951" r="1.951" transform="translate(43.9 57.521)" fill="#fff"/>
      <circle id="Ellipse_31" data-name="Ellipse 31" cx="1.951" cy="1.951" r="1.951" transform="translate(93.751 73.287)" fill="#fff"/>
      <path id="Tracé_1036" data-name="Tracé 1036" d="M353.916,277.264a4.512,4.512,0,1,1,4.508-4.512A4.512,4.512,0,0,1,353.916,277.264Zm0-8.168a3.66,3.66,0,1,0,3.656,3.656A3.66,3.66,0,0,0,353.916,269.1Z" transform="translate(-282.927 -186.082)" fill="#fff"/>
      <circle id="Ellipse_32" data-name="Ellipse 32" cx="1.951" cy="1.951" r="1.951" transform="translate(79.691 96.721)" fill="#fff"/>
      <path id="Tracé_1037" data-name="Tracé 1037" d="M300.651,325.7a1.956,1.956,0,1,1-1.956-1.951A1.956,1.956,0,0,1,300.651,325.7Z" transform="translate(-252.704 -217.94)" fill="#fff"/>
      <path id="Tracé_1038" data-name="Tracé 1038" d="M198.337,186.3a4.955,4.955,0,1,1,3.513-1.451A4.955,4.955,0,0,1,198.337,186.3Zm0-8.632a3.677,3.677,0,1,0,3.677,3.677,3.677,3.677,0,0,0-3.677-3.677Z" transform="translate(-193.39 -133.368)" fill="#fff"/>
    </g>
  </g>
</svg>
