<svg xmlns="http://www.w3.org/2000/svg" xmlns:xlink="http://www.w3.org/1999/xlink" width="160.51" height="158.642" viewBox="0 0 160.51 158.642">
  <defs>
    <clipPath id="clip-path">
      <path id="Tracé_1123" data-name="Tracé 1123" d="M124.852,341.891s-7.316-8.525-8.654-11.473c0,0-5.037-.165-5.724,4.253a33.986,33.986,0,0,0,0,8.9s4.965,13.551,7.03,18.681Z" transform="translate(-110.182 -330.418)" fill="#757575" stroke="#263238" stroke-linecap="round" stroke-linejoin="round" stroke-width="1"/>
    </clipPath>
    <clipPath id="clip-path-2">
      <path id="Tracé_1151" data-name="Tracé 1151" d="M135.666,356.412s6.579-4.651,18.552.236l8.983-2.1s5.81,15.78,2.325,31.953c0,0-7.8,5.591-20.845,5.563-14.156-.036-17.662-5.563-17.662-5.563l2.025-5.162c-1.22-5.9-2.8-15.347-1.6-20.241C129.277,353.661,135.666,356.412,135.666,356.412Z" transform="translate(-127.02 -354.413)" fill="#757575" stroke="#263238" stroke-linecap="round" stroke-linejoin="round" stroke-width="1"/>
    </clipPath>
    <clipPath id="clip-path-3">
      <path id="Tracé_1167" data-name="Tracé 1167" d="M227.351,341.681a53.661,53.661,0,0,0,.218,15.383c1.338,8.586,3.434,8.5,3.434,8.5s11.966-14.789,15.165-20.767c0,0-.758-8.586-4.125-10.41Z" transform="translate(-226.901 -334.39)" fill="#757575" stroke="#263238" stroke-linecap="round" stroke-linejoin="round" stroke-width="1"/>
    </clipPath>
    <clipPath id="clip-path-4">
      <path id="Tracé_1173" data-name="Tracé 1173" d="M169.653,352.55a26.834,26.834,0,0,0-11.523-4.4c-6.568-.766-6.382,3.1-6.382,3.1a1.134,1.134,0,0,0-.63,1.431C151.391,353.781,160.284,354.829,169.653,352.55Z" transform="translate(-151.051 -348.05)" fill="#757575" stroke="#263238" stroke-linecap="round" stroke-linejoin="round" stroke-width="1"/>
    </clipPath>
  </defs>
  <g id="Directions-bro" transform="translate(0.573)">
    <g id="freepik--background-simple--inject-2" transform="translate(2.864 0)">
      <path id="Tracé_1039" data-name="Tracé 1039" d="M61.753,78.527S51.78,104.311,65.8,130.275s42.886,39.68,65.992,51.408,47.1,6.016,58.5-13.193-4.236-32.922-4.257-60.314,4.1-34.644-10.732-57.786-51.178-28.266-78.667-11.1S61.753,78.527,61.753,78.527Z" transform="translate(-48.187 -29.116)" fill="#fff" opacity="0.7"/>
      <path id="Tracé_1040" data-name="Tracé 1040" d="M64.7,202.336c8.443,8.922,29.17,5.655,38.146,0,29.141-18.36,80.223-48.915,82.534-93.185.984-18.818-15.587-28.7-22.512-31.6C146.269,70.595,128.025,68.5,110,67.7c-18.806-.842-38.994-.186-55.918,9-6.414,3.471-12.467,7.944-16.61,14.037a44.216,44.216,0,0,0-7.273,21c-1.037,12,2.186,24.03,7.062,35.04s11.38,21.207,17.347,31.662C58.5,185.255,57.6,194.814,64.7,202.336Z" transform="translate(-30.006 -53.722)" fill="#193b6a"/>
      <path id="Tracé_1041" data-name="Tracé 1041" d="M64.7,202.336c8.443,8.922,29.17,5.655,38.146,0,29.141-18.36,80.223-48.915,82.534-93.185.984-18.818-15.587-28.7-22.512-31.6C146.269,70.595,128.025,68.5,110,67.7c-18.806-.842-38.994-.186-55.918,9-6.414,3.471-12.467,7.944-16.61,14.037a44.216,44.216,0,0,0-7.273,21c-1.037,12,2.186,24.03,7.062,35.04s11.38,21.207,17.347,31.662C58.5,185.255,57.6,194.814,64.7,202.336Z" transform="translate(-30.006 -53.722)" fill="#fff" opacity="0.7"/>
    </g>
    <g id="freepik--Buildings--inject-2" transform="translate(0 9.95)">
      <path id="Tracé_1042" data-name="Tracé 1042" d="M332.72,212.144c.1-30.894.1-65.237,0-95.924" transform="translate(-221.563 -95.01)" fill="none" stroke="#263238" stroke-linecap="round" stroke-linejoin="round" stroke-width="1"/>
      <path id="Tracé_1043" data-name="Tracé 1043" d="M348.77,89.52c.082,34.157.082,64.207,0,98.353" transform="translate(-231.872 -77.861)" fill="none" stroke="#263238" stroke-linecap="round" stroke-linejoin="round" stroke-width="1"/>
      <path id="Tracé_1044" data-name="Tracé 1044" d="M332.72,72.335V59.814a6.922,6.922,0,0,1,2.862-.512,5.931,5.931,0,0,1,2.862.512V63.3" transform="translate(-221.563 -58.451)" fill="none" stroke="#263238" stroke-linecap="round" stroke-linejoin="round" stroke-width="1"/>
      <path id="Tracé_1045" data-name="Tracé 1045" d="M377.027,59.3l1.181.479-7.573,6.439L346.74,70.111l-1.13-.336" transform="translate(-229.842 -58.452)" fill="none" stroke="#263238" stroke-linecap="round" stroke-linejoin="round" stroke-width="1"/>
      <path id="Tracé_1046" data-name="Tracé 1046" d="M345.61,62.024l23.114-5.094,8.3.848-7.133,6.386L345.61,68.252Z" transform="translate(-229.842 -56.93)" fill="none" stroke="#263238" stroke-linecap="round" stroke-linejoin="round" stroke-width="1"/>
      <path id="Tracé_1047" data-name="Tracé 1047" d="M278.86,84.33l-.969.58,5.874,7.008L297.5,95.738l1.467-.368" transform="translate(-186.348 -74.528)" fill="none" stroke="#263238" stroke-linecap="round" stroke-linejoin="round" stroke-width="1"/>
      <path id="Tracé_1048" data-name="Tracé 1048" d="M300.709,87.445,286.449,81.95,280.6,82.8l6.039,7.2,14.07,3.835Z" transform="translate(-188.089 -72.999)" fill="none" stroke="#263238" stroke-linecap="round" stroke-linejoin="round" stroke-width="1"/>
      <line id="Ligne_6" data-name="Ligne 6" y2="122.139" transform="translate(66.632 18.445)" fill="none" stroke="#263238" stroke-linecap="round" stroke-linejoin="round" stroke-width="1"/>
      <path id="Tracé_1049" data-name="Tracé 1049" d="M114.63,82.57c11.222,2.658,22.312,6.593,33.5,9.273" transform="translate(-81.493 -73.398)" fill="none" stroke="#263238" stroke-linecap="round" stroke-linejoin="round" stroke-width="1"/>
      <path id="Tracé_1050" data-name="Tracé 1050" d="M78.21,101.76c15.308,3.663,31.048,7.6,46.524,11.534" transform="translate(-58.101 -85.723)" fill="none" stroke="#263238" stroke-linecap="round" stroke-linejoin="round" stroke-width="1"/>
      <path id="Tracé_1051" data-name="Tracé 1051" d="M50.22,124.93c18.524,4.318,37.484,8.253,56.537,12.342" transform="translate(-40.125 -100.573)" fill="none" stroke="#263238" stroke-linecap="round" stroke-linejoin="round" stroke-width="1"/>
      <path id="Tracé_1052" data-name="Tracé 1052" d="M34.22,152q31.005,5.9,62.247,11.766" transform="translate(-29.848 -117.947)" fill="none" stroke="#263238" stroke-linecap="round" stroke-linejoin="round" stroke-width="1"/>
      <line id="Ligne_7" data-name="Ligne 7" x2="66.632" y2="10.643" transform="translate(0 44.301)" fill="none" stroke="#263238" stroke-linecap="round" stroke-linejoin="round" stroke-width="1"/>
      <line id="Ligne_8" data-name="Ligne 8" x2="66.632" y2="8.689" transform="translate(0 55.379)" fill="none" stroke="#263238" stroke-linecap="round" stroke-linejoin="round" stroke-width="1"/>
      <path id="Tracé_1053" data-name="Tracé 1053" d="M26.34,242.9c21.7,1.824,43.165,4.686,65.08,6.582" transform="translate(-24.787 -176.29)" fill="none" stroke="#263238" stroke-linecap="round" stroke-linejoin="round" stroke-width="1"/>
      <path id="Tracé_1054" data-name="Tracé 1054" d="M34.94,274.31c16.835,1.32,33.649,2.036,50.82,3.824a67.188,67.188,0,0,1,11.183.63" transform="translate(-30.311 -196.451)" fill="none" stroke="#263238" stroke-linecap="round" stroke-linejoin="round" stroke-width="1"/>
      <path id="Tracé_1055" data-name="Tracé 1055" d="M46.59,305.35c19.465.948,38.425,2.021,57.836,2.461" transform="translate(-37.793 -216.375)" fill="none" stroke="#263238" stroke-linecap="round" stroke-linejoin="round" stroke-width="1"/>
      <path id="Tracé_1056" data-name="Tracé 1056" d="M61.15,335.74c17.476.093,35,.451,52.627.7" transform="translate(-47.145 -235.882)" fill="none" stroke="#263238" stroke-linecap="round" stroke-linejoin="round" stroke-width="1"/>
      <path id="Tracé_1057" data-name="Tracé 1057" d="M78.13,363.914c15.336-.089,31.077-.447,46.553-.744" transform="translate(-58.05 -253.488)" fill="none" stroke="#263238" stroke-linecap="round" stroke-linejoin="round" stroke-width="1"/>
      <path id="Tracé_1058" data-name="Tracé 1058" d="M93,390.5c13.594-.662,27.546-1.377,41.244-1.867" transform="translate(-67.601 -269.8)" fill="none" stroke="#263238" stroke-linecap="round" stroke-linejoin="round" stroke-width="1"/>
      <line id="Ligne_9" data-name="Ligne 9" y2="106.113" transform="translate(62.422 23.164)" fill="none" stroke="#263238" stroke-linecap="round" stroke-linejoin="round" stroke-width="1"/>
      <line id="Ligne_10" data-name="Ligne 10" y2="65.928" transform="translate(42.396 13.809)" fill="none" stroke="#263238" stroke-linecap="round" stroke-linejoin="round" stroke-width="1"/>
      <line id="Ligne_11" data-name="Ligne 11" y2="72.857" transform="translate(19.608 22.759)" fill="none" stroke="#263238" stroke-linecap="round" stroke-linejoin="round" stroke-width="1"/>
      <path id="Tracé_1059" data-name="Tracé 1059" d="M397.788,127.76l-35,4.042v82.04" transform="translate(-240.876 -102.348)" fill="none" stroke="#263238" stroke-linecap="round" stroke-linejoin="round" stroke-width="1"/>
      <path id="Tracé_1060" data-name="Tracé 1060" d="M408.623,157.21l-32.833,2.722v65.548" transform="translate(-249.226 -121.256)" fill="none" stroke="#263238" stroke-linecap="round" stroke-linejoin="round" stroke-width="1"/>
      <line id="Ligne_12" data-name="Ligne 12" x1="31.885" y2="2.275" transform="translate(127.512 51.923)" fill="none" stroke="#263238" stroke-linecap="round" stroke-linejoin="round" stroke-width="1"/>
      <line id="Ligne_13" data-name="Ligne 13" x1="26.226" y2="1.706" transform="translate(128.453 65.837)" fill="none" stroke="#263238" stroke-linecap="round" stroke-linejoin="round" stroke-width="1"/>
      <line id="Ligne_14" data-name="Ligne 14" y2="50.32" transform="translate(139.414 40.06)" fill="none" stroke="#263238" stroke-linecap="round" stroke-linejoin="round" stroke-width="1"/>
      <path id="Tracé_1061" data-name="Tracé 1061" d="M115.74,427.46a22.6,22.6,0,0,0,4.028,5.949c8.443,8.911,29.531,5.649,38.507,0,2.951-1.857,5.767-3.842,9.094-5.949" transform="translate(-82.206 -294.739)" fill="none" stroke="#263238" stroke-linecap="round" stroke-linejoin="round" stroke-width="1"/>
    </g>
    <g id="freepik--Map--inject-2" transform="translate(16.134 45.859)">
      <path id="Tracé_1062" data-name="Tracé 1062" d="M168.626,193.189l-3.284,12.821,5.724,33.331h-.043l-.14.029c-2.436.533-28.68,6.243-29.964,6.135-1.345-.111-22.43-3.356-22.43-3.356l-18.663,2.182-14.964-6.6-13.827,2.44L67.1,191.343s2.923-23.875,1.578-30.3c0,0,23.028,3.305,25.156,3.534S120.725,157,120.725,157l20.9,6.922,17.5-2.214,25.9,12.127S168.208,190.577,168.626,193.189Z" transform="translate(-67.1 -157)" fill="#fff" stroke="#263238" stroke-linecap="round" stroke-linejoin="round" stroke-width="1"/>
      <path id="Tracé_1063" data-name="Tracé 1063" d="M74.665,168.11l22.477,3.162,26.533-6.532,21.232,5.942,16.66-1.789,23.081,9.891s-13.136,16.277-13.641,17.318-4.715,14.878-4.715,14.878l5.559,31.731-26.934,5.928-22.656-3.624L104.307,246.6l-15.265-6.55-12.678,2.665L72.25,197.051S76.028,178.477,74.665,168.11Z" transform="translate(-70.408 -161.971)" fill="#193b6a" stroke="#263238" stroke-linecap="round" stroke-linejoin="round" stroke-width="1"/>
      <path id="Tracé_1064" data-name="Tracé 1064" d="M153.347,189.376l3.638-.88,17.672,7.552c.866-1.105,1.842-2.34,2.844-3.6l-19.157-8.1-4.035,1.13,2.529-11.83-3.345.358-3.069,12.571-9.917,2.776-19.082,1.663L113.8,194.81l.358-11.165,9.323-4.393,10.861,2.1,1.85-8.979-3.3-.923-1.045,6.522-8.368-1.789-9.208,4.153.3-9.022-4.45,1.08v24.226l-11.308,5.617V175.177l-1.288.315-2.819-.4.483,9.258H87.541L75.3,174.776c.079,1.381.089,2.862.054,4.368l10.879,9.1H95.4l.358,6.9-.336,2.862L72.87,203.753l.118,1.306,22.266-5.613-.515,4.454L73.36,209.177l.394,4.386,11.326-2.994,1.052,13.494L75.7,235.1l.408,4.515,3.678-3.892.816,10.392,1.052-.222-.715-11.387,7.616-8.056,3.685-.941,14.585-4.7-.322,2.118-8.1,25.188,3.116,1.338,4.257-13.741,6.282-1.163,12.621,5.459,5.856.376-.995,9.956,1.56.247.68-10.128,14.692.941,10.614-1.528,1.352,10.1,2.733-.6-1.32-9.909,10.807-1.556-.54-3.091-23,3.052-9.3-.816,1.324-12.521,8.081-4.414h2.5l18.116,1.835-.637-3.667-16.968-1.606h-3.917l1.989-11.959Zm-60.1,31.875-6.153,1.824-.816-12.832,9.48-2.5,14.138-7.3-2.329,15.476Zm19.955,9.777-6.378,1.266,2.647-8.507,4-25.181,8.06-4.16,3.13,12.693-1.17,10.568-3.513,16.041ZM142.425,219.4l-5.552,2.629-2.043,14.76-9.3-.816-3.2-1.284,3.577-15.93,1.388-11.029H133.7l10.693-1.789Zm2.486-16.03-10.732,2.207h-8.629l-2.6-11.358,16.839-1.556,9.509-2.311Z" transform="translate(-70.806 -166.191)" fill="#fff" stroke="#263238" stroke-linecap="round" stroke-linejoin="round" stroke-width="1"/>
      <path id="Tracé_1065" data-name="Tracé 1065" d="M286.52,275.749l.97-7.659,12.378,2.719-1.009,6.539Z" transform="translate(-208.025 -228.349)" fill="#fff" opacity="0.5"/>
      <path id="Tracé_1066" data-name="Tracé 1066" d="M307.96,254.473l2.522-7.033,9.323,3.517-2.139,7.273Z" transform="translate(-221.795 -215.086)" fill="#fff" opacity="0.5"/>
      <path id="Tracé_1067" data-name="Tracé 1067" d="M295.492,224.56h1.03l3.9,1.764-3.9,11.816-3.652-1.095-1.17-.258Z" transform="translate(-211.352 -200.391)" fill="#fff" opacity="0.5"/>
      <path id="Tracé_1068" data-name="Tracé 1068" d="M322.019,233.32l9.094,3.656-1.513,2.619-8.589-2.619Z" transform="translate(-230.177 -206.017)" fill="#fff" opacity="0.5"/>
      <path id="Tracé_1069" data-name="Tracé 1069" d="M307.96,188.631l1.764-8.11,2.9-.461,4.293,1.724-3.041,8.36-4.1-1.513Z" transform="translate(-221.795 -171.811)" fill="#fff" opacity="0.5"/>
      <path id="Tracé_1070" data-name="Tracé 1070" d="M329.83,202.325l1.9-4.665,12.757,5.81-2.526,3.813Z" transform="translate(-235.841 -183.114)" fill="#fff" opacity="0.5"/>
      <path id="Tracé_1071" data-name="Tracé 1071" d="M249.813,180.06l6.776,1.96L254.532,192.8H247.57Z" transform="translate(-183.009 -171.811)" fill="#fff" opacity="0.5"/>
      <path id="Tracé_1072" data-name="Tracé 1072" d="M274.5,184.829l5.051-.859-1.853,9.562-4.915,1.274Z" transform="translate(-199.2 -174.322)" fill="#fff" opacity="0.5"/>
      <path id="Tracé_1073" data-name="Tracé 1073" d="M210.928,200.873l-.612,4.672-11.015.5-6.622,3.413v-6.2l8.017-4.143Z" transform="translate(-147.755 -184.052)" fill="#fff" opacity="0.5"/>
      <path id="Tracé_1074" data-name="Tracé 1074" d="M193.185,170.4l7.956-2.093-.615,4.665-7.806,3.052Z" transform="translate(-147.781 -164.264)" fill="#fff" opacity="0.5"/>
      <path id="Tracé_1075" data-name="Tracé 1075" d="M219.09,174.137l5.767,1.263.919-4.268-5.971-1.012Z" transform="translate(-164.717 -165.426)" fill="#fff" opacity="0.5"/>
      <path id="Tracé_1076" data-name="Tracé 1076" d="M149.42,181.784v6.847l8.335-2.275v-6.3Z" transform="translate(-119.971 -171.811)" fill="#fff" opacity="0.5"/>
      <path id="Tracé_1077" data-name="Tracé 1077" d="M151.02,206.556V220.09l4.6-1.932-.726-8.328,3.885-1.138V204.02Z" transform="translate(-120.999 -187.199)" fill="#fff" opacity="0.5"/>
      <path id="Tracé_1078" data-name="Tracé 1078" d="M111.99,223.08l.633,8.714,6.06-1.4.973-2.719v-4.6Z" transform="translate(-95.931 -199.441)" fill="#fff" opacity="0.5"/>
      <path id="Tracé_1079" data-name="Tracé 1079" d="M82.642,204l8,6.189v4.293l-9.008.694A86.716,86.716,0,0,0,82.642,204Z" transform="translate(-76.432 -187.186)" fill="#fff" opacity="0.5"/>
      <path id="Tracé_1080" data-name="Tracé 1080" d="M79.029,238.668l8.239-.758v4.157l-9.688,2.644Z" transform="translate(-73.831 -208.965)" fill="#fff" opacity="0.5"/>
      <path id="Tracé_1081" data-name="Tracé 1081" d="M111.99,183.97v5.91l6.693.5-.275-6.089Z" transform="translate(-95.931 -174.322)" fill="#fff" opacity="0.5"/>
      <path id="Tracé_1082" data-name="Tracé 1082" d="M188.228,246.049l5.749-2.68,1.728,9.8-8.625,1.517Z" transform="translate(-144.159 -212.472)" fill="#fff" opacity="0.5"/>
      <path id="Tracé_1083" data-name="Tracé 1083" d="M193.185,276.492l-.465,6.711,5.981-.63V275Z" transform="translate(-147.781 -232.787)" fill="#fff" opacity="0.5"/>
      <path id="Tracé_1084" data-name="Tracé 1084" d="M240.58,232.5l-.78,8.8h3.252l7.233-1.195,4.168-10.621-7.942,2.307Z" transform="translate(-178.019 -203.558)" fill="#fff" opacity="0.5"/>
      <path id="Tracé_1085" data-name="Tracé 1085" d="M219.09,238.414v2.39l6.021-.172V237.91Z" transform="translate(-164.717 -208.965)" fill="#fff" opacity="0.5"/>
      <path id="Tracé_1086" data-name="Tracé 1086" d="M242.592,277.529l-.612,7.065,7.938-1.392,1.023-8.2Z" transform="translate(-179.419 -232.787)" fill="#fff" opacity="0.5"/>
      <path id="Tracé_1087" data-name="Tracé 1087" d="M218.6,307.77l5.556.4-1.388,14.177-5.33-.165-2-.719Z" transform="translate(-162.373 -253.834)" fill="#fff" opacity="0.5"/>
      <path id="Tracé_1088" data-name="Tracé 1088" d="M228.158,279.17l3.742.54-.723,4.754H227.5Z" transform="translate(-170.119 -235.465)" fill="#fff" opacity="0.5"/>
      <path id="Tracé_1089" data-name="Tracé 1089" d="M312.89,316.01l7.2.7,1.642,8.672-8.84.182Z" transform="translate(-224.961 -259.126)" fill="#fff" opacity="0.5"/>
      <path id="Tracé_1090" data-name="Tracé 1090" d="M264.962,323.052l6.972-.562.969,10.16H263.81Z" transform="translate(-193.439 -263.288)" fill="#fff" opacity="0.5"/>
      <path id="Tracé_1091" data-name="Tracé 1091" d="M321.01,365.417l1.009,4.643,4.926-.8-.884-4.829Z" transform="translate(-230.177 -290.224)" fill="#fff" opacity="0.5"/>
      <path id="Tracé_1092" data-name="Tracé 1092" d="M264.959,370.161l9.788-1.191.465,5.405-10.661,2.644-6.032-.708,2.1-6.65Z" transform="translate(-190.042 -293.14)" fill="#fff" opacity="0.5"/>
      <path id="Tracé_1093" data-name="Tracé 1093" d="M133.964,325.52l7.96-1.46-.537,5.495-2.243,5.359-5.724,1.524Z" transform="translate(-109.695 -264.296)" fill="#fff" opacity="0.5"/>
      <path id="Tracé_1094" data-name="Tracé 1094" d="M115.53,278.348v4.35l6.128-.912,3.28-1.263L124.77,275l-2.232,1.492Z" transform="translate(-98.205 -232.787)" fill="#fff" opacity="0.5"/>
      <path id="Tracé_1095" data-name="Tracé 1095" d="M79.86,290.4l8.085-1.989.787,8.353L81,298.284Z" transform="translate(-75.295 -241.4)" fill="#fff" opacity="0.5"/>
      <path id="Tracé_1096" data-name="Tracé 1096" d="M81.44,328.145l4.615-4.085,1.2,1.109-4.772,4.583Z" transform="translate(-76.31 -264.296)" fill="#fff" opacity="0.5"/>
      <path id="Tracé_1097" data-name="Tracé 1097" d="M84.81,366.233l2.257-.533.408,4.554-2.236.326Z" transform="translate(-78.474 -291.04)" fill="#fff" opacity="0.5"/>
      <path id="Tracé_1098" data-name="Tracé 1098" d="M100.623,359.483l-.433-7.96,5.488-.633v7.867Z" transform="translate(-88.352 -281.528)" fill="#fff" opacity="0.5"/>
      <circle id="Ellipse_33" data-name="Ellipse 33" cx="3.087" cy="3.087" r="3.087" transform="translate(43.755 53.589)" fill="#fff" opacity="0.5"/>
      <path id="Tracé_1099" data-name="Tracé 1099" d="M301.163,201.615l-3.284,12.821,5.724,33.331h-.043l-.14.029-29.961,6.135,7.788-52.488,10.4-31.324,25.9,12.127S300.745,199,301.163,201.615Z" transform="translate(-199.637 -165.426)" fill="rgba(0,0,0,0.7)" opacity="0.1"/>
      <path id="Tracé_1100" data-name="Tracé 1100" d="M200.37,164.043l-7.928,28.1-6.9,12.206-8.285,37.935-18.663,2.182L172.334,212.5l3.27-23.9,4.143-31.4Z" transform="translate(-125.86 -157.135)" fill="rgba(0,0,0,0.7)" opacity="0.1"/>
      <path id="Tracé_1101" data-name="Tracé 1101" d="M94.244,177.9l-.569,26.115L85.84,251.26l-.4-.175-13.83,2.425L68,208.518l21.647-8.371,3.577-22.377Z" transform="translate(-67.678 -170.34)" fill="rgba(0,0,0,0.7)" opacity="0.1"/>
    </g>
    <g id="freepik--Directions--inject-2" transform="translate(30.785 46.841)">
      <path id="Tracé_1102" data-name="Tracé 1102" d="M185.4,213.345a.472.472,0,0,0-.462-.129l-10.865,2.8-18.484,1.4a.461.461,0,0,0-.182.05l-24.262,12.453.358-7.87V211.409a.479.479,0,0,0-.479-.479h-4.887a.479.479,0,1,0,0,.959h4.386v10.12l-.386,8.682a.472.472,0,0,0,.218.426.483.483,0,0,0,.476.025l24.924-12.782,18.431-1.392a.3.3,0,0,0,.082,0l10.1-2.6-4.347,15.383a.352.352,0,0,0,0,.05l-.715,4.25H178.9a.147.147,0,0,0-.143.179l.6,1.678a.168.168,0,0,0,.3.064l1.13-1.635c.072-.1,0-.222-.154-.229h-.358l.676-4.1,4.575-16.188A.472.472,0,0,0,185.4,213.345Z" transform="translate(-119.362 -192.659)" fill="#193b6a"/>
      <path id="Tracé_1103" data-name="Tracé 1103" d="M185.4,213.345a.472.472,0,0,0-.462-.129l-10.865,2.8-18.484,1.4a.461.461,0,0,0-.182.05l-24.262,12.453.358-7.87V211.409a.479.479,0,0,0-.479-.479h-4.887a.479.479,0,1,0,0,.959h4.386v10.12l-.386,8.682a.472.472,0,0,0,.218.426.483.483,0,0,0,.476.025l24.924-12.782,18.431-1.392a.3.3,0,0,0,.082,0l10.1-2.6-4.347,15.383a.352.352,0,0,0,0,.05l-.715,4.25H178.9a.147.147,0,0,0-.143.179l.6,1.678a.168.168,0,0,0,.3.064l1.13-1.635c.072-.1,0-.222-.154-.229h-.358l.676-4.1,4.575-16.188A.472.472,0,0,0,185.4,213.345Z" transform="translate(-119.362 -192.659)" fill="rgba(0,0,0,0.7)" opacity="0.6"/>
      <path id="Tracé_1104" data-name="Tracé 1104" d="M116.979,161.389h0a5.227,5.227,0,0,0-7.394,0h0a5.234,5.234,0,0,0,0,7.394l3.7,3.7,3.7-3.7A5.227,5.227,0,0,0,116.979,161.389Zm-2.146,5.219h0a2.146,2.146,0,1,1,0-3.044h0a2.146,2.146,0,0,1,0,3.044Z" transform="translate(-108.055 -159.857)" fill="#263238"/>
      <path id="Tracé_1105" data-name="Tracé 1105" d="M112.34,180.88a6.525,6.525,0,0,0,1.721,2.171" transform="translate(-110.807 -173.359)" fill="none" stroke="#fff" stroke-linecap="round" stroke-linejoin="round" stroke-width="1"/>
      <path id="Tracé_1106" data-name="Tracé 1106" d="M112.466,164a4.219,4.219,0,0,0-1.667,5.051" transform="translate(-109.664 -162.518)" fill="none" stroke="#fff" stroke-linecap="round" stroke-linejoin="round" stroke-width="1"/>
      <path id="Tracé_1107" data-name="Tracé 1107" d="M120.314,162.06a4.694,4.694,0,0,0-1.334.2" transform="translate(-115.072 -161.272)" fill="none" stroke="#fff" stroke-linecap="round" stroke-linejoin="round" stroke-width="1"/>
      <path id="Tracé_1108" data-name="Tracé 1108" d="M248.813,254.249h0a5.227,5.227,0,0,0-7.394,0h0a5.227,5.227,0,0,0,0,7.394l3.7,3.7,3.7-3.7A5.227,5.227,0,0,0,248.813,254.249Zm-2.175,5.219h0a2.146,2.146,0,1,1,0-3.044h0a2.147,2.147,0,0,1,0,3.044Z" transform="translate(-192.725 -219.497)" fill="#263238"/>
      <path id="Tracé_1109" data-name="Tracé 1109" d="M244.14,273.74a6.528,6.528,0,0,0,1.721,2.175" transform="translate(-195.457 -232.999)" fill="none" stroke="#fff" stroke-linecap="round" stroke-linejoin="round" stroke-width="1"/>
      <path id="Tracé_1110" data-name="Tracé 1110" d="M244.266,256.85A4.217,4.217,0,0,0,242.6,261.9" transform="translate(-194.314 -222.152)" fill="none" stroke="#fff" stroke-linecap="round" stroke-linejoin="round" stroke-width="1"/>
      <path id="Tracé_1111" data-name="Tracé 1111" d="M252.111,254.92a4.776,4.776,0,0,0-1.331.2" transform="translate(-199.722 -220.912)" fill="none" stroke="#fff" stroke-linecap="round" stroke-linejoin="round" stroke-width="1"/>
    </g>
    <g id="freepik--Character--inject-2" transform="translate(14.853 77.6)">
      <path id="Tracé_1112" data-name="Tracé 1112" d="M293.766,252.235c-.422.172-3.957.59-3.957.59.082-.841,1.853-2.358,1.853-3.2a.6.6,0,0,0-.758-.665c-.168,1.095-2.948,3.112-3.538,3.366s-2.189,5.642-3.055,6.486c-6.8,6.776-13.236,10.693-15.637,15.383a19.028,19.028,0,0,1-6.568,7.123s-1.388,17.866,3.914,9.927,7.2-7.473,9.852-11.008,7.831-11.6,11.873-18.4c2.064-1.753,3.663-.941,4.926-2.2.268-.268.086-1.349.5-2.057a5.938,5.938,0,0,0,1.012-2.744c-.082-.758.59-1.177.673-1.6S294.188,252.067,293.766,252.235Z" transform="translate(-190.959 -247.732)" fill="#bfbfbf" stroke="#263238" stroke-miterlimit="10" stroke-width="1"/>
      <path id="Tracé_1113" data-name="Tracé 1113" d="M84.8,274.9c-1.374-5.091-6.869-10.253-12.113-18.288-.669-1.005-1.123-6.6-1.642-6.962s-2.826-2.919-2.765-4.025a.6.6,0,0,0-.88.5c-.175.823,1.241,2.672,1.152,3.513,0,0-3.373-1.141-3.753-1.4s-1.274.333-1.277.762.565.98.326,1.706a5.889,5.889,0,0,0,.422,2.894c.265.78-.136,1.789.068,2.114.977,1.5,2.708,1.034,4.364,3.177,2.554,7.455,5.949,16.431,7.813,20.441s3.813,3.935,7.362,12.811,5.885-8.9,5.885-8.9A19.038,19.038,0,0,1,84.8,274.9Z" transform="translate(-63.52 -245.563)" fill="#bfbfbf" stroke="#263238" stroke-miterlimit="10" stroke-width="1"/>
      <path id="Tracé_1114" data-name="Tracé 1114" d="M114.829,328.84s.916-2.175-.794-2.862-3.86.555-3.86.555a4.487,4.487,0,0,0-3.284,4.132s-.715,11.212,1.917,11.254S114.829,328.84,114.829,328.84Z" transform="translate(-91.318 -297.077)" fill="#999" stroke="#263238" stroke-linecap="round" stroke-linejoin="round" stroke-width="1"/>
      <path id="Tracé_1115" data-name="Tracé 1115" d="M267,332.66s-.14-1.76,2.007-1.528,3.914,3.291,3.788,7.573c0,0,.984,5.463-1.656,5.312S267,332.66,267,332.66Z" transform="translate(-194.204 -300.507)" fill="#999" stroke="#263238" stroke-linecap="round" stroke-linejoin="round" stroke-width="1"/>
      <path id="Tracé_1116" data-name="Tracé 1116" d="M124.852,341.891s-7.316-8.525-8.654-11.473c0,0-5.037-.165-5.724,4.253a33.986,33.986,0,0,0,0,8.9s4.965,13.551,7.03,18.681Z" transform="translate(-93.489 -300.062)" fill="#757575"/>
      <g id="Groupe_72" data-name="Groupe 72" transform="translate(16.693 30.356)" clip-path="url(#clip-path)">
        <g id="Groupe_67" data-name="Groupe 67" transform="translate(2.425 6.701)" opacity="0.3">
          <path id="Tracé_1117" data-name="Tracé 1117" d="M126.633,350.835a9.3,9.3,0,0,0-3.377,1.138c-.275.15-.554.318-.834.508a4.263,4.263,0,0,0-.715.6,9.533,9.533,0,0,0-2.236,4.6,25.023,25.023,0,0,0-.515,2.991,41.1,41.1,0,0,0-.243,5.305c-.608-1.613-1.209-3.22-1.753-4.69h0a28.549,28.549,0,0,1,.479-3.27h0a18.006,18.006,0,0,1,.715-2.551,9.659,9.659,0,0,1,2.468-3.985,5.9,5.9,0,0,1,.744-.587c.279-.186.558-.358.83-.515a11.684,11.684,0,0,1,3.087-1.234Z" transform="translate(-116.96 -349.15)" fill="#193b6a"/>
        </g>
        <g id="Groupe_68" data-name="Groupe 68" transform="translate(0.06 3.213)" opacity="0.3">
          <path id="Tracé_1118" data-name="Tracé 1118" d="M119.576,341.046a22.3,22.3,0,0,0-2.894,1.052c-.326.143-.658.3-1.005.469a5.011,5.011,0,0,0-.715.422,7.934,7.934,0,0,0-2.594,3.817,17.946,17.946,0,0,0-.683,2.526c-.14.716-.243,1.431-.326,2.125l-.773-2.1s-.122-.816-.211-2.089a2.155,2.155,0,0,0-.025-.4,15.544,15.544,0,0,1,.773-1.985,8.818,8.818,0,0,1,2.894-3.577,6.508,6.508,0,0,1,.8-.465c.308-.154.612-.293.905-.426a25.262,25.262,0,0,1,2.615-1.012Q118.934,340.2,119.576,341.046Z" transform="translate(-110.35 -339.4)" fill="#193b6a"/>
        </g>
        <g id="Groupe_69" data-name="Groupe 69" transform="translate(0.153 0.012)" opacity="0.3">
          <path id="Tracé_1119" data-name="Tracé 1119" d="M117.146,331.641a10.483,10.483,0,0,0-2.347.927,12.026,12.026,0,0,0-1.631,1.041,16.771,16.771,0,0,0-2.558,2.379c.039-.429.093-.862.157-1.291a4.59,4.59,0,0,1,1.467-2.815h0l.047-.029a14.019,14.019,0,0,1,1.188-.766c.15-.089.3-.172.458-.254l.029.057a6.905,6.905,0,0,1,.859-.25,7.337,7.337,0,0,1,1.656-.19A10.969,10.969,0,0,0,117.146,331.641Z" transform="translate(-110.61 -330.45)" fill="#193b6a"/>
        </g>
        <g id="Groupe_70" data-name="Groupe 70" transform="translate(1.827 0.387)" opacity="0.3">
          <path id="Tracé_1120" data-name="Tracé 1120" d="M124.545,343.627l-1.431,1.281a34.315,34.315,0,0,1-2.5-3.159c-.376-.526-.737-1.073-1.091-1.606-.476-.737-.937-1.485-1.377-2.236q-.487-.837-.944-1.674c-.358-.655-.715-1.309-1.03-1.95s-.6-1.195-.876-1.767h0a5.24,5.24,0,0,1,1.191-.762c.15-.089.3-.172.458-.254l.029.057c.265.547.54,1.113.834,1.689.358.687.715,1.392,1.105,2.1q.458.837.944,1.674.6,1.02,1.245,2.025.526.816,1.073,1.6A33.268,33.268,0,0,0,124.545,343.627Z" transform="translate(-115.29 -331.5)" fill="#193b6a"/>
        </g>
        <g id="Groupe_71" data-name="Groupe 71" transform="translate(0.013 7.456)" opacity="0.3">
          <path id="Tracé_1121" data-name="Tracé 1121" d="M119.442,368.156l-1.842.54a36.715,36.715,0,0,0-2.991-6.665c-.476-.876-.987-1.767-1.517-2.658h0c-.479-.816-.977-1.628-1.477-2.429-.433-.715-.869-1.4-1.309-2.068a2.154,2.154,0,0,0-.025-.4c-.054-.919-.082-2.025-.043-3.22l.816,1.234c.408.622.826,1.27,1.245,1.925.5.787,1.005,1.592,1.5,2.4.451.737.894,1.481,1.324,2.222A46.32,46.32,0,0,1,119.442,368.156Z" transform="translate(-110.219 -351.26)" fill="#193b6a"/>
        </g>
        <path id="Tracé_1122" data-name="Tracé 1122" d="M119.3,357.748l-1.746,4.847c-2.064-5.13-7.03-18.678-7.03-18.678a33.985,33.985,0,0,1,0-8.9,4.819,4.819,0,0,1,4.057-4.068,2.465,2.465,0,0,1,.272.061s-3.985,2.551-3.549,12.371l3.881,10.732s.408-3.738,1.96-3.2C117.815,351.155,118.767,354.257,119.3,357.748Z" transform="translate(-110.214 -330.76)" fill="rgba(0,0,0,0.7)" opacity="0.2"/>
      </g>
      <path id="Tracé_1124" data-name="Tracé 1124" d="M124.852,341.891s-7.316-8.525-8.654-11.473c0,0-5.037-.165-5.724,4.253a33.986,33.986,0,0,0,0,8.9s4.965,13.551,7.03,18.681Z" transform="translate(-93.489 -300.062)" fill="none" stroke="#263238" stroke-linecap="round" stroke-linejoin="round" stroke-width="1"/>
      <path id="Tracé_1125" data-name="Tracé 1125" d="M160.895,303.064c-.036.147-.182.268-.429.358a5.982,5.982,0,0,1-2.146.157c-4.561-.25-13.816-2.959-16.023-8.346-2.357-5.749,3.692-13.254,10.167-13.415,3.72-.089,6.858,4.293,7.613,9.459C160.458,293.766,162.572,295.834,160.895,303.064Z" transform="translate(-113.78 -268.847)" fill="#bfbfbf" stroke="#263238" stroke-miterlimit="10" stroke-width="1"/>
      <path id="Tracé_1126" data-name="Tracé 1126" d="M185.871,318a2.5,2.5,0,0,0-.254,1.542" transform="translate(-141.919 -292.086)" fill="none" stroke="#263238" stroke-linecap="round" stroke-linejoin="round" stroke-width="1"/>
      <path id="Tracé_1127" data-name="Tracé 1127" d="M186.48,326.34s.662.894,1.138.479" transform="translate(-142.492 -297.443)" fill="none" stroke="#263238" stroke-linecap="round" stroke-linejoin="round" stroke-width="1"/>
      <path id="Tracé_1128" data-name="Tracé 1128" d="M190.146,336.074a5.982,5.982,0,0,1-2.146.157c.093-.676.272-1.46.329-1.853.186-1.241-.436-1.628-.172-1.717s.24,1.016.766,1.578A8.148,8.148,0,0,1,190.146,336.074Z" transform="translate(-143.469 -301.499)" fill="#263238"/>
      <path id="Tracé_1129" data-name="Tracé 1129" d="M171.254,335.179a21.229,21.229,0,0,0-.715,4.69,19.978,19.978,0,0,0,.655,3.577l-9.824.569s1.47-7.073.683-9.548,6.282-1.574,6.282-1.574" transform="translate(-126.365 -301.548)" fill="#bfbfbf" stroke="#263238" stroke-miterlimit="10" stroke-width="1"/>
      <path id="Tracé_1130" data-name="Tracé 1130" d="M152.217,282.533c.411-1.338,1.145-1.2,1.145-1.2s-.476-6.421-3.22-7.1c-1.853-.465-2.361,2.325-4.293.315a3.439,3.439,0,0,0-4.347-.479c-.776.572-.751,1.37-1.27,2.064s-1.588.665-2.375.826a3.388,3.388,0,0,0-2.7,2.433c-.208,1.045,1.073,1.871.823,2.73-.3,1.027-1.252,1.649-1.842,2.5a4.436,4.436,0,0,0-.5,3.542c.411,1.767,1.324,2.458,2.744,3.359a5.844,5.844,0,0,1,1.574,1.96c1.474,2.318,3.263,4.014,6.082,4.493,5.656.966,8.189-4.254,8.189-4.254s-.637-5.173-.175-5.763,1.431,1.431,1.431,1.431C154.65,286.239,152.217,282.533,152.217,282.533Z" transform="translate(-108.451 -263.502)" fill="#263238"/>
      <path id="Tracé_1131" data-name="Tracé 1131" d="M187.356,314.766c-.172-.63-.05-3.22-.834-2.984-.687.211-.358,2.883.358,4.669s1.592,1.789,1.617,1.27-.569-.844-.715-1.592" transform="translate(-142.277 -288.084)" fill="#bfbfbf" stroke="#263238" stroke-miterlimit="10" stroke-width="1"/>
      <path id="Tracé_1132" data-name="Tracé 1132" d="M170.613,284.638s.311-2.951-1.681-2.862-1.889,2.862-1.889,2.862-1.674-.569-2.247.4.018,2.919.018,2.919-1.789.569-1.349,1.767a.938.938,0,0,1-.715,1.377" transform="translate(-127.252 -268.82)" fill="none" stroke="#fff" stroke-linecap="round" stroke-linejoin="round" stroke-width="1" opacity="0.3"/>
      <path id="Tracé_1133" data-name="Tracé 1133" d="M164.411,296.52s-.315,2.611-2.179,2.672a8.743,8.743,0,0,1-8.432,5.77" transform="translate(-121.503 -278.291)" fill="none" stroke="#fff" stroke-linecap="round" stroke-linejoin="round" stroke-width="1" opacity="0.3"/>
      <path id="Tracé_1134" data-name="Tracé 1134" d="M157.944,279.2a3.111,3.111,0,0,0-3.309-.544c-1.807.862-.6,3.309-.6,3.309s-1.753-.107-2.329,1.216,1.13,2.189,1.13,2.189-1.946,1.034-1.13,1.853,0,2.465,0,2.465" transform="translate(-120.027 -266.639)" fill="none" stroke="#fff" stroke-linecap="round" stroke-linejoin="round" stroke-width="1" opacity="0.3"/>
      <path id="Tracé_1135" data-name="Tracé 1135" d="M142.615,288.41s-2.726.859-2.146,2.9,1.037,2.036,1.037,2.036-2.043.715-2.168,2.186,1.642,1.41,1.642,1.41a1.545,1.545,0,0,0,.884,2.039" transform="translate(-112.211 -273.082)" fill="none" stroke="#fff" stroke-linecap="round" stroke-linejoin="round" stroke-width="1" opacity="0.3"/>
      <path id="Tracé_1136" data-name="Tracé 1136" d="M135.666,356.412s6.579-4.651,18.552.236l8.983-2.1s5.81,15.78,2.325,31.953c0,0-7.8,5.591-20.845,5.563-14.156-.036-17.662-5.563-17.662-5.563l2.025-5.162c-1.22-5.9-2.8-15.347-1.6-20.241C129.277,353.661,135.666,356.412,135.666,356.412Z" transform="translate(-104.303 -315.473)" fill="#757575"/>
      <g id="Groupe_83" data-name="Groupe 83" transform="translate(22.716 38.94)" clip-path="url(#clip-path-2)">
        <g id="Groupe_73" data-name="Groupe 73" transform="translate(32.442 0.525)" opacity="0.3">
          <path id="Tracé_1137" data-name="Tracé 1137" d="M220.8,389.118c-.544.265-1.166.544-1.853.83-.057-.683-.114-1.359-.165-2.028s-.1-1.359-.15-2.028c-.15-2.025-.275-3.964-.383-5.806q-.061-1.052-.111-2.064-.215-4.143-.311-7.62-.032-1.127-.057-2.179-.075-3.692-.054-6.525c0-.744,0-1.431.021-2.1q.032-1.867.086-3.263l1.928-.451c-.029.809-.061,1.757-.082,2.844h0c0,.669-.025,1.384-.032,2.146,0,1.789,0,3.889.032,6.268q0,1.073.046,2.243.089,3.527.3,7.8c.036.68.068,1.377.107,2.086q.161,2.769.358,5.824.075,1.005.154,2.039C220.691,387.787,220.742,388.445,220.8,389.118Z" transform="translate(-217.707 -355.88)" fill="#193b6a"/>
        </g>
        <g id="Groupe_74" data-name="Groupe 74" transform="translate(26.593 1.609)" opacity="0.3">
          <path id="Tracé_1138" data-name="Tracé 1138" d="M204.609,358.91c-.143,1.055-.293,2.318-.444,3.771-.072.658-.143,1.359-.207,2.1-.19,2.1-.358,4.507-.494,7.155-.032.694-.064,1.406-.086,2.146-.086,2.365-.129,4.9-.1,7.57,0,.673,0,1.352.029,2.039q.057,2.862.229,5.938c.039.658.079,1.324.129,2q.057.923.14,1.857c-.6.165-1.234.322-1.889.465-.046-.569-.093-1.134-.129-1.7-.05-.665-.093-1.327-.132-1.982-.125-2.061-.2-4.067-.247-6.014-.021-.676-.032-1.341-.039-2-.032-2.644,0-5.155.072-7.513q.032-1.073.079-2.078c.114-2.694.283-5.151.469-7.323.064-.715.125-1.4.19-2.05.15-1.477.3-2.787.44-3.9Z" transform="translate(-201.355 -358.91)" fill="#193b6a"/>
        </g>
        <g id="Groupe_75" data-name="Groupe 75" transform="translate(19.94 0.485)" opacity="0.3">
          <path id="Tracé_1139" data-name="Tracé 1139" d="M186.255,356.21c-.193,1.524-.422,3.577-.651,6.017q-.093.948-.175,1.975c-.186,2.272-.358,4.826-.5,7.588-.032.651-.064,1.309-.089,1.982-.1,2.383-.154,4.9-.165,7.513v1.953c0,2.075.057,4.207.147,6.371.025.647.054,1.3.089,1.95,0,.379.039.755.064,1.134-.622.061-1.259.114-1.91.147-.018-.3-.036-.594-.05-.887-.036-.647-.068-1.291-.093-1.935-.1-2.229-.147-4.422-.161-6.561v-1.928c0-2.615.064-5.134.157-7.513.025-.662.05-1.309.082-1.95.132-2.765.3-5.334.494-7.627.054-.673.111-1.324.168-1.946.254-2.783.515-5.073.715-6.722C184.992,355.9,185.608,356.045,186.255,356.21Z" transform="translate(-182.76 -355.77)" fill="#193b6a"/>
        </g>
        <g id="Groupe_76" data-name="Groupe 76" transform="translate(13.38 -0.001)" opacity="0.3">
          <path id="Tracé_1140" data-name="Tracé 1140" d="M167.693,392.041c-.669,0-1.316-.039-1.939-.082,0-.107-.025-.218-.036-.333q-.1-.934-.161-1.925c-.15-2.232-.2-4.651-.243-7.251v-.315c0-.533-.018-1.073-.029-1.631-.043-2.329-.107-4.812-.254-7.434-.036-.637-.075-1.288-.122-1.943-.064-.927-.14-1.864-.229-2.819-.161-1.7-.243-3.22-.261-4.629,0-.68,0-1.32.021-1.925a27.375,27.375,0,0,1,1.073-7.216,20.208,20.208,0,0,1,2.064-.129,24.055,24.055,0,0,0-1.213,7.448c-.018.6-.025,1.241,0,1.917q.021,1.964.243,4.35.154,1.621.261,3.184c.043.651.082,1.291.114,1.925.14,2.651.2,5.155.243,7.513,0,.465,0,.919.025,1.37v.555c.046,2.5.093,4.869.243,7.015.043.658.1,1.3.168,1.91A2.346,2.346,0,0,0,167.693,392.041Z" transform="translate(-164.42 -354.41)" fill="#193b6a"/>
        </g>
        <g id="Groupe_77" data-name="Groupe 77" transform="translate(7.609 0.836)" opacity="0.3">
          <path id="Tracé_1141" data-name="Tracé 1141" d="M150.934,364.756a35.257,35.257,0,0,0-.025,3.735c.061,1.191.086,2.322.086,3.413,0,.676,0,1.331-.025,1.982-.057,2.218-.2,4.322-.358,6.489,0,.193-.025.39-.039.587-.047.651-.089,1.309-.129,1.978-.114,1.789-.2,3.653-.225,5.659v1.56q.021,1.1.082,2.086c0,.2.021.393.039.583q-1.045-.2-1.953-.458c-.018-.286-.032-.579-.047-.884-.032-.694-.047-1.431-.05-2.186v-.715c.021-2.243.129-4.293.254-6.264.047-.68.089-1.345.136-2.007v-.072c.161-2.315.315-4.547.358-6.926v-2.036c0-.866-.032-1.76-.079-2.69a37.852,37.852,0,0,1,.039-4.268c.036-.655.089-1.306.147-1.953.157-1.671.383-3.295.622-4.751a11.9,11.9,0,0,1,1.789-.773h.018q.14-.054.29-.1c-.318,1.789-.64,3.9-.837,6.082C151.012,363.465,150.966,364.112,150.934,364.756Z" transform="translate(-148.29 -356.75)" fill="#193b6a"/>
        </g>
        <g id="Groupe_78" data-name="Groupe 78" transform="translate(2.383 0.925)" opacity="0.3">
          <path id="Tracé_1142" data-name="Tracé 1142" d="M139.161,358.788c.272.068.49.143.622.19a6.228,6.228,0,0,0-2.647,3.577,7.9,7.9,0,0,0-.3,1.95,10.556,10.556,0,0,0,.032,1.374q.243,2.8.308,5.409.038,1.073.036,2.146a66.829,66.829,0,0,1-.333,6.962q-.1,1.02-.236,2.014c-.05.383-.1.766-.165,1.145-.225,1.431-.447,3.162-.63,4.926-.075.748-.147,1.5-.207,2.243q-.061.762-.107,1.5a14.784,14.784,0,0,1-1.85-1.012c.047-.619.1-1.238.161-1.835.079-.83.165-1.624.25-2.35.25-2.164.487-3.728.494-3.771q.129-.841.236-1.706.129-1.02.215-2.064a65.055,65.055,0,0,0,.247-7.044c0-.751-.032-1.51-.064-2.286q-.082-2-.265-4.121a12.447,12.447,0,0,1,0-2.375,9.432,9.432,0,0,1,.4-1.95,7.871,7.871,0,0,1,1.935-3.18,7.427,7.427,0,0,1,1.867.258Z" transform="translate(-133.68 -357.983)" fill="#193b6a"/>
          <path id="Tracé_1143" data-name="Tracé 1143" d="M157.59,357Z" transform="translate(-149.036 -357)" fill="#193b6a"/>
        </g>
        <g id="Groupe_79" data-name="Groupe 79" transform="translate(0.973 2.085)" opacity="0.3">
          <path id="Tracé_1144" data-name="Tracé 1144" d="M166.118,362.161c-.819.465-1.817.991-2.987,1.52q-.891.408-1.917.816c-.994.394-2.082.776-3.252,1.134q-.948.29-1.971.547a44.287,44.287,0,0,1-4.615.909c-.63.089-1.281.165-1.939.229-1.4.14-2.862.215-4.393.215h-.98c-.658,0-1.3-.046-1.925-.1a29.853,29.853,0,0,1-3.119-.426q-.987-.193-1.9-.436a24.322,24.322,0,0,1-2.833-.944q-.98-.39-1.864-.837a23.618,23.618,0,0,1-2.683-1.581,7.065,7.065,0,0,1,.969-1.653,21.83,21.83,0,0,0,2.118,1.284c.551.293,1.141.576,1.764.837a22.5,22.5,0,0,0,2.676.941c.6.175,1.231.326,1.889.458a25.824,25.824,0,0,0,3.005.433c.619.057,1.256.089,1.914.1h.948a42.612,42.612,0,0,0,4.586-.247c.662-.071,1.31-.157,1.942-.257a41.5,41.5,0,0,0,4.629-.984c.69-.186,1.352-.386,1.989-.594,1.109-.358,2.146-.751,3.066-1.141.715-.29,1.338-.583,1.928-.869h0c.948-.458,1.757-.894,2.415-1.281C165.743,360.784,165.925,361.428,166.118,362.161Z" transform="translate(-129.74 -360.24)" fill="#193b6a"/>
        </g>
        <g id="Groupe_80" data-name="Groupe 80" transform="translate(0.006 8.975)" opacity="0.3">
          <path id="Tracé_1145" data-name="Tracé 1145" d="M165.864,381.689a41.956,41.956,0,0,1-4.389,2.862c-.6.358-1.223.68-1.885,1.009a37.954,37.954,0,0,1-3.935,1.721c-.63.236-1.274.458-1.939.658a33.19,33.19,0,0,1-4.651,1.073c-.63.1-1.274.179-1.925.236q-1.324.122-2.7.125c-.487,0-.98,0-1.474-.039-.64-.032-1.281-.086-1.932-.165a3.36,3.36,0,0,1-.376-.043,27.844,27.844,0,0,1-3.32-.644q-.987-.258-1.9-.572a26.2,26.2,0,0,1-2.5-1c-.673-.311-1.313-.644-1.925-.991a26.641,26.641,0,0,1-3.935-2.74c-.036-.912-.043-1.789,0-2.619a25.042,25.042,0,0,0,3.889,3.073q.927.6,1.953,1.123a23.65,23.65,0,0,0,2.533,1.12c.615.232,1.259.44,1.921.626a24.59,24.59,0,0,0,3.542.716h0c.651.086,1.3.147,1.939.182a27.694,27.694,0,0,0,4.375-.111c.655-.068,1.3-.157,1.932-.268a31.532,31.532,0,0,0,4.651-1.173c.665-.222,1.316-.461,1.946-.715a37.913,37.913,0,0,0,3.8-1.767q1.005-.537,1.9-1.073a41.491,41.491,0,0,0,4.071-2.79C165.628,380.216,165.749,380.938,165.864,381.689Z" transform="translate(-127.037 -379.5)" fill="#193b6a"/>
        </g>
        <g id="Groupe_81" data-name="Groupe 81" transform="translate(0.905 19.381)" opacity="0.3">
          <path id="Tracé_1146" data-name="Tracé 1146" d="M168.265,410.321v.433c-1.374.748-2.987,1.567-4.769,2.372-.6.275-1.231.547-1.871.812-1.406.587-2.9,1.148-4.436,1.646-.622.2-1.259.39-1.9.565a38.575,38.575,0,0,1-4.79,1.03c-.637.093-1.274.165-1.914.218-.758.064-1.52.1-2.275.1-.494,0-.984,0-1.474-.043-.583-.036-1.163-.1-1.742-.179l-.175-.029a32.36,32.36,0,0,1-4.5-1c-.64-.193-1.266-.4-1.885-.622q-1.313-.479-2.558-1.03-.934-.411-1.817-.859-1.134-.562-2.175-1.166c-.147-.812-.29-1.656-.429-2.5q1.331.826,2.819,1.617c.594.311,1.209.615,1.839.909q1.191.554,2.458,1.037c.612.233,1.238.454,1.878.651a29.986,29.986,0,0,0,4.339,1.045c.161.029.322.054.487.075.472.068.952.118,1.431.154a24.3,24.3,0,0,0,3.778-.061c.64-.061,1.277-.14,1.917-.243a37.818,37.818,0,0,0,4.751-1.073q.966-.279,1.91-.6c1.513-.508,2.973-1.073,4.354-1.671.644-.272,1.27-.554,1.875-.834,1.853-.862,3.506-1.731,4.851-2.483C168.257,409.141,168.265,409.728,168.265,410.321Z" transform="translate(-129.55 -408.59)" fill="#193b6a"/>
        </g>
        <g id="Groupe_82" data-name="Groupe 82" transform="translate(0.608 27.895)" opacity="0.3">
          <path id="Tracé_1147" data-name="Tracé 1147" d="M167.324,432.39c-.043.358-.093.715-.147,1.073s-.125.809-.193,1.216c-.966.458-2.146,1-3.5,1.585-.59.258-1.216.519-1.864.783-1.431.583-2.984,1.181-4.611,1.746-.619.215-1.245.426-1.878.626-1.617.515-3.277.98-4.933,1.356-.633.15-1.266.279-1.9.393a35.5,35.5,0,0,1-3.524.479h-.068c-.472.039-.944.054-1.4.054h-.522a17.778,17.778,0,0,1-5.026-.866,18.54,18.54,0,0,1-1.96-.758,22.992,22.992,0,0,1-5.141-3.23,26.04,26.04,0,0,1-1.943-1.764l.78-1.978c.4.422.869.894,1.413,1.392s1.109.962,1.753,1.452a21.062,21.062,0,0,0,3.094,1.942,16.825,16.825,0,0,0,1.928.859,16.067,16.067,0,0,0,4.962,1.045,15.691,15.691,0,0,0,1.91-.032h.082a32.824,32.824,0,0,0,3.577-.5q.944-.183,1.9-.408c1.638-.386,3.288-.866,4.89-1.388.637-.207,1.266-.422,1.882-.64,1.624-.58,3.177-1.188,4.59-1.789.655-.268,1.274-.537,1.86-.794C165,433.513,166.383,432.859,167.324,432.39Z" transform="translate(-128.72 -432.39)" fill="#193b6a"/>
        </g>
        <path id="Tracé_1148" data-name="Tracé 1148" d="M168.385,356.6c-2.637,1.5-8.976,4.758-13.691,4.4a5.849,5.849,0,0,1-5.724-4.872,5.723,5.723,0,0,1,.8.258s6.579-4.651,18.552.236Z" transform="translate(-141.118 -354.394)" fill="rgba(0,0,0,0.7)" opacity="0.2"/>
        <path id="Tracé_1149" data-name="Tracé 1149" d="M145.78,418.463h-1.1c-14.152-.036-17.662-5.566-17.662-5.566l2.028-5.162a103.08,103.08,0,0,1-1.867-12.185c1.105,2.286,7.985,15.54,18.17,15.483C152.57,411,149.114,415.387,145.78,418.463Z" transform="translate(-127.02 -380.834)" fill="rgba(0,0,0,0.7)" opacity="0.2"/>
        <path id="Tracé_1150" data-name="Tracé 1150" d="M231.86,404.811a53.862,53.862,0,0,1-.554,7.87c-3.738-4.5-2.561-12.671-2.561-12.671C229.238,403.19,230.891,404.378,231.86,404.811Z" transform="translate(-192.241 -383.698)" fill="rgba(0,0,0,0.7)" opacity="0.2"/>
      </g>
      <path id="Tracé_1152" data-name="Tracé 1152" d="M135.666,356.412s6.579-4.651,18.552.236l8.983-2.1s5.81,15.78,2.325,31.953c0,0-7.8,5.591-20.845,5.563-14.156-.036-17.662-5.563-17.662-5.563l2.025-5.162c-1.22-5.9-2.8-15.347-1.6-20.241C129.277,353.661,135.666,356.412,135.666,356.412Z" transform="translate(-104.303 -315.473)" fill="none" stroke="#263238" stroke-linecap="round" stroke-linejoin="round" stroke-width="1"/>
      <path id="Tracé_1153" data-name="Tracé 1153" d="M163.66,363.2c4.135.161,9.158.132,12.764-2.168" transform="translate(-127.836 -319.723)" fill="none" stroke="#263238" stroke-linecap="round" stroke-linejoin="round" stroke-width="1"/>
      <path id="Tracé_1154" data-name="Tracé 1154" d="M157.19,366.66c.358.039.741.068,1.113.093" transform="translate(-123.681 -323.339)" fill="none" stroke="#263238" stroke-linecap="round" stroke-linejoin="round" stroke-width="1"/>
      <path id="Tracé_1155" data-name="Tracé 1155" d="M166.11,438.57a9.2,9.2,0,0,0,.283,1.975" transform="translate(-129.41 -369.524)" fill="none" stroke="#263238" stroke-linecap="round" stroke-linejoin="round" stroke-width="1"/>
      <path id="Tracé_1156" data-name="Tracé 1156" d="M161.674,369.72a9.079,9.079,0,0,0-.658,5.144c1.6,6.082,2.554,11.805,1.731,17.973" transform="translate(-126.061 -325.304)" fill="none" stroke="#263238" stroke-linecap="round" stroke-linejoin="round" stroke-width="1"/>
      <path id="Tracé_1157" data-name="Tracé 1157" d="M169.37,427a13.737,13.737,0,0,0,6.336.061" transform="translate(-131.503 -362.093)" fill="none" stroke="#263238" stroke-linecap="round" stroke-linejoin="round" stroke-width="1"/>
      <path id="Tracé_1158" data-name="Tracé 1158" d="M133.08,391.07a24.33,24.33,0,0,0,11.494,12.371" transform="translate(-108.196 -339.016)" fill="none" stroke="#263238" stroke-linecap="round" stroke-linejoin="round" stroke-width="1"/>
      <path id="Tracé_1159" data-name="Tracé 1159" d="M130.12,382.67c.122.429.254.859.4,1.284" transform="translate(-106.295 -333.621)" fill="none" stroke="#263238" stroke-linecap="round" stroke-linejoin="round" stroke-width="1"/>
      <path id="Tracé_1160" data-name="Tracé 1160" d="M227.351,341.681a53.661,53.661,0,0,0,.218,15.383c1.338,8.586,3.434,8.5,3.434,8.5s11.966-14.789,15.165-20.767c0,0-.758-8.586-4.125-10.41Z" transform="translate(-168.453 -302.613)" fill="#757575"/>
      <g id="Groupe_89" data-name="Groupe 89" transform="translate(58.448 31.777)" clip-path="url(#clip-path-3)">
        <g id="Groupe_84" data-name="Groupe 84" transform="translate(11.247 1.055)" opacity="0.3">
          <path id="Tracé_1161" data-name="Tracé 1161" d="M264.214,350.161c-.483.715-1,1.477-1.553,2.257-.283-1.7-.612-3.27-.97-4.722q-.258-1.073-.544-2.043c-.4-1.431-.837-2.712-1.274-3.874q-.358-.984-.744-1.846-.4-.934-.791-1.728l1.739-.866c.222.447.444.919.669,1.431.254.576.508,1.188.762,1.846q.644,1.653,1.259,3.66c.193.648.386,1.324.565,2.032Q263.814,348.1,264.214,350.161Z" transform="translate(-258.34 -337.34)" fill="#193b6a"/>
        </g>
        <g id="Groupe_85" data-name="Groupe 85" transform="translate(6.775 3.28)" opacity="0.3">
          <path id="Tracé_1162" data-name="Tracé 1162" d="M251.8,360.317c-.565.755-1.127,1.506-1.689,2.239a68.847,68.847,0,0,0-1.073-7.155h0q-.211-1.073-.451-2.071c-.386-1.678-.816-3.22-1.248-4.629q-.311-.987-.622-1.885c-.3-.869-.594-1.667-.876-2.393l1.739-.862c.265.669.544,1.4.823,2.193q.318.891.637,1.885c.419,1.327.837,2.783,1.223,4.361q.247,1.005.479,2.071C251.16,356,251.521,358.081,251.8,360.317Z" transform="translate(-245.84 -343.56)" fill="#193b6a"/>
        </g>
        <g id="Groupe_86" data-name="Groupe 86" transform="translate(2.16 5.556)" opacity="0.3">
          <path id="Tracé_1163" data-name="Tracé 1163" d="M238.982,370.34c-.587.758-1.138,1.456-1.635,2.086-.436-3.187-.987-6.336-1.574-9.3q-.2-1.041-.415-2.046c-.411-1.971-.834-3.831-1.238-5.531-.157-.669-.315-1.309-.465-1.921-.254-1.03-.5-1.978-.715-2.833l1.753-.873q.327,1.245.715,2.755c.157.615.315,1.259.479,1.932h0c.383,1.61.787,3.374,1.188,5.248.143.669.286,1.356.429,2.053h0C238.027,364.616,238.546,367.442,238.982,370.34Z" transform="translate(-232.94 -349.92)" fill="#193b6a"/>
        </g>
        <g id="Groupe_87" data-name="Groupe 87" transform="translate(0.025 0.68)" opacity="0.3">
          <path id="Tracé_1164" data-name="Tracé 1164" d="M244.081,337.861c-.823.655-1.728,1.356-2.719,2.078q-.783.576-1.635,1.166-1.3.916-2.8,1.878c-.547.358-1.116.715-1.7,1.073q-1.52.923-3.191,1.839h0c-.572.315-1.152.626-1.749.937-1.073.555-2.171,1.105-3.316,1.642,0-.794.047-1.517.089-2.164h0q1.431-.687,2.762-1.4c.59-.318,1.17-.633,1.735-.952,1.073-.594,2.078-1.195,3.048-1.789q.869-.533,1.685-1.073c.952-.615,1.85-1.227,2.694-1.825.562-.4,1.1-.783,1.617-1.166.855-.633,1.642-1.245,2.365-1.821a5.652,5.652,0,0,1,.637.787A7.072,7.072,0,0,1,244.081,337.861Z" transform="translate(-226.97 -336.29)" fill="#193b6a"/>
        </g>
        <g id="Groupe_88" data-name="Groupe 88" transform="translate(0.279 5.581)" opacity="0.3">
          <path id="Tracé_1165" data-name="Tracé 1165" d="M246.279,352.14c-.83.737-1.71,1.506-2.637,2.3q-.8.687-1.642,1.392c-.941.784-1.914,1.581-2.916,2.379-.558.444-1.127.891-1.7,1.331h0c-1.073.823-2.164,1.642-3.273,2.44h0c-.569.411-1.138.816-1.714,1.213-1.477,1.02-2.976,2-4.468,2.894-.1-.715-.179-1.409-.247-2.089,1.431-.891,2.862-1.853,4.293-2.862.569-.4,1.138-.8,1.7-1.22,1.105-.8,2.193-1.631,3.252-2.461.565-.444,1.127-.887,1.674-1.331.984-.787,1.935-1.578,2.862-2.35.551-.469,1.095-.927,1.621-1.381.959-.834,1.867-1.638,2.715-2.4C245.993,350.741,246.154,351.475,246.279,352.14Z" transform="translate(-227.68 -349.99)" fill="#193b6a"/>
        </g>
        <path id="Tracé_1166" data-name="Tracé 1166" d="M247.947,347.406c-3.2,5.978-15.168,20.767-15.168,20.767s-1.789.075-3.109-6.661c.977,3.631,3.624,4,3.624,4l12.192-16.123c-1.3-2.762-.182-10.711-.15-10.922C247.428,341.522,247.947,347.406,247.947,347.406Z" transform="translate(-228.679 -337.01)" fill="rgba(0,0,0,0.7)" opacity="0.2"/>
      </g>
      <path id="Tracé_1168" data-name="Tracé 1168" d="M227.351,341.681a53.661,53.661,0,0,0,.218,15.383c1.338,8.586,3.434,8.5,3.434,8.5s11.966-14.789,15.165-20.767c0,0-.758-8.586-4.125-10.41Z" transform="translate(-168.453 -302.613)" fill="none" stroke="#263238" stroke-linecap="round" stroke-linejoin="round" stroke-width="1"/>
      <path id="Tracé_1169" data-name="Tracé 1169" d="M169.653,352.55a26.834,26.834,0,0,0-11.523-4.4c-6.568-.766-6.382,3.1-6.382,3.1a1.134,1.134,0,0,0-.63,1.431C151.391,353.781,160.284,354.829,169.653,352.55Z" transform="translate(-119.738 -311.386)" fill="#757575"/>
      <g id="Groupe_93" data-name="Groupe 93" transform="translate(31.313 36.664)" clip-path="url(#clip-path-4)">
        <g id="Groupe_90" data-name="Groupe 90" transform="translate(3.48 -0.008)" opacity="0.3">
          <path id="Tracé_1170" data-name="Tracé 1170" d="M163.985,348.093a12.467,12.467,0,0,0-.461,1.324c-.161.537-.322,1.173-.469,1.917s-.268,1.567-.358,2.5c-.715-.032-1.338-.086-1.917-.147.089-.891.207-1.688.333-2.4s.275-1.367.429-1.932c.129-.49.265-.919.4-1.3a12.158,12.158,0,0,1,2.046.039Z" transform="translate(-160.78 -348.028)" fill="#193b6a"/>
        </g>
        <g id="Groupe_91" data-name="Groupe 91" transform="translate(9.623 0.651)" opacity="0.3">
          <path id="Tracé_1171" data-name="Tracé 1171" d="M180.268,350.428v.787c-.025.565-.064,1.209-.139,1.932-.054.537-.125,1.116-.215,1.735-.676.061-1.331.1-1.964.136.125-.783.215-1.5.279-2.146.072-.733.111-1.377.129-1.928V349.87C179.016,350.027,179.66,350.221,180.268,350.428Z" transform="translate(-177.95 -349.87)" fill="#193b6a"/>
        </g>
        <g id="Groupe_92" data-name="Groupe 92" transform="translate(0.314 1.313)" opacity="0.3">
          <path id="Tracé_1172" data-name="Tracé 1172" d="M170.218,354.907c-.715.168-1.388.322-2.078.458-1.663-.447-3.252-.783-4.736-1.03-.655-.111-1.284-.2-1.9-.283-1.513-.2-2.9-.3-4.132-.358-.715-.029-1.356-.036-1.953-.032a33.962,33.962,0,0,0-3.488.186,1.2,1.2,0,0,1,.358-.247,2.819,2.819,0,0,1,.683-1.789c.776-.057,1.742-.1,2.862-.093.615,0,1.281,0,1.993.047,1.148.057,2.418.161,3.792.336q.923.111,1.91.279c1.17.193,2.408.436,3.692.748h0a22.849,22.849,0,0,1,3,1.778Z" transform="translate(-151.93 -351.719)" fill="#193b6a"/>
        </g>
      </g>
      <path id="Tracé_1174" data-name="Tracé 1174" d="M169.653,352.55a26.834,26.834,0,0,0-11.523-4.4c-6.568-.766-6.382,3.1-6.382,3.1a1.134,1.134,0,0,0-.63,1.431C151.391,353.781,160.284,354.829,169.653,352.55Z" transform="translate(-119.738 -311.386)" fill="none" stroke="#263238" stroke-linecap="round" stroke-linejoin="round" stroke-width="1"/>
      <path id="Tracé_1175" data-name="Tracé 1175" d="M173,355.84a12.582,12.582,0,0,1,1.878.419" transform="translate(-133.835 -316.39)" fill="none" stroke="#263238" stroke-linecap="round" stroke-linejoin="round" stroke-width="1"/>
      <path id="Tracé_1176" data-name="Tracé 1176" d="M153,355.952a19.547,19.547,0,0,1,5.871-.551" transform="translate(-120.99 -316.087)" fill="none" stroke="#263238" stroke-linecap="round" stroke-linejoin="round" stroke-width="1"/>
      <path id="Tracé_1177" data-name="Tracé 1177" d="M121.2,355.76a17.491,17.491,0,0,0,.122,1.885" transform="translate(-100.566 -316.338)" fill="none" stroke="#263238" stroke-linecap="round" stroke-linejoin="round" stroke-width="1"/>
      <path id="Tracé_1178" data-name="Tracé 1178" d="M124.1,334.35c-1.989,1.3-2.694,4.125-2.862,6.328" transform="translate(-100.591 -302.587)" fill="none" stroke="#263238" stroke-linecap="round" stroke-linejoin="round" stroke-width="1"/>
      <path id="Tracé_1179" data-name="Tracé 1179" d="M257.969,380.85a5.635,5.635,0,0,1-1.789,1.291" transform="translate(-187.258 -332.453)" fill="none" stroke="#263238" stroke-linecap="round" stroke-linejoin="round" stroke-width="1"/>
      <path id="Tracé_1180" data-name="Tracé 1180" d="M268.452,345.83c-1.2,3.792-2.476,7.945-4.762,11.448" transform="translate(-192.081 -309.961)" fill="none" stroke="#263238" stroke-linecap="round" stroke-linejoin="round" stroke-width="1"/>
      <path id="Tracé_1181" data-name="Tracé 1181" d="M230.663,414.024s-1.846.9-4.293-4.164" transform="translate(-168.112 -351.085)" fill="none" stroke="#263238" stroke-linecap="round" stroke-linejoin="round" stroke-width="1"/>
      <path id="Tracé_1182" data-name="Tracé 1182" d="M215.927,435.06c-1.789,3.109-4.321,6-7.727,7.316" transform="translate(-156.442 -367.27)" fill="none" stroke="#263238" stroke-linecap="round" stroke-linejoin="round" stroke-width="1"/>
      <path id="Tracé_1183" data-name="Tracé 1183" d="M232.507,427c-.186.5-.4.995-.637,1.477" transform="translate(-171.645 -362.093)" fill="none" stroke="#263238" stroke-linecap="round" stroke-linejoin="round" stroke-width="1"/>
    </g>
  </g>
</svg>
