<svg id="Visual_data-pana" data-name="Visual data-pana" xmlns="http://www.w3.org/2000/svg" width="141.012" height="158.642" viewBox="0 0 141.012 158.642">
  <g id="freepik--background-complete--inject-2" transform="translate(0 0)">
    <path id="Tracé_713" data-name="Tracé 713" d="M78.007,304.382a6.506,6.506,0,0,0-2.609-1.327,14.019,14.019,0,0,1-6.422-21.492l-.139-.718a5.367,5.367,0,1,0-9.392,4.031c-3.63.3-6.031,4.422-5.518,8.045s3.15,6.565,6.089,8.719a28.827,28.827,0,0,0,16.74,5.531,2.32,2.32,0,0,0,1.191-.214A1.726,1.726,0,0,0,78.007,304.382Z" transform="translate(-47.548 -188.07)" fill="#e0e0e0"/>
    <path id="Tracé_714" data-name="Tracé 714" d="M398.413,295.776a4.385,4.385,0,0,0,.105-4.528,3.425,3.425,0,0,0-4.15-1.361,3.038,3.038,0,0,0-5.157-3.215c-.966,1.493-.456,3.5.374,5.072s1.97,3.062,2.242,4.807a7.123,7.123,0,0,1-1.483,5.1,20.172,20.172,0,0,1-3.926,3.742l-.269.259a9.749,9.749,0,0,0,7.824-.68,4.636,4.636,0,0,0,2.657-3.48c.048-.85-.269-1.7-.139-2.544C396.665,297.746,397.753,296.848,398.413,295.776Z" transform="translate(-266.803 -194.119)" fill="#e0e0e0"/>
    <path id="Tracé_715" data-name="Tracé 715" d="M162.335,458.6a4.914,4.914,0,0,1-3.429-1.823c-.5-.68-.738-1.538-1.17-2.272a2.316,2.316,0,0,0-2.041-1.316c-1.313.129-2.2,1.946-3.483,1.626a1.864,1.864,0,0,1-1.14-1.891,19.907,19.907,0,0,0,.126-2.381c-.276-2.215-3.119-3.3-5.242-2.609a18.4,18.4,0,0,0-6.725,5c1.456,2.419,4.439,3.357,7.174,4.045q6.889,1.725,13.9,2.929a10.248,10.248,0,0,0,3.31.194,3.61,3.61,0,0,0,2.694-1.742A14.165,14.165,0,0,1,162.335,458.6Z" transform="translate(-103.879 -301.523)" fill="#e0e0e0"/>
    <path id="Tracé_716" data-name="Tracé 716" d="M313.773,405.615c-.34-1.891-2.225-3.558-4.082-3.123a4.079,4.079,0,0,0,.34-5.443,6.5,6.5,0,0,0-5.371-2.221,17.214,17.214,0,0,0-5.8,1.514c.915-1.163-.425-2.98-1.9-3.062s-2.8.84-4,1.7-2.582,1.755-4.045,1.527l1.361.551a25.436,25.436,0,0,1,9.433,2.977,11.5,11.5,0,0,1,5.674,7.793c.49,3.283-1.238,6.957-4.351,8.106a13.2,13.2,0,0,0,11.045-4.994A7.008,7.008,0,0,0,313.773,405.615Z" transform="translate(-202.642 -265.6)" fill="#e0e0e0"/>
    <path id="Tracé_717" data-name="Tracé 717" d="M44.738,273.057a56.806,56.806,0,0,1,0-6.337,56.809,56.809,0,0,1,0,6.337Z" transform="translate(-41.465 -181.837)" fill="#e0e0e0"/>
    <path id="Tracé_718" data-name="Tracé 718" d="M41.858,275.806a30.79,30.79,0,0,1-3.276.088,30.759,30.759,0,0,1-3.272-.088,29.692,29.692,0,0,1,3.272-.088A29.731,29.731,0,0,1,41.858,275.806Z" transform="translate(-35.31 -187.765)" fill="#e0e0e0"/>
    <path id="Tracé_719" data-name="Tracé 719" d="M416.226,368.8a56.811,56.811,0,0,1,0-6.337,56.792,56.792,0,0,1,0,6.337Z" transform="translate(-286.582 -245.133)" fill="#e0e0e0"/>
    <path id="Tracé_720" data-name="Tracé 720" d="M413.342,371.578a58.458,58.458,0,0,1-6.552,0,60.714,60.714,0,0,1,6.552,0Z" transform="translate(-280.422 -251.078)" fill="#e0e0e0"/>
    <path id="Tracé_721" data-name="Tracé 721" d="M359.716,49.157a27.849,27.849,0,0,1-.088-3.17,27.811,27.811,0,0,1,.088-3.167,28.787,28.787,0,0,1,.088,3.167,28.827,28.827,0,0,1-.088,3.17Z" transform="translate(-249.295 -33.777)" fill="#e0e0e0"/>
    <path id="Tracé_722" data-name="Tracé 722" d="M356.832,51.938a60.715,60.715,0,0,1-6.552,0,60.713,60.713,0,0,1,6.552,0Z" transform="translate(-243.135 -39.728)" fill="#e0e0e0"/>
    <circle id="Ellipse_11" data-name="Ellipse 11" cx="1.936" cy="1.936" r="1.936" transform="translate(4.984 59.62)" fill="#e0e0e0"/>
    <path id="Tracé_723" data-name="Tracé 723" d="M275.238,436.486a1.936,1.936,0,1,1-.568-1.37,1.939,1.939,0,0,1,.568,1.37Z" transform="translate(-191.062 -292.834)" fill="#e0e0e0"/>
    <path id="Tracé_724" data-name="Tracé 724" d="M328.211,328.932a1.936,1.936,0,1,1-.572-1.37A1.936,1.936,0,0,1,328.211,328.932Z" transform="translate(-226.02 -221.683)" fill="#e0e0e0"/>
    <path id="Tracé_725" data-name="Tracé 725" d="M159.1,45.506a1.936,1.936,0,1,1-1.936-1.936,1.936,1.936,0,0,1,1.936,1.936Z" transform="translate(-114.436 -34.272)" fill="#e0e0e0"/>
    <circle id="Ellipse_12" data-name="Ellipse 12" cx="0.969" cy="0.969" r="0.969" transform="translate(51.9 124.341)" fill="#e0e0e0"/>
    <path id="Tracé_726" data-name="Tracé 726" d="M121.149,369.9a.966.966,0,1,1-.284-.684A.969.969,0,0,1,121.149,369.9Z" transform="translate(-90.669 -249.398)" fill="#e0e0e0"/>
    <path id="Tracé_727" data-name="Tracé 727" d="M191.309,53.12a.97.97,0,1,1-.97-.969A.97.97,0,0,1,191.309,53.12Z" transform="translate(-136.963 -39.933)" fill="#e0e0e0"/>
    <path id="Tracé_728" data-name="Tracé 728" d="M316.669,207.06a.969.969,0,1,1-.97-.97A.97.97,0,0,1,316.669,207.06Z" transform="translate(-219.679 -141.746)" fill="#e0e0e0"/>
    <path id="Tracé_729" data-name="Tracé 729" d="M45.683,45.974s-2.157,1.112.864,5.63a62.747,62.747,0,0,0,5,6.695s.568,1.065-.34,1.361-3.024.2-3.306,1.4.7,2.266,2.579,3.062,5.9,2.606,6.263,2.776.752.643.156.939-5.188,1.33-4.565,3.483,6.195,3.463,6.8,3.619.776.384.765.708-1.589.527-2.881.874-2.721.98-2.272,2.191,3.936,3.456,11.709,3.3l3.6-.306,1.592-3.259c2.983-7.178,2.16-11.226,1.2-12.107s-2.072.238-2.868,1.316-1.561,2.473-1.868,2.381-.456-.34-.378-.973.888-6.286-.888-7.651-4.422,2.534-4.909,2.983-.793-.1-.816-.493-.282-4.858-.323-6.872-.629-3.344-1.891-3.524-1.912,1.823-2.51,2.568-1.385-.163-1.385-.163a62.072,62.072,0,0,0-4.422-7.1c-3.116-4.46-4.95-2.81-4.95-2.81" transform="translate(-41.662 -35.679)" fill="#ebebeb"/>
    <path id="Tracé_730" data-name="Tracé 730" d="M77.015,90.9c-2.266-3.283-6.191-9.185-9.593-14.243s-6.463-9.62-8.725-12.927l-2.667-3.892c-.313-.456-.554-.813-.725-1.058-.078-.122-.143-.214-.187-.279a.589.589,0,0,1-.058-.1l.068.092.2.272.735,1.048c.643.912,1.561,2.238,2.694,3.881,2.272,3.283,5.365,7.838,8.763,12.9s7.317,10.964,9.566,14.26" transform="translate(-48.342 -44.057)" fill="#e0e0e0"/>
    <path id="Tracé_731" data-name="Tracé 731" d="M62.26,91.5a1.159,1.159,0,0,1,.259.041c.163.031.4.085.68.156.582.136,1.385.34,2.262.6l2.252.65.68.194a.887.887,0,0,1,.248.082,1.214,1.214,0,0,1-.259-.041c-.163-.031-.4-.085-.68-.156-.582-.146-1.381-.367-2.262-.619l-2.249-.633-.68-.191A1.238,1.238,0,0,1,62.26,91.5Z" transform="translate(-53.092 -65.898)" fill="#e0e0e0"/>
    <path id="Tracé_732" data-name="Tracé 732" d="M81.7,81.35c-.027,0,.34-1.677.816-3.742s.9-3.715.925-3.708-.34,1.68-.816,3.742S81.728,81.357,81.7,81.35Z" transform="translate(-65.917 -54.285)" fill="#e0e0e0"/>
    <path id="Tracé_733" data-name="Tracé 733" d="M96,107.628a1.021,1.021,0,0,1,.119-.238l.34-.633c.3-.534.711-1.272,1.136-2.1s.782-1.6,1.021-2.15l.3-.66a1.2,1.2,0,0,1,.122-.235,1.1,1.1,0,0,1-.082.252c-.061.163-.153.391-.272.68-.235.565-.585,1.337-1.021,2.17s-.847,1.568-1.163,2.092c-.16.262-.293.469-.388.612A1.361,1.361,0,0,1,96,107.628Z" transform="translate(-75.355 -72.679)" fill="#e0e0e0"/>
    <path id="Tracé_734" data-name="Tracé 734" d="M77.58,119.088a.97.97,0,0,1,.245-.024l.68-.027c.568,0,1.361-.031,2.211-.041s1.643,0,2.208,0h.68a1.066,1.066,0,0,1,.245,0,1.02,1.02,0,0,1-.245.024l-.68.027c-.568.017-1.361.034-2.211.044s-1.643,0-2.208,0h-.68A1.164,1.164,0,0,1,77.58,119.088Z" transform="translate(-63.201 -84.164)" fill="#e0e0e0"/>
    <path id="Tracé_735" data-name="Tracé 735" d="M87.58,141.256a1.7,1.7,0,0,1,.313-.027l.857-.037c.725-.027,1.725-.054,2.83-.078s2.106-.037,2.83-.044h.861a2.088,2.088,0,0,1,.313,0,1.241,1.241,0,0,1-.313.031l-.857.034c-.725.027-1.725.054-2.83.078s-2.106.041-2.834.044h-.857a1.77,1.77,0,0,1-.313,0Z" transform="translate(-69.799 -98.756)" fill="#e0e0e0"/>
    <path id="Tracé_736" data-name="Tracé 736" d="M110.55,125.976a1.952,1.952,0,0,1,.143-.306l.422-.816c.357-.68.844-1.643,1.361-2.721s.946-2.041,1.255-2.755l.371-.844a2.1,2.1,0,0,1,.146-.3,1.983,1.983,0,0,1-.105.32c-.078.2-.19.5-.34.857-.293.718-.718,1.7-1.231,2.776s-1.021,2.021-1.381,2.7c-.19.34-.34.612-.456.8A1.913,1.913,0,0,1,110.55,125.976Z" transform="translate(-84.955 -83.668)" fill="#e0e0e0"/>
    <path id="Tracé_737" data-name="Tracé 737" d="M383.146,184.615c-3.834-3.344-4.2-8.821-3.511-13.638a5.226,5.226,0,0,1,.578-2.334,1.651,1.651,0,0,1,2.092-.636c.568.34.755,1.072,1.02,1.7a4.762,4.762,0,0,0,1.7,2.01,1.848,1.848,0,0,0,1.643.34c.738-.306.922-1.259,1-2.065q.231-2.245.456-4.49a7.483,7.483,0,0,1,.5-2.357,2.5,2.5,0,0,1,1.745-1.514,1.517,1.517,0,0,1,1.759,1.214,7.088,7.088,0,0,1-.085,1,.847.847,0,0,0,.408.847.969.969,0,0,0,.922-.272,10.709,10.709,0,0,0,2.228-2.687,14.878,14.878,0,0,1,2.109-2.789,4.372,4.372,0,0,1,3.119-1.333,2.617,2.617,0,0,1,2.473,2.041,3.948,3.948,0,0,1-1.432,3.079,17.974,17.974,0,0,1-4.113,3.153,1.5,1.5,0,0,0-.7.606c-.231.517.218,1.1.728,1.333a9.3,9.3,0,0,0,1.851.415,1.818,1.818,0,0,1,1.439,1.106c.242.857-.537,1.643-1.276,2.133a15.4,15.4,0,0,1-4.824,2.133,5.215,5.215,0,0,0-1.776.64,1.49,1.49,0,0,0-.66,1.65,1.522,1.522,0,0,0,1.578.81,11.384,11.384,0,0,0,1.834-.483,2.824,2.824,0,0,1,3.167.959,2.562,2.562,0,0,1,.027,2.276,5.909,5.909,0,0,1-1.429,1.854,15.567,15.567,0,0,1-7.089,3.919,10.62,10.62,0,0,1-7.484-.609" transform="translate(-262.32 -109.731)" fill="#f5f5f5"/>
    <path id="Tracé_738" data-name="Tracé 738" d="M395.13,183.272a71.911,71.911,0,0,1,3.7-7.436l1.068-1.9c.34-.623.7-1.238,1.078-1.823a36.6,36.6,0,0,1,2.381-3.225c.8-.987,1.6-1.9,2.351-2.742s1.473-1.616,2.157-2.293a28.941,28.941,0,0,1,3.46-2.953c.435-.313.782-.548,1.021-.7l.269-.177.1-.054a.447.447,0,0,1-.085.068l-.262.187c-.231.163-.571.4-1,.725a30.64,30.64,0,0,0-3.422,2.98c-.68.68-1.388,1.456-2.136,2.3s-1.541,1.759-2.337,2.749a36.211,36.211,0,0,0-2.351,3.218c-.374.578-.721,1.191-1.072,1.817l-1.068,1.9a74.592,74.592,0,0,0-3.691,7.416" transform="translate(-272.729 -111.286)" fill="#e0e0e0"/>
    <path id="Tracé_739" data-name="Tracé 739" d="M411.977,178.343a1.677,1.677,0,0,1-.041-.34c-.02-.228-.034-.554-.048-.963-.027-.81-.027-1.932-.024-3.167s0-2.357-.048-3.167c-.02-.4-.037-.731-.054-.956a1.65,1.65,0,0,1,0-.34,1.531,1.531,0,0,1,.065.34c.034.225.068.551.1.956.068.81.1,1.932.1,3.174s0,2.323-.02,3.167v.959A1.814,1.814,0,0,1,411.977,178.343Z" transform="translate(-283.698 -117.507)" fill="#e0e0e0"/>
    <path id="Tracé_740" data-name="Tracé 740" d="M422.915,193.052a2.31,2.31,0,0,1-.415,0h-1.133c-.956,0-2.276.048-3.742.163s-2.769.279-3.715.425c-.473.068-.854.136-1.119.18a2.253,2.253,0,0,1-.412.054,1.991,1.991,0,0,1,.4-.112c.262-.061.643-.146,1.116-.228.942-.173,2.259-.34,3.718-.469a36.494,36.494,0,0,1,3.742-.119c.48,0,.867.034,1.136.058A2.043,2.043,0,0,1,422.915,193.052Z" transform="translate(-284.111 -133.051)" fill="#e0e0e0"/>
    <path id="Tracé_741" data-name="Tracé 741" d="M388.236,201.35a.608.608,0,0,1-.058-.133c-.034-.105-.082-.235-.136-.391-.116-.34-.272-.84-.456-1.459-.371-1.235-.83-2.956-1.31-4.864s-.922-3.636-1.265-4.878c-.167-.6-.306-1.1-.412-1.47-.044-.16-.078-.293-.109-.4a.681.681,0,0,1-.031-.143.457.457,0,0,1,.058.136l.136.391c.119.34.276.84.459,1.456.371,1.238.827,2.96,1.306,4.868s.922,3.633,1.265,4.878c.17.6.31,1.1.412,1.47l.112.4A.42.42,0,0,1,388.236,201.35Z" transform="translate(-265.688 -129.547)" fill="#e0e0e0"/>
    <path id="Tracé_742" data-name="Tracé 742" d="M409.749,219.3a.857.857,0,0,1-.143.041l-.412.088-1.521.32c-1.282.269-3.062.66-5,1.092s-3.725.813-5.014,1.055c-.646.119-1.167.214-1.531.269l-.418.065a.4.4,0,0,1-.146,0l.143-.041.412-.088,1.521-.32c1.282-.269,3.062-.66,5-1.1s3.725-.81,5.014-1.051c.646-.122,1.167-.214,1.531-.269l.418-.065A.4.4,0,0,1,409.749,219.3Z" transform="translate(-273.012 -150.474)" fill="#e0e0e0"/>
    <path id="Tracé_743" data-name="Tracé 743" d="M303.63,33.845c.616-3.545,2.306-8.725,4.33-11.7a13.134,13.134,0,0,1,8.722-5.82,8.853,8.853,0,0,1,9.083,4.4c.861,1.725,1.021,3.711,1.646,5.531s2,3.647,3.922,3.793c1.7.133,3.344-1.1,5.018-.769,2.184.425,3.024,3.113,3.038,5.334s-.306,4.691,1.061,6.443c1.116,1.436,3.031,1.929,4.572,2.891,3.337,2.082,4.762,6.378,4.422,10.3s-2.143,7.545-4.058,10.977a86.022,86.022,0,0,0-6.463-16.288c-1.548-2.966-4.375-5.487-6.875-7.708-3.841-3.4-12.267-5.038-17.366-5.664s-6-.762-11.042-1.7" transform="translate(-212.355 -16.237)" fill="#e0e0e0"/>
  </g>
  <g id="freepik--back-screens--inject-2" transform="translate(20.808 21.263)">
    <path id="Tracé_744" data-name="Tracé 744" d="M132.957,80.3c-12.61.915-26.38,2.585-36.477,6.463l3.191,21.577s19.567-7,35.49-6.518Z" transform="translate(-96.48 -79.771)" fill="#193b6a"/>
    <g id="Groupe_47" data-name="Groupe 47" transform="translate(0 0.529)" opacity="0.8">
      <path id="Tracé_745" data-name="Tracé 745" d="M132.957,80.3c-12.61.915-26.38,2.585-36.477,6.463l3.191,21.577s19.567-7,35.49-6.518Z" transform="translate(-96.48 -80.3)" fill="#fff"/>
    </g>
    <path id="Tracé_746" data-name="Tracé 746" d="M138.112,113.835l-.122.02-.357.051-1.361.17c-.6.071-1.33.16-2.177.282s-1.813.245-2.874.422a167.744,167.744,0,0,0-16.475,3.4c-2.211.571-4.344,1.16-6.293,1.772l-.1.027v-.1c-.68-4.946-1.34-9.212-1.847-12.246-.259-1.5-.466-2.721-.609-3.541-.071-.4-.126-.721-.167-.946a1.245,1.245,0,0,0-.037-.245.272.272,0,0,1,0-.085.341.341,0,0,1,.024.082,1.341,1.341,0,0,0,.054.242c.044.225.109.537.194.942.163.82.391,2.021.657,3.531.537,3.021,1.218,7.287,1.912,12.246l-.112-.068c1.956-.619,4.082-1.211,6.3-1.783a160.652,160.652,0,0,1,16.5-3.341c1.065-.167,2.041-.279,2.881-.391s1.582-.194,2.181-.255l1.381-.139.361-.031a.474.474,0,0,1,.085-.02Z" transform="translate(-102.557 -94.63)" fill="#193b6a"/>
    <path id="Tracé_747" data-name="Tracé 747" d="M141.128,112.683s-.048-.15-.146-.432a4.527,4.527,0,0,0-.65-1.112,5.65,5.65,0,0,0-1.531-1.344c-.163-.109-.357-.19-.544-.289a4.874,4.874,0,0,0-.616-.221,3.368,3.368,0,0,0-1.4-.136,2.926,2.926,0,0,0-1.429.561,4.84,4.84,0,0,0-1.143,1.242,18.081,18.081,0,0,0-1.6,3.422,4.249,4.249,0,0,1-1.187,1.7,2.228,2.228,0,0,1-.983.473,2,2,0,0,1-1.109-.129c-1.436-.568-2.075-2.225-3.528-2.721a2.847,2.847,0,0,0-2.153.177,2.755,2.755,0,0,0-.854.66,4.424,4.424,0,0,0-.568.912,5.878,5.878,0,0,1-1.116,1.854,1.66,1.66,0,0,1-.98.439,1.956,1.956,0,0,1-1.021-.218,3.7,3.7,0,0,1-1.408-1.384,12.246,12.246,0,0,1-.745-1.7,8,8,0,0,0-.738-1.534,3.061,3.061,0,0,0-1.126-1.048,2.925,2.925,0,0,0-2.585-.075,4.371,4.371,0,0,0-1.643,1.184,3.187,3.187,0,0,0-.616,1.126c-.088.282-.1.442-.112.439a1.925,1.925,0,0,1,.078-.449,3.062,3.062,0,0,1,.6-1.16,4.423,4.423,0,0,1,1.657-1.231,3.021,3.021,0,0,1,2.684.058,3.177,3.177,0,0,1,1.184,1.082,8.069,8.069,0,0,1,.759,1.558,12.293,12.293,0,0,0,.745,1.67,3.514,3.514,0,0,0,1.361,1.32,1.793,1.793,0,0,0,.935.2,1.514,1.514,0,0,0,.881-.4,5.854,5.854,0,0,0,1.072-1.8,4.575,4.575,0,0,1,.592-.952,2.919,2.919,0,0,1,.908-.7,3.017,3.017,0,0,1,2.289-.187,4.718,4.718,0,0,1,1.84,1.388,5.146,5.146,0,0,0,1.7,1.361,1.827,1.827,0,0,0,1.021.119,2.089,2.089,0,0,0,.908-.435,4.143,4.143,0,0,0,1.143-1.633,18.913,18.913,0,0,1,1.633-3.439,4.82,4.82,0,0,1,1.184-1.272,3.089,3.089,0,0,1,1.493-.575,3.5,3.5,0,0,1,1.449.153,4.912,4.912,0,0,1,.629.235,5.865,5.865,0,0,1,2.085,1.7,4.365,4.365,0,0,1,.629,1.146,3.161,3.161,0,0,1,.088.34Q141.132,112.651,141.128,112.683Z" transform="translate(-105.13 -98.724)" fill="#193b6a"/>
    <path id="Tracé_748" data-name="Tracé 748" d="M102.565,111.386c0,.048-.156.119-.367.16s-.391.034-.4,0,.153-.119.364-.16S102.548,111.338,102.565,111.386Z" transform="translate(-99.99 -100.26)" fill="#193b6a"/>
    <path id="Tracé_749" data-name="Tracé 749" d="M104.5,122.969c.02.048-.1.146-.276.228s-.34.109-.34.065.105-.143.279-.225S104.475,122.935,104.5,122.969Z" transform="translate(-101.363 -107.915)" fill="#193b6a"/>
    <path id="Tracé_750" data-name="Tracé 750" d="M106.526,135.637c0,.048-.112.133-.286.194s-.34.071-.34.027.112-.133.286-.194S106.509,135.593,106.526,135.637Z" transform="translate(-102.696 -116.266)" fill="#193b6a"/>
    <path id="Tracé_751" data-name="Tracé 751" d="M108.813,148.077c0,.048-.133.136-.34.194s-.361.075-.374.027.129-.133.32-.194S108.8,148.033,108.813,148.077Z" transform="translate(-104.145 -124.474)" fill="#193b6a"/>
    <path id="Tracé_752" data-name="Tracé 752" d="M180.084,86.783a1.765,1.765,0,0,1,.412-.1c.272-.044.68-.105,1.174-.177,1.021-.143,2.453-.34,4.171-.541h.082v.082c.133,1.449.289,3.116.452,4.885v.16h-.085l-5.637.68h-.078V91.7c-.156-1.48-.289-2.721-.384-3.6-.041-.415-.071-.745-.1-1a2.858,2.858,0,0,1-.02-.34,3.065,3.065,0,0,1,.061.361c.037.252.082.589.139,1.021.112.878.265,2.1.452,3.558l-.085-.068,5.637-.718-.078.1V90.94c-.156-1.769-.3-3.439-.432-4.888l.088.071Z" transform="translate(-151.635 -83.512)" fill="#193b6a"/>
    <path id="Tracé_753" data-name="Tracé 753" d="M187.17,90.773c0,.054-.97.051-2.153.18s-2.133.34-2.146.276A10.464,10.464,0,0,1,187.17,90.773Z" transform="translate(-153.482 -86.645)" fill="#193b6a"/>
    <path id="Tracé_754" data-name="Tracé 754" d="M187.884,94.487c0,.051-.9.085-2.01.194s-2,.245-2.014.194a7.885,7.885,0,0,1,2-.371A7.762,7.762,0,0,1,187.884,94.487Z" transform="translate(-154.136 -89.093)" fill="#193b6a"/>
    <path id="Tracé_755" data-name="Tracé 755" d="M187.227,97.805a3.721,3.721,0,0,1-1.15.235,3.97,3.97,0,0,1-1.167.061,3.838,3.838,0,0,1,1.146-.235A3.994,3.994,0,0,1,187.227,97.805Z" transform="translate(-154.828 -91.309)" fill="#193b6a"/>
    <path id="Tracé_756" data-name="Tracé 756" d="M309.025,85.635c-12.348-3.762-22.768-6.977-36.739-6.889l-2.136,21.985c14.529,1.286,19.39,2.238,32.8,7.093Z" transform="translate(-211.072 -78.745)" fill="#193b6a"/>
    <g id="Groupe_48" data-name="Groupe 48" transform="translate(59.078 0)" opacity="0.8">
      <path id="Tracé_757" data-name="Tracé 757" d="M309.025,85.635c-12.348-3.762-22.768-6.977-36.739-6.889l-2.136,21.985c14.529,1.286,19.39,2.238,32.8,7.093Z" transform="translate(-270.15 -78.745)" fill="#fff"/>
    </g>
    <path id="Tracé_758" data-name="Tracé 758" d="M291.378,100.971l.544-4.664a5.46,5.46,0,0,0-3.807,1.055,5.722,5.722,0,0,0-2.34,4.606,6.694,6.694,0,0,0,.017.68h0l5.443-.612Z" transform="translate(-221.381 -90.315)" fill="#193b6a"/>
    <path id="Tracé_759" data-name="Tracé 759" d="M308.784,100.48A5.276,5.276,0,0,0,304.9,96.8l-.163-.034-.105-.024-.32-.048h-.027l-.537,4.643-.129,1.1,5.143,1.878h0a5.9,5.9,0,0,0,.265-1.194A6.42,6.42,0,0,0,308.784,100.48Z" transform="translate(-233.156 -90.586)" fill="#193b6a"/>
    <g id="Groupe_49" data-name="Groupe 49" transform="translate(70.464 6.105)" opacity="0.3">
      <path id="Tracé_760" data-name="Tracé 760" d="M308.784,100.48A5.276,5.276,0,0,0,304.9,96.8l-.163-.034-.105-.024-.32-.048h-.027l-.537,4.643-.129,1.1,5.143,1.878h0a5.9,5.9,0,0,0,.265-1.194A6.42,6.42,0,0,0,308.784,100.48Z" transform="translate(-303.62 -96.69)"/>
    </g>
    <path id="Tracé_761" data-name="Tracé 761" d="M291.923,115.1l-5.443.612a5.406,5.406,0,0,0,10.6,1.269l-5.143-1.878" transform="translate(-221.847 -102.733)" fill="#193b6a"/>
    <path id="Tracé_762" data-name="Tracé 762" d="M345.96,104.274a2.934,2.934,0,0,1-.48-.194c-.3-.139-.745-.34-1.3-.561a39.591,39.591,0,0,0-4.381-1.538,40,40,0,0,0-4.538-1.021c-.585-.1-1.065-.163-1.395-.207a2.64,2.64,0,0,1-.51-.088,3.324,3.324,0,0,1,.52.02c.34.024.813.075,1.4.153a32.752,32.752,0,0,1,8.95,2.551c.544.245.98.456,1.276.612A3.062,3.062,0,0,1,345.96,104.274Z" transform="translate(-252.78 -93.207)" fill="#193b6a"/>
    <path id="Tracé_763" data-name="Tracé 763" d="M344.86,111.015a3.23,3.23,0,0,1-.48-.2c-.3-.136-.745-.34-1.3-.558a38.562,38.562,0,0,0-8.919-2.545c-.585-.1-1.065-.163-1.395-.208a3.541,3.541,0,0,1-.51-.088,2.513,2.513,0,0,1,.52.02c.34.02.813.071,1.4.15a32.867,32.867,0,0,1,4.565.959,33.421,33.421,0,0,1,4.385,1.6c.544.245.98.456,1.276.612A2.528,2.528,0,0,1,344.86,111.015Z" transform="translate(-252.054 -97.662)" fill="#193b6a"/>
    <path id="Tracé_764" data-name="Tracé 764" d="M343.76,117.745a2.932,2.932,0,0,1-.48-.194c-.3-.136-.745-.34-1.3-.561a40.3,40.3,0,0,0-4.381-1.548,40.75,40.75,0,0,0-4.538-1.021c-.585-.092-1.061-.163-1.395-.208a2.639,2.639,0,0,1-.51-.088,3.326,3.326,0,0,1,.52.02c.34.024.813.075,1.4.153a32.866,32.866,0,0,1,4.565.959,32.46,32.46,0,0,1,4.385,1.6c.544.245.98.456,1.276.612A2.693,2.693,0,0,1,343.76,117.745Z" transform="translate(-251.328 -102.088)" fill="#193b6a"/>
    <path id="Tracé_765" data-name="Tracé 765" d="M342.279,124.538a3.344,3.344,0,0,1-.466-.194c-.292-.139-.721-.34-1.252-.558a36.7,36.7,0,0,0-8.654-2.548c-.571-.1-1.021-.163-1.361-.208a2.538,2.538,0,0,1-.5-.088,2.719,2.719,0,0,1,.507.02c.323.02.789.071,1.361.153a31.061,31.061,0,0,1,4.439.959,31.729,31.729,0,0,1,4.256,1.606c.527.245.949.456,1.231.612A2.653,2.653,0,0,1,342.279,124.538Z" transform="translate(-250.596 -106.585)" fill="#193b6a"/>
    <path id="Tracé_766" data-name="Tracé 766" d="M339.934,130.8a2.6,2.6,0,0,1-.418-.167l-1.126-.5a27.408,27.408,0,0,0-7.763-2.215l-1.221-.17a2.749,2.749,0,0,1-.446-.078,1.926,1.926,0,0,1,.452,0c.293,0,.711.054,1.228.112a23.642,23.642,0,0,1,7.8,2.225c.473.225.847.415,1.106.554A2.141,2.141,0,0,1,339.934,130.8Z" transform="translate(-249.876 -111.021)" fill="#193b6a"/>
    <path id="Tracé_767" data-name="Tracé 767" d="M333.431,135.5a5.779,5.779,0,0,1-.878-.18c-.538-.126-1.282-.289-2.112-.429s-1.589-.248-2.136-.34a5.248,5.248,0,0,1-.884-.153,4.146,4.146,0,0,1,.9.027c.554.048,1.316.129,2.153.276a19.206,19.206,0,0,1,2.112.483A3.943,3.943,0,0,1,333.431,135.5Z" transform="translate(-248.86 -115.456)" fill="#193b6a"/>
    <path id="Tracé_768" data-name="Tracé 768" d="M278.794,86.284l.286-.017.85-.027c.748,0,1.837,0,3.225.071a51.571,51.571,0,0,1,11.328,2.041l.061.02v.065c-.85,4.875-1.864,10.668-2.946,16.866-.044.252-.088.5-.133.748v.1l-.1-.024a73.557,73.557,0,0,0-7.562-1.561c-2.439-.374-4.762-.64-6.933-.776h-.085V103.7c.6-5.2,1.1-9.555,1.446-12.62.177-1.517.32-2.721.415-3.538.048-.4.088-.711.112-.929a1.653,1.653,0,0,1,.031-.238c.007-.061,0-.078,0-.075a.4.4,0,0,1,0,.085,1.009,1.009,0,0,1-.024.245c-.02.221-.054.537-.1.946-.085.83-.214,2.041-.374,3.558-.34,3.062-.8,7.4-1.361,12.586l-.075-.085c2.174.129,4.507.391,6.95.762a73.876,73.876,0,0,1,7.582,1.558l-.109.071c.044-.245.088-.5.133-.748,1.092-6.2,2.113-11.988,2.97-16.859l.051.085a52.608,52.608,0,0,0-11.287-2.085c-1.381-.092-2.477-.116-3.211-.112H278.8Z" transform="translate(-215.453 -83.69)" fill="#193b6a"/>
  </g>
  <g id="freepik--Character--inject-2" transform="translate(29.157 12.21)">
    <path id="Tracé_769" data-name="Tracé 769" d="M242.182,208.536l12.042,2.667,1.84-2.667-.3-3.432-1.83-1.674h-6.307l-5.892,5.307" transform="translate(-200.675 -152.201)" fill="#193b6a"/>
    <g id="Groupe_50" data-name="Groupe 50" transform="translate(41.065 51.229)" opacity="0.3">
      <path id="Tracé_770" data-name="Tracé 770" d="M242.182,208.536l12.042,2.667,1.84-2.667-.3-3.432-1.83-1.674h-6.307l-5.892,5.307" transform="translate(-241.74 -203.43)"/>
    </g>
    <path id="Tracé_771" data-name="Tracé 771" d="M290.793,137.409l15.2-2.041,2.381-.68s5.48-1.2,5.99-1.388c.592-.211.837.024.9.245.1.34-.235.738-.738.935-.17.068-2.949,1.021-2.949,1.021a6.8,6.8,0,0,1,.939.272,3.206,3.206,0,0,1,1.619,2.082c.32,1,.323,1.306-.061,1.449a.534.534,0,0,1-.442-.061,1.055,1.055,0,0,1-.456-.571c-.534-1.6-1.531-1.721-1.531-1.721l-.313.088s1.021.718,1.021,1.589a.973.973,0,0,1-.082.371,1.316,1.316,0,0,1-1.466,1.731c-.218-.041-.456-.17-.486-.388a.679.679,0,0,1,.071-.34,1.567,1.567,0,0,0,.054-.18l-.912.126s-2.065.17-2.953.34l-14.233,4.286a3.687,3.687,0,0,1-4.616-2.51h0a3.684,3.684,0,0,1,3.062-4.654Z" transform="translate(-230.929 -105.766)" fill="#ffbe9d"/>
    <path id="Tracé_772" data-name="Tracé 772" d="M342.74,139.09a.765.765,0,0,0,.657.605c.313.065.64.024.956.065.946.129,1.684.99,2.633,1.072.133,0,.3,0,.34-.143s-.065-.228-.156-.31l-2.381-2.1" transform="translate(-267.317 -109.105)" fill="#ffbe9d"/>
    <path id="Tracé_773" data-name="Tracé 773" d="M344.779,138.28a1.638,1.638,0,0,1,.279.2c.17.139.418.34.718.6l1.051.9.3.262c.092.092.248.17.276.388a.269.269,0,0,1-.163.252.558.558,0,0,1-.255.041,1.9,1.9,0,0,1-.456-.092,12.146,12.146,0,0,1-1.521-.769,2.325,2.325,0,0,0-.68-.225c-.221-.034-.439-.027-.636-.041a1.119,1.119,0,0,1-.867-.374.419.419,0,0,1-.105-.34.991.991,0,0,0,.16.286,1.065,1.065,0,0,0,.816.293,6.372,6.372,0,0,1,.653.02,2.515,2.515,0,0,1,.728.221,13.767,13.767,0,0,0,1.5.752,2,2,0,0,0,.412.082c.133,0,.245-.037.231-.105a.671.671,0,0,0-.211-.265l-.3-.265-1.021-.932-.68-.64C344.85,138.379,344.768,138.29,344.779,138.28Z" transform="translate(-267.297 -109.105)" fill="#eb996e"/>
    <path id="Tracé_774" data-name="Tracé 774" d="M357.35,144.124a1.283,1.283,0,0,1,.6,0,.99.99,0,0,1,.52.34,2.507,2.507,0,0,1,.374.711,4.169,4.169,0,0,0,.34.755,1.326,1.326,0,0,0,.5.48.51.51,0,0,0,.466,0c.1-.051.136-.1.133-.105s-.054.027-.15.065a.507.507,0,0,1-.412-.041,1.32,1.32,0,0,1-.442-.463,4.34,4.34,0,0,1-.34-.745,2.5,2.5,0,0,0-.4-.735,1.065,1.065,0,0,0-.582-.371.973.973,0,0,0-.466,0A.82.82,0,0,0,357.35,144.124Z" transform="translate(-276.957 -112.879)" fill="#eb996e"/>
    <path id="Tracé_775" data-name="Tracé 775" d="M360.138,136.7a3.026,3.026,0,0,0-.554.187l-1.32.486-1.32.466a2.837,2.837,0,0,0-.544.208,2.721,2.721,0,0,0,.572-.129c.34-.1.823-.248,1.34-.435s.983-.371,1.313-.517A2.561,2.561,0,0,0,360.138,136.7Z" transform="translate(-276.33 -108.058)" fill="#eb996e"/>
    <path id="Tracé_776" data-name="Tracé 776" d="M354.686,146.879s.041.054.119.139a.541.541,0,0,1,.173.418.289.289,0,0,1-.18.225,1.632,1.632,0,0,1-.367.1.65.65,0,0,0-.412.218.565.565,0,0,0-.068.5.633.633,0,0,0,.34.367.766.766,0,0,0,.456.068,2.589,2.589,0,0,0,.7-.262,1.5,1.5,0,0,0,.408-.3.388.388,0,0,0,.1-.16,1.475,1.475,0,0,1-.129.126,1.7,1.7,0,0,1-.412.262,2.681,2.681,0,0,1-.68.231.626.626,0,0,1-.68-.364.452.452,0,0,1,.048-.4.547.547,0,0,1,.34-.18,1.665,1.665,0,0,0,.388-.122.384.384,0,0,0,.218-.3.582.582,0,0,0-.221-.463A.7.7,0,0,0,354.686,146.879Z" transform="translate(-274.695 -114.79)" fill="#eb996e"/>
    <path id="Tracé_777" data-name="Tracé 777" d="M354.587,151.1a.26.26,0,0,0-.15.071.51.51,0,0,0-.17.422.68.68,0,0,0,.4.541,1.106,1.106,0,0,0,.823,0,1.333,1.333,0,0,0,.657-.5,1.279,1.279,0,0,0,.221-.633,1.167,1.167,0,0,0-.051-.449.367.367,0,0,0-.068-.15,2.359,2.359,0,0,1,.037.589,1.259,1.259,0,0,1-.833,1.021,1.02,1.02,0,0,1-.742,0,.6.6,0,0,1-.367-.449.483.483,0,0,1,.119-.381C354.536,151.128,354.594,151.108,354.587,151.1Z" transform="translate(-274.922 -117.119)" fill="#eb996e"/>
    <path id="Tracé_778" data-name="Tracé 778" d="M346.157,145.309a.553.553,0,0,0-.1-.265,1.116,1.116,0,0,0-.554-.452v.1a2.725,2.725,0,0,0,.34-.19,2.514,2.514,0,0,0,.952-.983,6.462,6.462,0,0,1-1.02.884,3.864,3.864,0,0,1-.34.19l-.116.061.122.041a1.164,1.164,0,0,1,.534.388C346.1,145.217,346.14,145.313,346.157,145.309Z" transform="translate(-269.019 -112.569)" fill="#eb996e"/>
    <path id="Tracé_779" data-name="Tracé 779" d="M361.3,144c-.02-.02-.18.157-.2.439s.116.476.143.459-.044-.208-.024-.452S361.327,144.017,361.3,144Z" transform="translate(-279.427 -112.883)" fill="#eb996e"/>
    <path id="Tracé_780" data-name="Tracé 780" d="M131.961,149.069a46.413,46.413,0,0,0-2.613-3.9,19.24,19.24,0,0,0-4.208-1.5c-.3.1-4.558.82-4.082,1.327s3.46-.044,3.46-.044l.4.2a18.262,18.262,0,0,0-3.109.721c-.541.313-.34.895.146.847s2.7-.48,2.83-.388-2.425.6-2.7.762c-.371.221-.408.878.061.847.276-.02,2.687-.643,2.687-.643a20.8,20.8,0,0,0-2.089.9.349.349,0,0,0,.34.6c.286-.061,1.636-.708,2.017-.789,0,0,.34.1.68.816.15.34.837,2.432,2.092,2.405a3.947,3.947,0,0,1,2.2.891Z" transform="translate(-121.021 -112.673)" fill="#ffbe9d"/>
    <path id="Tracé_781" data-name="Tracé 781" d="M121.19,147.254a1.946,1.946,0,0,0,.776.214,4.421,4.421,0,0,0,.878.037c.34-.037.68-.085,1.055-.139l.8-.116h-.048a11.117,11.117,0,0,0,1.837.575,11.691,11.691,0,0,0-1.772-.755h-.048l-.789.105-1.044.153a5.509,5.509,0,0,1-.85,0C121.5,147.295,121.2,147.223,121.19,147.254Z" transform="translate(-121.132 -114.916)" fill="#eb996e"/>
    <path id="Tracé_782" data-name="Tracé 782" d="M138.686,153.832a.854.854,0,0,1-.99,0c-.3-.184-.537-.463-.827-.68-.864-.612-2.112-.466-2.949-1.119-.116-.088-.231-.238-.167-.371s.225-.136.364-.133l3.507.082" transform="translate(-129.41 -117.866)" fill="#ffbe9d"/>
    <path id="Tracé_783" data-name="Tracé 783" d="M137.453,151.47a1.6,1.6,0,0,0-.378-.048c-.245,0-.6-.037-1.021-.054l-1.534-.061h-.446a.68.68,0,0,0-.514.109.3.3,0,0,0-.058.34.6.6,0,0,0,.177.228,2.337,2.337,0,0,0,.439.269,13.513,13.513,0,0,0,1.82.52,2.677,2.677,0,0,1,.718.34c.2.139.374.31.548.449a1.242,1.242,0,0,0,.986.34.474.474,0,0,0,.34-.19,1.1,1.1,0,0,1-.34.116,1.218,1.218,0,0,1-.884-.381c-.16-.139-.34-.316-.544-.476A2.722,2.722,0,0,0,136,152.6a15.424,15.424,0,0,1-1.786-.524,2.244,2.244,0,0,1-.4-.242c-.112-.092-.167-.218-.105-.265a.733.733,0,0,1,.371-.054h3A1.432,1.432,0,0,0,137.453,151.47Z" transform="translate(-129.238 -117.712)" fill="#eb996e"/>
    <path id="Tracé_784" data-name="Tracé 784" d="M197.123,393.78l-.806,8.919-2.677,6.875a.918.918,0,0,0,.582,1.208h0a.918.918,0,0,0,.83-.143c1.507-1.146,7.028-5.4,7.052-6.055.027-.759,1.483-9.368,1.483-9.368Z" transform="translate(-168.896 -278.143)" fill="#193b6a"/>
    <g id="Groupe_51" data-name="Groupe 51" transform="translate(25.326 125.839)" opacity="0.6">
      <path id="Tracé_785" data-name="Tracé 785" d="M195.47,430.573l7.95-6.8-.041.378a1.4,1.4,0,0,1-.429.854c-.64.6-2.446,2.218-6.623,5.443a.915.915,0,0,1-.857.139Z" transform="translate(-195.47 -423.77)" fill="#fff"/>
    </g>
    <g id="Groupe_52" data-name="Groupe 52" transform="translate(31.498 122.71)" opacity="0.6">
      <path id="Tracé_786" data-name="Tracé 786" d="M213.892,414.625a.558.558,0,0,0-.231.7.531.531,0,0,0,.68.235.585.585,0,0,0,.245-.745.555.555,0,0,0-.752-.167" transform="translate(-213.614 -414.57)" fill="#fff"/>
    </g>
    <path id="Tracé_787" data-name="Tracé 787" d="M199.454,430.71c-.054.02-.2-.469-.7-.782a2.821,2.821,0,0,0-1-.313c0-.02.116-.078.34-.085a1.429,1.429,0,0,1,.782.235,1.4,1.4,0,0,1,.534.612C199.478,430.581,199.475,430.71,199.454,430.71Z" transform="translate(-171.649 -301.731)" fill="#263238"/>
    <path id="Tracé_788" data-name="Tracé 788" d="M197.389,434.794c-.044.034-.3-.289-.745-.473a7.729,7.729,0,0,0-.854-.211,1.021,1.021,0,0,1,.932.031C197.222,434.348,197.44,434.777,197.389,434.794Z" transform="translate(-170.356 -304.689)" fill="#263238"/>
    <path id="Tracé_789" data-name="Tracé 789" d="M202.115,426.423a9.133,9.133,0,0,0-1.1-.806,9.665,9.665,0,0,0-1.282-.459,2.512,2.512,0,0,1,2.385,1.265Z" transform="translate(-172.955 -298.831)" fill="#263238"/>
    <path id="Tracé_790" data-name="Tracé 790" d="M203.65,419.977c-.031.051-.5-.211-1.136-.306s-1.16,0-1.174-.058A2.286,2.286,0,0,1,203.65,419.977Z" transform="translate(-174.018 -295.08)" fill="#263238"/>
    <path id="Tracé_791" data-name="Tracé 791" d="M204.368,412.274a4.423,4.423,0,0,0-1.174-.34,4.575,4.575,0,0,0-1.214.16c0-.02.1-.119.316-.214a1.931,1.931,0,0,1,.912-.143,2.021,2.021,0,0,1,.881.282C204.3,412.138,204.392,412.253,204.368,412.274Z" transform="translate(-174.44 -289.986)" fill="#263238"/>
    <path id="Tracé_792" data-name="Tracé 792" d="M203.293,407.635a.748.748,0,0,1,.027-.34,2.382,2.382,0,0,1,.367-.85,1.068,1.068,0,0,1,.5-.446.374.374,0,0,1,.4.129.6.6,0,0,1,.1.418,1.3,1.3,0,0,1-1.265,1.065,1.507,1.507,0,0,1-1.381-.949.531.531,0,0,1,.024-.435.364.364,0,0,1,.4-.146,1.248,1.248,0,0,1,.551.371,2.589,2.589,0,0,1,.531.762.84.84,0,0,1,.1.323,4.218,4.218,0,0,0-.728-.987,1.181,1.181,0,0,0-.49-.31.194.194,0,0,0-.218.078.361.361,0,0,0,0,.286,1.337,1.337,0,0,0,1.2.81,1.126,1.126,0,0,0,1.089-.888.432.432,0,0,0-.054-.293.2.2,0,0,0-.221-.075.925.925,0,0,0-.432.367A3.473,3.473,0,0,0,203.293,407.635Z" transform="translate(-174.456 -286.194)" fill="#263238"/>
    <path id="Tracé_793" data-name="Tracé 793" d="M209.479,282.754l6.678-52.88-2.136-12.294-12.586.68-1.575,63.517a.963.963,0,0,0,.782.976l7.334,1.133a1.317,1.317,0,0,0,1.5-1.133Z" transform="translate(-173.04 -161.881)" fill="#263238"/>
    <path id="Tracé_794" data-name="Tracé 794" d="M236.867,226.44l12.148,12.022-17.475,4.249,1.242,8.817,23.656-3.218a7.457,7.457,0,0,0,5.035-3.024h0a7.443,7.443,0,0,0,.116-8.545L243.157,209.69l-8.232,2.684Z" transform="translate(-193.944 -156.434)" fill="#263238"/>
    <path id="Tracé_795" data-name="Tracé 795" d="M245.23,249.94a6.861,6.861,0,0,1,.422,1.51A6.627,6.627,0,0,1,245.9,253a7.169,7.169,0,0,1-.422-1.51,7.087,7.087,0,0,1-.248-1.548Z" transform="translate(-202.977 -182.951)" fill="#455a64"/>
    <path id="Tracé_796" data-name="Tracé 796" d="M230.056,270.074l.289-.1.85-.265,3.259-.99,11.858-3.565-.031.112L231.7,249.742l.153-.048c-.289,2.439-.592,4.987-.9,7.586-1.5,12.586-2.919,23.989-4.011,32.228-.544,4.119-1.021,7.45-1.361,9.749-.194,1.143-.34,2.041-.456,2.636-.061.3-.112.52-.146.68s-.054.231-.054.231a1.11,1.11,0,0,1,.037-.235c.037-.153.075-.388.129-.68.122-.6.238-1.493.422-2.64.34-2.3.789-5.633,1.313-9.756,1.065-8.239,2.456-19.638,3.96-32.231.31-2.6.612-5.147.9-7.586l.02-.187.129.136,14.542,15.556.075.082-.105.031-11.875,3.511-3.272.956-.854.245A.948.948,0,0,1,230.056,270.074Z" transform="translate(-189.583 -182.936)" fill="#455a64"/>
    <path id="Tracé_797" data-name="Tracé 797" d="M228.468,309.041c-.048,0,1.34-11.226,3.1-25.067s3.225-25.05,3.272-25.044-1.337,11.226-3.1,25.067S228.519,309.044,228.468,309.041Z" transform="translate(-191.916 -189.165)" fill="#455a64"/>
    <path id="Tracé_798" data-name="Tracé 798" d="M241.41,233.49a4.084,4.084,0,0,1,.279.82c.15.51.34,1.228.51,2.024s.3,1.524.381,2.041a3.938,3.938,0,0,1,.085.861,4.4,4.4,0,0,1-.207-.84c-.126-.582-.272-1.272-.432-2.041s-.34-1.449-.456-2.041A4.082,4.082,0,0,1,241.41,233.49Z" transform="translate(-200.457 -172.078)" fill="#455a64"/>
    <path id="Tracé_799" data-name="Tracé 799" d="M243.165,230.259a.478.478,0,0,1,.493-.054.575.575,0,0,1,.367.435.629.629,0,0,1-.276.646.609.609,0,0,1-.68-.071.517.517,0,0,1-.156-.548.507.507,0,0,1,.228-.3c.078-.044.129-.044.133-.034a.68.68,0,0,0-.238.364.391.391,0,0,0,.139.395.463.463,0,0,0,.5.044.483.483,0,0,0,.2-.466.459.459,0,0,0-.259-.34A.908.908,0,0,0,243.165,230.259Z" transform="translate(-201.433 -169.87)" fill="#455a64"/>
    <path id="Tracé_800" data-name="Tracé 800" d="M286.548,296.315c-.037.037-.721-.592-1.7-1.157s-1.864-.857-1.847-.908a5.291,5.291,0,0,1,1.939.755A5.353,5.353,0,0,1,286.548,296.315Z" transform="translate(-227.899 -212.253)" fill="#455a64"/>
    <path id="Tracé_801" data-name="Tracé 801" d="M202.724,107.183l-6.974,3.368,3.007,20.982-1.18,9.416a3.674,3.674,0,0,0,1.228,3.228h0l11.263-.221,7.878-4.324,3.623-.612-1.483-7.167.68-10.168,8.242,4.4a2.868,2.868,0,0,0,2.072.248l15.1-3.922-.786-5.824-13.682,1.548-10.419-9.205-7.756-1.745-1.374-2.283h-7.936l-.568.415a1.677,1.677,0,0,0-.575.786Z" transform="translate(-170.329 -86.949)" fill="#193b6a"/>
    <path id="Tracé_802" data-name="Tracé 802" d="M160.4,121.51a8.372,8.372,0,0,0-3.14,4.082c-.8,2.476-2.6,12.488-2.6,12.488l-7.923-4.905-4.565,4.8,10.545,9.314a5.371,5.371,0,0,0,5.882.813h0a5.375,5.375,0,0,0,2.99-4.113l1.3-9.494Z" transform="translate(-134.982 -98.038)" fill="#193b6a"/>
    <path id="Tracé_803" data-name="Tracé 803" d="M252.764,208.291l-.49-.721-5.215.963-.959,2.221Z" transform="translate(-203.551 -154.93)" fill="#ffbe9d"/>
    <path id="Tracé_804" data-name="Tracé 804" d="M204.73,189.051c4.66,1.874,9.637,1.184,14.073-1.167,1.34-.711,2.582-1.592,3.929-2.293a8.324,8.324,0,0,1,4.351-1.109,4.259,4.259,0,0,1,3.643,2.33,2.9,2.9,0,0,1-1.425,3.8l.5.449a4.519,4.519,0,0,0,2.065-5.861c-.782-1.585-2.429-2.534-3.633-3.83-1.772-1.9-1.956-5.592-1.97-8.464" transform="translate(-176.254 -132.032)" fill="#193b6a"/>
    <path id="Tracé_805" data-name="Tracé 805" d="M222.56,115.635a2.115,2.115,0,0,1-.34,0,1.32,1.32,0,0,0-.827.381,1.946,1.946,0,0,0-.412,1.33,4.511,4.511,0,0,0,.378,1.786l.133.293-.255-.191a13.725,13.725,0,0,1-1.759-1.555,12.957,12.957,0,0,1-2.7-4.137,9.441,9.441,0,0,1-.439-1.436,3.634,3.634,0,0,1-.078-.548,16.16,16.16,0,0,0,.633,1.936,13.634,13.634,0,0,0,2.721,4.062,14.439,14.439,0,0,0,1.728,1.541l-.126.105a4.037,4.037,0,0,1-.289-.956,4.179,4.179,0,0,1-.078-.9,2.007,2.007,0,0,1,.48-1.4,1.31,1.31,0,0,1,.895-.364A1.476,1.476,0,0,1,222.56,115.635Z" transform="translate(-183.862 -91.437)" fill="#263238"/>
    <path id="Tracé_806" data-name="Tracé 806" d="M236,112.9a1.826,1.826,0,0,1,1.837.585c.272.313.425.742.782.946a2.538,2.538,0,0,0,1.823.112s.2-.969.31-1.361a30.116,30.116,0,0,0,.772-4.654c-1.1-.534-.793-1.235-2.769-1.1a5.027,5.027,0,0,1,.071,2.783" transform="translate(-196.887 -88.605)" fill="#193b6a"/>
    <path id="Tracé_807" data-name="Tracé 807" d="M238.89,110.039c-.02,0,.071-.262.112-.745a5.464,5.464,0,0,0-.245-2.017l-.024-.082h.082a3.375,3.375,0,0,1,1.456.129,2.215,2.215,0,0,1,.68.486,2.663,2.663,0,0,0,.68.469l.054.027v.058c-.088.827-.187,1.728-.34,2.66-.1.609-.225,1.2-.367,1.759s-.255,1.1-.374,1.612v.034l-.02.017a1.082,1.082,0,0,1-.585.139,3.572,3.572,0,0,1-.544-.034,3.484,3.484,0,0,1-.51-.112,1.1,1.1,0,0,1-.446-.242,4.5,4.5,0,0,1-.524-.721,1.843,1.843,0,0,0-.537-.486,1.919,1.919,0,0,0-.98-.306,1.964,1.964,0,0,0-.367.054.762.762,0,0,1,.367-.105,1.861,1.861,0,0,1,1.021.272,1.9,1.9,0,0,1,.582.5,4.454,4.454,0,0,0,.52.68,1.667,1.667,0,0,0,.884.306,3.294,3.294,0,0,0,.521.027.983.983,0,0,0,.49-.112l-.031.048c.116-.514.224-1.065.364-1.623s.262-1.143.361-1.748c.156-.925.259-1.823.34-2.647l.048.085a2.888,2.888,0,0,1-.735-.5,2,2,0,0,0-.623-.463,3.34,3.34,0,0,0-1.388-.143l.058-.085a5.3,5.3,0,0,1,.194,2.065,3.779,3.779,0,0,1-.116.554A.788.788,0,0,1,238.89,110.039Z" transform="translate(-196.947 -88.444)" fill="#263238"/>
    <path id="Tracé_808" data-name="Tracé 808" d="M249.639,153.895v-.388a2.4,2.4,0,0,0-.34-1.051,3.537,3.537,0,0,0-1.252-1.208,5.279,5.279,0,0,0-2.232-.612c-.864-.078-1.823-.031-2.854-.1a10.759,10.759,0,0,1-3.218-.68,6.64,6.64,0,0,1-2.9-2.17,5.052,5.052,0,0,1-.833-1.745,6.675,6.675,0,0,1-.19-1.983,33.38,33.38,0,0,1,.548-3.861,29.4,29.4,0,0,0,.34-3.592,29.8,29.8,0,0,0-1.453-10.1c-.143-.466-.276-.82-.361-1.061-.041-.116-.071-.208-.1-.279a.408.408,0,0,1-.027-.1.8.8,0,0,1,.044.088c.027.061.065.16.112.272.1.238.238.589.395,1.055a28.233,28.233,0,0,1,1.061,4,29.592,29.592,0,0,1,.486,6.123,29.1,29.1,0,0,1-.34,3.616,35.273,35.273,0,0,0-.541,3.841,5.525,5.525,0,0,0,.987,3.619A6.463,6.463,0,0,0,239.8,149.7a10.61,10.61,0,0,0,3.167.68c1.021.075,1.98.037,2.857.126a5.34,5.34,0,0,1,2.293.663,3.541,3.541,0,0,1,1.259,1.259,2.33,2.33,0,0,1,.313,1.082,1.4,1.4,0,0,1-.017.3A.324.324,0,0,1,249.639,153.895Z" transform="translate(-196.076 -100.33)" fill="#263238"/>
    <path id="Tracé_809" data-name="Tracé 809" d="M238.4,191.79a3.032,3.032,0,0,1-.391.408c-.129.126-.293.279-.49.446s-.415.367-.68.561a18.605,18.605,0,0,1-1.881,1.3,19.223,19.223,0,0,1-5.157,2.16,18.31,18.31,0,0,1-2.249.425c-.323.051-.616.068-.874.088s-.48.034-.663.037a3.3,3.3,0,0,1-.565,0,3.917,3.917,0,0,1,.561-.065,5.43,5.43,0,0,0,.657-.065c.255-.034.548-.054.867-.112a21.137,21.137,0,0,0,2.225-.463,22.076,22.076,0,0,0,2.63-.895,21.645,21.645,0,0,0,2.483-1.248,21.168,21.168,0,0,0,1.891-1.259c.262-.187.486-.378.68-.537s.371-.3.507-.422a4.049,4.049,0,0,1,.449-.364Z" transform="translate(-189.926 -144.498)" fill="#263238"/>
    <path id="Tracé_810" data-name="Tracé 810" d="M234.705,159a.656.656,0,0,1-.031.187l-.119.531a7.48,7.48,0,0,1-.225.83c-.1.32-.2.68-.361,1.082-.078.2-.156.4-.238.619s-.194.429-.293.657c-.2.459-.456.922-.718,1.415a19.625,19.625,0,0,1-4.654,5.548c-.442.34-.854.68-1.272.952-.2.139-.4.282-.6.4l-.568.34a10.087,10.087,0,0,1-1,.548,8.163,8.163,0,0,1-.776.364l-.5.211a1.035,1.035,0,0,1-.18.061.832.832,0,0,1,.167-.1l.486-.238c.214-.1.473-.224.762-.391s.633-.34.983-.565l.558-.34c.194-.122.384-.269.589-.408.408-.276.813-.612,1.248-.959a22.215,22.215,0,0,0,2.555-2.544,22.579,22.579,0,0,0,2.061-2.956c.265-.49.527-.946.725-1.4.105-.225.214-.439.3-.65l.245-.612c.17-.384.276-.748.384-1.065s.194-.592.255-.82l.15-.52A.68.68,0,0,1,234.705,159Z" transform="translate(-188.422 -122.823)" fill="#263238"/>
    <path id="Tracé_811" data-name="Tracé 811" d="M210.946,216.446a2.041,2.041,0,0,1-.623-.463,4.7,4.7,0,0,1-1.419-3.378,2.13,2.13,0,0,1,.1-.765,7.166,7.166,0,0,1,.024.762,5.331,5.331,0,0,0,1.385,3.3C210.732,216.242,210.977,216.422,210.946,216.446Z" transform="translate(-179.007 -157.757)" fill="#263238"/>
    <path id="Tracé_812" data-name="Tracé 812" d="M213.831,217.59c.051,0-.044.452,0,.987s.211.952.163.976a2.041,2.041,0,0,1-.167-1.963Z" transform="translate(-182.141 -161.555)" fill="#263238"/>
    <path id="Tracé_813" data-name="Tracé 813" d="M198.615,151.022a.543.543,0,0,1-.041-.16c-.024-.126-.051-.279-.085-.463-.071-.429-.17-1.021-.286-1.7-.238-1.439-.578-3.426-.986-5.613s-.806-4.167-1.089-5.6c-.143-.68-.262-1.265-.34-1.7-.037-.184-.065-.34-.088-.459a.514.514,0,0,1-.02-.167.646.646,0,0,1,.054.156c.034.126.071.276.119.456.1.395.242.97.4,1.68.34,1.422.745,3.4,1.157,5.586s.725,4.184.932,5.626c.105.725.184,1.31.231,1.7.02.187.037.34.051.469A.544.544,0,0,1,198.615,151.022Z" transform="translate(-170.282 -107.055)" fill="#263238"/>
    <path id="Tracé_814" data-name="Tracé 814" d="M268.277,149.742a.935.935,0,0,1-.017-.167v-2.262c0-1.5.082-3.572.255-5.854s.4-4.344.578-5.834c.092-.725.167-1.32.224-1.762q.041-.286.071-.48a.794.794,0,0,1,.034-.163.543.543,0,0,1,0,.17c0,.129-.024.289-.037.48-.041.446-.1,1.041-.167,1.769-.146,1.49-.34,3.551-.527,5.834s-.259,4.347-.306,5.844c-.02.728-.037,1.327-.051,1.776l-.017.483A.548.548,0,0,1,268.277,149.742Z" transform="translate(-218.173 -105.773)" fill="#263238"/>
    <path id="Tracé_815" data-name="Tracé 815" d="M182.132,175.06c-.058.024-.507-1.214-1.361-2.562a17.326,17.326,0,0,0-1.844-2.238,3.123,3.123,0,0,1,.68.541,9.353,9.353,0,0,1,1.327,1.6,11.066,11.066,0,0,1,.952,1.844A3.429,3.429,0,0,1,182.132,175.06Z" transform="translate(-159.228 -130.257)" fill="#263238"/>
    <path id="Tracé_816" data-name="Tracé 816" d="M182.713,173.54a6.5,6.5,0,0,1-.381-.68,5.266,5.266,0,0,0-1.177-1.361,7.451,7.451,0,0,0-1.555-.949,4.484,4.484,0,0,1-.68-.34,2.667,2.667,0,0,1,.738.218,5.957,5.957,0,0,1,1.619.929,4.572,4.572,0,0,1,1.174,1.453,2.218,2.218,0,0,1,.262.731Z" transform="translate(-159.224 -130.222)" fill="#263238"/>
    <path id="Tracé_817" data-name="Tracé 817" d="M188.939,147.352a.858.858,0,0,1-.071.15,1.46,1.46,0,0,1-.31.364,2.065,2.065,0,0,1-1.667.449,3.228,3.228,0,0,1-2.1-1.48,7.212,7.212,0,0,1-.68-1.361c-.1-.248-.19-.5-.272-.765a2.115,2.115,0,0,1-.1-.857,1.18,1.18,0,0,1,.415-.772.983.983,0,0,1,.84-.15,1.653,1.653,0,0,1,1.119,1.061,1.6,1.6,0,0,1-.139,1.391,1.738,1.738,0,0,1-.969.745,1.541,1.541,0,0,1-1.021-.048,1.7,1.7,0,0,1-.629-.429,1.327,1.327,0,0,1-.265-.4c-.044-.1-.058-.156-.051-.16a2.174,2.174,0,0,0,.364.51,1.725,1.725,0,0,0,.616.384,1.476,1.476,0,0,0,.935.02,1.609,1.609,0,0,0,.881-.7,1.446,1.446,0,0,0,.112-1.259,1.483,1.483,0,0,0-1.021-.949.81.81,0,0,0-.68.122.993.993,0,0,0-.34.653,3.664,3.664,0,0,0,.34,1.534,6.8,6.8,0,0,0,.68,1.361,3.14,3.14,0,0,0,1.98,1.449,2.041,2.041,0,0,0,1.6-.381A2.571,2.571,0,0,0,188.939,147.352Z" transform="translate(-161.946 -112.159)" fill="#fafafa"/>
    <path id="Tracé_818" data-name="Tracé 818" d="M212.6,146.309l-.1.078c-.068.058-.163.129-.282.221a7.515,7.515,0,0,1-1.17.735,3.581,3.581,0,0,1-.956.32,2.5,2.5,0,0,1-1.194-.078,4.211,4.211,0,0,1-2.153-1.9,6.936,6.936,0,0,1,.061-7.229,3.742,3.742,0,0,1,1.6-1.5,2.089,2.089,0,0,1,1.146-.146,1.568,1.568,0,0,1,1.02.582,1.667,1.667,0,0,1,.32,1.16,2.612,2.612,0,0,1-.367,1.157,3.779,3.779,0,0,1-1.891,1.534,4.868,4.868,0,0,1-2.429.252,4.983,4.983,0,0,1-2.187-.908,7.5,7.5,0,0,1-2.575-3.606,4.382,4.382,0,0,1-.313-2.065,2.068,2.068,0,0,1,.4-.939,1.429,1.429,0,0,1,.83-.541,1.816,1.816,0,0,1,1.7.592,1.942,1.942,0,0,1,.412,1.629,2.582,2.582,0,0,1-.7,1.361,3.306,3.306,0,0,1-1.15.752,5.181,5.181,0,0,1-2.16.34,12.459,12.459,0,0,1-1.361-.139l-.357-.058-.119-.024h.122l.357.041c.313.031.776.092,1.361.105a5.255,5.255,0,0,0,2.123-.34,3.188,3.188,0,0,0,1.106-.738,2.473,2.473,0,0,0,.657-1.316,1.823,1.823,0,0,0-.391-1.521,1.7,1.7,0,0,0-1.578-.537,1.565,1.565,0,0,0-1.106,1.361,4.137,4.137,0,0,0,.313,1.987,7.348,7.348,0,0,0,2.517,3.521,4.854,4.854,0,0,0,2.116.871,4.657,4.657,0,0,0,2.337-.242,3.579,3.579,0,0,0,1.8-1.456,2.483,2.483,0,0,0,.34-1.082,1.476,1.476,0,0,0-.282-1.038,1.412,1.412,0,0,0-.918-.52,1.929,1.929,0,0,0-1.055.133,3.582,3.582,0,0,0-1.527,1.429,6.657,6.657,0,0,0-1.038,3.776,6.746,6.746,0,0,0,.942,3.3,4.116,4.116,0,0,0,2.078,1.868,2.81,2.81,0,0,0,2.089-.208,8.334,8.334,0,0,0,1.18-.7l.293-.2A.571.571,0,0,1,212.6,146.309Z" transform="translate(-172.229 -105.896)" fill="#fafafa"/>
    <path id="Tracé_819" data-name="Tracé 819" d="M198.983,115.219a1.15,1.15,0,0,1-.109.3,4.666,4.666,0,0,1-.439.765,5.586,5.586,0,0,1-5.041,2.405,4.643,4.643,0,0,1-.867-.139,1.021,1.021,0,0,1-.306-.109c0-.031.449.1,1.18.126a5.854,5.854,0,0,0,4.936-2.354C198.775,115.631,198.949,115.2,198.983,115.219Z" transform="translate(-168 -93.757)" fill="#fafafa"/>
    <path id="Tracé_820" data-name="Tracé 820" d="M223.775,119.41a3.14,3.14,0,0,0-.959.473,3.092,3.092,0,0,0-.623.871c-.02,0-.027-.136.041-.34a1.589,1.589,0,0,1,1.2-1.021C223.645,119.363,223.775,119.39,223.775,119.41Z" transform="translate(-187.768 -96.503)" fill="#fafafa"/>
    <path id="Tracé_821" data-name="Tracé 821" d="M244.16,119.45a.728.728,0,0,1-.289-.133,2.354,2.354,0,0,1-.64-.589,2.323,2.323,0,0,1-.473-1.2,1.15,1.15,0,0,1,.211-.765.786.786,0,0,1,.786-.34.867.867,0,0,1,.619.6.813.813,0,0,1-.156.782,1.1,1.1,0,0,1-1.231.34,1.4,1.4,0,0,1-.68-.558.68.68,0,0,1-.126-.293,2.907,2.907,0,0,0,.184.252,1.419,1.419,0,0,0,.657.48.976.976,0,0,0,1.065-.31.66.66,0,0,0,.119-.629.711.711,0,0,0-.493-.473.616.616,0,0,0-.612.265,1.021,1.021,0,0,0-.184.65,2.272,2.272,0,0,0,.412,1.143A3.525,3.525,0,0,0,244.16,119.45Z" transform="translate(-200.965 -94.542)" fill="#fafafa"/>
    <path id="Tracé_822" data-name="Tracé 822" d="M247.177,111.5a4.31,4.31,0,0,0-1.126-.786,4.423,4.423,0,0,0-1.361-.231.739.739,0,0,1,.408-.1,2.228,2.228,0,0,1,1.021.167,2.317,2.317,0,0,1,.837.589C247.132,111.341,247.2,111.494,247.177,111.5Z" transform="translate(-202.621 -90.567)" fill="#fafafa"/>
    <path id="Tracé_823" data-name="Tracé 823" d="M254.519,119.9a.424.424,0,0,1-.065.041l-.2.109a8.172,8.172,0,0,1-.82.34,9.885,9.885,0,0,1-3.2.6,4.68,4.68,0,0,1-1.089-.105,2.381,2.381,0,0,1-1.072-.524,1.592,1.592,0,0,1-.527-1.163,1.977,1.977,0,0,1,.452-1.279,2.63,2.63,0,0,1,2.721-.68,3.164,3.164,0,0,1,2.17,2.1,3.106,3.106,0,0,1-.65,2.949,4.762,4.762,0,0,1-2.517,1.361,14.7,14.7,0,0,1-2.582.262,14.134,14.134,0,0,0-2.228.218,4.517,4.517,0,0,0-2.738,1.561,3.252,3.252,0,0,0-.524,1.058.228.228,0,0,1,0-.078.9.9,0,0,1,.054-.225,2.87,2.87,0,0,1,.4-.8,4.521,4.521,0,0,1,2.772-1.643,13.608,13.608,0,0,1,2.245-.242,14.51,14.51,0,0,0,2.551-.272,4.623,4.623,0,0,0,2.425-1.313,2.932,2.932,0,0,0,.609-2.783,2.99,2.99,0,0,0-2.041-1.987,2.476,2.476,0,0,0-2.538.633,1.81,1.81,0,0,0-.422,1.174,1.435,1.435,0,0,0,.469,1.058,2.269,2.269,0,0,0,1.021.5,4.545,4.545,0,0,0,1.055.112,10.308,10.308,0,0,0,3.184-.541c.361-.126.636-.238.823-.316A2.011,2.011,0,0,1,254.519,119.9Z" transform="translate(-200.609 -95.112)" fill="#fafafa"/>
    <path id="Tracé_824" data-name="Tracé 824" d="M245.4,160.276c-.031,0-.146-.286-.459-.68a3.5,3.5,0,0,0-3.473-1.31c-.493.1-.779.238-.793.211a1.837,1.837,0,0,1,.765-.34,3.358,3.358,0,0,1,3.606,1.361A1.834,1.834,0,0,1,245.4,160.276Z" transform="translate(-199.969 -122.18)" fill="#fafafa"/>
    <path id="Tracé_825" data-name="Tracé 825" d="M256.976,172.148a1.657,1.657,0,0,1-.466.68,2.854,2.854,0,0,1-3.742.3,1.7,1.7,0,0,1-.568-.606c.024-.024.218.231.64.5a2.99,2.99,0,0,0,1.834.476,3.024,3.024,0,0,0,1.738-.759C256.8,172.41,256.949,172.128,256.976,172.148Z" transform="translate(-207.576 -131.501)" fill="#fafafa"/>
    <path id="Tracé_826" data-name="Tracé 826" d="M262.4,151.379c0,.027-.221-.1-.582-.194a2.5,2.5,0,0,0-2.606.833c-.238.289-.34.507-.361.5a1.2,1.2,0,0,1,.262-.571,2.381,2.381,0,0,1,2.742-.878A1.21,1.21,0,0,1,262.4,151.379Z" transform="translate(-211.964 -117.47)" fill="#fafafa"/>
    <path id="Tracé_827" data-name="Tracé 827" d="M288.07,141.96a1.757,1.757,0,0,1,.061.252,1.8,1.8,0,0,1,.041.313,2.479,2.479,0,0,1,0,.432,4.286,4.286,0,0,1-.976,2.534,4.467,4.467,0,0,1-1.453,1.214,4.518,4.518,0,0,1-2.123.486,5.715,5.715,0,0,1-4.371-2.16,3.438,3.438,0,0,1-.616-1.18,2.241,2.241,0,0,1,.02-1.3,1.67,1.67,0,0,1,.8-.973,1.816,1.816,0,0,1,1.2-.139,2,2,0,0,1,1.021.534,2.381,2.381,0,0,1,.558.922,3.106,3.106,0,0,1-.017,1.9,3.581,3.581,0,0,1-.8,1.361,3.739,3.739,0,0,1-.935.721,3.577,3.577,0,0,1-.68.279,1.7,1.7,0,0,1-.259.048,5.05,5.05,0,0,0,.919-.384,3.674,3.674,0,0,0,1.653-2.041,3,3,0,0,0,0-1.813,2.174,2.174,0,0,0-.527-.857,1.854,1.854,0,0,0-.932-.486,1.677,1.677,0,0,0-1.089.129,1.49,1.49,0,0,0-.708.878,2.041,2.041,0,0,0-.017,1.194,3.214,3.214,0,0,0,.585,1.119,5.582,5.582,0,0,0,4.232,2.106,4.445,4.445,0,0,0,4.5-4.072A6.835,6.835,0,0,0,288.07,141.96Z" transform="translate(-224.961 -111.171)" fill="#fafafa"/>
    <path id="Tracé_828" data-name="Tracé 828" d="M312.949,149.739a.967.967,0,0,1-.207-.235,2.443,2.443,0,0,1-.371-.769,3.142,3.142,0,0,1-.051-1.265,11.625,11.625,0,0,1,.34-1.5,10.8,10.8,0,0,1,1.218-2.51c.191-.3.34-.541.469-.7a1.222,1.222,0,0,1,.194-.245,8.146,8.146,0,0,1-.555,1.021,12.583,12.583,0,0,0-1.157,2.5,13.915,13.915,0,0,0-.34,1.476,3.179,3.179,0,0,0,0,1.211A4.531,4.531,0,0,0,312.949,149.739Z" transform="translate(-247.217 -111.907)" fill="#fafafa"/>
    <path id="Tracé_829" data-name="Tracé 829" d="M330.491,140.75a.834.834,0,0,1,.1.245,4.253,4.253,0,0,1,.17.7,6.236,6.236,0,0,1-1.017,4.548,4.186,4.186,0,0,1-.449.561c-.119.122-.187.187-.2.18s.228-.3.541-.81a7.116,7.116,0,0,0,.874-2.146,7.02,7.02,0,0,0,.112-2.313C330.569,141.117,330.46,140.76,330.491,140.75Z" transform="translate(-258.316 -110.742)" fill="#fafafa"/>
    <path id="Tracé_830" data-name="Tracé 830" d="M251.287,185.346a.769.769,0,0,1-.146-.078,4.327,4.327,0,0,0-.415-.225,4.923,4.923,0,0,0-1.66-.466,5.038,5.038,0,0,0-2.5.4,4.286,4.286,0,0,0-1.248.827,2.551,2.551,0,0,0-.49.606,1.214,1.214,0,0,0-.17.748.891.891,0,0,0,.361.64.728.728,0,0,0,.68.031,1.218,1.218,0,0,0,.633-1.194,2.419,2.419,0,0,0-1.262-2.041,2.473,2.473,0,0,0-1.667-.218,5.863,5.863,0,0,0-.605.194.592.592,0,0,1,.143-.092,2.38,2.38,0,0,1,.446-.17,2.48,2.48,0,0,1,1.742.177,2.538,2.538,0,0,1,1.361,2.153,1.806,1.806,0,0,1-.146.769,1.146,1.146,0,0,1-.578.588.9.9,0,0,1-.861-.044,1.065,1.065,0,0,1-.442-.765,1.36,1.36,0,0,1,.194-.854,2.642,2.642,0,0,1,.524-.646,4.422,4.422,0,0,1,1.3-.85,5.1,5.1,0,0,1,2.575-.378,4.575,4.575,0,0,1,1.677.531,3,3,0,0,1,.4.255C251.247,185.3,251.294,185.34,251.287,185.346Z" transform="translate(-201.374 -139.493)" fill="#fafafa"/>
    <path id="Tracé_831" data-name="Tracé 831" d="M269.49,195.787a2.215,2.215,0,0,1-.412.779c-.269.4-.517.711-.558.68a2.214,2.214,0,0,1,.412-.779C269.2,196.066,269.449,195.76,269.49,195.787Z" transform="translate(-218.345 -147.133)" fill="#fafafa"/>
    <path id="Tracé_832" data-name="Tracé 832" d="M280.349,207.8c-.027,0-.075-.119-.194-.3a1.759,1.759,0,0,0-1.385-.769,1.781,1.781,0,0,1-.34,0,.553.553,0,0,1,.34-.116,1.548,1.548,0,0,1,1.5.833C280.362,207.652,280.369,207.8,280.349,207.8Z" transform="translate(-224.884 -154.296)" fill="#fafafa"/>
    <path id="Tracé_833" data-name="Tracé 833" d="M233.561,205c0,.024-.408.231-1.065.609a9.2,9.2,0,0,0-2.313,1.786,4.936,4.936,0,0,0-1.228,2.6,6.146,6.146,0,0,0,.02,1.214,1.021,1.021,0,0,1-.1-.32,3.082,3.082,0,0,1-.048-.9,4.763,4.763,0,0,1,1.218-2.7,8.349,8.349,0,0,1,2.381-1.783c.34-.173.619-.3.813-.388A1.072,1.072,0,0,1,233.561,205Z" transform="translate(-192.149 -153.236)" fill="#fafafa"/>
    <path id="Tracé_834" data-name="Tracé 834" d="M256.168,203.509a1.234,1.234,0,0,1-.371-.408,2.276,2.276,0,0,1,.214-2.541,1,1,0,0,1,.432-.34c.02.027-.146.153-.34.418a2.443,2.443,0,0,0-.2,2.405C256.049,203.333,256.192,203.489,256.168,203.509Z" transform="translate(-209.758 -150.069)" fill="#fafafa"/>
    <path id="Tracé_835" data-name="Tracé 835" d="M213.611,189.971a2.048,2.048,0,0,0-.2-.2,1.4,1.4,0,0,0-.708-.313,1.769,1.769,0,0,0-1.187.245,3.629,3.629,0,0,0-1.126,1.191c-.34.517-.619,1.14-1.051,1.745a3.718,3.718,0,0,1-1.874,1.4,3.48,3.48,0,0,1-2.575-.15A3.688,3.688,0,0,1,203,191.873a2.2,2.2,0,0,1-.058-1.432,2,2,0,0,1,.884-1.082,2.041,2.041,0,0,1,1.313-.3,2.177,2.177,0,0,1,1.167.554,2.854,2.854,0,0,1,.922,2.14,3.524,3.524,0,0,1-.633,1.942,3.956,3.956,0,0,1-1.231,1.157,4.969,4.969,0,0,1-1.167.51,5.5,5.5,0,0,1-.786.163l-.208.024h-.075a1.944,1.944,0,0,1,.276-.058,5.973,5.973,0,0,0,.772-.2,4.977,4.977,0,0,0,1.136-.527,3.875,3.875,0,0,0,1.177-1.14,3.426,3.426,0,0,0,.592-1.874,2.722,2.722,0,0,0-.884-2.017,1.993,1.993,0,0,0-1.078-.507,1.885,1.885,0,0,0-1.2.279,1.861,1.861,0,0,0-.806.99,2.041,2.041,0,0,0,.058,1.32,3.534,3.534,0,0,0,1.8,1.922,3.3,3.3,0,0,0,2.449.15,3.562,3.562,0,0,0,1.806-1.334c.425-.582.718-1.2,1.065-1.725a3.691,3.691,0,0,1,1.184-1.208,1.82,1.82,0,0,1,1.245-.228,1.392,1.392,0,0,1,.721.34.861.861,0,0,1,.173.238Z" transform="translate(-175.012 -142.683)" fill="#fafafa"/>
    <path id="Tracé_836" data-name="Tracé 836" d="M231.83,199.069a1.561,1.561,0,0,1-.548-.432,3.742,3.742,0,0,1-.942-3.157,1.629,1.629,0,0,1,.221-.68c.031,0-.051.262-.1.68a4.15,4.15,0,0,0,.908,3.062C231.643,198.879,231.851,199.045,231.83,199.069Z" transform="translate(-193.119 -146.487)" fill="#fafafa"/>
    <path id="Tracé_837" data-name="Tracé 837" d="M215.1,176.477s-.238-.116-.68-.289a8.164,8.164,0,0,0-4.9-.367,6.674,6.674,0,0,0-1.633.612,1.1,1.1,0,0,0-.541.646.619.619,0,0,0,.34.68.361.361,0,0,0,.34-.109.847.847,0,0,0,.2-.378,3.115,3.115,0,0,0,.078-.9,4.048,4.048,0,0,0-.435-1.67,3.905,3.905,0,0,0-.959-1.235,3.84,3.84,0,0,0-1.187-.68,4.164,4.164,0,0,0-1.97-.2c-.469.075-.718.18-.721.163a.681.681,0,0,1,.173-.082,3.783,3.783,0,0,1,2.561,0,3.99,3.99,0,0,1,1.238.68,4.082,4.082,0,0,1,1.021,1.272,4.2,4.2,0,0,1,.463,1.738,3.3,3.3,0,0,1-.082.959,1.075,1.075,0,0,1-.248.456.544.544,0,0,1-.531.153.68.68,0,0,1-.4-.364.9.9,0,0,1-.075-.524,1.262,1.262,0,0,1,.626-.762,6.568,6.568,0,0,1,1.684-.619,8.061,8.061,0,0,1,3.014-.112,7.575,7.575,0,0,1,1.949.571,4.809,4.809,0,0,1,.5.259Q215.109,176.466,215.1,176.477Z" transform="translate(-175.139 -131.702)" fill="#fafafa"/>
    <path id="Tracé_838" data-name="Tracé 838" d="M154.8,169.77a6.294,6.294,0,0,0,.548-.5,4.725,4.725,0,0,0,1.068-1.7,3.694,3.694,0,0,0-.085-2.878,3.643,3.643,0,0,0-1.085-1.34,3.061,3.061,0,0,0-1.7-.643,1.962,1.962,0,0,0-.9.187,1.15,1.15,0,0,0-.6.609.874.874,0,0,0,.122.789,1.282,1.282,0,0,0,.643.48,1.765,1.765,0,0,0,1.473-.252,2.477,2.477,0,0,0,.895-1.021,5.154,5.154,0,0,0,.425-1.953,3.743,3.743,0,0,1,.024-.554.1.1,0,1,1,.017,0v.554a4.933,4.933,0,0,1-.361,2.044,2.6,2.6,0,0,1-.925,1.082,1.9,1.9,0,0,1-1.6.282,1.422,1.422,0,0,1-.735-.537,1.038,1.038,0,0,1-.146-.942,1.289,1.289,0,0,1,.68-.708,2.157,2.157,0,0,1,.983-.208,3.218,3.218,0,0,1,1.813.68,3.8,3.8,0,0,1,1.129,1.412,3.572,3.572,0,0,1,.34,1.6,4.1,4.1,0,0,1-.279,1.395,4.644,4.644,0,0,1-1.14,1.7,3,3,0,0,1-.429.34A.927.927,0,0,1,154.8,169.77Z" transform="translate(-141.344 -124.007)" fill="#fafafa"/>
    <path id="Tracé_839" data-name="Tracé 839" d="M178.192,184.862a1.262,1.262,0,0,1-.265-.282,5.476,5.476,0,0,1-.585-.884,6.276,6.276,0,0,1,.439-6.657,5.609,5.609,0,0,1,.68-.8,1.452,1.452,0,0,1,.31-.238c.024.027-.4.388-.891,1.119a6.463,6.463,0,0,0-.432,6.528A13.347,13.347,0,0,0,178.192,184.862Z" transform="translate(-157.686 -134.06)" fill="#fafafa"/>
    <path id="Tracé_840" data-name="Tracé 840" d="M186.555,170.685c-.031,0-.173-.51-.6-1.262a6.994,6.994,0,0,0-5.375-3.555c-.857-.1-1.395-.02-1.395-.054a1.443,1.443,0,0,1,.374-.065,6.245,6.245,0,0,1,1.021,0,6.729,6.729,0,0,1,5.477,3.623,5.781,5.781,0,0,1,.4.952A1.362,1.362,0,0,1,186.555,170.685Z" transform="translate(-159.402 -127.261)" fill="#fafafa"/>
    <g id="Groupe_53" data-name="Groupe 53" transform="translate(36.208 48.338)" opacity="0.3">
      <path id="Tracé_841" data-name="Tracé 841" d="M227.7,199.442c-.34.139-.3.657-.024.881a1.456,1.456,0,0,0,1.021.218,13.138,13.138,0,0,0,10.079-5.66c-3.062,2.521-7.11,3.477-10.991,4.354" transform="translate(-227.46 -194.88)"/>
    </g>
    <g id="Groupe_54" data-name="Groupe 54" transform="translate(35.678 38.622)" opacity="0.3">
      <path id="Tracé_842" data-name="Tracé 842" d="M226.064,177.055a1.374,1.374,0,0,1,.34-1.67,5.709,5.709,0,0,1,1.572-.935,9.927,9.927,0,0,0,4.586-4.7c.619-1.34,1.085-2.983,2.456-3.534a13.287,13.287,0,0,1-8.746,10.43" transform="translate(-225.901 -166.21)"/>
    </g>
    <g id="Groupe_55" data-name="Groupe 55" transform="translate(25.026 31.855)" opacity="0.3">
      <path id="Tracé_843" data-name="Tracé 843" d="M195.75,146.24a34.52,34.52,0,0,1-.782,11.117,9.365,9.365,0,0,0-.378,2.344,3.116,3.116,0,0,0,1.129,2.2,16.093,16.093,0,0,0,.813-3.96c.214-1.262.575-4.211.575-4.256a16.641,16.641,0,0,0-1.551-7.113" transform="translate(-194.59 -146.24)"/>
    </g>
    <g id="Groupe_56" data-name="Groupe 56" transform="translate(32.401 20.691)" opacity="0.3">
      <path id="Tracé_844" data-name="Tracé 844" d="M216.464,113.3a13.579,13.579,0,0,0,3.851,7.225,3.932,3.932,0,0,0,2.738,1.361,6.409,6.409,0,0,1-.527-4.007,16.569,16.569,0,0,0,2.8,1.524,5.562,5.562,0,0,0,3.13.34l.646-5.623a1.051,1.051,0,0,0-.058-.633.364.364,0,0,0-.541-.129.541.541,0,0,0-.105.248c-.381,1.65-.6,3.13-.98,4.783-.276.272-1.123.16-1.68-.048-.486-.18-.68-.582-.993-.986s-.265-.34-.742-.537c-.878-.371-2.562-.075-2.929.711a3.808,3.808,0,0,0,.156,2.6,11.787,11.787,0,0,1-4.963-6.885" transform="translate(-216.27 -113.24)"/>
    </g>
    <g id="Groupe_57" data-name="Groupe 57" transform="translate(50.43 28.693)" opacity="0.3">
      <path id="Tracé_845" data-name="Tracé 845" d="M269.984,136.87c-.068.136,2.119,7.511,2.119,7.511l-2.834-1.616Z" transform="translate(-269.27 -136.87)"/>
    </g>
    <path id="Tracé_846" data-name="Tracé 846" d="M219.61,62.12V73.859a2.84,2.84,0,0,0,.68,1.834h0a8.532,8.532,0,0,0,2.361,1.953l2.381,1.337,1.959-1.752a2.854,2.854,0,0,0,.949-2.01c.034-.857.031-1.7.031-1.7a3.948,3.948,0,0,0,3.633-3.511c.146-1.544.194-4.7.2-7.61a6.368,6.368,0,0,0-5.871-6.4h-.092a6.086,6.086,0,0,0-6.232,6.123Z" transform="translate(-186.072 -54.68)" fill="#ffbe9d"/>
    <path id="Tracé_847" data-name="Tracé 847" d="M236.04,104.3a7.943,7.943,0,0,1-4.16-1.616,4.145,4.145,0,0,0,4.154,2.459Z" transform="translate(-194.169 -85.484)" fill="#eb996e"/>
    <path id="Tracé_848" data-name="Tracé 848" d="M250.715,80.032a.469.469,0,0,1-.49.435A.449.449,0,0,1,249.78,80a.469.469,0,0,1,.49-.435.446.446,0,0,1,.446.463Z" transform="translate(-205.979 -70.234)" fill="#263238"/>
    <path id="Tracé_849" data-name="Tracé 849" d="M249.326,77.518c-.061.054-.395-.238-.9-.279s-.895.184-.942.116.041-.133.214-.238a1.289,1.289,0,0,1,.759-.167,1.232,1.232,0,0,1,.711.3C249.315,77.379,249.353,77.491,249.326,77.518Z" transform="translate(-204.457 -68.503)" fill="#263238"/>
    <path id="Tracé_850" data-name="Tracé 850" d="M236.749,79.332a.469.469,0,0,1-.49.435.453.453,0,0,1-.449-.463.473.473,0,0,1,.49-.435.449.449,0,0,1,.449.463Z" transform="translate(-196.762 -69.773)" fill="#263238"/>
    <path id="Tracé_851" data-name="Tracé 851" d="M234.747,76.571c-.065.054-.4-.235-.9-.276s-.891.18-.942.112.044-.133.214-.238a1.31,1.31,0,0,1,.762-.177,1.252,1.252,0,0,1,.711.3C234.733,76.432,234.778,76.544,234.747,76.571Z" transform="translate(-194.835 -67.873)" fill="#263238"/>
    <path id="Tracé_852" data-name="Tracé 852" d="M242.81,80.925a3.255,3.255,0,0,1,.83-.082c.129,0,.255,0,.282-.1a.65.65,0,0,0-.054-.388c-.1-.34-.194-.66-.3-1.021a19.559,19.559,0,0,1-.64-2.633,19.465,19.465,0,0,1,.85,2.575c.1.34.194.68.282,1.021a.742.742,0,0,1,.027.51.34.34,0,0,1-.228.17.854.854,0,0,1-.221,0A3.51,3.51,0,0,1,242.81,80.925Z" transform="translate(-201.381 -68.341)" fill="#263238"/>
    <path id="Tracé_853" data-name="Tracé 853" d="M238.165,89.78c.082,0,.037.551.473.976s1.02.415,1.02.49-.136.1-.384.085a1.361,1.361,0,0,1-.854-.381,1.187,1.187,0,0,1-.361-.816C238.056,89.905,238.128,89.773,238.165,89.78Z" transform="translate(-198.246 -76.972)" fill="#263238"/>
    <path id="Tracé_854" data-name="Tracé 854" d="M234.719,71c-.061.133-.558.027-1.153.048s-1.089.143-1.157,0c-.031-.061.061-.184.265-.3a2,2,0,0,1,1.762-.048C234.647,70.818,234.746,70.933,234.719,71Z" transform="translate(-194.514 -64.262)" fill="#263238"/>
    <path id="Tracé_855" data-name="Tracé 855" d="M249.421,73.141c-.1.105-.435-.041-.85-.082s-.776,0-.847-.112c-.034-.061.034-.173.2-.269a1.238,1.238,0,0,1,1.361.156C249.428,72.964,249.465,73.086,249.421,73.141Z" transform="translate(-204.617 -65.599)" fill="#263238"/>
    <path id="Tracé_856" data-name="Tracé 856" d="M222.488,60.068h-.02a2.585,2.585,0,0,0-1.1,1.609v.068c-.208.922-.262,1.874-.476,2.8s-.173,1.626-1.1,1.834a1.225,1.225,0,0,1-1.286-.52.837.837,0,0,1-.085-.435c0-2.272-.442-3.153-.245-5.511a2,2,0,0,1,.959-1.551c.524-.313,1.157-.633,1.7-.34s1.157,1.391,1.544,1.864" transform="translate(-185.097 -55.938)" fill="#263238"/>
    <path id="Tracé_857" data-name="Tracé 857" d="M218,78.261c-.051-.027-2.194-.85-2.31,1.395a1.692,1.692,0,0,0,2.174,1.834C217.872,81.425,218,78.261,218,78.261Z" transform="translate(-183.484 -69.26)" fill="#ffbe9d"/>
    <path id="Tracé_858" data-name="Tracé 858" d="M218.322,82a.649.649,0,0,1-.109.054.381.381,0,0,1-.293,0,.966.966,0,0,1-.4-.895,1.258,1.258,0,0,1,.139-.554.452.452,0,0,1,.31-.286.2.2,0,0,1,.224.119c.027.065,0,.109.02.112s.051-.034.037-.126a.238.238,0,0,0-.082-.146.279.279,0,0,0-.211-.068.548.548,0,0,0-.429.34,1.361,1.361,0,0,0-.167.619,1.021,1.021,0,0,0,.52,1,.429.429,0,0,0,.361-.041C218.315,82.051,218.329,82,218.322,82Z" transform="translate(-184.584 -70.655)" fill="#eb996e"/>
    <path id="Tracé_859" data-name="Tracé 859" d="M225.422,54.548c-.48-.942,1.14-2.1,2.272-2.361s2.548.4,3.619.861a5.568,5.568,0,0,0,2.072.68,5.014,5.014,0,0,0,1.449-.242,3.684,3.684,0,0,1,1.459-.167,1.361,1.361,0,0,1,1.129.861.847.847,0,0,1-.68,1.1,1.106,1.106,0,1,1,.122,2.065c.34-.218.8.221.721.616a1.16,1.16,0,0,1-.833.786,4.175,4.175,0,0,1-2.987-.293c-.946-.4-1.8-.987-2.721-1.415s-2.483-1.191-3.473-.929c-.731.19-1.293,1-1.677.779a1.361,1.361,0,0,1-.623-1.058,3.951,3.951,0,0,1,.15-1.272" transform="translate(-189.806 -52.13)" fill="#263238"/>
    <path id="Tracé_860" data-name="Tracé 860" d="M238.273,56.446c-.017,0-.129.153-.391.395a3.082,3.082,0,0,1-1.313.7,2.84,2.84,0,0,1-2.129-.265,10.072,10.072,0,0,1-2.024-1.847A4.674,4.674,0,0,0,230,54.014a2.592,2.592,0,0,0-2.211.565,1.946,1.946,0,0,0-.626,1.4,1.436,1.436,0,0,0,.061.418.45.45,0,0,0,.061.136,3.381,3.381,0,0,1-.037-.551,1.919,1.919,0,0,1,.646-1.293,2.456,2.456,0,0,1,2.061-.48,4.534,4.534,0,0,1,2.3,1.361,9.962,9.962,0,0,0,2.082,1.868,3.062,3.062,0,0,0,3.6-.551,2.412,2.412,0,0,0,.265-.34C238.256,56.494,238.28,56.45,238.273,56.446Z" transform="translate(-191.054 -53.337)" fill="#455a64"/>
    <path id="Tracé_861" data-name="Tracé 861" d="M220.058,67.012a.6.6,0,0,0,.2-.225,1.514,1.514,0,0,0,.18-.8c0-.728-.565-1.555-.565-2.558a2.272,2.272,0,0,1,.361-1.316,1.7,1.7,0,0,1,.9-.65,1.476,1.476,0,0,1,.755-.041c.18.044.272.1.282.078s-.075-.088-.255-.16a1.4,1.4,0,0,0-.823-.031,1.817,1.817,0,0,0-1.021.68,2.381,2.381,0,0,0-.415,1.439,4.12,4.12,0,0,0,.316,1.446,4.378,4.378,0,0,1,.313,1.116A1.748,1.748,0,0,1,220.058,67.012Z" transform="translate(-186.102 -58.154)" fill="#455a64"/>
  </g>
  <g id="freepik--Lines--inject-2" transform="translate(15.788 45.045)">
    <path id="Tracé_862" data-name="Tracé 862" d="M152.627,268.88h-.507l-1.483.02c-1.306.02-3.232.071-5.708.191s-5.5.34-9,.748c-1.745.211-3.616.449-5.586.776s-4.045.708-6.2,1.2-4.422,1.078-6.708,1.83a44.788,44.788,0,0,0-6.957,2.868,22.452,22.452,0,0,0-3.334,2.133,10.624,10.624,0,0,0-2.721,2.987c-.085.15-.173.3-.252.449l-.19.48-.1.241c-.027.082-.041.167-.065.252l-.119.5a5.048,5.048,0,0,0,.1,2.078,7.653,7.653,0,0,0,2.286,3.565,24.883,24.883,0,0,0,7.668,4.565,63.192,63.192,0,0,0,8.936,2.827,117.623,117.623,0,0,0,19.5,2.871,155.508,155.508,0,0,0,19.73.078,124.421,124.421,0,0,0,18.22-2.381,76.935,76.935,0,0,0,8.259-2.228,41.015,41.015,0,0,0,7.385-3.218,20.446,20.446,0,0,0,3.113-2.214,8.988,8.988,0,0,0,2.252-2.871l.17-.415a2.383,2.383,0,0,0,.143-.422l.1-.429c.017-.071.041-.143.051-.214v-.221a4.273,4.273,0,0,0-.129-1.7,6.026,6.026,0,0,0-.718-1.534,9.282,9.282,0,0,0-1.055-1.3,15.823,15.823,0,0,0-2.49-2.041,25.654,25.654,0,0,0-2.64-1.572,45.376,45.376,0,0,0-5.143-2.293,78.4,78.4,0,0,0-8.627-2.66c-2.405-.6-4.293-.98-5.575-1.225-.64-.126-1.133-.208-1.459-.272l-.5-.1s.68.1,1.966.34,3.174.6,5.586,1.194a76.5,76.5,0,0,1,8.644,2.633,45.471,45.471,0,0,1,5.164,2.283,26.245,26.245,0,0,1,2.653,1.575,16.014,16.014,0,0,1,2.514,2.065,9.527,9.527,0,0,1,1.068,1.31,6.122,6.122,0,0,1,.745,1.568,4.422,4.422,0,0,1,.136,1.769l-.017.225a1.04,1.04,0,0,1-.051.221l-.105.439a2.38,2.38,0,0,1-.146.432l-.17.425a9.16,9.16,0,0,1-2.283,2.919,20.405,20.405,0,0,1-3.136,2.238,41.121,41.121,0,0,1-7.4,3.238,76.649,76.649,0,0,1-8.276,2.242,124.317,124.317,0,0,1-18.244,2.381,155.2,155.2,0,0,1-19.754-.075,117.64,117.64,0,0,1-19.533-2.881,62.807,62.807,0,0,1-8.96-2.837,25.254,25.254,0,0,1-7.715-4.6,7.783,7.783,0,0,1-2.33-3.647,5.225,5.225,0,0,1-.1-2.14l.126-.52c.02-.088.037-.174.065-.259l.1-.248.2-.49c.078-.156.17-.31.255-.463a10.79,10.79,0,0,1,2.772-3.028A22.848,22.848,0,0,1,110.4,276.4a44.634,44.634,0,0,1,6.98-2.868c2.306-.748,4.558-1.333,6.722-1.823s4.245-.878,6.218-1.187,3.844-.561,5.592-.765c3.5-.391,6.535-.6,9.011-.718s4.405-.15,5.712-.16h1.99Z" transform="translate(-96.063 -228.566)" fill="#193b6a"/>
    <path id="Tracé_863" data-name="Tracé 863" d="M110.485,188.346s-.194.044-.571.119-.942.184-1.68.34c-1.476.306-3.65.779-6.409,1.534a65.69,65.69,0,0,0-9.8,3.473c-.922.422-1.868.888-2.81,1.422a26.782,26.782,0,0,0-2.82,1.81,15.764,15.764,0,0,0-2.6,2.381,8.215,8.215,0,0,0-1.766,3.238,5.933,5.933,0,0,0,.282,3.807,9.783,9.783,0,0,0,2.354,3.3,26.321,26.321,0,0,0,7.287,4.65,80.627,80.627,0,0,0,18.369,5.405,153.631,153.631,0,0,0,21.091,2.327,181.9,181.9,0,0,0,22.792-.4,132.046,132.046,0,0,0,22.468-3.664A67.237,67.237,0,0,0,186.9,214.57a35.3,35.3,0,0,0,4.589-2.449,17.651,17.651,0,0,0,3.9-3.286,7.376,7.376,0,0,0,1.932-4.463,4.535,4.535,0,0,0-.02-.609,4.418,4.418,0,0,0-.065-.6l-.133-.592A4.345,4.345,0,0,0,196.9,202a8.651,8.651,0,0,0-1.167-2.085,16.036,16.036,0,0,0-3.453-3.187,31.605,31.605,0,0,0-3.949-2.31,56.007,56.007,0,0,0-8.089-3.174c-2.667-.833-5.266-1.5-7.763-2.041a149.476,149.476,0,0,0-24.02-3.062c-2.857-.146-5.082-.153-6.589-.19l-1.7-.037-.582-.02h.582l1.7.02c1.507.027,3.742.02,6.593.16a147.881,147.881,0,0,1,24.043,3.011c2.5.551,5.1,1.208,7.776,2.041A55.668,55.668,0,0,1,188.4,194.3a31.337,31.337,0,0,1,3.973,2.293,16.229,16.229,0,0,1,3.487,3.215,8.75,8.75,0,0,1,1.191,2.126,3.939,3.939,0,0,1,.2.585l.139.605a4.158,4.158,0,0,1,.065.619,4.24,4.24,0,0,1,.024.623,6.345,6.345,0,0,1-.592,2.436,9.045,9.045,0,0,1-1.361,2.129,17.71,17.71,0,0,1-3.932,3.32,35.011,35.011,0,0,1-4.643,2.483,67.7,67.7,0,0,1-10.256,3.528,132.236,132.236,0,0,1-22.5,3.67,181.577,181.577,0,0,1-22.792.4A153.956,153.956,0,0,1,110.309,220a80.275,80.275,0,0,1-18.41-5.443,26.743,26.743,0,0,1-7.321-4.691,9.944,9.944,0,0,1-2.381-3.341,6.072,6.072,0,0,1-.279-3.892,8.293,8.293,0,0,1,1.793-3.279,15.733,15.733,0,0,1,2.63-2.408,26.594,26.594,0,0,1,2.834-1.81c.946-.534,1.895-1,2.82-1.422a65.387,65.387,0,0,1,9.841-3.446c2.766-.745,4.943-1.208,6.422-1.5S110.485,188.346,110.485,188.346Z" transform="translate(-81.72 -173.807)" fill="#193b6a"/>
    <path id="Tracé_864" data-name="Tracé 864" d="M154.226,341.783l-1.7.269c-1.112.177-2.749.459-4.841.915a62.1,62.1,0,0,0-7.484,2.112,35.379,35.379,0,0,0-4.456,1.939,19.055,19.055,0,0,0-2.259,1.381,11.683,11.683,0,0,0-2.078,1.851,6.745,6.745,0,0,0-.823,1.184,4.732,4.732,0,0,0-.507,1.361c-.017.122-.048.245-.058.371l-.024.374c0,.248.034.5.054.752a7.168,7.168,0,0,0,.2.738l.143.357.071.18.1.167a8.39,8.39,0,0,0,2.041,2.405,16.777,16.777,0,0,0,2.742,1.84,36.438,36.438,0,0,0,6.412,2.677,65.953,65.953,0,0,0,7.144,1.827,106.087,106.087,0,0,0,15.736,1.881,127.689,127.689,0,0,0,17.009-.3,90.62,90.62,0,0,0,16.76-2.888,42.208,42.208,0,0,0,7.552-2.878,19.009,19.009,0,0,0,3.283-2.119c.259-.194.48-.432.718-.646s.432-.469.65-.7a6.17,6.17,0,0,0,.966-1.616,4.334,4.334,0,0,0-.15-3.589,8.619,8.619,0,0,0-2.34-2.721A23.893,23.893,0,0,0,203,345.583a51.391,51.391,0,0,0-6.188-1.983c-2.021-.521-3.983-.932-5.865-1.262a116.3,116.3,0,0,0-18.029-1.65l-6.644-.034s2.364-.031,6.644,0a115.219,115.219,0,0,1,18.029,1.616c1.888.34,3.851.738,5.875,1.259a51.147,51.147,0,0,1,6.218,2,23.923,23.923,0,0,1,6.106,3.337,8.726,8.726,0,0,1,2.381,2.759,4.422,4.422,0,0,1,.153,3.664,6.351,6.351,0,0,1-.98,1.643c-.221.235-.422.49-.66.711a8.7,8.7,0,0,1-.721.65,18.993,18.993,0,0,1-3.3,2.136,42.3,42.3,0,0,1-7.569,2.888,90.8,90.8,0,0,1-16.777,2.891,127.964,127.964,0,0,1-17.029.3,106.676,106.676,0,0,1-15.747-1.888,66.756,66.756,0,0,1-7.144-1.837,36.129,36.129,0,0,1-6.429-2.687,17.005,17.005,0,0,1-2.752-1.854,8.414,8.414,0,0,1-2.061-2.432l-.1-.17-.071-.184-.146-.361c-.092-.245-.129-.5-.2-.752a2.91,2.91,0,0,1-.054-.769l.024-.381a2.381,2.381,0,0,1,.061-.374,4.762,4.762,0,0,1,.514-1.4,6.873,6.873,0,0,1,.833-1.194,11.676,11.676,0,0,1,2.092-1.861,19.518,19.518,0,0,1,2.272-1.384,34.893,34.893,0,0,1,4.429-1.942,61.436,61.436,0,0,1,7.508-2.1c2.092-.449,3.742-.725,4.844-.895S154.226,341.783,154.226,341.783Z" transform="translate(-113.535 -275.915)" fill="#193b6a"/>
    <path id="Tracé_865" data-name="Tracé 865" d="M221.115,417.888a3.523,3.523,0,0,0-.282-1.242,6.517,6.517,0,0,0-2.493-2.626c-2.67-1.759-7.144-3.235-12.763-4.14a77.5,77.5,0,0,0-9.266-.908,89.216,89.216,0,0,0-10.7.2c-1.881.146-3.8.364-5.752.68a54.426,54.426,0,0,0-5.905,1.248c-.99.265-1.98.575-2.956.932a23.773,23.773,0,0,0-2.888,1.259,11.684,11.684,0,0,0-2.616,1.813,4.045,4.045,0,0,0-1.419,2.789,3.925,3.925,0,0,0,1.415,2.793,11.669,11.669,0,0,0,2.585,1.806,23.259,23.259,0,0,0,2.888,1.259,30.635,30.635,0,0,0,2.956.935,54.472,54.472,0,0,0,5.909,1.248c1.949.31,3.871.527,5.752.68a88.573,88.573,0,0,0,10.7.2,77.5,77.5,0,0,0,9.294-.918c5.626-.9,10.093-2.381,12.767-4.14a6.5,6.5,0,0,0,2.49-2.626,3.513,3.513,0,0,0,.282-1.238,2.291,2.291,0,0,1-.024.323,1.68,1.68,0,0,1-.071.395,2.5,2.5,0,0,1-.177.524,6.493,6.493,0,0,1-2.487,2.647c-2.674,1.769-7.144,3.255-12.774,4.167a78.172,78.172,0,0,1-9.287.919,89.347,89.347,0,0,1-10.709-.191c-1.881-.15-3.8-.364-5.756-.68a53.6,53.6,0,0,1-5.916-1.245c-.993-.265-1.983-.575-2.963-.935a24.173,24.173,0,0,1-2.9-1.262,11.866,11.866,0,0,1-2.633-1.823,5.281,5.281,0,0,1-1-1.276,3.062,3.062,0,0,1,0-3.136,5.3,5.3,0,0,1,1.021-1.272,11.869,11.869,0,0,1,2.633-1.823,24.36,24.36,0,0,1,2.895-1.262c.983-.361,1.973-.68,2.966-.935a54.513,54.513,0,0,1,5.912-1.245c1.953-.31,3.875-.527,5.756-.68a88.628,88.628,0,0,1,10.709-.19,77.506,77.506,0,0,1,9.287.915c5.626.912,10.1,2.4,12.773,4.167a6.493,6.493,0,0,1,2.487,2.647,2.569,2.569,0,0,1,.177.524,1.68,1.68,0,0,1,.071.395C221.1,417.748,221.112,417.837,221.115,417.888Z" transform="translate(-136.004 -320.904)" fill="#193b6a"/>
    <path id="Tracé_866" data-name="Tracé 866" d="M106.79,278.259a1.085,1.085,0,1,1-.317-.77A1.085,1.085,0,0,1,106.79,278.259Z" transform="translate(-96.83 -234.036)" fill="#193b6a"/>
    <circle id="Ellipse_13" data-name="Ellipse 13" cx="1.085" cy="1.085" r="1.085" transform="translate(106.001 43.872)" fill="#193b6a"/>
    <path id="Tracé_867" data-name="Tracé 867" d="M265.277,398.065a1.089,1.089,0,1,1-1.085-1.085,1.089,1.089,0,0,1,1.085,1.085Z" transform="translate(-201.399 -313.09)" fill="#193b6a"/>
    <path id="Tracé_868" data-name="Tracé 868" d="M170.439,317.074a.544.544,0,1,1-.544-.544A.544.544,0,0,1,170.439,317.074Z" transform="translate(-139.541 -260.007)" fill="#193b6a"/>
    <path id="Tracé_869" data-name="Tracé 869" d="M368.949,355.754a.544.544,0,1,1-.541-.544.544.544,0,0,1,.541.544Z" transform="translate(-270.523 -285.529)" fill="#193b6a"/>
    <path id="Tracé_870" data-name="Tracé 870" d="M242.889,429.584a.544.544,0,1,1-.541-.544.544.544,0,0,1,.541.544Z" transform="translate(-187.345 -334.244)" fill="#193b6a"/>
    <circle id="Ellipse_14" data-name="Ellipse 14" cx="0.272" cy="0.272" r="0.272" transform="translate(26.942)" fill="#193b6a"/>
  </g>
  <g id="freepik--front-screens--inject-2" transform="translate(12.018 40.49)">
    <path id="Tracé_871" data-name="Tracé 871" d="M225.382,223.695c-13.189,3.49-25.9,3.225-39.756,0L184,198.359a98.752,98.752,0,0,0,41.375-.6Z" transform="translate(-145.438 -176.717)" fill="#193b6a"/>
    <g id="Groupe_58" data-name="Groupe 58" transform="translate(38.562 21.043)" opacity="0.8">
      <path id="Tracé_872" data-name="Tracé 872" d="M225.382,223.695c-13.189,3.49-25.9,3.225-39.756,0L184,198.359a98.752,98.752,0,0,0,41.375-.6Z" transform="translate(-184 -197.76)" fill="#fff"/>
    </g>
    <path id="Tracé_873" data-name="Tracé 873" d="M231.539,262.65a.34.34,0,0,1-.085.041l-.248.105c-.221.088-.541.231-.966.384a36.472,36.472,0,0,1-3.65,1.143,47.72,47.72,0,0,1-12.512,1.429,73.064,73.064,0,0,1-12.539-1.34c-1.589-.3-2.864-.582-3.742-.786-.439-.1-.779-.184-1.021-.242l-.262-.068c-.058-.017-.088-.027-.085-.031h.092l.265.051,1.021.208c.881.184,2.163.446,3.742.728a76.975,76.975,0,0,0,12.518,1.289,49.324,49.324,0,0,0,12.481-1.361c1.561-.395,2.806-.789,3.657-1.092.429-.139.752-.272.976-.34l.255-.088A.255.255,0,0,1,231.539,262.65Z" transform="translate(-153.639 -219.533)" fill="#193b6a"/>
    <path id="Tracé_874" data-name="Tracé 874" d="M232.825,247.37a8.637,8.637,0,0,1-5.075-.17v-9.015a12.749,12.749,0,0,1,5.075,0Z" transform="translate(-174.305 -203.222)" fill="#193b6a"/>
    <path id="Tracé_875" data-name="Tracé 875" d="M256.068,237.37a.363.363,0,0,1,0-.071V237.1c0-.184,0-.435-.024-.755,0-.663-.031-1.612-.054-2.8-.034-2.381-.085-5.739-.143-9.62l.068.082a13.719,13.719,0,0,0-5.256,0l.071-.085v.177c.054,5.327.105,10.141.139,13.576l-.051-.061a12.167,12.167,0,0,0,2.215.272,8.322,8.322,0,0,0,1.67-.139,7.822,7.822,0,0,0,1.021-.269l.255-.088a.361.361,0,0,1,.1-.027l-.082.037-.259.112a7.2,7.2,0,0,1-1.021.3,7.982,7.982,0,0,1-1.684.167,11.624,11.624,0,0,1-2.238-.245h-.048v-.068c-.051-3.436-.119-8.246-.194-13.573v-.255h.075a13.712,13.712,0,0,1,5.32,0l.068.017v.068c.031,3.9.054,7.263.075,9.664v3.715C256.088,237.36,256.071,237.37,256.068,237.37Z" transform="translate(-189.349 -193.756)" fill="#193b6a"/>
    <path id="Tracé_876" data-name="Tracé 876" d="M279.859,232.928a9.678,9.678,0,0,1-5.079.721V218.756a10.858,10.858,0,0,1,5.079,0Z" transform="translate(-205.337 -190.372)" fill="#193b6a"/>
    <path id="Tracé_877" data-name="Tracé 877" d="M209.353,251.853s0-.139-.017-.384,0-.609-.02-1.041c0-.9-.024-2.16-.037-3.654l.048.071a11.348,11.348,0,0,0-4.888-.813h0l.082-.088v5.079l-.044-.068a9.487,9.487,0,0,0,1.959.558c.6.109,1.129.17,1.568.214l1.021.085a3.193,3.193,0,0,1,.361.041,2.683,2.683,0,0,1-.361,0,9.584,9.584,0,0,1-1.021-.044c-.439-.044-.973-.082-1.578-.18a9.1,9.1,0,0,1-2-.541l-.044-.02v-5.211h.088a11.27,11.27,0,0,1,4.96.847l.051.017v.054c0,1.514-.031,2.786-.041,3.7,0,.425,0,.765-.02,1.021A2.043,2.043,0,0,1,209.353,251.853Z" transform="translate(-158.885 -208.44)" fill="#193b6a"/>
    <path id="Tracé_878" data-name="Tracé 878" d="M212.9,224.014a5.1,5.1,0,0,1-.993.061c-.616,0-1.466,0-2.4-.058s-1.779-.143-2.381-.225a5.024,5.024,0,0,1-.98-.177,6.235,6.235,0,0,1,.99.054c.612.048,1.456.116,2.381.17s1.779.088,2.381.109A6.612,6.612,0,0,1,212.9,224.014Z" transform="translate(-160.046 -193.776)" fill="#193b6a"/>
    <path id="Tracé_879" data-name="Tracé 879" d="M212.276,227.13a4.375,4.375,0,0,1-.871,0c-.537-.027-1.279-.075-2.1-.136s-1.561-.129-2.1-.187a4.313,4.313,0,0,1-.861-.129,4.375,4.375,0,0,1,.871,0c.541.027,1.279.075,2.1.136s1.558.129,2.092.187a4.443,4.443,0,0,1,.864.129Z" transform="translate(-160.185 -195.783)" fill="#193b6a"/>
    <path id="Tracé_880" data-name="Tracé 880" d="M210.874,222.607v-.316c0-.2.017-.51.034-.878.034-.769.085-1.851.15-3.181l.065.071a72.7,72.7,0,0,1-9.4-.524l.1-.082h0v.279l-.017.286c0,.19-.02.381-.034.568-.02.378-.041.748-.065,1.112-.044.731-.085,1.439-.126,2.116l-.071-.088c2.721.34,5.065.476,6.729.541l1.949.058.51.017h.187a.986.986,0,0,1-.17,0c-.116,0-.3,0-.527.017h-1.953c-1.667-.034-4.021-.156-6.746-.48h-.078v-.082q.056-1.021.119-2.116c.02-.364.041-.735.065-1.112l.031-.568v-.565h0l.1-.082a80.285,80.285,0,0,0,9.413.575h.068v.068c-.092,1.34-.167,2.436-.221,3.211-.027.361-.051.65-.068.861A1.513,1.513,0,0,1,210.874,222.607Z" transform="translate(-156.925 -189.808)" fill="#193b6a"/>
    <path id="Tracé_881" data-name="Tracé 881" d="M230.39,234.228a4.023,4.023,0,0,1-.657-.908,3.256,3.256,0,0,1-.5-1,4.023,4.023,0,0,1,.657.908A3.255,3.255,0,0,1,230.39,234.228Z" transform="translate(-175.282 -199.52)" fill="#193b6a"/>
    <path id="Tracé_882" data-name="Tracé 882" d="M70.64,141l4.31,26.085s6.582,12.321,24.067,15.1L96.2,158.9S80.025,153.893,70.64,141Z" transform="translate(-70.64 -139.265)" fill="#193b6a"/>
    <g id="Groupe_59" data-name="Groupe 59" transform="translate(0 1.735)" opacity="0.8">
      <path id="Tracé_883" data-name="Tracé 883" d="M70.64,141l4.31,26.085s6.582,12.321,24.067,15.1L96.2,158.9S80.025,153.893,70.64,141Z" transform="translate(-70.64 -141)" fill="#fff"/>
    </g>
    <path id="Tracé_884" data-name="Tracé 884" d="M101.131,194l-.109-.027-.34-.092-1.231-.378c-.534-.17-1.2-.34-1.936-.646l-1.187-.452c-.425-.16-.871-.34-1.323-.544-.908-.415-1.919-.844-2.946-1.422s-2.123-1.2-3.238-1.912a32.421,32.421,0,0,1-6.5-5.63,19.266,19.266,0,0,1-2.344-3.269h0l-1.973-12.757c-.238-1.592-.432-2.868-.565-3.762l-.143-1.021-.034-.262a.37.37,0,0,1,0-.092.341.341,0,0,1,.02.088l.051.262.173,1.021c.146.891.34,2.167.616,3.742.51,3.2,1.225,7.668,2.041,12.746v-.024a19.477,19.477,0,0,0,2.32,3.232,32.657,32.657,0,0,0,6.463,5.609c1.109.714,2.167,1.384,3.215,1.919s2.024,1.021,2.929,1.436c.449.221.895.395,1.313.554l1.177.463c.731.31,1.391.493,1.919.68l1.221.408.316.109A.463.463,0,0,1,101.131,194Z" transform="translate(-75.009 -152.943)" fill="#193b6a"/>
    <path id="Tracé_885" data-name="Tracé 885" d="M102.548,197.614s0,.02-.058.054l-.187.15-.725.565-2.742,2.106-.041.034-.034-.048c-.925-1.276-2.065-2.854-3.358-4.647l.1.017-2.575,1.837-.085.061-.037-.1c-1.021-2.721-2.133-5.783-3.32-9l-.476-1.3h.16l-2.1,4.164-.092.18-.065-.191c-1.827-5.259-3.375-9.729-4.381-12.631h.092c-.276,1.163-.493,2.078-.643,2.721-.075.306-.136.544-.177.714l-.048.184a.211.211,0,0,1-.024.061v-.065a1.364,1.364,0,0,1,.034-.184l.153-.721c.139-.643.34-1.561.6-2.721l.037-.163.058.16c1.021,2.895,2.6,7.355,4.449,12.6h-.156l2.092-4.164.092-.184.071.191.476,1.3c1.18,3.225,2.3,6.283,3.3,9.011l-.122-.037,2.585-1.823.058-.041.044.058,3.324,4.654h-.078l2.779-2.065.742-.544.194-.136Z" transform="translate(-77.964 -164.134)" fill="#193b6a"/>
    <path id="Tracé_886" data-name="Tracé 886" d="M124.367,189.962a1.591,1.591,0,0,1-.367-.082c-.231-.065-.568-.167-.976-.3a31.976,31.976,0,0,1-3.126-1.231,33.362,33.362,0,0,1-3-1.541c-.371-.218-.68-.4-.871-.534a1.54,1.54,0,0,1-.3-.221,1.579,1.579,0,0,1,.34.163l.9.483c.759.4,1.817.949,3.014,1.49s2.3.973,3.109,1.276c.378.136.68.255.956.34A1.36,1.36,0,0,1,124.367,189.962Z" transform="translate(-100.385 -168.99)" fill="#193b6a"/>
    <path id="Tracé_887" data-name="Tracé 887" d="M132.55,196.929a3.522,3.522,0,0,1-.844-.15,19.532,19.532,0,0,1-1.983-.592,19.779,19.779,0,0,1-1.908-.8,3.658,3.658,0,0,1-.745-.418,4.651,4.651,0,0,1,.8.306c.486.2,1.16.473,1.915.745s1.449.486,1.956.64A4.641,4.641,0,0,1,132.55,196.929Z" transform="translate(-107.874 -174.876)" fill="#193b6a"/>
    <path id="Tracé_888" data-name="Tracé 888" d="M121.789,228.331c0,.218-.133.391-.3.391s-.293-.173-.293-.391.133-.391.293-.391S121.789,228.117,121.789,228.331Z" transform="translate(-104.001 -196.63)" fill="#193b6a"/>
    <ellipse id="Ellipse_15" data-name="Ellipse 15" cx="0.293" cy="0.391" rx="0.293" ry="0.391" transform="translate(10.804 23.064)" fill="#193b6a"/>
    <path id="Tracé_889" data-name="Tracé 889" d="M84,178.8c0,.214-.133.391-.293.391s-.293-.177-.293-.391.129-.391.293-.391S84,178.587,84,178.8Z" transform="translate(-79.066 -163.949)" fill="#193b6a"/>
    <path id="Tracé_890" data-name="Tracé 890" d="M355.853,154.64l-2.16,26.5S347.376,192.471,330,192.9l2.147-26.68S347.308,165.607,355.853,154.64Z" transform="translate(-241.773 -148.265)" fill="#193b6a"/>
    <path id="Tracé_891" data-name="Tracé 891" d="M387.435,140.894a6.655,6.655,0,0,0-5.2-4.994l-3.851,35.643s7.249-1.446,7.443-5.419c.017-.34,1.466-18.06,1.83-22.451A7.181,7.181,0,0,0,387.435,140.894Z" transform="translate(-273.695 -135.9)" fill="#193b6a"/>
    <g id="Groupe_60" data-name="Groupe 60" transform="translate(88.227 6.375)" opacity="0.8">
      <path id="Tracé_892" data-name="Tracé 892" d="M355.853,154.64l-2.16,26.5S347.376,192.471,330,192.9l2.147-26.68S347.308,165.607,355.853,154.64Z" transform="translate(-330 -154.64)" fill="#fff"/>
    </g>
    <path id="Tracé_893" data-name="Tracé 893" d="M364.029,174.5a15.7,15.7,0,0,0-2.766,8.569,7.088,7.088,0,0,1-.3,2.6,1.883,1.883,0,0,1-2.041,1.262c-.833-.231-1.282-1.293-2.058-1.783a2.3,2.3,0,0,0-2.33.051A3.922,3.922,0,0,0,353,187.063a41.012,41.012,0,0,0-1.136,4.606c-.456,1.514-1.606,3.041-3.191,3.109-.578.024-1.15-.15-1.728-.133a3.535,3.535,0,0,0-2.851,2.041,10.624,10.624,0,0,0-.9,3.534s9.26.884,19.652-11.389Z" transform="translate(-250.476 -161.369)" fill="#193b6a"/>
    <path id="Tracé_894" data-name="Tracé 894" d="M359.775,220.6c0,.34-.163.6-.364.6s-.361-.265-.361-.6.16-.6.361-.6S359.775,220.269,359.775,220.6Z" transform="translate(-260.94 -191.391)" fill="#193b6a"/>
    <path id="Tracé_895" data-name="Tracé 895" d="M372.595,188.215c0,.34-.163.6-.364.6s-.361-.269-.361-.6.16-.6.361-.6S372.595,187.885,372.595,188.215Z" transform="translate(-269.4 -170.026)" fill="#193b6a"/>
    <path id="Tracé_896" data-name="Tracé 896" d="M364.554,178.26a.815.815,0,0,1-.058.15l-.2.432c-.184.384-.439.929-.762,1.616l-2.762,5.752-.037.078-.075-.048-6.548-4.143.129-.041c-.085.211-.18.439-.272.68l-4.228,10.345-.031.071-.065-.037c-1.633-.918-2.966-1.657-3.892-2.16-.466-.252-.827-.446-1.075-.571l-.282-.136-.1-.044a7.9,7.9,0,0,1,1.49.68c.939.483,2.279,1.2,3.922,2.109l-.1.034,4.191-10.372c.092-.228.187-.456.272-.68l.041-.1.088.058,6.538,4.164-.112.031c1.16-2.357,2.133-4.327,2.82-5.722l.813-1.589.218-.418A.943.943,0,0,1,364.554,178.26Z" transform="translate(-251.208 -163.85)" fill="#193b6a"/>
  </g>
</svg>
