<svg xmlns="http://www.w3.org/2000/svg" xmlns:xlink="http://www.w3.org/1999/xlink" width="691.514" height="441.311" viewBox="0 0 691.514 441.311">
  <defs>
    <clipPath id="clip-path">
      <path id="Tracé_58" data-name="Tracé 58" d="M846.111,586.695c-40.733,0-634.124.145-634.455-.907l-.059-.132a.739.739,0,0,1-.057-.2c-.227-.517-91.427-148.276,50.355-251.132,55.474-40.245-3.472-66.812,40.653-111.614,50.7-51.485,106.025,5.47,162.4-17.876,9.96-4.121,19.957-10.754,29.961-20.939a111,111,0,0,1,18.414-15.053c20.495-13.461,44.952-20.06,69.5-21.888,62.988-4.653,133.877,21.562,170.458,59.9,7.365,7.719,40.857,47.659,14.456,102.556-16.676,34.664,53.147,67.771,77.961,107.351C908.787,517.391,846.682,585.384,846.111,586.695Z" transform="translate(-182.461 -146.423)" fill="none"/>
    </clipPath>
  </defs>
  <g id="umbrella" transform="translate(-189.481 -18.731)">
    <path id="Tracé_29" data-name="Tracé 29" d="M873.614,516.031a129.049,129.049,0,0,1-26.681,69.635c-.481.607-.763.954-.8,1.034-13.874,0-91.882.018-188.735,0-58.7,0-124.328-.039-186.791-.088-136.995-.109-258.768-.339-258.928-.817l-.059-.129h0a.738.738,0,0,1-.057-.2c-.085-.2-13.215-21.5-21.795-53.486a210.553,210.553,0,0,1-7.031-43.43c-2.5-48.109,12.83-106.077,79.181-154.209,55.468-40.253-3.477-66.822,40.648-111.624,50.7-51.485,106.025,5.47,162.4-17.876,9.958-4.121,19.954-10.754,29.959-20.939a111,111,0,0,1,18.414-15.05c20.477-13.442,44.963-20.071,69.5-21.888,62.988-4.653,133.877,21.562,170.459,59.9,7.368,7.719,40.844,47.659,14.456,102.558-6.522,13.567.207,26.885,12.3,40.47,18.8,21.1,50.57,42.786,65.661,66.871a193.96,193.96,0,0,1,22,47.529,152.456,152.456,0,0,1,4.844,21.906A136.362,136.362,0,0,1,873.614,516.031Z" transform="translate(7.002 -127.699)" fill="#d2e0ff"/>
    <path id="Tracé_30" data-name="Tracé 30" d="M1627.06,286.992s7.755-16.612,26.35-14.766c0,0,26.975-27.686,55.74-3.691,0,0,30.577-5.946,53.222,5.15,15.1,7.4,20.086,15.154,20.086,15.154Z" transform="translate(-1064.137 -210.981)" fill="#efefef"/>
    <path id="Tracé_31" data-name="Tracé 31" d="M1039.93,1132.069h-9.823V1108.9l-.455-.277h-20.009v3.474h.016v2.389h-.016v3.472h.016v2.4h-.016v3.475h-1.794V1105.66H988.7v2.3h0v3.474h0v3.053h0v3.472h0v2.4h0v3.474h0v2.218h0v3.482h0v2.218h0v3.469h0v2.089h0v2.2h0v.24H967.126v19.88h-8.063v5h-8.694v-8.621H934.716v-23.429h-2.446v-2.327h-.349v2.327H919.751v-2.327H919.4v2.327h-2.645v11.78l-13.135-.065v7.272H892.486v-44.96h-33v48.155H849.408v-26.04H816.43v168.463l225.459-.907Z" transform="translate(-463.062 -838.957)" fill="#bbd0ff"/>
    <path id="Tracé_32" data-name="Tracé 32" d="M935.17,1313.56V1450.2H918.6V1313.56Z" transform="translate(-581.769 -993.113)" fill="#bbd0ff"/>
    <rect id="Rectangle_8" data-name="Rectangle 8" width="24.504" height="7.618" transform="translate(404.928 267.657)" fill="#c5daff"/>
    <rect id="Rectangle_9" data-name="Rectangle 9" width="24.504" height="7.618" transform="translate(404.928 279.383)" fill="#c5daff"/>
    <rect id="Rectangle_10" data-name="Rectangle 10" width="24.504" height="7.618" transform="translate(404.928 291.357)" fill="#c5daff"/>
    <rect id="Rectangle_11" data-name="Rectangle 11" width="24.504" height="7.618" transform="translate(404.928 303.52)" fill="#c5daff"/>
    <rect id="Rectangle_12" data-name="Rectangle 12" width="24.504" height="7.618" transform="translate(404.928 315.256)" fill="#c5daff"/>
    <rect id="Rectangle_13" data-name="Rectangle 13" width="12.253" height="4.627" transform="translate(525.639 266.703)" fill="#c5daff"/>
    <rect id="Rectangle_14" data-name="Rectangle 14" width="12.253" height="4.627" transform="translate(525.639 273.825)" fill="#c5daff"/>
    <rect id="Rectangle_15" data-name="Rectangle 15" width="12.253" height="4.627" transform="translate(525.639 281.094)" fill="#c5daff"/>
    <rect id="Rectangle_16" data-name="Rectangle 16" width="12.253" height="4.627" transform="translate(525.639 288.482)" fill="#c5daff"/>
    <rect id="Rectangle_17" data-name="Rectangle 17" width="12.253" height="4.627" transform="translate(525.639 295.609)" fill="#c5daff"/>
    <rect id="Rectangle_18" data-name="Rectangle 18" width="12.253" height="4.627" transform="translate(525.639 303.452)" fill="#c5daff"/>
    <rect id="Rectangle_19" data-name="Rectangle 19" width="12.253" height="4.627" transform="translate(525.639 310.577)" fill="#c5daff"/>
    <rect id="Rectangle_20" data-name="Rectangle 20" width="12.253" height="4.627" transform="translate(525.639 317.846)" fill="#c5daff"/>
    <rect id="Rectangle_21" data-name="Rectangle 21" width="12.253" height="4.627" transform="translate(525.639 325.234)" fill="#c5daff"/>
    <rect id="Rectangle_22" data-name="Rectangle 22" width="12.253" height="4.627" transform="translate(525.639 332.362)" fill="#c5daff"/>
    <rect id="Rectangle_23" data-name="Rectangle 23" width="12.253" height="4.627" transform="translate(546.612 269.735)" fill="#c5daff"/>
    <rect id="Rectangle_24" data-name="Rectangle 24" width="12.253" height="4.627" transform="translate(546.612 276.86)" fill="#c5daff"/>
    <rect id="Rectangle_25" data-name="Rectangle 25" width="12.253" height="4.627" transform="translate(546.612 284.129)" fill="#c5daff"/>
    <rect id="Rectangle_26" data-name="Rectangle 26" width="12.253" height="4.627" transform="translate(546.612 291.517)" fill="#c5daff"/>
    <rect id="Rectangle_27" data-name="Rectangle 27" width="12.253" height="4.627" transform="translate(546.612 298.644)" fill="#c5daff"/>
    <rect id="Rectangle_28" data-name="Rectangle 28" width="12.253" height="4.627" transform="translate(546.612 306.074)" fill="#c5daff"/>
    <rect id="Rectangle_29" data-name="Rectangle 29" width="12.253" height="4.627" transform="translate(546.612 313.196)" fill="#c5daff"/>
    <rect id="Rectangle_30" data-name="Rectangle 30" width="12.253" height="4.627" transform="translate(546.612 320.468)" fill="#c5daff"/>
    <rect id="Rectangle_31" data-name="Rectangle 31" width="12.253" height="4.627" transform="translate(546.612 327.856)" fill="#c5daff"/>
    <rect id="Rectangle_32" data-name="Rectangle 32" width="12.253" height="4.627" transform="translate(546.612 334.983)" fill="#c5daff"/>
    <rect id="Rectangle_33" data-name="Rectangle 33" width="0.607" height="9.441" transform="translate(508.073 291.517)" fill="#bbd0ff"/>
    <rect id="Rectangle_34" data-name="Rectangle 34" width="0.946" height="18.284" transform="translate(518.318 283.408)" fill="#bbd0ff"/>
    <rect id="Rectangle_35" data-name="Rectangle 35" width="0.393" height="3.366" transform="translate(398.63 264.288)" fill="#dfebfa"/>
    <rect id="Rectangle_36" data-name="Rectangle 36" width="0.393" height="3.366" transform="translate(406.983 264.288)" fill="#dfebfa"/>
    <rect id="Rectangle_37" data-name="Rectangle 37" width="0.393" height="3.366" transform="translate(426.128 264.288)" fill="#dfebfa"/>
    <rect id="Rectangle_38" data-name="Rectangle 38" width="0.305" height="2.598" transform="translate(527.536 264.105)" fill="#dfebfa"/>
    <rect id="Rectangle_39" data-name="Rectangle 39" width="0.305" height="2.598" transform="translate(541.909 264.105)" fill="#dfebfa"/>
    <rect id="Rectangle_40" data-name="Rectangle 40" width="0.393" height="3.366" transform="translate(418.644 264.288)" fill="#dfebfa"/>
    <path id="Tracé_33" data-name="Tracé 33" d="M1915.907,1131.114h-12.667v-23.17l-.491-.277h-21.523v3.474h.016v2.389h-.016V1117h.016v2.4h-.016v3.482H1879.3V1104.71h-20.59v2.3h0v3.459h0v3.053h0V1117h0v2.4h0v3.487h0v2.218h0v3.469h0v2.218h0v3.469h0v2.089h0v2.205h0v.24H1835.5v19.877h-8.673v5.007h-9.347v-8.624h-16.829v-23.426h-2.632V1129.3h-.367v2.327h-13.088V1129.3h-.377v2.327h-2.844v11.78l-14.128-.065v7.272h-11.979v-44.952h-35.5v48.155H1708.9v-26.04H1673.41V1296.24l242.5-.907Z" transform="translate(-1098.505 -838.253)" fill="#bbd0ff"/>
    <path id="Tracé_34" data-name="Tracé 34" d="M1806.569,1312.6v136.638h-17.5V1312.6Z" transform="translate(-1227.214 -992.401)" fill="#bbd0ff"/>
    <rect id="Rectangle_41" data-name="Rectangle 41" width="22.953" height="7.618" transform="translate(633.765 267.406)" fill="#c5daff"/>
    <rect id="Rectangle_42" data-name="Rectangle 42" width="22.953" height="7.618" transform="translate(633.765 279.134)" fill="#c5daff"/>
    <rect id="Rectangle_43" data-name="Rectangle 43" width="22.953" height="7.618" transform="translate(633.765 291.106)" fill="#c5daff"/>
    <rect id="Rectangle_44" data-name="Rectangle 44" width="22.953" height="7.618" transform="translate(633.765 303.271)" fill="#c5daff"/>
    <rect id="Rectangle_45" data-name="Rectangle 45" width="22.953" height="7.618" transform="translate(633.765 315.005)" fill="#c5daff"/>
    <rect id="Rectangle_46" data-name="Rectangle 46" width="0.641" height="9.441" transform="translate(742.688 291.266)" fill="#bbd0ff"/>
    <rect id="Rectangle_47" data-name="Rectangle 47" width="0.998" height="18.284" transform="translate(753.504 283.159)" fill="#bbd0ff"/>
    <rect id="Rectangle_48" data-name="Rectangle 48" width="0.416" height="3.366" transform="translate(627.117 264.04)" fill="#bbd0ff"/>
    <rect id="Rectangle_49" data-name="Rectangle 49" width="0.416" height="3.366" transform="translate(635.934 264.04)" fill="#bbd0ff"/>
    <rect id="Rectangle_50" data-name="Rectangle 50" width="0.416" height="3.366" transform="translate(656.155 264.04)" fill="#bbd0ff"/>
    <rect id="Rectangle_51" data-name="Rectangle 51" width="0.321" height="2.598" transform="translate(763.24 263.854)" fill="#dfebfa"/>
    <rect id="Rectangle_52" data-name="Rectangle 52" width="0.321" height="2.598" transform="translate(778.417 263.854)" fill="#dfebfa"/>
    <rect id="Rectangle_53" data-name="Rectangle 53" width="0.416" height="3.366" transform="translate(648.25 264.04)" fill="#bbd0ff"/>
    <path id="Tracé_35" data-name="Tracé 35" d="M1376.25,325.331s9.751-20.164,33.068-17.917c0,0,33.852-33.591,69.95-4.477,0,0,38.373-7.212,66.791,6.246,18.946,8.973,25.2,18.388,25.2,18.388Z" transform="translate(-878.164 -234.942)" fill="#8c9df4"/>
    <path id="Tracé_36" data-name="Tracé 36" d="M1742.87,834.257s5.579-12.468,18.923-11.082c0,0,19.388-20.776,40.036-2.769,0,0,21.96-4.462,38.226,3.862,10.842,5.55,14.425,11.374,14.425,11.374Z" transform="translate(-1150.008 -621.999)" fill="#efefef"/>
    <path id="Tracé_37" data-name="Tracé 37" d="M894.505,1427.743a129.049,129.049,0,0,1-26.681,69.635c-.481.608-.763.954-.8,1.034-13.874,0-91.882.018-188.735,0-58.7,0-124.328-.039-186.791-.088-136.995-.108-258.768-.338-258.928-.817l-.059-.129h0a.737.737,0,0,1-.057-.2c-.085-.2-13.215-21.5-21.795-53.485,3.069-18.778,13.047-36.09,38.456-39.594,59.9-8.272,39.839,21.715,70.573,17.155s74.733,27.283,101.377,45.076,46.307.592,93.162-17.348,130.483,22.095,156.023-3.41,81.219,4.743,98.141-29.729,85.686-33.537,85.686-33.537l34.534-6.31a152.467,152.467,0,0,1,4.844,21.906,136.362,136.362,0,0,1,1.05,29.837Z" transform="translate(-13.889 -1039.412)" fill="#efefef"/>
    <g id="Groupe_18" data-name="Groupe 18" transform="translate(189.481 18.731)" clip-path="url(#clip-path)">
      <path id="Tracé_38" data-name="Tracé 38" d="M553.048,701.542c2.807-4.395,3-10.405,2.156-17.524a29.9,29.9,0,0,0-2.523-9.048l-1.132.408c.054.152,5.429,15.345-.639,24.817Z" transform="translate(-455.662 -538.336)" fill="#8fadef"/>
      <path id="Tracé_39" data-name="Tracé 39" d="M505.025,669.907l.194-2.531c-6.659-.517-12.848-2.926-16.5-8.042a29.755,29.755,0,0,1-3.914-7.7l-1.114.228a24.529,24.529,0,0,0,3.932,8.515A22.693,22.693,0,0,0,505.025,669.907Z" transform="translate(-405.819 -521.029)" fill="#8fadef"/>
      <path id="Tracé_40" data-name="Tracé 40" d="M720.863,647.057c5.17-4.208,7.833-11.457,9.666-20.461a38.191,38.191,0,0,0,.564-12.036l-1.551.044c0,.207.429,20.852-10.741,29.928Z" transform="translate(-580.151 -493.542)" fill="#8fadef"/>
      <path id="Tracé_41" data-name="Tracé 41" d="M742.589,647.515l-.788-3.149c8.308-2.068,15.611-6.447,19.13-13.7a38.211,38.211,0,0,0,3.314-10.576l1.455.046a31.3,31.3,0,0,1-3.146,11.6C759.828,637.343,754.157,644.625,742.589,647.515Z" transform="translate(-597.206 -497.643)" fill="#8fadef"/>
      <path id="Tracé_42" data-name="Tracé 42" d="M294.38,772.947c-.385-.07-28.03,9.224-28.03,23.555s25.823,20.1,39.35,16.436,32.906-1.81,42.8,4.9,24.38-15.635,53.369-9.565,41.524.328,58.366-8.937,27.8,7.238,42.69,4.079,23.062-25.934,2.133-33.348-101.617-16.219-116.5-14.756S294.38,772.947,294.38,772.947Z" transform="translate(-244.664 -597.787)" fill="#efefef"/>
      <path id="Tracé_43" data-name="Tracé 43" d="M362.52,1006.336s21.474-42.473,34.216-78c14.071-39.234,21.056-81.72,32.7-105.968,13.7-28.534,21.456-76.979,28.079-108.3,0,0-7.36,84.421-17.17,103.554-9.229,17.992-22.335,73.592-29.307,108.153s-22.7,61.171-25.334,82.827C385.706,1008.6,365.309,1017.131,362.52,1006.336Z" transform="translate(-315.973 -567.328)" fill="#8fadef"/>
      <path id="Tracé_44" data-name="Tracé 44" d="M698,821.915l.259-3.376a78.745,78.745,0,0,0,18.284-5.749c9.565-4.211,24.233-11.682,35.845-26.179l1.626,1.187a97.591,97.591,0,0,1-36.851,28.126A80.445,80.445,0,0,1,698,821.915Zm.127-1.688.124-1.688h0Z" transform="translate(-564.728 -621.116)" fill="#8fadef"/>
      <path id="Tracé_45" data-name="Tracé 45" d="M790.694,788.711c-3.1-4.483-3.068-11.4-1.76-19.8a40.824,40.824,0,0,1,3.361-10.984l1.313.238c-.073.186-7.047,18.848-.349,28.519Z" transform="translate(-631.533 -599.849)" fill="#8fadef"/>
      <path id="Tracé_46" data-name="Tracé 46" d="M846.861,809q-.876-.085-1.771-.2l.987-2.957a48.5,48.5,0,0,0,29.051-4.932,39.365,39.365,0,0,0,10.152-7.391l1.016.851a29.1,29.1,0,0,1-10.4,8.9A50.261,50.261,0,0,1,846.861,809Z" transform="translate(-673.794 -626.239)" fill="#8fadef"/>
      <path id="Tracé_47" data-name="Tracé 47" d="M451.349,801.861c-34.9-3.412-56.8-39.852-65.92-52.982a43.079,43.079,0,0,0-3.619-4.873.774.774,0,0,0,.359.108l.907-2.965c1,.1,1.652.987,4.93,5.7,9.257,13.344,36.566,48.851,72.258,50.1l-2.257,5.785C456.78,802.678,452.551,801.99,451.349,801.861Z" transform="translate(-330.276 -587.407)" fill="#8fadef"/>
      <path id="Tracé_48" data-name="Tracé 48" d="M312.36,845.616a57.675,57.675,0,0,1-19.727-5.878c-9.063-4.2-11.486-10.377-11.633-10.6l1.135-.938c.036.049,3.733,4.873,12.357,8.836,7.96,3.66,21.875,7.318,42.959,3.953l1.991,4.371C329.858,846.9,319.2,846.285,312.36,845.616Z" transform="translate(-255.527 -651.954)" fill="#8fadef"/>
      <path id="Tracé_49" data-name="Tracé 49" d="M543.218,794.055,541,792.574a52.8,52.8,0,0,0,10.294-39.309l1.293-.6a43.235,43.235,0,0,1,1.15,13.168,50.076,50.076,0,0,1-10.519,28.227Z" transform="translate(-448.314 -595.942)" fill="#8fadef"/>
      <path id="Tracé_50" data-name="Tracé 50" d="M535.14,776.415c-7.4-.724-10.857-9.529-13.086-13.96-.543-1.081-1.142-3.257-1.644-2.789,0,0-.437-.775-.158-.757l.807.258c.644.871,1.383.7,2.626,3.172,2.1,4.18,6.509,11.031,13.034,11.131l-.68,2.981A6.921,6.921,0,0,1,535.14,776.415Z" transform="translate(-432.861 -600.576)" fill="#8fadef"/>
      <path id="Tracé_51" data-name="Tracé 51" d="M655.7,765.206c-10.927-2.787-15.676-9-17.736-13.722a21.9,21.9,0,0,1-1.859-9.846l2.973-.377a19.7,19.7,0,0,0,1.724,8.7c2.748,6.147,8.19,10.3,16.191,12.346Z" transform="translate(-518.807 -587.489)" fill="#8fadef"/>
      <path id="Tracé_52" data-name="Tracé 52" d="M791.986,741.85l-.116-2.885c7.854-1.97,15.234-6.039,19.753-12.706a43.945,43.945,0,0,0,4.958-9.71l1.293.028a36.329,36.329,0,0,1-25.887,25.272Z" transform="translate(-634.332 -569.167)" fill="#8fadef"/>
      <path id="Tracé_53" data-name="Tracé 53" d="M105.557,732.869a33.158,33.158,0,0,0,23.959,5.478c14.055-2.228,24.15-6.98,37.334-2.327s43.078,7.453,66.137-1.9,46.594-17.018,72.005-8.88,39.058,13.778,57.883,7.631,29.405,13.228,50.926,3.149,7.344-25.357-9.327-28.49-42.543-23.5-72.659-18.8-57.622-8.171-86.417-1.959-43.947,15.671-73.119,13.321S83.545,715.512,105.557,732.869Z" transform="translate(-121.895 -545.799)" fill="#bbd0ff"/>
      <path id="Tracé_54" data-name="Tracé 54" d="M401.666,635.739s-17.788,1.825-27.867,5.473-33.2,1.458-24.406-9.849,15.337-18.6,34.992-16.413,39.319,4.379,44.857,9.485S409.367,636.835,401.666,635.739Z" transform="translate(-304.79 -493.543)" fill="#bbd0ff"/>
      <path id="Tracé_55" data-name="Tracé 55" d="M608.674,545.9c7.437-1.714,20.027,5.354,32.4,11.258s38,1.781,27.684-15.459-18.088-28.405-42.739-26.081S576.7,520.268,569.5,527.594,588.458,550.563,608.674,545.9Z" transform="translate(-468.544 -419.949)" fill="#bbd0ff"/>
      <path id="Tracé_56" data-name="Tracé 56" d="M-17.708,1097.009c-.295-.054-21.492,7.042-21.492,17.982s19.8,15.348,30.171,12.548,25.228-1.388,32.815,3.736,18.693-11.935,40.919-7.293,31.838.258,44.753-6.822,21.314,5.529,32.73,3.1,17.682-19.8,1.636-25.458S65.91,1082.421,54.5,1083.538-17.708,1097.009-17.708,1097.009Z" transform="translate(-18.101 -841.194)" fill="#efefef"/>
      <path id="Tracé_57" data-name="Tracé 57" d="M-162.5,1066.442a25.5,25.5,0,0,0,18.37,4.183c10.777-1.7,18.514-5.338,28.622-1.779s33.03,5.687,50.709-1.45,35.723-12.992,55.207-6.778,29.948,10.516,44.381,5.824,22.545,10.1,39.056,2.4,5.63-19.357-7.15-21.751-32.627-17.941-55.719-14.353-44.182-6.238-66.259-1.494-33.692,11.961-56.063,10.167S-179.371,1053.194-162.5,1066.442Z" transform="translate(76.04 -801.533)" fill="#bbd0ff"/>
    </g>
    <path id="Tracé_59" data-name="Tracé 59" d="M471.522,1564.976H194.142a.812.812,0,0,1-.067-.318v-.439a.822.822,0,0,1,.819-.817h17.449a.738.738,0,0,1-.057-.2c-.122-.279-25.991-42.23-28.826-96.92,12.408-1.918,37.835-3.376,64.467,9.728,37.365,18.385,26.1,46.273,48.041,49.228s58.123-13.05,87.185,9.49c28.5,22.1,95.232,3.412,104.981,28.953.122.31-16.909.354-16.8.677C471.391,1564.558,471.46,1564.762,471.522,1564.976Z" transform="translate(6.279 -1105.436)" fill="#7087e8"/>
    <path id="Tracé_60" data-name="Tracé 60" d="M2235.825,1576.16a129.055,129.055,0,0,1-26.681,69.635c-.481.608-.763.954-.8,1.034-13.874,0-91.882.018-188.735,0l.233-1.013s24.318-23.357,53.38-18.613,47.274,11.268,60.411,2.373,29.147-22.539,49.893-13.05C2201.244,1624.623,2211.184,1578.758,2235.825,1576.16Z" transform="translate(-1355.208 -1187.829)" fill="#8c9df4"/>
    <path id="Tracé_61" data-name="Tracé 61" d="M2502.608,1069.807c-18.447,6.077-30.246-12.034-45.149-6.163-16.9,6.659-56.05,13.8-73.182-22.731s35.085-60.121,32.257-65.757-18.235-8.464-15.073-24.982a33.864,33.864,0,0,1,8.629-16.674c18.8,21.1,50.57,42.786,65.662,66.871C2491.688,1025.78,2499.638,1049.108,2502.608,1069.807Z" transform="translate(-1623.041 -711.302)" fill="#7087e8"/>
    <path id="Tracé_62" data-name="Tracé 62" d="M2086.38,1708.65s9.994,16.206,21.1,20.714c0,0,7.411-2,8.083.675s-3.557,6.013-8.652,5.2-27.1-11.685-27.831-13.184S2086.38,1708.65,2086.38,1708.65Z" transform="translate(-1399.269 -1286.069)" fill="#344ab7"/>
    <path id="Tracé_63" data-name="Tracé 63" d="M1781.916,1670.035s-17,6.563-33.3-3.1c0,0-2.231-2.221-3.986-1.949s-10.255,4.087-12.439.775,2.872-5.584,5.336-5.86,7.9-3.893,9.092-3.736,9.41.184,12.018-3.534,10.961-9.358,19.435-2.466S1781.916,1670.035,1781.916,1670.035Z" transform="translate(-1141.691 -1240.29)" fill="#344ab7"/>
    <path id="Tracé_64" data-name="Tracé 64" d="M2050.683,1584.4s-17.53,12.887-28.128,6.776,2.585-13.006,8.732-12.877S2054.4,1577.257,2050.683,1584.4Z" transform="translate(-1354.433 -1189.417)" fill="#2a4570"/>
    <path id="Tracé_65" data-name="Tracé 65" d="M1917.67,1635.445s-6.98,2.244-10.224,7.649c-2.7,4.5-4.622,14.234-11.207,17.517s-26.389-7.262-34.581-6.463-32.466-6.739-30.419-15.012c2.371-9.565,9.472-19.877,29.134-13.959,16.144,4.852,50.533-2.5,50.533-2.5Z" transform="translate(-1215.443 -1222.323)" fill="#4656cc"/>
    <path id="Tracé_66" data-name="Tracé 66" d="M2109.975,1578.5s7.209,1.129,9.939,5.364,12.408,2.815,12.9,6.786-1.913,11.566-11.891,12.059-17.021-.5-19.288-5.594S2104.048,1576.518,2109.975,1578.5Z" transform="translate(-1415.6 -1189.435)" fill="#4656cc"/>
    <path id="Tracé_67" data-name="Tracé 67" d="M2041.252,1738.519c-.194,1.939-2.621,2.417-5.209,2.293a20.975,20.975,0,0,1-5.576-1.05c-2.57-.951-17.837-24.486-17.837-24.486l12.993-11.116s8.055,27.451,9.65,29.349a4.535,4.535,0,0,0,1.833,1.153h0C2039.078,1735.468,2041.506,1735.933,2041.252,1738.519Z" transform="translate(-1350.033 -1282.74)" fill="#4656cc"/>
    <path id="Tracé_68" data-name="Tracé 68" d="M1804.377,1674.2s-11.116,14.438-30.075,14.64c0,0-3.058-.74-4.418.4s-6.644,8.818-10.237,7.109-.445-6.261,1.517-7.776,4.731-7.427,5.834-7.913,8.135-4.731,8.435-9.26,4.509-13.688,15.332-12.2S1804.377,1674.2,1804.377,1674.2Z" transform="translate(-1161.233 -1249.287)" fill="#4656cc"/>
    <path id="Tracé_69" data-name="Tracé 69" d="M1807.472,1566.674s-20.12-1.393-25.7-7.184c-6.851-7.114-1.608-13.52-1.608-13.52a11.075,11.075,0,0,0-8.657,6.372c-3.275,7.013,2.694,24.558,20.632,22.6Z" transform="translate(-1170.607 -1165.443)" fill="#4656cc"/>
    <path id="Tracé_70" data-name="Tracé 70" d="M2073.533,1647.62s-9.839-3.97-15.35-16.1c0,0-4.395-.09-5.092,1.114,0,0,6.139,14.27,18.01,18.82A2.772,2.772,0,0,0,2073.533,1647.62Z" transform="translate(-1380.034 -1228.873)" fill="#f77d48"/>
    <path id="Tracé_71" data-name="Tracé 71" d="M2058.942,1598.416s-8.365,20.089-20.585,20.319-4.5-12.47.832-15.534S2058.429,1590.376,2058.942,1598.416Z" transform="translate(-1364.271 -1202.029)" fill="#192e4f"/>
    <path id="Tracé_72" data-name="Tracé 72" d="M403.362,1762.423h26.466c1.417-1.2-.982-3.935-3.49-4.118a15.493,15.493,0,0,0-4.038.478c-.365-4.836-2.445-26.58-10.284-25.706-8.813.977,0,9.565,2.492,14.665a120.737,120.737,0,0,1,4.682,11.729c-.716.155-1.455.307-2.213.447-1.169-3.588-5.514-15.653-11.041-14.95-6.489.825-3.878,5.661.719,8.531,3.374,2.112,7.518,5.114,9.487,6.564a28.169,28.169,0,0,1-5.17.414C406.43,1760.37,404.22,1761.7,403.362,1762.423Z" transform="translate(-155.802 -1304.162)" fill="#505cd1"/>
    <path id="Tracé_73" data-name="Tracé 73" d="M2528.38,1775.285h-22.6c-1.21-1.034.84-3.36,2.981-3.518a13.211,13.211,0,0,1,3.451.409c.31-4.136,2.086-22.7,8.79-21.958,7.525.835,0,8.179-2.13,12.527a102.963,102.963,0,0,0-4,10.017c.61.132,1.243.258,1.889.38,1-3.063,4.71-13.368,9.431-12.768,5.542.7,3.313,4.834-.616,7.287-2.883,1.81-6.421,4.366-8.1,5.6a23.909,23.909,0,0,0,4.421.354C2525.76,1773.53,2527.649,1774.67,2528.38,1775.285Z" transform="translate(-1715.429 -1316.874)" fill="#505cd1"/>
    <path id="Tracé_74" data-name="Tracé 74" d="M1656.77,1110.114s5.207-4.891,7.282-4.514,1.928,5.894,0,8.324-6.522,1.112-6.522,1.112Z" transform="translate(-1086.166 -838.898)" fill="#ffb27d"/>
    <path id="Tracé_75" data-name="Tracé 75" d="M1493.957,459.095h0a1.773,1.773,0,0,0,1.254-2.161l-3.725-14.027a1.771,1.771,0,0,0-2.159-1.254h0a1.771,1.771,0,0,0-1.254,2.159l3.723,14.029a1.773,1.773,0,0,0,2.161,1.254Z" transform="translate(-961.036 -346.56)" fill="#2b478b"/>
    <path id="Tracé_76" data-name="Tracé 76" d="M1540.52,569.837s80.138-33.539,149.139,10.082c0,0-47.276,9.857-67.13,31.877C1622.53,611.8,1581.721,574.289,1540.52,569.837Z" transform="translate(-999.968 -432.519)" fill="#ce5a19"/>
    <path id="Tracé_77" data-name="Tracé 77" d="M1622.53,647.119s-58.94,9.048-64.818,23.84l-17.191-65.8S1596.771,611.53,1622.53,647.119Z" transform="translate(-999.968 -467.841)" fill="#d85e21"/>
    <path id="Tracé_78" data-name="Tracé 78" d="M1182.4,605.42s-86.223,10.6-124.516,82.7c0,0,45.942-14.88,74.1-5.6C1131.982,682.52,1148.824,629.712,1182.4,605.42Z" transform="translate(-642.095 -468.034)" fill="#ce5a19"/>
    <path id="Tracé_79" data-name="Tracé 79" d="M1344.53,682.528s55.683-21.371,68.109-11.437l-17.695-65.661S1349.253,638.85,1344.53,682.528Z" transform="translate(-854.643 -468.041)" fill="#d85e21"/>
    <path id="Tracé_80" data-name="Tracé 80" d="M1570.947,750.11l.982-.258a1.034,1.034,0,0,0,.732-1.259l-37.776-142.3a1.034,1.034,0,0,0-1.256-.729l-.985.259a1.034,1.034,0,0,0-.729,1.256l37.763,142.3A1.034,1.034,0,0,0,1570.947,750.11Z" transform="translate(-993.563 -468.117)" fill="#2b478b"/>
    <path id="Tracé_81" data-name="Tracé 81" d="M1681.268,507.483c-.258-.153-34.945-19.74-67.926-10.6h0a62.518,62.518,0,0,0-8.389-9.9,83.789,83.789,0,0,0-37.8-21.417,95.792,95.792,0,0,0-37.947-1.729c23.628-4.785,44.552-4.912,62.73-2.309h.013a157.206,157.206,0,0,1,39.883,11.157h0C1664.432,486.693,1681.058,507.183,1681.268,507.483Z" transform="translate(-991.582 -360.082)" fill="#ef7e29"/>
    <path id="Tracé_82" data-name="Tracé 82" d="M1165.5,490.76a94.48,94.48,0,0,0-27.919,16.682,76.574,76.574,0,0,0-22.144,32.8,65.215,65.215,0,0,0-3.834,19.967h0c-33.172,8.417-53.576,42.62-53.734,42.887a.4.4,0,0,0,0-.054c.034-.279.217-1.585.667-3.725,0-.008,0-.016,0-.023a128.926,128.926,0,0,1,13.66-35.307,145.767,145.767,0,0,1,24.639-32.42C1112.646,515.874,1134.722,500.925,1165.5,490.76Z" transform="translate(-642.088 -383.015)" fill="#ef7e29"/>
    <path id="Tracé_83" data-name="Tracé 83" d="M1417.709,502.171s-81.084-15.645-152.241,40.4c0,0-1.261-12.869,5.405-28.178,6.946-15.945,22.506-34.532,57.076-43.947,0,0,40.93-12.15,69.386,8.934,0,0,1.187.827,3,2.262C1405.249,485.538,1414.761,493.86,1417.709,502.171Z" transform="translate(-795.948 -365.372)" fill="#f99746"/>
    <path id="Tracé_84" data-name="Tracé 84" d="M1667.772,1100.694a10.061,10.061,0,0,1-9.663-7.37l-5.193-18.783a2.52,2.52,0,1,1,4.858-1.344l5.2,18.783a5,5,0,1,0,9.565-2.931l-1.926-5.713a2.521,2.521,0,0,1,4.777-1.611l1.926,5.711a10.06,10.06,0,0,1-9.539,13.259Z" transform="translate(-1083.24 -813.515)" fill="#f77d48"/>
    <path id="Tracé_85" data-name="Tracé 85" d="M1126.09,1389.3s12.68-9.446,14.035-12.574,7.174-14.577,8.678-15.746c0,0,3.151-.393,3.6,1.724s-3,14.673-5.408,18.465-13.936,16.648-17.721,18.514Z" transform="translate(-692.672 -1028.252)" fill="#ed985f"/>
    <path id="Tracé_86" data-name="Tracé 86" d="M969.63,1640.18s1.192,4.653,0,6.615-3.9,3.361-4.446,2.927-.217-3.389.434-4.731-.869-2.968.434-4.811S969.63,1640.18,969.63,1640.18Z" transform="translate(-573.158 -1234.692)" fill="#ed985f"/>
    <path id="Tracé_87" data-name="Tracé 87" d="M1105.66,1406.52s2.774.047,2.585,2.549c0,0,1,.318.864,2.091a2.179,2.179,0,0,1-1.722,2.047s2-.271,2.632,1.184c0,0,3.185-.592,3.823,1.593s-4.095,6.656-4.095,6.656l-7.81,1.518-3.805-2.73-.3-8.189Z" transform="translate(-671.718 -1062.042)" fill="#233862"/>
    <path id="Tracé_88" data-name="Tracé 88" d="M1075.58,1453.117l-15.2-8.9c.085-.031.393-.476,1.528-3.666a17.422,17.422,0,0,0,.869-3.474,1.775,1.775,0,0,1,.034-.259,9.241,9.241,0,0,0,.041-2.143l3.329,1.166,6.158,2.164a7.19,7.19,0,0,0,.481,3.312,2.74,2.74,0,0,0,2.345,1.786Z" transform="translate(-643.949 -1082.923)" fill="#ffb27d"/>
    <path id="Tracé_89" data-name="Tracé 89" d="M1079.219,1444.635a11.543,11.543,0,0,1-10.043-4.227c-.111-.137-.165-.215-.165-.215l.2-.057,3.36-.977,6.158,2.164A7.324,7.324,0,0,0,1079.219,1444.635Z" transform="translate(-650.348 -1086.245)" fill="#ed985f"/>
    <path id="Tracé_90" data-name="Tracé 90" d="M1069.915,1392.68s-13.223,1.409-13.494-7.264-2.226-12.639,6.925-13.411,11.31,2.425,11.847,5.359C1076.879,1386.527,1073.64,1392.29,1069.915,1392.68Z" transform="translate(-640.747 -1036.362)" fill="#ffb27d"/>
    <path id="Tracé_91" data-name="Tracé 91" d="M1047.276,1354.63c-4.679-1.148,0,3.979-2.3,5.687-2.414,1.774-5.367.057-5.007,1.605a29.761,29.761,0,0,0,1.145,3.071c.269.967,0,2.883-1.088,2.495s-11.209-11.591-4.064-20.319,28.452-3.361,21.743,5.777C1056.518,1354.542,1050.6,1355.447,1047.276,1354.63Z" transform="translate(-623.963 -1014.751)" fill="#233862"/>
    <path id="Tracé_92" data-name="Tracé 92" d="M1069,1415.66s2.391.574,3.1,2.407c0,0,1.98-.23,2.037,2.464a2.4,2.4,0,0,1-.638,2.068s2.068,2.95-.22,4.628S1069,1415.66,1069,1415.66Z" transform="translate(-650.34 -1068.819)" fill="#233862"/>
    <path id="Tracé_93" data-name="Tracé 93" d="M1138.328,1782.478c.1-3.444-2.5-4.24-4.211-4.24-.832,0-2.151-.835-3.283-1.688l-3.567-16.007c-5.581-.243-15.167,4.245-15.167,4.245l8.707,16.232h0c.036.866.106,1.458.106,1.458Z" transform="translate(-682.299 -1324.54)" fill="#2a4e96"/>
    <path id="Tracé_94" data-name="Tracé 94" d="M988.029,1748.48l-10.059,19.13h0c-.458.8-.7,1.487-.465,1.841.8,1.218,6.82,4.087,6.82,4.087h8.722c0-2.326-2.35-3.529-3.619-4.015-.641-.258-.9-1.318-1-2.311h0l11.421-12.455S988.424,1748.573,988.029,1748.48Z" transform="translate(-582.432 -1315.602)" fill="#2a4e96"/>
    <path id="Tracé_95" data-name="Tracé 95" d="M1001.351,1400.4c3.216,15.816,8.04,40.94,8.913,53.638a92.346,92.346,0,0,1-10.446,1.986,133.655,133.655,0,0,1-18.556,1.28c-13.23,0-21.567-3.293-27.777-8.531l2.776-8.045c3.72-10.782,9.875-28.666,10.053-29.338.137-.533.6-2.4,1.261-5.049-6.419,4.32-9.878,15.549-9.878,15.549-5-.124-11.739-3.9-11.739-3.9a111.586,111.586,0,0,1,11.739-27.661c7.706-12.7,16.514-15.371,17.7-15.681a.536.536,0,0,1,.026-.106,13.582,13.582,0,0,1-2.285-1.662s-13.365-15.95-15.3-22.788a3.744,3.744,0,0,1-.1-1.613h0c.98-6.352,17.209-12.585,25.915-8.9a41.3,41.3,0,0,0-4.788,17.561,22.574,22.574,0,0,0,7.037,17.4h0c3.619-1.507,3.146-3.211,3.146-3.211s8.531-3.8,12.408-7.98a134.242,134.242,0,0,0,10.11-13.249s7.368,5.793,7.306,6.762c-.623,9.787-5.946,17.266-11.026,22.232A23.32,23.32,0,0,0,1001.351,1400.4Z" transform="translate(-559.107 -1011.591)" fill="#ffb255"/>
    <path id="Tracé_96" data-name="Tracé 96" d="M1327.391,785.674s-13.184-1.985-19.572,6.321-.22,19.815-10.858,21.407c-6.261.936-9.779,7.807-3.955,16.286,3.58,5.211-14.073,11.069.142,22.521,16.4,13.207,22.749-15.643,32.205-12.346s22.855-6.2,18.1-12.059c-7.825-9.637,2.885-5.212,2.267-18.517S1336.4,785.364,1327.391,785.674Z" transform="translate(-812.375 -601.537)" fill="#163560"/>
    <path id="Tracé_97" data-name="Tracé 97" d="M1243.138,1757.56s-4.886,4.457-3.932,7.623,5.361,5.279,5.946,9.151,2.978,5.982,5.121,5.982h10.245s1.58-2.724-2.233-3.547-5.25-5.369-5.01-9.591a73.9,73.9,0,0,0-.359-9.852l-8.1-1.877Z" transform="translate(-776.455 -1320.771)" fill="#f77d48"/>
    <path id="Tracé_98" data-name="Tracé 98" d="M1412.734,1772.32s-1.758,18.871.385,19.936l27.443-.057s0-3.167-4.395-3.878-12.15-3.283-13.463-9.032S1412.734,1772.32,1412.734,1772.32Z" transform="translate(-904.712 -1333.279)" fill="#f77d48"/>
    <path id="Tracé_99" data-name="Tracé 99" d="M1425.323,1171.5s7.913,24.623,8.419,33.009-21.456,122.9-22.071,126.763c-.595,3.642-9.262,0-9.262,0s-6.158-78.965-2.347-107.173a447.082,447.082,0,0,0,3.857-52.6Z" transform="translate(-894.897 -887.777)" fill="#233862"/>
    <path id="Tracé_100" data-name="Tracé 100" d="M1289.8,1168.66s-12.067,16.191-13.184,27.144,3.273,46.294.877,56.965-16.242,34.307-16.242,67.59c0,0,7.036,4.017,8.1,1.877,5.946-11.99,29.638-51.444,30.61-59.457.688-5.687,6.677-43.269,19.737-65.325,3.136-5.294-1.923-26.352-1.923-26.352Z" transform="translate(-792.892 -885.671)" fill="#2a4e96"/>
    <path id="Tracé_101" data-name="Tracé 101" d="M1060.27,1471.55l.028.016C1060.273,1471.579,1060.27,1471.55,1060.27,1471.55Z" transform="translate(-643.867 -1110.261)" fill="#ffb27d"/>
    <path id="Tracé_102" data-name="Tracé 102" d="M1013.345,1336.552c-.186-.4-.315-.662-.315-.662A2.092,2.092,0,0,1,1013.345,1336.552Z" transform="translate(-608.839 -1009.671)" fill="#d35c2b"/>
    <path id="Tracé_103" data-name="Tracé 103" d="M1222.028,1330.561a6.573,6.573,0,0,1-1.212,2.877c-.711.812-1.838,2.432-2.549,3.487-.46.649-.752,1.135-.752,1.135l-3.6-1.7s-.085-5.92,2.3-7.179c.085-.039.127-.08.21-.08a15.112,15.112,0,0,1,2.8-1.135,3.732,3.732,0,0,1,2.507-.041C1222.2,1328.167,1222.279,1329.351,1222.028,1330.561Z" transform="translate(-757.796 -1003.621)" fill="#ed985f"/>
    <path id="Tracé_104" data-name="Tracé 104" d="M1316.1,977.715c-8.2-26.218.776-31.918-.067-45.037s-11.012-27.224-11.012-27.224l-1.055-.1a.816.816,0,0,1-.682-.517,20.491,20.491,0,0,1-.517-5.747c0-3.619.287-7.445.287-7.445l-12.183-2.412-.724-.142c.031,8.479-2.2,14.045-3.818,15.342-1.523.173-4.278,2.365-8.272,4.038-1.507.628-3.8,1.688-4.2,2.57-3.345,7.355-9.278,24.235-11.633,37.484-1.308,7.38-2.306,13.109-2.825,14.324-1.453,3.386-5.891,22.022-9.682,31.218l3.438,4.224s17.375-29.274,18.827-36.168c.473-2.244,1.636-6.737,2.991-11.77q.3-1.142.625-2.326c2.394,6.489,3.619,9.492,3.549,12.3-.1,3.992-2.8,7.577-8.456,20.26C1267.568,987.606,1324.469,1004.489,1316.1,977.715Z" transform="translate(-784.335 -678.373)" fill="#ffb27d"/>
    <path id="Tracé_105" data-name="Tracé 105" d="M1421.166,899.562a52.358,52.358,0,0,0-.274,5.822A13.084,13.084,0,0,1,1409,897.15Z" transform="translate(-902.447 -684.349)" fill="#e8945b"/>
    <path id="Tracé_106" data-name="Tracé 106" d="M1391.061,820.211s-3.573-5.643-4.431-10.47c-.613-3.446,1.143-16.219,13.977-14.378a17.454,17.454,0,0,1,7.239,2.733c2.786,1.882,6.806,5.946,2.311,17.093l-1.168,3.764Z" transform="translate(-885.782 -608.741)" fill="#163560"/>
    <path id="Tracé_107" data-name="Tracé 107" d="M1418.051,841.655s-16.128.258-16.139-9.779-2.1-16.777,8.2-17.372,12.3,3.237,13.12,6.589S1422.246,841.327,1418.051,841.655Z" transform="translate(-897.057 -623.022)" fill="#ffb27d"/>
    <g id="Groupe_19" data-name="Groupe 19" transform="translate(432.511 365.859)" opacity="0.5">
      <path id="Tracé_108" data-name="Tracé 108" d="M1132.314,1512.177c3.216,15.815,8.04,40.94,8.913,53.638a92.441,92.441,0,0,1-10.447,1.986s-10.27-34.754-7.822-47.473,9.849-17.628,6.013-22.312,14.916-12.114,9.849-7.137A23.319,23.319,0,0,0,1132.314,1512.177Z" transform="translate(-1122.581 -1489.229)" fill="#ed9443"/>
    </g>
    <path id="Tracé_109" data-name="Tracé 109" d="M1407.835,809.625c-2.49-3.017-4.371-2.363-5.429-1.455a11.441,11.441,0,0,0-14.5,2.327,19.194,19.194,0,0,1-6.276,11.338s2.939,1.81,9.717.073a11.513,11.513,0,0,0,5.483-3.782,37.566,37.566,0,0,1-6.463,7.9c8.094-3.74,11.346-14.993,11.669-16.19.985.884,2.926,2.8,3.518,4.687.8,2.559,1.166,7.825,2.7,7.647C1408.256,822.168,1411.583,814.157,1407.835,809.625Z" transform="translate(-882.152 -617.141)" fill="#163560"/>
    <path id="Tracé_110" data-name="Tracé 110" d="M1236.408,1291.83s-1.474,3.469-3.007,4.439a4.751,4.751,0,0,0-2.086,4.842c.4,1.856-.414,5.08,1.523,5.08s6.463-8.552,7.018-10.164,1.047-1.936,1.047-1.936Z" transform="translate(-770.627 -977.001)" fill="#ffb27d"/>
    <path id="Tracé_111" data-name="Tracé 111" d="M1324.43,1066.213c-1.717,12.726-61.357,2.844-63.213-3.022-1.608-5.077.119-11.09,2.068-20.3h0c.67-3.162,1.368-6.7,1.965-10.708-1.794.494-8.7,3.467-15.319-.259,2.732-13.621,15.2-63.3,21.557-76.428,3.063-6.326,14.994-7,14.994-7a39.912,39.912,0,0,0,5.02,4.829c6.6,4.224,10.64,3.632,12.292,1.187a5.3,5.3,0,0,0,.37-5.111,9.471,9.471,0,0,1,1.011.1c2.4.323,4.092.569,5.312.776,2.394.419,2.991.711,3.586,1.176,2.1,2.151,4.837,7.5,5.057,17a67.819,67.819,0,0,1-.949,12.383C1318.5,994.2,1326.317,1052.217,1324.43,1066.213Z" transform="translate(-784.498 -722.417)" fill="#4656cc"/>
    <path id="Tracé_112" data-name="Tracé 112" d="M1446.94,894.357s.305,1.236,3.389,1.008c0,0,2.585-.191,2.492-1.551A8.258,8.258,0,0,0,1446.94,894.357Z" transform="translate(-930.579 -681.655)" fill="#fff"/>
    <path id="Tracé_113" data-name="Tracé 113" d="M1257.195,1305.19s.884,3.839.24,5.046-.209,2.774-1.5,2.327S1257.195,1305.19,1257.195,1305.19Z" transform="translate(-788.676 -986.907)" fill="#ffb27d"/>
    <path id="Tracé_114" data-name="Tracé 114" d="M1408.116,1673.745l7.724-44.071s-4.488-3.275-24.021,0l5.428,53.235Z" transform="translate(-889.708 -1226.43)" fill="#f77d48"/>
    <path id="Tracé_115" data-name="Tracé 115" d="M1256.949,1648.8l19-39.666s-6.734-9.823-22.93-10.49c0,0-4.583,20.376-4.583,30.455s-4.457,15.5-4.457,15.5Z" transform="translate(-780.086 -1204.497)" fill="#f77d48"/>
    <path id="Tracé_116" data-name="Tracé 116" d="M1448.42,1072.48a1.28,1.28,0,1,1,1.28,1.28A1.28,1.28,0,0,1,1448.42,1072.48Z" transform="translate(-931.677 -813.406)" fill="#163560"/>
    <path id="Tracé_117" data-name="Tracé 117" d="M1451.11,1169.437a1.279,1.279,0,1,1,.375.918,1.28,1.28,0,0,1-.375-.918Z" transform="translate(-933.671 -885.308)" fill="#163560"/>
    <path id="Tracé_118" data-name="Tracé 118" d="M1451.38,1280.578a1.293,1.293,0,1,1,1.28,1.277A1.28,1.28,0,0,1,1451.38,1280.578Z" transform="translate(-933.871 -967.687)" fill="#163560"/>
    <g id="Groupe_20" data-name="Groupe 20" transform="translate(397.154 392.811)" opacity="0.5">
      <path id="Tracé_119" data-name="Tracé 119" d="M996.135,1612.293c.24,5.584-10.325,17.516-10.325,17.516,3.72-10.782,9.875-28.666,10.053-29.338.137-.533.6-2.4,1.262-5.049h0s3.19-3.322,4.524-1.259S995.892,1606.711,996.135,1612.293Z" transform="translate(-985.81 -1593.488)" fill="#ed9443"/>
    </g>
    <path id="Tracé_120" data-name="Tracé 120" d="M1119.18,1531.382a1.259,1.259,0,1,1,1.256,1.256A1.258,1.258,0,0,1,1119.18,1531.382Z" transform="translate(-687.549 -1153.69)" fill="#2a4e96"/>
    <path id="Tracé_121" data-name="Tracé 121" d="M1119.18,1605.9a1.259,1.259,0,1,1,1.256,1.259A1.259,1.259,0,0,1,1119.18,1605.9Z" transform="translate(-687.549 -1208.946)" fill="#2a4e96"/>
    <circle id="Ellipse_1" data-name="Ellipse 1" cx="1.256" cy="1.256" r="1.256" transform="translate(433.651 420.48)" fill="#2a4e96"/>
    <g id="Groupe_21" data-name="Groupe 21" transform="translate(398.589 336.888)" opacity="0.5">
      <path id="Tracé_122" data-name="Tracé 122" d="M1015.031,1403.885a37.855,37.855,0,0,1-5.946-.662,13.574,13.574,0,0,1-2.285-1.662s-13.365-15.95-15.3-22.787a3.748,3.748,0,0,1-.1-1.613c.142.215,5.5,8.36,21.128,8.655-.059,3.805.744,10.022,2.844,13.9C1016.417,1401.628,1017.2,1403.931,1015.031,1403.885Z" transform="translate(-991.359 -1377.16)" fill="#ed9443"/>
    </g>
    <path id="Tracé_123" data-name="Tracé 123" d="M1537.238,1016.325a71.213,71.213,0,0,1-10.32,3.03c-2.585.592-5.62,1.2-9.11,1.734-6,.926-11.424-3.182-15.474-7.755a.246.246,0,0,1-.026-.034,55.349,55.349,0,0,1-7.238-10.7V958.14a25.191,25.191,0,0,1,11.434,9.611c4.3,6.969,8.846,31.021,10.922,31.572S1536.3,997,1536.3,997,1541.633,1002.73,1537.238,1016.325Z" transform="translate(-966.267 -729.572)" fill="#4656cc"/>
    <path id="Tracé_124" data-name="Tracé 124" d="M1676.39,1105.29a1.914,1.914,0,0,0-2.521,1.215c-.889,1.928-.444,3.138.941,3.671a2.193,2.193,0,0,0,2.223-.212Z" transform="translate(-1098.504 -838.587)" fill="#ffb27d"/>
    <path id="Tracé_125" data-name="Tracé 125" d="M1545.044,1106.594c-2.585.592-5.62,1.2-9.11,1.734-6,.926-11.424-3.182-15.475-7.755a.253.253,0,0,1-.026-.034s-2.068-22.868,0-24.649,3.555,21.423,8.74,24.649S1544.457,1101.121,1545.044,1106.594Z" transform="translate(-984.393 -816.811)" fill="#344ab7"/>
    <path id="Tracé_126" data-name="Tracé 126" d="M1315.161,1153.277c-4.152,6.747-3.511,16.651-13.541,19.512.67-3.161,1.368-6.7,1.965-10.708,0,0,9.973-28.878,10.242-34.488s3.262-4.343,3.557-1.45S1319.31,1146.527,1315.161,1153.277Z" transform="translate(-822.826 -852.319)" fill="#344ab7"/>
    <path id="Tracé_127" data-name="Tracé 127" d="M1390.443,936.242s-9.859-7.437-10.493-14.952c0,0-7.991.116-8.071,7.815C1371.88,929.1,1381.305,938.742,1390.443,936.242Z" transform="translate(-874.923 -702.249)" fill="#5a71e5"/>
    <path id="Tracé_128" data-name="Tracé 128" d="M1443.69,944.028s3-8.433,2.916-12.238c0,0,4.77,2.053,4.976,5.687C1451.582,937.485,1451.554,944.408,1443.69,944.028Z" transform="translate(-928.17 -710.034)" fill="#5a71e5"/>
    <path id="Tracé_129" data-name="Tracé 129" d="M1438.74,975.547a1.277,1.277,0,1,1,.374.919A1.28,1.28,0,0,1,1438.74,975.547Z" transform="translate(-924.499 -741.54)" fill="#163560"/>
    <path id="Tracé_130" data-name="Tracé 130" d="M892.876,1846.347v.439a.822.822,0,0,1-.819.82H225.319a.83.83,0,0,1-.819-.82v-.439a.822.822,0,0,1,.819-.817h666.73A.822.822,0,0,1,892.876,1846.347Z" transform="translate(-24.152 -1387.564)" fill="#233862"/>
    <path id="Tracé_131" data-name="Tracé 131" d="M2072.012,1085.989c1-2.36,8.272-7.709,8.272-7.709s1.264,8.952.259,11.312a4.64,4.64,0,1,1-8.552-3.6Z" transform="translate(-1393.778 -818.655)" fill="#f0f6ff"/>
    <path id="Tracé_132" data-name="Tracé 132" d="M2300.345,837.069c1-2.363,8.285-7.709,8.285-7.709s1.264,8.95.259,11.312a4.653,4.653,0,0,1-8.543-3.6Z" transform="translate(-1563.201 -634.083)" fill="#f0f6ff"/>
    <path id="Tracé_133" data-name="Tracé 133" d="M1951.462,954.569c1-2.36,8.272-7.709,8.272-7.709s1.264,8.952.259,11.312a4.64,4.64,0,1,1-8.552-3.6Z" transform="translate(-1304.391 -721.209)" fill="#f0f6ff"/>
    <path id="Tracé_134" data-name="Tracé 134" d="M1007.251,496.989c1-2.363,8.272-7.709,8.272-7.709s1.264,8.952.259,11.312a4.653,4.653,0,1,1-8.554-3.6Z" transform="translate(-604.162 -381.917)" fill="#f0f6ff"/>
    <path id="Tracé_135" data-name="Tracé 135" d="M1768,1041.949c1-2.363,8.272-7.709,8.272-7.709s1.264,8.95.258,11.313a4.653,4.653,0,0,1-8.554-3.6Z" transform="translate(-1168.438 -786)" fill="#f0f6ff"/>
    <path id="Tracé_136" data-name="Tracé 136" d="M2231.031,964.469c1-2.363,8.273-7.709,8.273-7.709s1.264,8.952.259,11.313a4.653,4.653,0,1,1-8.554-3.6Z" transform="translate(-1511.583 -728.549)" fill="#f0f6ff"/>
    <path id="Tracé_137" data-name="Tracé 137" d="M1747.621,1472.529c1-2.36,8.272-7.709,8.272-7.709s1.264,8.953.259,11.312a4.653,4.653,0,1,1-8.554-3.6Z" transform="translate(-1153.139 -1105.271)" fill="#f0f6ff"/>
    <path id="Tracé_138" data-name="Tracé 138" d="M1735.045,1341.239c1-2.363,8.272-7.709,8.272-7.709s1.264,8.95.259,11.312a4.653,4.653,0,0,1-8.554-3.6Z" transform="translate(-1144.006 -1007.921)" fill="#f0f6ff"/>
    <path id="Tracé_139" data-name="Tracé 139" d="M1840.192,1439.739c1-2.36,8.272-7.709,8.272-7.709s1.264,8.952.259,11.312a4.64,4.64,0,1,1-8.552-3.6Z" transform="translate(-1221.885 -1080.958)" fill="#f0f6ff"/>
    <path id="Tracé_140" data-name="Tracé 140" d="M2054.021,1380.779c1-2.363,8.272-7.709,8.272-7.709s1.267,8.952.258,11.313a4.64,4.64,0,1,1-8.551-3.6Z" transform="translate(-1380.438 -1037.239)" fill="#f0f6ff"/>
    <path id="Tracé_141" data-name="Tracé 141" d="M2130.775,1457.209c1-2.363,8.272-7.709,8.272-7.709s1.264,8.95.259,11.312a4.653,4.653,0,0,1-8.554-3.6Z" transform="translate(-1437.436 -1093.911)" fill="#f0f6ff"/>
    <path id="Tracé_142" data-name="Tracé 142" d="M1398.7,537.889c1-2.363,8.286-7.709,8.286-7.709s1.264,8.95.258,11.312a4.653,4.653,0,0,1-8.544-3.6Z" transform="translate(-894.644 -412.244)" fill="#f0f6ff"/>
    <path id="Tracé_143" data-name="Tracé 143" d="M1766.355,524.361c1-2.363,8.272-7.711,8.272-7.711s1.264,8.952.258,11.315a4.653,4.653,0,0,1-8.554-3.6Z" transform="translate(-1167.222 -402.212)" fill="#f0f6ff"/>
    <path id="Tracé_144" data-name="Tracé 144" d="M1556.562,342.009c1-2.363,8.272-7.709,8.272-7.709s1.264,8.95.259,11.312a4.64,4.64,0,1,1-8.552-3.6Z" transform="translate(-1011.576 -267.001)" fill="#f0f6ff"/>
    <path id="Tracé_145" data-name="Tracé 145" d="M1580.632,447.339c1-2.363,8.285-7.709,8.285-7.709s1.264,8.95.259,11.312a4.653,4.653,0,0,1-8.554-3.6Z" transform="translate(-1029.52 -345.102)" fill="#f0f6ff"/>
    <path id="Tracé_146" data-name="Tracé 146" d="M2161.092,709.829c1-2.363,8.285-7.709,8.285-7.709s1.264,8.95.259,11.312a4.653,4.653,0,0,1-8.554-3.6Z" transform="translate(-1459.926 -539.736)" fill="#f0f6ff"/>
    <path id="Tracé_147" data-name="Tracé 147" d="M2288.761,500.179c1-2.36,8.272-7.709,8.272-7.709s1.264,8.952.259,11.312a4.653,4.653,0,1,1-8.554-3.6Z" transform="translate(-1554.389 -384.283)" fill="#f0f6ff"/>
    <path id="Tracé_148" data-name="Tracé 148" d="M2310.238,616.059c1-2.363,8.285-7.709,8.285-7.709s1.264,8.952.259,11.312a4.653,4.653,0,1,1-8.554-3.6Z" transform="translate(-1570.324 -470.207)" fill="#f0f6ff"/>
    <path id="Tracé_149" data-name="Tracé 149" d="M1176.035,991.881c1-2.363,8.273-7.711,8.273-7.711s1.264,8.952.258,11.315a4.653,4.653,0,0,1-8.554-3.6Z" transform="translate(-729.505 -748.874)" fill="#f0f6ff"/>
    <path id="Tracé_150" data-name="Tracé 150" d="M1182.7,712.759c1-2.36,8.272-7.709,8.272-7.709s1.264,8.952.259,11.312a4.64,4.64,0,1,1-8.552-3.6Z" transform="translate(-734.363 -541.909)" fill="#f0f6ff"/>
    <path id="Tracé_151" data-name="Tracé 151" d="M1647.538,715.209c1-2.36,8.272-7.709,8.272-7.709s1.264,8.952.259,11.315a4.653,4.653,0,0,1-8.554-3.606Z" transform="translate(-1079.118 -543.725)" fill="#f0f6ff"/>
    <path id="Tracé_152" data-name="Tracé 152" d="M845.229,1236.889c1-2.363,8.272-7.709,8.272-7.709s1.264,8.95.258,11.312a4.653,4.653,0,0,1-8.531-3.6Z" transform="translate(-484.261 -930.546)" fill="#f0f6ff"/>
    <path id="Tracé_153" data-name="Tracé 153" d="M809.075,1010.749c1-2.363,8.272-7.709,8.272-7.709s1.264,8.95.259,11.312a4.653,4.653,0,0,1-8.554-3.6Z" transform="translate(-457.408 -762.866)" fill="#f0f6ff"/>
    <path id="Tracé_154" data-name="Tracé 154" d="M876.6,1096.109c1-2.36,8.272-7.709,8.272-7.709s1.264,8.952.258,11.315a4.653,4.653,0,1,1-8.554-3.619Z" transform="translate(-507.297 -826.159)" fill="#f0f6ff"/>
    <path id="Tracé_155" data-name="Tracé 155" d="M808.331,1441.089c1-2.36,8.272-7.709,8.272-7.709s1.264,8.952.259,11.312a4.653,4.653,0,1,1-8.554-3.6Z" transform="translate(-456.664 -1081.958)" fill="#f0f6ff"/>
    <path id="Tracé_156" data-name="Tracé 156" d="M717.152,1221.349c1-2.363,8.285-7.709,8.285-7.709s1.264,8.949.259,11.312a4.653,4.653,0,0,1-8.554-3.6Z" transform="translate(-389.258 -919.024)" fill="#f0f6ff"/>
    <path id="Tracé_157" data-name="Tracé 157" d="M876.551,1305.769c1-2.36,8.272-7.709,8.272-7.709s1.264,8.953.258,11.312a4.653,4.653,0,1,1-8.554-3.6Z" transform="translate(-507.249 -981.62)" fill="#f0f6ff"/>
  </g>
</svg>
