<svg id="Close" xmlns="http://www.w3.org/2000/svg" width="20" height="20" viewBox="0 0 20 20">
  <path id="Tracé_21" data-name="Tracé 21" d="M210.97,242.7a.929.929,0,0,1-.693-.3l-6.515-6.515a.994.994,0,0,1,1.406-1.406L211.683,241a.98.98,0,0,1,0,1.406A1,1,0,0,1,210.97,242.7Zm-9.03-9.049a.929.929,0,0,1-.693-.3l-8.95-8.931a.994.994,0,0,1,1.406-1.406l8.95,8.95a.98.98,0,0,1,0,1.406A1.075,1.075,0,0,1,201.94,233.651Z" transform="translate(-192 -222.7)" fill="#fff"/>
  <path id="Tracé_22" data-name="Tracé 22" d="M192.99,242.08a.929.929,0,0,1-.693-.3.98.98,0,0,1,0-1.406l18-18a.994.994,0,0,1,1.406,1.406l-18,18A1.04,1.04,0,0,1,192.99,242.08Z" transform="translate(-192 -222.08)" fill="#fff"/>
</svg>
