<svg id="Groupe_9" data-name="Groupe 9" xmlns="http://www.w3.org/2000/svg" width="50" height="50" viewBox="0 0 50 50">
  <path id="Tracé_5" data-name="Tracé 5" d="M40.06,959.362a5.857,5.857,0,0,0-5.944,5.814V973.7c-3.484,4.637-5.722,7.591-8.211,10.883-2.306-2.972-5.183-6.713-8.508-11.083.425-2.683.9-5.384,1.263-7.649a.6.6,0,0,0-1.189-.182c-.367,2.307-.747,4.473-1.077,6.5-1.254-1.653-2.4-3.164-3.79-5.015a.594.594,0,1,0-.966.69c1.281,1.705,2.326,3.077,3.492,4.615-1.871-.3-3.8-.6-5.889-.945a.619.619,0,0,0-.728.474.609.609,0,0,0,.543.671c2.517.415,4.909.773,7.078,1.126,3.309,4.353,6.227,8.166,8.545,11.155H15.948c-1.664-1.556-3.249-3.1-5.183-5.069a.591.591,0,1,0-.855.818c1.6,1.634,2.946,2.956,4.31,4.251H8.443a.611.611,0,0,0-.539.636.617.617,0,0,0,.65.527h5.666c-1.364,1.292-2.71,2.6-4.31,4.233a.6.6,0,0,0,.012.824.632.632,0,0,0,.843-.006c1.927-1.966,3.507-3.5,5.164-5.051h8.824q-5.242,6.925-7.969,10.465c-2.287.38-4.989.712-7.728,1.163a.609.609,0,0,0-.543.671.619.619,0,0,0,.728.474c2.283-.376,4.493-.667,6.539-.981-1.386,1.781-2.826,3.723-4.087,5.233a.6.6,0,0,0,.007.829.631.631,0,0,0,.848-.012c1.39-1.694,2.682-3.357,3.994-5.069.293,1.872.594,3.822.929,5.923a.624.624,0,0,0,.687.491.613.613,0,0,0,.5-.672c-.4-2.51-.773-4.9-1.115-7.068,1.862-2.426,4.681-6.121,8.378-11.01,2.284,2.94,4.128,5.3,5.239,6.777a9.492,9.492,0,0,0-1.8,5.578,10.7,10.7,0,0,0,21.4,0A10.048,10.048,0,0,0,46,990.485V965.176a5.857,5.857,0,0,0-5.944-5.814Zm0,1.163a4.644,4.644,0,0,1,4.756,4.651v25.581a.59.59,0,0,0,.279.491,8.909,8.909,0,0,1,4.477,7.649,9.513,9.513,0,0,1-19.022,0,8.909,8.909,0,0,1,4.477-7.649.59.59,0,0,0,.279-.49c.012-8.547,0-17.048,0-25.581a4.644,4.644,0,0,1,4.756-4.651Zm10.589,7.558a.611.611,0,0,0-.539.636.617.617,0,0,0,.65.527H57.3a.582.582,0,1,0,0-1.163h-6.65Zm0,4.651a.611.611,0,0,0-.539.636.617.617,0,0,0,.65.527h2.972a.582.582,0,1,0,0-1.163Zm-16.533,2.943v9.266H27.131C29.272,982.109,31.26,979.477,34.116,975.677Zm16.533,2.289a.611.611,0,0,0-.539.636.617.617,0,0,0,.65.527H57.3a.582.582,0,1,0,0-1.163h-6.65Zm0,4.651a.611.611,0,0,0-.539.636.617.617,0,0,0,.65.527h2.972a.582.582,0,1,0,0-1.163H50.649Zm-10.663,2.889a.607.607,0,0,0-.52.6v6.977c0,.012,0,.024,0,.036a5.946,5.946,0,1,0,1.189,0c0-.012,0-.024,0-.036v-6.977a.616.616,0,0,0-.669-.6Zm-12.892.6h7.022v4.379a11.591,11.591,0,0,0-2.192,1.871c-1.084-1.433-2.763-3.59-4.83-6.25Zm23.555,1.163a.611.611,0,0,0-.539.636.617.617,0,0,0,.65.527H57.3a.582.582,0,1,0,0-1.163h-6.65ZM40.06,994.246A4.652,4.652,0,1,1,35.3,998.9,4.694,4.694,0,0,1,40.06,994.246Z" transform="translate(-7.902 -959.362)" fill="#193b6a"/>
</svg>
