<svg id="Groupe_10" data-name="Groupe 10" xmlns="http://www.w3.org/2000/svg" width="50" height="50" viewBox="0 0 50 50">
  <path id="Tracé_6" data-name="Tracé 6" d="M39.611,959.362a5.793,5.793,0,0,0-5.818,5.814v25.309a10.1,10.1,0,0,0-4.654,8.412,10.472,10.472,0,0,0,20.945,0,10.1,10.1,0,0,0-4.654-8.412V965.176a5.793,5.793,0,0,0-5.818-5.814Zm-10.581.581a.591.591,0,0,0-.418.309c-.164.334-.453.877-.709,1.435a4.512,4.512,0,0,0-.509,1.726q0,.009,0,.018a1.756,1.756,0,0,0,1.745,1.744,1.8,1.8,0,0,0,1.218-.454,1.72,1.72,0,0,0,.527-1.308,4.374,4.374,0,0,0-.509-1.708c-.257-.564-.543-1.116-.709-1.454a.6.6,0,0,0-.636-.309Zm10.581.581a4.593,4.593,0,0,1,4.654,4.651v25.581a.592.592,0,0,0,.273.49A8.944,8.944,0,0,1,48.92,998.9a9.309,9.309,0,0,1-18.617,0,8.944,8.944,0,0,1,4.382-7.649.592.592,0,0,0,.273-.49V965.176A4.593,4.593,0,0,1,39.611,960.525Zm-10.472,1.29c.065.131.121.23.182.363a4.441,4.441,0,0,1,.4,1.254.5.5,0,0,1-.145.436.639.639,0,0,1-.436.145c-.377,0-.582-.138-.582-.581a4.172,4.172,0,0,1,.4-1.272c.058-.127.12-.22.182-.345Zm-15.8,5.687a.607.607,0,0,0-.455.763,6.988,6.988,0,0,0,1.291,2.544,2.362,2.362,0,0,0,1.018.69,1.151,1.151,0,0,0,.709.018,2.023,2.023,0,0,0,.545-.418,1.476,1.476,0,0,0,.436-1.217,2.167,2.167,0,0,0-.727-1.054,8.391,8.391,0,0,0-2.545-1.308.584.584,0,0,0-.273-.018Zm26.2.563a.6.6,0,0,0-.509.6v24.4c0,.018,0,.037,0,.055a5.818,5.818,0,1,0,1.164,0c0-.018,0-.036,0-.055v-24.4a.608.608,0,0,0-.655-.6Zm10.436.018a.584.584,0,1,0,.109,1.163h6.4a.581.581,0,1,0,0-1.163H49.974Zm-35.289,1.254a5.336,5.336,0,0,1,.673.327,1.906,1.906,0,0,1,.369.439.17.17,0,0,1-.052.213.191.191,0,0,1-.274.019,4.488,4.488,0,0,1-.388-.326,4.635,4.635,0,0,1-.327-.672Zm15.127.472a.593.593,0,0,0-.145.018,15.175,15.175,0,0,0-4.836,29.015.586.586,0,1,0,.473-1.072,14.014,14.014,0,0,1,4.472-26.8.582.582,0,1,0,.036-1.163Zm20.163,2.925a.584.584,0,1,0,.109,1.163h2.909a.581.581,0,1,0,0-1.163H49.974Zm0,5.233a.584.584,0,1,0,.109,1.163h6.4a.581.581,0,1,0,0-1.163H49.974Zm-39.453,4.651a4.432,4.432,0,0,0-1.727.491c-.565.257-1.1.56-1.436.727a.613.613,0,0,0,0,1.036c.334.164.86.471,1.418.727a4.516,4.516,0,0,0,1.727.509h.018a1.756,1.756,0,0,0,1.745-1.744,1.784,1.784,0,0,0-.436-1.217,1.723,1.723,0,0,0-1.309-.527Zm39.453,0a.584.584,0,1,0,.109,1.163h2.909a.581.581,0,1,0,0-1.163H49.974Zm-39.453,1.163a.537.537,0,0,1,.455.145.641.641,0,0,1,.127.436c0,.37-.139.574-.564.581a3.427,3.427,0,0,1-1.273-.418c-.124-.056-.224-.1-.345-.164.131-.064.231-.121.364-.182a4.378,4.378,0,0,1,1.236-.4Zm39.453,3.488a.584.584,0,1,0,.109,1.163h6.4a.581.581,0,1,0,0-1.163H49.974Zm-10.363,6.977a4.651,4.651,0,1,1-4.654,4.651A4.643,4.643,0,0,1,39.611,994.246Zm-24.363,2.925a2.021,2.021,0,0,0-1.073.745,8.273,8.273,0,0,0-1.291,2.525.614.614,0,0,0,.727.745,9.11,9.11,0,0,0,2.527-1.308,2.06,2.06,0,0,0,.764-1,1.253,1.253,0,0,0-.436-1.254,1.279,1.279,0,0,0-1.218-.454Zm.4,1.272c.112.106.122.153.109.218s-.075.184-.291.309a3.93,3.93,0,0,1-.782.4,5.718,5.718,0,0,1,.364-.69,1.288,1.288,0,0,1,.406-.345c.106-.062.153.084.194.109Zm13.49,5.105a1.756,1.756,0,0,0-1.745,1.744,4.592,4.592,0,0,0,.509,1.744c.256.558.545,1.083.709,1.417a.615.615,0,0,0,1.055,0c.165-.334.454-.868.709-1.417a4.238,4.238,0,0,0,.491-1.69,1.813,1.813,0,0,0-.491-1.326,1.734,1.734,0,0,0-1.236-.472Zm0,1.163a.573.573,0,0,1,.418.145.629.629,0,0,1,.145.491,3.979,3.979,0,0,1-.382,1.2c-.058.125-.12.221-.182.345-.062-.125-.124-.218-.182-.345a4.212,4.212,0,0,1-.4-1.254c0-.007,0-.01,0-.018.007-.425.211-.563.582-.563Z" transform="translate(-7.073 -959.362)" fill="#193b6a"/>
</svg>
