<svg id="Home" xmlns="http://www.w3.org/2000/svg" width="27.422" height="26.29" viewBox="0 0 27.422 26.29">
  <path id="Tracé_9" data-name="Tracé 9" d="M113.411,119.658a.948.948,0,0,1-.707-.3l-10.468-10.468a2.134,2.134,0,0,0-3.011,0L88.778,119.355a1.015,1.015,0,0,1-1.435-1.435l10.468-10.468a4.171,4.171,0,0,1,5.88,0l10.468,10.468a1,1,0,0,1,0,1.435A1.108,1.108,0,0,1,113.411,119.658Z" transform="translate(-87.04 -106.24)" fill="#fff"/>
  <path id="Tracé_10" data-name="Tracé 10" d="M183.381,411.437H170.327a4.575,4.575,0,0,1-4.567-4.567V395.25a1.01,1.01,0,0,1,2.021,0V406.87a2.548,2.548,0,0,0,2.546,2.546h13.054a2.548,2.548,0,0,0,2.546-2.546V400.3a1.01,1.01,0,1,1,2.021,0v6.568A4.562,4.562,0,0,1,183.381,411.437Z" transform="translate(-163.274 -385.147)" fill="#fff"/>
</svg>
