<svg id="Groupe_11" data-name="Groupe 11" xmlns="http://www.w3.org/2000/svg" width="28.055" height="50" viewBox="0 0 28.055 50">
  <path id="Tracé_7" data-name="Tracé 7" d="M36.518,959.361a5.806,5.806,0,0,0-5.843,5.814v25.309A10.084,10.084,0,0,0,26,998.895a10.518,10.518,0,0,0,21.035,0,10.085,10.085,0,0,0-4.674-8.412V965.174a5.806,5.806,0,0,0-5.843-5.814Zm0,1.163a4.6,4.6,0,0,1,4.674,4.651v25.581a.592.592,0,0,0,.274.491,8.936,8.936,0,0,1,4.4,7.649,9.349,9.349,0,0,1-18.7,0,8.937,8.937,0,0,1,4.4-7.649.592.592,0,0,0,.274-.49V965.175a4.6,4.6,0,0,1,4.674-4.651Zm10.408,7.558a.584.584,0,1,0,.11,1.163h6.427a.581.581,0,1,0,0-1.163H46.926Zm0,4.651a.584.584,0,1,0,.11,1.163h2.922a.581.581,0,1,0,0-1.163H46.926Zm0,5.232a.584.584,0,1,0,.11,1.163h6.427a.581.581,0,1,0,0-1.163H46.926Zm0,4.651a.584.584,0,1,0,.11,1.163h2.922a.581.581,0,1,0,0-1.163H46.926Zm-10.481.563a.6.6,0,0,0-.511.6v9.3c0,.012,0,.024,0,.036a5.843,5.843,0,1,0,1.169,0c0-.012,0-.024,0-.036v-9.3A.609.609,0,0,0,36.445,983.18Zm10.481,4.088a.584.584,0,1,0,.11,1.163h6.427a.581.581,0,1,0,0-1.163H46.926Zm-10.408,6.977a4.651,4.651,0,1,1-4.674,4.651A4.653,4.653,0,0,1,36.518,994.245Z" transform="translate(-26 -959.36)" fill="#193b6a"/>
</svg>
