<svg xmlns="http://www.w3.org/2000/svg" width="26.808" height="26.809" viewBox="0 0 26.808 26.809">
  <g id="noun_Navigation_3179702" transform="translate(-46.75 -56.749)">
    <path id="Tracé_1184" data-name="Tracé 1184" d="M33.363,6.944A.662.662,0,0,0,32.6,6.82L7.117,19.56a.664.664,0,0,0-.1,1.124l3.824,2.868L6.807,32.624a.663.663,0,0,0,.876.876l9.072-4.032,2.868,3.824a.664.664,0,0,0,1.124-.1L33.488,7.71A.663.663,0,0,0,33.363,6.944ZM20.041,31.637,17.5,28.249a.663.663,0,0,0-.8-.208L8.721,31.587l3.546-7.979a.663.663,0,0,0-.208-.8L8.671,20.267,31.411,8.9Z" transform="translate(40 50)" fill="#ff8f15"/>
  </g>
</svg>
