<svg id="Refresh" xmlns="http://www.w3.org/2000/svg" width="22.114" height="20" viewBox="0 0 22.114 20">
  <path id="Tracé_20" data-name="Tracé 20" d="M89.982,141.094h-.035a.885.885,0,0,1-.833-.72l-.922-4.933a.883.883,0,0,1,1.737-.316l.39,2.089a10.449,10.449,0,0,1,5-4.2,10.647,10.647,0,0,1,13.01,4.231.88.88,0,0,1-.3,1.211.9.9,0,0,1-1.223-.3,8.855,8.855,0,0,0-10.812-3.511,8.675,8.675,0,0,0-5.158,5.793.872.872,0,0,1-.851.65Zm9.2,11.147a10.644,10.644,0,0,1-9.057-5,.88.88,0,0,1,.3-1.211.9.9,0,0,1,1.223.3,8.871,8.871,0,0,0,10.83,3.511,8.665,8.665,0,0,0,5.158-5.811.874.874,0,0,1,.886-.65.885.885,0,0,1,.833.72l.922,4.933a.883.883,0,0,1-1.737.316l-.39-2.089a10.488,10.488,0,0,1-4.981,4.2,10.689,10.689,0,0,1-3.988.79Z" transform="translate(-88.177 -132.242)" fill="#fff"/>
</svg>
