<svg xmlns="http://www.w3.org/2000/svg" width="35.204" height="36.987" viewBox="0 0 35.204 36.987">
  <g id="Search" transform="translate(0 0)">
    <path id="Tracé_4" data-name="Tracé 4" d="M132.3,127.8a1.428,1.428,0,0,1-1.055-.456L121.32,116.65a1.391,1.391,0,0,1-.371-1.027,1.623,1.623,0,0,1,.456-1A12,12,0,0,0,113.65,93.7a12.007,12.007,0,1,0-.086,24.009h.028a1.424,1.424,0,0,1,1.426,1.4,1.449,1.449,0,0,1-1.4,1.454A14.879,14.879,0,1,1,124.8,115.2c-.143.171-.285.342-.428.485l8.982,9.7a1.414,1.414,0,0,1-.086,2.025A1.292,1.292,0,0,1,132.3,127.8Z" transform="translate(-98.536 -90.812)" fill="#ff8f15"/>
  </g>
</svg>
