<svg id="noun_History_1935411" xmlns="http://www.w3.org/2000/svg" width="30" height="27.055" viewBox="0 0 30 27.055">
  <path id="Tracé_26" data-name="Tracé 26" d="M107.719,148.648a13.527,13.527,0,1,1,.728-27.035,1.14,1.14,0,1,1-.137,2.276,11.257,11.257,0,0,0-8.147,19.593,11.253,11.253,0,0,0,18.8-8.625,1.143,1.143,0,0,1,2.162-.546l2.936,5.78a1.135,1.135,0,1,1-2.025,1.024l-1.229-2.435a13.484,13.484,0,0,1-4.6,7.009,13.708,13.708,0,0,1-8.488,2.958Z" transform="translate(-94.178 -121.593)" fill="#fff"/>
  <path id="Tracé_27" data-name="Tracé 27" d="M464,271.646a1.141,1.141,0,0,1-1.152-1.152v-7.88a1.152,1.152,0,0,1,2.3,0v7.88A1.155,1.155,0,0,1,464,271.646Z" transform="translate(-450.571 -256.834)" fill="#fff"/>
  <path id="Tracé_28" data-name="Tracé 28" d="M471.88,497.238H464a1.152,1.152,0,1,1,0-2.3h7.88a1.141,1.141,0,0,1,1.152,1.152A1.155,1.155,0,0,1,471.88,497.238Z" transform="translate(-450.636 -482.503)" fill="#fff"/>
</svg>
