<svg xmlns="http://www.w3.org/2000/svg" xmlns:xlink="http://www.w3.org/1999/xlink" width="387" height="124.774" viewBox="0 0 387 124.774">
  <defs>
    <linearGradient id="linear-gradient" y1="0.5" x2="1" y2="0.5" gradientUnits="objectBoundingBox">
      <stop offset="0" stop-color="#2699fb"/>
      <stop offset="1" stop-color="#a51363"/>
    </linearGradient>
    <filter id="Union_1" x="0" y="0" width="387" height="124.774" filterUnits="userSpaceOnUse">
      <feOffset dy="4" input="SourceAlpha"/>
      <feGaussianBlur stdDeviation="2" result="blur"/>
      <feFlood flood-opacity="0.149"/>
      <feComposite operator="in" in2="blur"/>
      <feComposite in="SourceGraphic"/>
    </filter>
  </defs>
  <g transform="matrix(1, 0, 0, 1, 0, 0)" filter="url(#Union_1)">
    <path id="Union_1-2" data-name="Union 1" d="M205.083,99.011c-43.456-3.321-76.261,13.763-127.532,13.763S0,99.011,0,99.011V.228A27.093,27.093,0,0,0,3.631,2.511,72.44,72.44,0,0,0,15.463,7.533,130.258,130.258,0,0,0,36.91,12.555a213.957,213.957,0,0,0,32.47,2.282,237.069,237.069,0,0,0,31.228-1.815,198.718,198.718,0,0,0,21.971-4.244c6.647-1.618,13.049-3.341,20.506-4.866A210.654,210.654,0,0,1,169.916.228c8.378-.595,18.535.021,29.566,1.279s22.936,3.159,34.809,5.133,23.715,4.024,34.621,5.579,20.875,2.617,29,2.617a296.556,296.556,0,0,0,39.1-2.282A134.228,134.228,0,0,0,360.5,7.533a53.048,53.048,0,0,0,11.47-5.022A14.7,14.7,0,0,0,375,.228V99.011s-12.24,13.763-76.362,13.763C266.128,112.774,250.115,102.452,205.083,99.011Z" transform="translate(6 2)" fill="url(#linear-gradient)"/>
  </g>
</svg>
