<svg xmlns="http://www.w3.org/2000/svg" xmlns:xlink="http://www.w3.org/1999/xlink" width="387" height="286.596" viewBox="0 0 387 286.596">
  <defs>
    <linearGradient id="linear-gradient" y1="0.5" x2="1" y2="0.5" gradientUnits="objectBoundingBox">
      <stop offset="0" stop-color="#2699fb"/>
      <stop offset="1" stop-color="#a51363"/>
    </linearGradient>
    <filter id="Union_3" x="0" y="0" width="387" height="286.596" filterUnits="userSpaceOnUse">
      <feOffset dy="4" input="SourceAlpha"/>
      <feGaussianBlur stdDeviation="2" result="blur"/>
      <feFlood flood-opacity="0.149"/>
      <feComposite operator="in" in2="blur"/>
      <feComposite in="SourceGraphic"/>
    </filter>
  </defs>
  <g transform="matrix(1, 0, 0, 1, 0, 0)" filter="url(#Union_3)">
    <path id="Union_3-2" data-name="Union 3" d="M0,274.6V.392a31.252,31.252,0,0,0,3.631,3.92,62.929,62.929,0,0,0,11.833,8.625A88.181,88.181,0,0,0,36.91,21.56a126.823,126.823,0,0,0,32.47,3.921,139.777,139.777,0,0,0,31.228-3.119,128.4,128.4,0,0,0,21.971-7.288c6.647-2.78,13.049-5.738,20.506-8.357A129.8,129.8,0,0,1,169.917.392c8.378-1.021,18.535.036,29.566,2.2s22.935,5.425,34.809,8.816,23.715,6.91,34.621,9.582,20.875,4.494,29,4.494c16.031,0,28.864-1.568,39.1-3.921A89,89,0,0,0,360.5,12.937a47.174,47.174,0,0,0,11.47-8.625A19.785,19.785,0,0,0,375,.392V274.6Z" transform="translate(6 2)" fill="url(#linear-gradient)"/>
  </g>
</svg>
